<svg width="229" height="39" viewBox="0 0 229 39" fill="none" xmlns="http://www.w3.org/2000/svg">
<path fill-rule="evenodd" clip-rule="evenodd" d="M95.8965 15.7232H90.4505V11.8899H95.8965V15.7232ZM228.993 15.7232H223.559V11.8899H228.993V15.7232ZM185.262 11.8899C185.86 12.3316 186.348 12.8491 186.727 13.4424C187.17 14.1308 187.462 14.8911 187.602 15.7232H181.286C181.228 15.6644 181.166 15.6073 181.102 15.5518C180.437 14.9723 179.491 14.6825 178.264 14.6825H174.058V15.7232H168.522V11.8899H185.262ZM109.971 11.8899H115.787C115.697 12.4681 115.418 12.9771 114.95 13.4169C114.379 13.9538 113.689 14.2223 112.879 14.2223C112.07 14.2223 111.375 13.9538 110.796 13.4169C110.335 12.9771 110.06 12.4681 109.971 11.8899ZM32.3166 11.8899C32.9144 12.3316 33.4027 12.8491 33.7817 13.4424C34.2251 14.1308 34.5167 14.8911 34.6566 15.7232H28.3407C28.2825 15.6644 28.2211 15.6073 28.1567 15.5518C27.4919 14.9723 26.5459 14.6825 25.3186 14.6825H21.1127V15.7232H15.5771V11.8899H32.3166Z" fill="white"/>
<path fill-rule="evenodd" clip-rule="evenodd" d="M43.4617 27.2232H38.0157V23.3899H43.8742C43.5992 23.9481 43.4617 24.5783 43.4617 25.2805V27.2232ZM87.4854 27.2232H71.155C71.4428 26.8958 71.7726 26.6105 72.1444 26.3672C72.8348 25.9155 73.6189 25.5746 74.4967 25.3444C75.3831 25.1143 76.3121 24.9524 77.2837 24.8586C78.4257 24.7393 79.3462 24.6285 80.045 24.5263C80.7439 24.4155 81.251 24.2535 81.5663 24.0405C81.8024 23.8809 81.9501 23.6641 82.0095 23.3899H87.4854V27.2232ZM115.59 27.2232H110.144V23.3899H115.59V27.2232ZM124.138 27.2232H118.692V23.3899H124.395C124.23 23.8735 124.144 24.4228 124.138 25.0376V27.2232ZM136.794 27.2232H131.348V24.8586C131.352 24.315 131.292 23.8254 131.166 23.3899L136.784 23.3899C136.791 23.553 136.794 23.7187 136.794 23.8871V27.2232ZM207.618 27.2232H191.288C191.576 26.8958 191.906 26.6105 192.278 26.3672C192.968 25.9155 193.752 25.5746 194.63 25.3444C195.516 25.1143 196.445 24.9524 197.417 24.8586C198.559 24.7393 199.479 24.6285 200.178 24.5263C200.877 24.4155 201.384 24.2535 201.699 24.0405C201.936 23.8809 202.083 23.6641 202.143 23.3899H207.618V27.2232ZM228.993 23.3899V27.2232H223.656C223.668 27.0115 223.675 26.7943 223.675 26.5717C223.675 25.4041 223.513 24.3899 223.189 23.5291C223.171 23.4821 223.153 23.4357 223.134 23.3899H228.993ZM210.15 23.3899C209.953 24.3561 209.855 25.4252 209.855 26.5973C209.855 26.8091 209.858 27.0178 209.865 27.2232H215.434C215.422 27.0111 215.416 26.7939 215.416 26.5717C215.416 25.4382 215.574 24.441 215.889 23.5802C215.913 23.5157 215.937 23.4523 215.962 23.3899H210.15ZM185.299 23.3899C185.457 23.4671 185.614 23.5519 185.768 23.6442C186.646 24.164 187.358 24.8927 187.903 25.8302C188.153 26.2568 188.346 26.7212 188.482 27.2232H182.756C182.681 27.0363 182.59 26.8575 182.483 26.6868C182.133 26.1328 181.635 25.6981 180.987 25.3828C180.348 25.0674 179.585 24.9098 178.698 24.9098H174.058V27.2232H168.522V23.3899H185.299ZM158.274 23.3899V27.2232H152.895C152.91 26.9921 152.918 26.7537 152.918 26.5078C152.918 25.3572 152.756 24.3601 152.432 23.5163C152.416 23.4737 152.399 23.4316 152.382 23.3899H158.274ZM139.386 23.3899C139.194 24.3406 139.098 25.3885 139.098 26.5334C139.098 26.7677 139.102 26.9976 139.11 27.2232H144.681C144.667 26.992 144.659 26.7535 144.659 26.5078C144.659 25.3913 144.817 24.4069 145.132 23.5547C145.153 23.4989 145.174 23.444 145.196 23.3899H139.386ZM96.8798 23.3899H103.05L101.449 25.2594L102.799 27.2232H98.4645H97.5242H95.8965H95.392H90.4505V23.3899H95.8965V24.2067H96.1906L96.8798 23.3899ZM68.2161 23.3899C68.4278 24.3202 68.5337 25.3467 68.5337 26.4694V27.2232H55.1615H51.9527H49.7893C49.7827 27.0382 49.7794 26.8509 49.7794 26.6612C49.7794 25.4873 49.9119 24.3968 50.1767 23.3899H55.3856C55.2593 23.7679 55.1863 24.168 55.1667 24.5902H63.4073C63.4073 24.1636 63.3568 23.7635 63.2559 23.3899H68.2161ZM32.354 23.3899C32.5123 23.4671 32.6686 23.5519 32.8229 23.6442C33.7007 24.164 34.4124 24.8927 34.9578 25.8302C35.2083 26.2568 35.4013 26.7212 35.5367 27.2232H29.8107C29.7362 27.0363 29.6451 26.8575 29.5374 26.6868C29.1879 26.1328 28.6894 25.6981 28.0416 25.3828C27.4024 25.0674 26.6396 24.9098 25.7533 24.9098H21.1127V27.2232H15.5771V23.3899H32.354Z" fill="white"/>
<path fill-rule="evenodd" clip-rule="evenodd" d="M15.5771 34.8899V36.3899H26.7632C28.7235 36.3899 30.3726 36.0746 31.7107 35.4439C32.0682 35.2753 32.4024 35.0907 32.7131 34.8899L15.5771 34.8899ZM38.0157 34.8899V36.3899H43.4617V34.8899H38.0157ZM53.3165 34.8899C53.6268 35.1284 53.9563 35.3471 54.305 35.5461C55.7624 36.3643 57.501 36.7734 59.5209 36.7734C61.1402 36.7734 62.5678 36.5263 63.8036 36.0319C64.5643 35.7245 65.239 35.3438 65.8278 34.8899L53.3165 34.8899ZM71.338 34.8899C71.8201 35.396 72.4 35.8022 73.0777 36.1086C74.0578 36.5433 75.1743 36.7606 76.4271 36.7606C77.3987 36.7606 78.2552 36.6328 78.9967 36.3771C79.7382 36.1129 80.3731 35.7507 80.9016 35.2905C81.046 35.1623 81.1824 35.0288 81.3109 34.8899L71.338 34.8899ZM82.3206 34.8899V36.3899H87.4854V34.8899H82.3206ZM90.4505 34.8899V36.3899H95.8965V34.8899H90.4505ZM101.71 34.8899L102.723 36.3899H109.102L108.071 34.8899H101.71ZM110.144 34.8899V36.3899H115.59V34.8899H110.144ZM118.692 34.8899V36.3899H124.138V34.8899H118.692ZM131.348 34.8899V36.3899H136.794V34.8899H131.348ZM142.716 34.8899C142.82 34.9582 142.927 35.0235 143.036 35.0859C144.246 35.7677 145.588 36.1086 147.063 36.1086C148.102 36.1086 148.997 35.9552 149.747 35.6484C150.262 35.4378 150.713 35.1849 151.099 34.8899L142.716 34.8899ZM152.892 34.8899V36.5049C152.892 37.4257 152.711 38.1651 152.348 38.7232H158.012C158.187 38.0676 158.274 37.3538 158.274 36.5817V34.8899H152.892ZM168.522 34.8899V36.3899H179.708C181.669 36.3899 183.318 36.0746 184.656 35.4439C185.013 35.2753 185.348 35.0907 185.658 34.8899L168.522 34.8899ZM191.471 34.8899C191.953 35.396 192.533 35.8022 193.211 36.1086C194.191 36.5433 195.307 36.7606 196.56 36.7606C197.532 36.7606 198.388 36.6328 199.13 36.3771C199.871 36.1129 200.506 35.7507 201.035 35.2905C201.179 35.1623 201.316 35.0288 201.444 34.8899L191.471 34.8899ZM202.454 34.8899V36.3899H207.618V34.8899H202.454ZM212.89 34.8899C213.166 35.1368 213.458 35.3598 213.767 35.5589C214.977 36.326 216.328 36.7095 217.819 36.7095C218.876 36.7095 219.771 36.5348 220.504 36.1853C221.236 35.8406 221.83 35.4088 222.288 34.8899L212.89 34.8899ZM223.623 34.8899V36.3899H228.993V34.8899H223.623ZM139.706 38.7232H145.132C144.964 38.4968 144.832 38.2602 144.736 38.0135L139.699 38.691C139.701 38.7018 139.704 38.7125 139.706 38.7232Z" fill="white"/>
<path fill-rule="evenodd" clip-rule="evenodd" d="M6.70166 7.40054V28.0672H17.8877C19.848 28.0672 21.4971 27.7519 22.8352 27.1212C22.927 27.0779 23.0173 27.0335 23.1061 26.9881C23.0552 26.885 22.999 26.7845 22.9373 26.6867C22.5878 26.1327 22.0893 25.698 21.4415 25.3827C20.8023 25.0673 20.0396 24.9097 19.1532 24.9097H14.5126V27.2231H8.97705V23.3898H12.2372V16.5871H16.8778C17.7642 16.5871 18.5269 16.7448 19.1661 17.0601C19.8139 17.3754 20.3125 17.8101 20.6619 18.3641C21.0113 18.9181 21.186 19.5573 21.186 20.2817C21.186 21.2703 20.8323 22.0629 20.125 22.6595C19.7111 23.0036 19.1542 23.247 18.4544 23.3898H25.7539C25.9122 23.467 26.0685 23.5518 26.2228 23.644C26.2552 23.6632 26.2874 23.6827 26.3194 23.7025C26.7068 22.8292 26.9005 21.8721 26.9005 20.8314C26.9005 19.5445 26.6278 18.4365 26.0823 17.5075C25.5369 16.57 24.8252 15.8414 23.9474 15.3215C23.0781 14.8016 22.1448 14.5203 21.1477 14.4777V14.222C22.0596 14.0175 22.8693 13.6723 23.5767 13.1865C24.2926 12.6922 24.8551 12.0615 25.2642 11.2945C25.6733 10.5189 25.8778 9.61976 25.8778 8.59704C25.8778 8.18293 25.8456 7.7841 25.7811 7.40054H19.4652C20.0158 7.95634 20.2911 8.66199 20.2911 9.51749C20.2911 10.2078 20.1164 10.8002 19.767 11.2945C19.4261 11.7888 18.9573 12.1723 18.3608 12.445C17.7727 12.7093 17.0994 12.8414 16.3409 12.8414H12.2372V7.40054H6.70166ZM6.70166 3.56721H23.4411C23.0172 3.25396 22.5382 2.97886 22.0042 2.74192C20.7173 2.1709 19.1108 1.88539 17.1846 1.88539H6.70166V3.56721ZM29.1402 8.43084V28.0672H34.5862V27.2231H31.4156V23.3898H34.5862V16.9578C34.5862 16.1567 34.7652 15.4493 35.1231 14.8357C35.4896 14.222 35.9839 13.7448 36.6061 13.4039C37.2368 13.0544 37.9527 12.8797 38.7538 12.8797C39.1288 12.8797 39.5422 12.9095 39.9939 12.9692C40.4456 13.0289 40.7993 13.097 41.0549 13.1737V8.34135C40.8163 8.2817 40.5393 8.23482 40.224 8.20073C39.9086 8.16664 39.6146 8.14959 39.3419 8.14959C38.2424 8.14959 37.2709 8.46493 36.4271 9.09562C35.5834 9.71777 34.9825 10.6382 34.6245 11.857H34.42V8.43084H29.1402ZM45.4295 27.2235C46.8869 28.0416 48.6255 28.4507 50.6454 28.4507C52.2648 28.4507 53.6923 28.2036 54.9281 27.7093C55.2884 27.5636 55.6294 27.4016 55.9512 27.2231H48.5615H45.4289L45.4295 27.2235ZM61.616 23.3898C61.7916 24.1611 61.8943 24.9987 61.9243 25.9024C62.4905 26.7274 63.2498 27.3553 64.2022 27.786C65.1823 28.2206 66.2988 28.4379 67.5516 28.4379C68.5232 28.4379 69.3798 28.3101 70.1212 28.0544C70.7197 27.8412 71.2488 27.5641 71.7085 27.2231H64.5549C64.8427 26.8957 65.1725 26.6104 65.5443 26.3671C66.2347 25.9154 67.0188 25.5744 67.8966 25.3443C68.783 25.1142 69.712 24.9523 70.6836 24.8585C71.8256 24.7392 72.7461 24.6284 73.4449 24.5261C74.1438 24.4154 74.6509 24.2534 74.9662 24.0404C75.2023 23.8808 75.35 23.664 75.4094 23.3898H78.6099V14.8229C78.6099 13.6553 78.384 12.6539 77.9323 11.8186C77.4806 10.9749 76.8627 10.2845 76.0786 9.7476C75.3031 9.21067 74.4124 8.81437 73.4067 8.55868C72.4096 8.303 71.3656 8.17516 70.2746 8.17516C68.7065 8.17516 67.3258 8.4138 66.1326 8.89107C64.9479 9.35982 63.9806 10.0331 63.2306 10.911C62.4806 11.7803 61.9778 12.8115 61.7221 14.0047L66.759 14.4138C66.9465 13.7661 67.33 13.2291 67.9096 12.803C68.4891 12.3683 69.269 12.151 70.2491 12.151C71.1781 12.151 71.894 12.3726 72.3968 12.8158C72.9082 13.259 73.1638 13.8854 73.1638 14.695V14.7718C73.1638 15.1894 73.0062 15.5047 72.6908 15.7178C72.3755 15.9308 71.8684 16.0928 71.1695 16.2036C70.4707 16.3058 69.5502 16.4166 68.4082 16.536C67.4366 16.6297 66.5076 16.7916 65.6212 17.0218C64.7434 17.2519 63.9593 17.5928 63.269 18.0445C62.5786 18.4962 62.0332 19.0928 61.6326 19.8343C61.232 20.5757 61.0317 21.4919 61.0317 22.5828C61.0317 22.8617 61.0448 23.1307 61.0708 23.3898H61.616ZM73.4451 28.0672V27.2231H78.6099V28.0672H73.4451ZM56.6558 23.3898H59.2771C59.3854 23.0851 59.4741 22.7693 59.5432 22.4422L54.5062 22.1098C54.3187 22.6041 54.046 23.0218 53.688 23.3627C53.3301 23.7036 52.8997 23.9593 52.3969 24.1297C51.894 24.3002 51.34 24.3854 50.7349 24.3854C49.9435 24.3854 49.2452 24.241 48.64 23.9521C48.6012 24.1589 48.5768 24.3715 48.5666 24.5901H56.8072C56.8072 24.1635 56.7567 23.7634 56.6558 23.3898ZM42.0801 23.7206C42.4062 24.348 42.7898 24.9164 43.2308 25.4258C43.2918 24.7129 43.4071 24.0343 43.5766 23.3898H47.7747C47.3888 23.059 47.0716 22.6536 46.823 22.1737C46.465 21.4664 46.2861 20.6269 46.2861 19.6553V19.6425H59.6582V18.1468C59.6582 16.4763 59.4238 15.0189 58.9551 13.7746C58.4863 12.5218 57.8301 11.482 56.9863 10.6553C56.1511 9.82857 55.171 9.21067 54.046 8.80158C52.9295 8.38397 51.7236 8.17516 50.4281 8.17516C48.502 8.17516 46.823 8.6013 45.3912 9.45357C43.9679 10.3058 42.8642 11.4948 42.0801 13.0203C41.296 14.5459 40.904 16.3186 40.904 18.3385C40.904 20.4095 41.296 22.2036 42.0801 23.7206ZM46.2912 16.2675C46.324 15.5624 46.5056 14.9189 46.8358 14.3371C47.1937 13.6979 47.688 13.1908 48.3187 12.8158C48.9579 12.4323 49.6909 12.2405 50.5176 12.2405C51.3102 12.2405 52.0048 12.4152 52.6014 12.7646C53.2065 13.1056 53.6795 13.5786 54.0204 14.1837C54.3613 14.7888 54.5318 15.4834 54.5318 16.2675H46.2912ZM71.2335 24.2064C70.6198 24.5218 69.9124 24.6794 69.1113 24.6794C68.2761 24.6794 67.5857 24.4877 67.0403 24.1041C66.5033 23.7121 66.2349 23.1453 66.2349 22.4039C66.2349 21.8925 66.367 21.4664 66.6312 21.1254C66.8954 20.776 67.2661 20.499 67.7434 20.2945C68.2207 20.0899 68.7789 19.9408 69.4181 19.847C69.7164 19.8044 70.0488 19.7575 70.4153 19.7064C70.7817 19.6468 71.1482 19.5828 71.5147 19.5147C71.8812 19.4379 72.2093 19.357 72.4991 19.2718C72.7974 19.178 73.0317 19.0757 73.2022 18.9649V21.0487C73.2022 21.7391 73.0275 22.357 72.6781 22.9024C72.3286 23.4479 71.8471 23.8825 71.2335 24.2064ZM87.021 21.8327V23.3898H83.8504V27.2231H87.021V28.0672H81.575V7.40054H87.021V15.884H87.3151L93.6048 8.43084H99.8563L92.5734 16.9367L100.227 28.0672H93.8477L93.2774 27.2231H96.1991L94.8488 25.2593L96.4495 23.3898H90.6875L88.4969 20.1475L87.021 21.8327ZM87.021 3.56721V1.88539H81.575V3.56721H87.021ZM101.268 8.43084V28.0672H106.714V27.2231H103.544V23.3898H106.714V8.43084H101.268ZM106.912 3.56721C106.933 3.42821 106.944 3.28522 106.944 3.13823C106.944 2.38823 106.655 1.74476 106.075 1.20783C105.504 0.662376 104.814 0.389648 104.004 0.389648C103.194 0.389648 102.5 0.662376 101.92 1.20783C101.349 1.74476 101.064 2.38823 101.064 3.13823C101.064 3.28522 101.074 3.42821 101.096 3.56721H106.912ZM115.263 28.0672V27.2231H112.092V23.3898H115.263V16.7149C115.271 15.8712 115.429 15.151 115.736 14.5544C116.051 13.9493 116.486 13.4891 117.04 13.1737C117.602 12.8584 118.25 12.7007 118.983 12.7007C120.074 12.7007 120.93 13.0416 121.553 13.7235C122.175 14.3968 122.482 15.3343 122.473 16.536V28.0672H127.919V27.2231H124.748V24.8585C124.752 24.3149 124.692 23.8253 124.566 23.3898H127.919V15.5644C127.919 14.0388 127.638 12.7263 127.075 11.6269C126.513 10.5189 125.724 9.66664 124.71 9.07005C123.696 8.47346 122.507 8.17516 121.143 8.17516C119.686 8.17516 118.446 8.51181 117.423 9.1851C116.401 9.84988 115.672 10.7533 115.237 11.8953H115.007V8.43084H109.817V28.0672H115.263ZM139.314 35.8337C139.473 35.8378 139.634 35.8399 139.798 35.8399C140.944 35.8399 142.009 35.7333 142.992 35.52V34.8898H145.003C146.341 34.3289 147.397 33.5164 148.171 32.4522C148.99 31.3272 149.399 29.9294 149.399 28.259V27.2231H146.295C146.31 26.992 146.318 26.7536 146.318 26.5077C146.318 25.3571 146.156 24.36 145.832 23.5162L145.817 23.4775C145.805 23.448 145.794 23.4188 145.782 23.3898H149.399V8.43084H143.991V11.7291H143.786C143.539 11.2007 143.186 10.6638 142.725 10.1183C142.274 9.56437 141.677 9.10414 140.936 8.73766C140.194 8.36266 139.274 8.17516 138.174 8.17516C136.734 8.17516 135.409 8.5459 134.198 9.28738C132.997 10.0289 132.034 11.1453 131.309 12.6368C130.585 14.1283 130.223 15.9862 130.223 18.2107C130.223 20.384 130.576 22.1823 131.284 23.6056C131.639 24.3075 132.054 24.9202 132.529 25.4439C132.571 24.7151 132.657 24.0304 132.786 23.3898H138.287C138.06 23.293 137.848 23.1731 137.65 23.0303C137.045 22.5786 136.581 21.9436 136.257 21.1254C135.941 20.2987 135.784 19.3186 135.784 18.1851C135.784 17.0686 135.941 16.0843 136.257 15.232C136.572 14.3797 137.036 13.7149 137.65 13.2377C138.264 12.7519 139.018 12.509 139.913 12.509C140.791 12.509 141.536 12.7433 142.15 13.2121C142.764 13.6808 143.233 14.3414 143.556 15.1936C143.88 16.0374 144.042 17.0345 144.042 18.1851C144.042 19.3357 143.876 20.3243 143.544 21.151C143.22 21.9692 142.751 22.5999 142.137 23.0431C141.532 23.4777 140.791 23.695 139.913 23.695C139.417 23.695 138.965 23.6271 138.556 23.4913C138.548 23.5123 138.54 23.5333 138.532 23.5546C138.217 24.4068 138.059 25.3912 138.059 26.5077C138.059 26.7534 138.066 26.9918 138.081 27.2231H135.124C136.072 27.5983 137.093 27.786 138.187 27.786C139.227 27.786 140.122 27.6325 140.872 27.3257C141.622 27.0189 142.235 26.6226 142.713 26.1368C143.19 25.651 143.548 25.1354 143.786 24.5899H144.017V28.1823C144.017 29.5289 143.629 30.4877 142.853 31.0587C142.086 31.6382 141.11 31.928 139.926 31.928C139.133 31.928 138.46 31.8215 137.906 31.6084C137.36 31.4039 136.921 31.1311 136.589 30.7902C136.257 30.4493 136.014 30.0828 135.86 29.6908L130.823 30.3683C131.045 31.3996 131.527 32.3286 132.268 33.1553C132.901 33.8606 133.719 34.4388 134.724 34.8898H141.199C140.813 35.1848 140.362 35.4377 139.847 35.6483C139.677 35.718 139.499 35.7798 139.314 35.8337ZM159.647 7.40054V28.0672H170.833C172.793 28.0672 174.442 27.7519 175.78 27.1212C175.872 27.0779 175.962 27.0335 176.051 26.9881C176 26.885 175.944 26.7845 175.882 26.6867C175.533 26.1327 175.034 25.698 174.387 25.3827C173.747 25.0673 172.985 24.9097 172.098 24.9097H167.458V27.2231H161.922V23.3898H165.182V16.5871H169.823C170.709 16.5871 171.472 16.7448 172.111 17.0601C172.759 17.3754 173.258 17.8101 173.607 18.3641C173.956 18.9181 174.131 19.5573 174.131 20.2817C174.131 21.2703 173.777 22.0629 173.07 22.6595C172.656 23.0036 172.099 23.247 171.4 23.3898H178.699C178.857 23.467 179.014 23.5518 179.168 23.644C179.2 23.6632 179.233 23.6827 179.265 23.7025C179.652 22.8292 179.846 21.8721 179.846 20.8314C179.846 19.5445 179.573 18.4365 179.027 17.5075C178.482 16.57 177.77 15.8414 176.893 15.3215C176.023 14.8016 175.09 14.5203 174.093 14.4777V14.222C175.005 14.0175 175.814 13.6723 176.522 13.1865C177.238 12.6922 177.8 12.0615 178.209 11.2945C178.618 10.5189 178.823 9.61976 178.823 8.59704C178.823 8.18293 178.791 7.7841 178.726 7.40054H172.41L172.41 7.40045C172.961 7.95627 173.236 8.66195 173.236 9.51749C173.236 10.2078 173.062 10.8002 172.712 11.2945C172.371 11.7888 171.902 12.1723 171.306 12.445C170.718 12.7093 170.045 12.8414 169.286 12.8414H165.182V7.40054H159.647ZM159.647 3.56721H176.386C175.962 3.25395 175.483 2.97887 174.949 2.74192C173.662 2.1709 172.056 1.88539 170.13 1.88539H159.647V3.56721ZM184.335 27.786C185.315 28.2206 186.432 28.4379 187.685 28.4379C188.656 28.4379 189.513 28.3101 190.254 28.0544C190.853 27.8412 191.382 27.5641 191.842 27.2231H184.688C184.976 26.8957 185.306 26.6104 185.677 26.3671C186.368 25.9154 187.152 25.5744 188.03 25.3443C188.916 25.1142 189.845 24.9523 190.817 24.8585C191.959 24.7392 192.879 24.6284 193.578 24.5261C194.277 24.4154 194.784 24.2534 195.099 24.0404C195.335 23.8808 195.483 23.664 195.542 23.3898H198.743V14.8229C198.743 13.6553 198.517 12.6539 198.065 11.8186C197.614 10.9749 196.996 10.2845 196.212 9.7476C195.436 9.21067 194.546 8.81437 193.54 8.55868C192.543 8.303 191.499 8.17516 190.408 8.17516C188.84 8.17516 187.459 8.4138 186.266 8.89107C185.081 9.35982 184.114 10.0331 183.364 10.911C182.614 11.7803 182.111 12.8115 181.855 14.0047L186.892 14.4138C187.08 13.7661 187.463 13.2291 188.043 12.803C188.622 12.3683 189.402 12.151 190.382 12.151C191.311 12.151 192.027 12.3726 192.53 12.8158C193.041 13.259 193.297 13.8854 193.297 14.695V14.7718C193.297 15.1894 193.139 15.5047 192.824 15.7178C192.509 15.9308 192.002 16.0928 191.303 16.2036C190.604 16.3058 189.683 16.4166 188.541 16.536C187.57 16.6297 186.641 16.7916 185.754 17.0218C184.877 17.2519 184.092 17.5928 183.402 18.0445C182.712 18.4962 182.166 19.0928 181.766 19.8343C181.365 20.5757 181.165 21.4919 181.165 22.5828C181.165 23.8783 181.446 24.9607 182.009 25.83C182.58 26.6908 183.355 27.3428 184.335 27.786ZM193.578 28.0672V27.2231H198.743V28.0672H193.578ZM191.367 24.2064C190.753 24.5218 190.046 24.6794 189.244 24.6794C188.409 24.6794 187.719 24.4877 187.173 24.1041C186.636 23.7121 186.368 23.1453 186.368 22.4039C186.368 21.8925 186.5 21.4664 186.764 21.1254C187.028 20.776 187.399 20.499 187.877 20.2945C188.354 20.0899 188.912 19.9408 189.551 19.847C189.85 19.8044 190.182 19.7575 190.548 19.7064C190.915 19.6468 191.281 19.5828 191.648 19.5147C192.014 19.4379 192.342 19.357 192.632 19.2718C192.93 19.178 193.165 19.0757 193.335 18.9649V21.0487C193.335 21.7391 193.161 22.357 192.811 22.9024C192.462 23.4479 191.98 23.8825 191.367 24.2064ZM204.891 27.2362C206.102 28.0033 207.452 28.3868 208.944 28.3868C210.001 28.3868 210.896 28.2121 211.629 27.8627C212.37 27.5132 212.971 27.0743 213.431 26.5459C213.9 26.009 214.262 25.4678 214.518 24.9223H214.748V28.0672H220.117V27.2231H217.056C217.068 27.0114 217.074 26.7942 217.074 26.5716C217.074 25.404 216.913 24.3898 216.589 23.529C216.571 23.482 216.553 23.4356 216.534 23.3898H220.117V7.40054H214.684V11.7291H214.518C214.279 11.2007 213.93 10.6638 213.469 10.1183C213.018 9.56437 212.421 9.10414 211.68 8.73766C210.947 8.36266 210.031 8.17516 208.931 8.17516C207.491 8.17516 206.166 8.55016 204.955 9.30016C203.754 10.0416 202.791 11.1624 202.066 12.6624C201.342 14.1539 200.979 16.0246 200.979 18.2746C200.979 20.4649 201.329 22.3144 202.028 23.8229C202.381 24.5711 202.795 25.2292 203.271 25.7971C203.306 24.934 203.399 24.1316 203.55 23.3898H208.493C208.464 23.3685 208.435 23.3466 208.407 23.3243C207.802 22.83 207.337 22.1482 207.014 21.2789C206.698 20.401 206.541 19.3911 206.541 18.249C206.541 17.1155 206.698 16.1183 207.014 15.2575C207.329 14.3968 207.793 13.7235 208.407 13.2377C209.021 12.7519 209.775 12.509 210.67 12.509C211.548 12.509 212.293 12.7433 212.907 13.2121C213.521 13.6808 213.989 14.3456 214.313 15.2064C214.637 16.0672 214.799 17.0814 214.799 18.249C214.799 19.4166 214.633 20.4351 214.3 21.3044C213.977 22.1737 213.508 22.8513 212.894 23.3371C212.289 23.8144 211.548 24.053 210.67 24.053C210.135 24.053 209.65 23.9661 209.215 23.7924C208.949 24.6037 208.816 25.5301 208.816 26.5716C208.816 26.7938 208.822 27.0109 208.834 27.2231H204.871L204.891 27.2362ZM214.684 3.56721H220.117V1.88539H214.684V3.56721Z" fill="white"/>
<path fill-rule="evenodd" clip-rule="evenodd" d="M89.2964 15.7232H83.8504V11.8899H89.2964V15.7232ZM222.393 15.7232H216.959V11.8899H222.393V15.7232ZM178.662 11.8899C179.259 12.3316 179.748 12.8491 180.127 13.4424C180.57 14.1308 180.862 14.8911 181.002 15.7232H174.686C174.628 15.6644 174.566 15.6073 174.502 15.5518C173.837 14.9723 172.891 14.6825 171.664 14.6825H167.458V15.7232H161.922V11.8899H178.662ZM103.371 11.8899H109.187C109.096 12.4681 108.818 12.9771 108.35 13.4169C107.779 13.9538 107.089 14.2223 106.279 14.2223C105.47 14.2223 104.775 13.9538 104.196 13.4169C103.735 12.9771 103.46 12.4681 103.371 11.8899ZM25.7165 11.8899C26.3143 12.3316 26.8026 12.8491 27.1816 13.4424C27.625 14.1308 27.9166 14.8911 28.0565 15.7232H21.7406C21.6824 15.6644 21.621 15.6073 21.5566 15.5518C20.8918 14.9723 19.9458 14.6825 18.7185 14.6825H14.5126V15.7232H8.97705V11.8899H25.7165Z" fill="white"/>
<path fill-rule="evenodd" clip-rule="evenodd" d="M36.8616 27.2232H31.4156V23.3899H37.2741C36.9991 23.9481 36.8616 24.5783 36.8616 25.2805V27.2232ZM80.8853 27.2232H64.5549C64.8427 26.8958 65.1725 26.6105 65.5443 26.3672C66.2347 25.9155 67.0188 25.5746 67.8966 25.3444C68.783 25.1143 69.712 24.9524 70.6836 24.8586C71.8256 24.7393 72.7461 24.6285 73.4449 24.5263C74.1438 24.4155 74.6509 24.2535 74.9662 24.0405C75.2023 23.8809 75.35 23.6641 75.4094 23.3899H80.8853V27.2232ZM108.99 27.2232H103.544V23.3899H108.99V27.2232ZM117.538 27.2232H112.092V23.3899H117.794C117.63 23.8735 117.544 24.4228 117.538 25.0376V27.2232ZM130.194 27.2232H124.748V24.8586C124.752 24.315 124.692 23.8254 124.566 23.3899L130.184 23.3899C130.191 23.553 130.194 23.7187 130.194 23.8871V27.2232ZM201.018 27.2232H184.688C184.976 26.8958 185.306 26.6105 185.677 26.3672C186.368 25.9155 187.152 25.5746 188.03 25.3444C188.916 25.1143 189.845 24.9524 190.817 24.8586C191.959 24.7393 192.879 24.6285 193.578 24.5263C194.277 24.4155 194.784 24.2535 195.099 24.0405C195.335 23.8809 195.483 23.6641 195.542 23.3899H201.018V27.2232ZM222.393 23.3899V27.2232H217.056C217.068 27.0115 217.074 26.7943 217.074 26.5717C217.074 25.4041 216.913 24.3899 216.589 23.5291C216.571 23.4821 216.553 23.4357 216.534 23.3899H222.393ZM203.55 23.3899C203.353 24.3561 203.255 25.4252 203.255 26.5973C203.255 26.8091 203.258 27.0178 203.265 27.2232H208.834C208.822 27.0111 208.816 26.7939 208.816 26.5717C208.816 25.4382 208.974 24.441 209.289 23.5802C209.313 23.5157 209.337 23.4523 209.362 23.3899H203.55ZM178.699 23.3899C178.857 23.4671 179.014 23.5519 179.168 23.6442C180.046 24.164 180.757 24.8927 181.303 25.8302C181.553 26.2568 181.746 26.7212 181.882 27.2232H176.156C176.081 27.0363 175.99 26.8575 175.882 26.6868C175.533 26.1328 175.034 25.6981 174.387 25.3828C173.747 25.0674 172.985 24.9098 172.098 24.9098H167.458V27.2232H161.922V23.3899H178.699ZM151.674 23.3899V27.2232H146.295C146.31 26.9921 146.318 26.7537 146.318 26.5078C146.318 25.3572 146.156 24.3601 145.832 23.5163C145.816 23.4737 145.799 23.4316 145.782 23.3899H151.674ZM132.786 23.3899C132.594 24.3406 132.498 25.3885 132.498 26.5334C132.498 26.7677 132.502 26.9976 132.51 27.2232H138.081C138.066 26.992 138.059 26.7535 138.059 26.5078C138.059 25.3913 138.217 24.4069 138.532 23.5547C138.553 23.4989 138.574 23.444 138.596 23.3899H132.786ZM90.2797 23.3899H96.4495L94.8488 25.2594L96.1991 27.2232H91.8644H90.9241H89.2964H88.7919H83.8504V23.3899H89.2964V24.2067H89.5905L90.2797 23.3899ZM61.616 23.3899C61.8277 24.3202 61.9336 25.3467 61.9336 26.4694V27.2232H48.5615H45.3526H43.1892C43.1826 27.0382 43.1793 26.8509 43.1793 26.6612C43.1793 25.4873 43.3118 24.3968 43.5766 23.3899H48.7855C48.6592 23.7679 48.5862 24.168 48.5666 24.5902H56.8072C56.8072 24.1636 56.7567 23.7635 56.6558 23.3899H61.616ZM25.7539 23.3899C25.9122 23.4671 26.0685 23.5519 26.2228 23.6442C27.1006 24.164 27.8123 24.8927 28.3577 25.8302C28.6082 26.2568 28.8012 26.7212 28.9366 27.2232H23.2106C23.1361 27.0363 23.045 26.8575 22.9373 26.6868C22.5878 26.1328 22.0893 25.6981 21.4415 25.3828C20.8023 25.0674 20.0396 24.9098 19.1532 24.9098H14.5126V27.2232H8.97705V23.3899H25.7539Z" fill="white"/>
<path fill-rule="evenodd" clip-rule="evenodd" d="M8.97705 34.8899V36.3899H20.1631C22.1234 36.3899 23.7725 36.0746 25.1106 35.4439C25.4681 35.2753 25.8023 35.0907 26.113 34.8899L8.97705 34.8899ZM31.4156 34.8899V36.3899H36.8616V34.8899H31.4156ZM46.7164 34.8899C47.0267 35.1284 47.3562 35.3471 47.7049 35.5461C49.1623 36.3643 50.9009 36.7734 52.9208 36.7734C54.5401 36.7734 55.9677 36.5263 57.2035 36.0319C57.9642 35.7245 58.6389 35.3438 59.2277 34.8899L46.7164 34.8899ZM64.7379 34.8899C65.22 35.396 65.7999 35.8022 66.4776 36.1086C67.4577 36.5433 68.5742 36.7606 69.827 36.7606C70.7986 36.7606 71.6551 36.6328 72.3966 36.3771C73.1381 36.1129 73.773 35.7507 74.3015 35.2905C74.4459 35.1623 74.5823 35.0288 74.7108 34.8899L64.7379 34.8899ZM75.7205 34.8899V36.3899H80.8853V34.8899H75.7205ZM83.8504 34.8899V36.3899H89.2964V34.8899H83.8504ZM95.1097 34.8899L96.1231 36.3899H102.502L101.471 34.8899H95.1097ZM103.544 34.8899V36.3899H108.99V34.8899H103.544ZM112.092 34.8899V36.3899H117.538V34.8899H112.092ZM124.748 34.8899V36.3899H130.194V34.8899H124.748ZM136.116 34.8899C136.22 34.9582 136.327 35.0235 136.435 35.0859C137.646 35.7677 138.988 36.1086 140.462 36.1086C141.502 36.1086 142.397 35.9552 143.147 35.6484C143.662 35.4378 144.113 35.1849 144.499 34.8899L136.116 34.8899ZM146.292 34.8899V36.5049C146.292 37.4257 146.111 38.1651 145.748 38.7232H151.412C151.587 38.0676 151.674 37.3538 151.674 36.5817V34.8899H146.292ZM161.922 34.8899V36.3899H173.108C175.069 36.3899 176.718 36.0746 178.056 35.4439C178.413 35.2753 178.747 35.0907 179.058 34.8899L161.922 34.8899ZM184.871 34.8899C185.353 35.396 185.933 35.8022 186.611 36.1086C187.591 36.5433 188.707 36.7606 189.96 36.7606C190.932 36.7606 191.788 36.6328 192.53 36.3771C193.271 36.1129 193.906 35.7507 194.435 35.2905C194.579 35.1623 194.715 35.0288 194.844 34.8899L184.871 34.8899ZM195.854 34.8899V36.3899H201.018V34.8899H195.854ZM206.29 34.8899C206.566 35.1368 206.858 35.3598 207.167 35.5589C208.377 36.326 209.728 36.7095 211.219 36.7095C212.276 36.7095 213.171 36.5348 213.904 36.1853C214.635 35.8406 215.23 35.4088 215.688 34.8899L206.29 34.8899ZM217.023 34.8899V36.3899H222.393V34.8899H217.023ZM133.106 38.7232H138.532C138.364 38.4968 138.232 38.2602 138.136 38.0135L133.099 38.691C133.101 38.7018 133.103 38.7125 133.106 38.7232Z" fill="white"/>
<path fill-rule="evenodd" clip-rule="evenodd" d="M0.101562 7.40054V28.0672H11.2876C13.2479 28.0672 14.897 27.7519 16.2351 27.1212C16.3269 27.0779 16.4172 27.0335 16.506 26.9881C16.4551 26.885 16.3989 26.7845 16.3372 26.6867C15.9878 26.1327 15.4892 25.698 14.8414 25.3827C14.2022 25.0673 13.4395 24.9097 12.5531 24.9097H7.91247V27.2231H2.37695V23.3898H5.63707V16.5871H10.2777C11.1641 16.5871 11.9268 16.7448 12.5661 17.0601C13.2138 17.3754 13.7124 17.8101 14.0618 18.3641C14.4112 18.9181 14.5859 19.5573 14.5859 20.2817C14.5859 21.2703 14.2322 22.0629 13.5249 22.6595C13.111 23.0036 12.5541 23.247 11.8543 23.3898H19.1538C19.3121 23.467 19.4684 23.5518 19.6227 23.644C19.6551 23.6632 19.6873 23.6827 19.7193 23.7025C20.1067 22.8292 20.3004 21.8721 20.3004 20.8314C20.3004 19.5445 20.0277 18.4365 19.4822 17.5075C18.9368 16.57 18.2251 15.8414 17.3473 15.3215C16.478 14.8016 15.5447 14.5203 14.5476 14.4777V14.222C15.4595 14.0175 16.2692 13.6723 16.9766 13.1865C17.6925 12.6922 18.255 12.0615 18.6641 11.2945C19.0732 10.5189 19.2777 9.61976 19.2777 8.59704C19.2777 8.18293 19.2455 7.7841 19.181 7.40054H12.8651C13.4157 7.95634 13.6911 8.66199 13.6911 9.51749C13.6911 10.2078 13.5163 10.8002 13.1669 11.2945C12.826 11.7888 12.3572 12.1723 11.7607 12.445C11.1726 12.7093 10.4993 12.8414 9.74077 12.8414H5.63707V7.40054H0.101562ZM0.101562 3.56721H16.841C16.4171 3.25396 15.9381 2.97886 15.4041 2.74192C14.1172 2.1709 12.5107 1.88539 10.5845 1.88539H0.101562V3.56721ZM22.5401 8.43084V28.0672H27.9861V27.2231H24.8155V23.3898H27.9861V16.9578C27.9861 16.1567 28.1651 15.4493 28.523 14.8357C28.8895 14.222 29.3838 13.7448 30.006 13.4039C30.6367 13.0544 31.3526 12.8797 32.1537 12.8797C32.5287 12.8797 32.9421 12.9095 33.3938 12.9692C33.8455 13.0289 34.1992 13.097 34.4548 13.1737V8.34135C34.2162 8.2817 33.9392 8.23482 33.6239 8.20073C33.3085 8.16664 33.0145 8.14959 32.7418 8.14959C31.6423 8.14959 30.6708 8.46493 29.827 9.09562C28.9833 9.71777 28.3824 10.6382 28.0244 11.857H27.8199V8.43084H22.5401ZM38.8294 27.2235C40.2868 28.0416 42.0255 28.4507 44.0453 28.4507C45.6647 28.4507 47.0922 28.2036 48.328 27.7093C48.6883 27.5636 49.0293 27.4016 49.3511 27.2231H41.9614H38.8288L38.8294 27.2235ZM55.0159 23.3898C55.1915 24.1611 55.2943 24.9987 55.3242 25.9024C55.8904 26.7274 56.6497 27.3553 57.6021 27.786C58.5822 28.2206 59.6987 28.4379 60.9515 28.4379C61.9231 28.4379 62.7797 28.3101 63.5211 28.0544C64.1196 27.8412 64.6487 27.5641 65.1084 27.2231H57.9548C58.2426 26.8957 58.5724 26.6104 58.9443 26.3671C59.6346 25.9154 60.4187 25.5744 61.2965 25.3443C62.1829 25.1142 63.1119 24.9523 64.0835 24.8585C65.2255 24.7392 66.146 24.6284 66.8448 24.5261C67.5437 24.4154 68.0508 24.2534 68.3661 24.0404C68.6022 23.8808 68.7499 23.664 68.8093 23.3898H72.0098V14.8229C72.0098 13.6553 71.7839 12.6539 71.3322 11.8186C70.8805 10.9749 70.2626 10.2845 69.4785 9.7476C68.703 9.21067 67.8123 8.81437 66.8066 8.55868C65.8095 8.303 64.7655 8.17516 63.6745 8.17516C62.1064 8.17516 60.7257 8.4138 59.5325 8.89107C58.3478 9.35982 57.3805 10.0331 56.6305 10.911C55.8805 11.7803 55.3777 12.8115 55.122 14.0047L60.1589 14.4138C60.3464 13.7661 60.7299 13.2291 61.3095 12.803C61.889 12.3683 62.6689 12.151 63.649 12.151C64.578 12.151 65.2939 12.3726 65.7967 12.8158C66.3081 13.259 66.5638 13.8854 66.5638 14.695V14.7718C66.5638 15.1894 66.4061 15.5047 66.0907 15.7178C65.7754 15.9308 65.2683 16.0928 64.5694 16.2036C63.8706 16.3058 62.9501 16.4166 61.8081 16.536C60.8365 16.6297 59.9075 16.7916 59.0211 17.0218C58.1433 17.2519 57.3592 17.5928 56.6689 18.0445C55.9785 18.4962 55.4331 19.0928 55.0325 19.8343C54.6319 20.5757 54.4316 21.4919 54.4316 22.5828C54.4316 22.8617 54.4447 23.1307 54.4707 23.3898H55.0159ZM66.845 28.0672V27.2231H72.0098V28.0672H66.845ZM50.0557 23.3898H52.677C52.7853 23.0851 52.874 22.7693 52.9431 22.4422L47.9061 22.1098C47.7186 22.6041 47.4459 23.0218 47.088 23.3627C46.73 23.7036 46.2996 23.9593 45.7968 24.1297C45.2939 24.3002 44.7399 24.3854 44.1348 24.3854C43.3434 24.3854 42.6451 24.241 42.0399 23.9521C42.0011 24.1589 41.9767 24.3715 41.9665 24.5901H50.2071C50.2071 24.1635 50.1566 23.7634 50.0557 23.3898ZM35.48 23.7206C35.8061 24.348 36.1897 24.9164 36.6307 25.4258C36.6917 24.7129 36.807 24.0343 36.9765 23.3898H41.1746C40.7887 23.059 40.4715 22.6536 40.2229 22.1737C39.8649 21.4664 39.686 20.6269 39.686 19.6553V19.6425H53.0581V18.1468C53.0581 16.4763 52.8237 15.0189 52.355 13.7746C51.8862 12.5218 51.23 11.482 50.3862 10.6553C49.551 9.82857 48.5709 9.21067 47.4459 8.80158C46.3294 8.38397 45.1235 8.17516 43.828 8.17516C41.9019 8.17516 40.2229 8.6013 38.7911 9.45357C37.3678 10.3058 36.2641 11.4948 35.48 13.0203C34.6959 14.5459 34.3039 16.3186 34.3039 18.3385C34.3039 20.4095 34.6959 22.2036 35.48 23.7206ZM39.6911 16.2675C39.7239 15.5624 39.9055 14.9189 40.2357 14.3371C40.5936 13.6979 41.088 13.1908 41.7186 12.8158C42.3578 12.4323 43.0908 12.2405 43.9175 12.2405C44.7101 12.2405 45.4047 12.4152 46.0013 12.7646C46.6064 13.1056 47.0794 13.5786 47.4203 14.1837C47.7612 14.7888 47.9317 15.4834 47.9317 16.2675H39.6911ZM64.6334 24.2064C64.0197 24.5218 63.3123 24.6794 62.5112 24.6794C61.676 24.6794 60.9856 24.4877 60.4402 24.1041C59.9032 23.7121 59.6348 23.1453 59.6348 22.4039C59.6348 21.8925 59.7669 21.4664 60.0311 21.1254C60.2953 20.776 60.666 20.499 61.1433 20.2945C61.6206 20.0899 62.1788 19.9408 62.818 19.847C63.1163 19.8044 63.4487 19.7575 63.8152 19.7064C64.1816 19.6468 64.5481 19.5828 64.9146 19.5147C65.2811 19.4379 65.6092 19.357 65.899 19.2718C66.1973 19.178 66.4316 19.0757 66.6021 18.9649V21.0487C66.6021 21.7391 66.4274 22.357 66.078 22.9024C65.7285 23.4479 65.247 23.8825 64.6334 24.2064ZM80.4209 21.8327V23.3898H77.2503V27.2231H80.4209V28.0672H74.9749V7.40054H80.4209V15.884H80.715L87.0047 8.43084H93.2562L85.9733 16.9367L93.6269 28.0672H87.2476L86.6773 27.2231H89.599L88.2487 25.2593L89.8494 23.3898H84.0874L81.8968 20.1475L80.4209 21.8327ZM80.4209 3.56721V1.88539H74.9749V3.56721H80.4209ZM94.668 8.43084V28.0672H100.114V27.2231H96.9434V23.3898H100.114V8.43084H94.668ZM100.312 3.56721C100.333 3.42821 100.344 3.28522 100.344 3.13823C100.344 2.38823 100.054 1.74476 99.4749 1.20783C98.9038 0.662376 98.2135 0.389648 97.4038 0.389648C96.5942 0.389648 95.8996 0.662376 95.32 1.20783C94.749 1.74476 94.4635 2.38823 94.4635 3.13823C94.4635 3.28522 94.4742 3.42821 94.4957 3.56721H100.312ZM108.663 28.0672V27.2231H105.492V23.3898H108.663V16.7149C108.671 15.8712 108.829 15.151 109.136 14.5544C109.451 13.9493 109.886 13.4891 110.44 13.1737C111.002 12.8584 111.65 12.7007 112.383 12.7007C113.474 12.7007 114.33 13.0416 114.952 13.7235C115.575 14.3968 115.881 15.3343 115.873 16.536V28.0672H121.319V27.2231H118.148V24.8585C118.152 24.3149 118.091 23.8253 117.966 23.3898H121.319V15.5644C121.319 14.0388 121.038 12.7263 120.475 11.6269C119.913 10.5189 119.124 9.66664 118.11 9.07005C117.096 8.47346 115.907 8.17516 114.543 8.17516C113.086 8.17516 111.846 8.51181 110.823 9.1851C109.8 9.84988 109.072 10.7533 108.637 11.8953H108.407V8.43084H103.217V28.0672H108.663ZM137.294 35.2876C137.511 35.1648 137.712 35.0322 137.899 34.8898H129.516C129.62 34.9581 129.727 35.0234 129.835 35.0858C130.321 35.3592 130.827 35.5778 131.355 35.7416C130.356 35.6286 129.457 35.4185 128.659 35.1112C127.407 34.634 126.409 33.982 125.668 33.1553C124.926 32.3286 124.445 31.3996 124.223 30.3683L129.26 29.6908C129.414 30.0828 129.657 30.4493 129.989 30.7902C130.321 31.1311 130.76 31.4039 131.306 31.6084C131.86 31.8215 132.533 31.928 133.326 31.928C134.51 31.928 135.486 31.6382 136.253 31.0587C137.029 30.4877 137.417 29.5289 137.417 28.1823V24.5899H137.186C136.948 25.1354 136.59 25.651 136.113 26.1368C135.635 26.6226 135.022 27.0189 134.272 27.3257C133.522 27.6325 132.627 27.786 131.587 27.786C130.493 27.786 129.472 27.5983 128.524 27.2231H131.481C131.466 26.9918 131.459 26.7534 131.459 26.5077C131.459 25.3912 131.617 24.4068 131.932 23.5546C131.94 23.5333 131.948 23.5123 131.956 23.4913C132.365 23.6271 132.817 23.695 133.313 23.695C134.191 23.695 134.932 23.4777 135.537 23.0431C136.151 22.5999 136.62 21.9692 136.943 21.151C137.276 20.3243 137.442 19.3357 137.442 18.1851C137.442 17.0345 137.28 16.0374 136.956 15.1936C136.632 14.3414 136.164 13.6808 135.55 13.2121C134.936 12.7433 134.191 12.509 133.313 12.509C132.418 12.509 131.664 12.7519 131.05 13.2377C130.436 13.7149 129.972 14.3797 129.657 15.232C129.341 16.0843 129.184 17.0686 129.184 18.1851C129.184 19.3186 129.341 20.2987 129.657 21.1254C129.98 21.9436 130.445 22.5786 131.05 23.0303C131.248 23.1731 131.46 23.293 131.687 23.3898H126.186C126.056 24.0304 125.971 24.7151 125.928 25.4439C125.454 24.9202 125.039 24.3075 124.684 23.6056C123.976 22.1823 123.622 20.384 123.622 18.2107C123.622 15.9862 123.985 14.1283 124.709 12.6368C125.434 11.1453 126.397 10.0289 127.598 9.28738C128.809 8.5459 130.134 8.17516 131.574 8.17516C132.674 8.17516 133.594 8.36266 134.336 8.73766C135.077 9.10414 135.674 9.56437 136.125 10.1183C136.586 10.6638 136.939 11.2007 137.186 11.7291H137.391V8.43084H142.799V23.3898H139.182C139.194 23.4188 139.205 23.448 139.217 23.4775L139.232 23.5162C139.556 24.36 139.717 25.3571 139.717 26.5077C139.717 26.7536 139.71 26.992 139.695 27.2231H142.799V28.259C142.799 29.9294 142.39 31.3272 141.571 32.4522C140.753 33.5772 139.62 34.4209 138.171 34.9834C137.887 35.0959 137.595 35.1973 137.294 35.2876ZM153.047 7.40054V28.0672H164.233C166.193 28.0672 167.842 27.7519 169.18 27.1212C169.272 27.0779 169.362 27.0335 169.451 26.9881C169.4 26.885 169.344 26.7845 169.282 26.6867C168.933 26.1327 168.434 25.698 167.787 25.3827C167.147 25.0673 166.385 24.9097 165.498 24.9097H160.858V27.2231H155.322V23.3898H158.582V16.5871H163.223C164.109 16.5871 164.872 16.7448 165.511 17.0601C166.159 17.3754 166.658 17.8101 167.007 18.3641C167.356 18.9181 167.531 19.5573 167.531 20.2817C167.531 21.2703 167.177 22.0629 166.47 22.6595C166.056 23.0036 165.499 23.247 164.799 23.3898H172.099C172.257 23.467 172.414 23.5518 172.568 23.644C172.6 23.6632 172.632 23.6827 172.664 23.7025C173.052 22.8292 173.246 21.8721 173.246 20.8314C173.246 19.5445 172.973 18.4365 172.427 17.5075C171.882 16.57 171.17 15.8414 170.292 15.3215C169.423 14.8016 168.49 14.5203 167.493 14.4777V14.222C168.405 14.0175 169.214 13.6723 169.922 13.1865C170.638 12.6922 171.2 12.0615 171.609 11.2945C172.018 10.5189 172.223 9.61976 172.223 8.59704C172.223 8.18293 172.191 7.7841 172.126 7.40054H165.81L165.81 7.40045C166.361 7.95627 166.636 8.66195 166.636 9.51749C166.636 10.2078 166.461 10.8002 166.112 11.2945C165.771 11.7888 165.302 12.1723 164.706 12.445C164.118 12.7093 163.444 12.8414 162.686 12.8414H158.582V7.40054H153.047ZM153.047 3.56721H169.786C169.362 3.25395 168.883 2.97887 168.349 2.74192C167.062 2.1709 165.456 1.88539 163.53 1.88539H153.047V3.56721ZM177.735 27.786C178.715 28.2206 179.832 28.4379 181.085 28.4379C182.056 28.4379 182.913 28.3101 183.654 28.0544C184.253 27.8412 184.782 27.5641 185.241 27.2231H178.088C178.376 26.8957 178.706 26.6104 179.077 26.3671C179.768 25.9154 180.552 25.5744 181.43 25.3443C182.316 25.1142 183.245 24.9523 184.217 24.8585C185.359 24.7392 186.279 24.6284 186.978 24.5261C187.677 24.4154 188.184 24.2534 188.499 24.0404C188.735 23.8808 188.883 23.664 188.942 23.3898H192.143V14.8229C192.143 13.6553 191.917 12.6539 191.465 11.8186C191.014 10.9749 190.396 10.2845 189.612 9.7476C188.836 9.21067 187.945 8.81437 186.94 8.55868C185.943 8.303 184.899 8.17516 183.808 8.17516C182.239 8.17516 180.859 8.4138 179.666 8.89107C178.481 9.35982 177.514 10.0331 176.764 10.911C176.014 11.7803 175.511 12.8115 175.255 14.0047L180.292 14.4138C180.48 13.7661 180.863 13.2291 181.443 12.803C182.022 12.3683 182.802 12.151 183.782 12.151C184.711 12.151 185.427 12.3726 185.93 12.8158C186.441 13.259 186.697 13.8854 186.697 14.695V14.7718C186.697 15.1894 186.539 15.5047 186.224 15.7178C185.909 15.9308 185.401 16.0928 184.703 16.2036C184.004 16.3058 183.083 16.4166 181.941 16.536C180.97 16.6297 180.041 16.7916 179.154 17.0218C178.276 17.2519 177.492 17.5928 176.802 18.0445C176.112 18.4962 175.566 19.0928 175.166 19.8343C174.765 20.5757 174.565 21.4919 174.565 22.5828C174.565 23.8783 174.846 24.9607 175.409 25.83C175.98 26.6908 176.755 27.3428 177.735 27.786ZM186.978 28.0672V27.2231H192.143V28.0672H186.978ZM184.766 24.2064C184.153 24.5218 183.445 24.6794 182.644 24.6794C181.809 24.6794 181.119 24.4877 180.573 24.1041C180.036 23.7121 179.768 23.1453 179.768 22.4039C179.768 21.8925 179.9 21.4664 180.164 21.1254C180.428 20.776 180.799 20.499 181.276 20.2945C181.754 20.0899 182.312 19.9408 182.951 19.847C183.249 19.8044 183.582 19.7575 183.948 19.7064C184.315 19.6468 184.681 19.5828 185.048 19.5147C185.414 19.4379 185.742 19.357 186.032 19.2718C186.33 19.178 186.565 19.0757 186.735 18.9649V21.0487C186.735 21.7391 186.561 22.357 186.211 22.9024C185.862 23.4479 185.38 23.8825 184.766 24.2064ZM198.291 27.2362C199.501 28.0033 200.852 28.3868 202.344 28.3868C203.401 28.3868 204.296 28.2121 205.028 27.8627C205.77 27.5132 206.371 27.0743 206.831 26.5459C207.3 26.009 207.662 25.4678 207.918 24.9223H208.148V28.0672H213.517V27.2231H210.456C210.468 27.0114 210.474 26.7942 210.474 26.5716C210.474 25.404 210.312 24.3898 209.989 23.529C209.971 23.482 209.953 23.4356 209.934 23.3898H213.517V7.40054H208.084V11.7291H207.918C207.679 11.2007 207.33 10.6638 206.869 10.1183C206.418 9.56437 205.821 9.10414 205.08 8.73766C204.347 8.36266 203.43 8.17516 202.331 8.17516C200.891 8.17516 199.565 8.55016 198.355 9.30016C197.153 10.0416 196.19 11.1624 195.466 12.6624C194.742 14.1539 194.379 16.0246 194.379 18.2746C194.379 20.4649 194.729 22.3144 195.428 23.8229C195.78 24.5711 196.195 25.2292 196.671 25.7971C196.706 24.934 196.799 24.1316 196.95 23.3898H201.892C201.864 23.3685 201.835 23.3466 201.807 23.3243C201.202 22.83 200.737 22.1482 200.413 21.2789C200.098 20.401 199.94 19.3911 199.94 18.249C199.94 17.1155 200.098 16.1183 200.413 15.2575C200.729 14.3968 201.193 13.7235 201.807 13.2377C202.421 12.7519 203.175 12.509 204.07 12.509C204.948 12.509 205.693 12.7433 206.307 13.2121C206.921 13.6808 207.389 14.3456 207.713 15.2064C208.037 16.0672 208.199 17.0814 208.199 18.249C208.199 19.4166 208.033 20.4351 207.7 21.3044C207.376 22.1737 206.908 22.8513 206.294 23.3371C205.689 23.8144 204.948 24.053 204.07 24.053C203.535 24.053 203.05 23.9661 202.615 23.7924C202.349 24.6037 202.216 25.5301 202.216 26.5716C202.216 26.7938 202.222 27.0109 202.234 27.2231H198.271L198.291 27.2362ZM208.084 3.56721H213.517V1.88539H208.084V3.56721Z" fill="white"/>
<path fill-rule="evenodd" clip-rule="evenodd" d="M95.8965 15.7232H90.4505V11.8899H95.8965V15.7232ZM228.993 15.7232H223.559V11.8899H228.993V15.7232ZM185.262 11.8899C185.86 12.3316 186.348 12.8491 186.727 13.4424C187.17 14.1308 187.462 14.8911 187.602 15.7232H181.286C181.228 15.6644 181.166 15.6073 181.102 15.5518C180.437 14.9723 179.491 14.6825 178.264 14.6825H174.058V15.7232H168.522V11.8899H185.262ZM109.971 11.8899H115.787C115.697 12.4681 115.418 12.9771 114.95 13.4169C114.379 13.9538 113.689 14.2223 112.879 14.2223C112.07 14.2223 111.375 13.9538 110.796 13.4169C110.335 12.9771 110.06 12.4681 109.971 11.8899ZM32.3166 11.8899C32.9144 12.3316 33.4027 12.8491 33.7817 13.4424C34.2251 14.1308 34.5167 14.8911 34.6566 15.7232H28.3407C28.2825 15.6644 28.2211 15.6073 28.1567 15.5518C27.4919 14.9723 26.5459 14.6825 25.3186 14.6825H21.1127V15.7232H15.5771V11.8899H32.3166Z" fill="#FF6F6F" style="mix-blend-mode:multiply"/>
<path fill-rule="evenodd" clip-rule="evenodd" d="M43.4617 27.2232H38.0157V23.3899H43.8742C43.5992 23.9481 43.4617 24.5783 43.4617 25.2805V27.2232ZM87.4854 27.2232H71.155C71.4428 26.8958 71.7726 26.6105 72.1444 26.3672C72.8348 25.9155 73.6189 25.5746 74.4967 25.3444C75.3831 25.1143 76.3121 24.9524 77.2837 24.8586C78.4257 24.7393 79.3462 24.6285 80.045 24.5263C80.7439 24.4155 81.251 24.2535 81.5663 24.0405C81.8024 23.8809 81.9501 23.6641 82.0095 23.3899H87.4854V27.2232ZM115.59 27.2232H110.144V23.3899H115.59V27.2232ZM124.138 27.2232H118.692V23.3899H124.395C124.23 23.8735 124.144 24.4228 124.138 25.0376V27.2232ZM136.794 27.2232H131.348V24.8586C131.352 24.315 131.292 23.8254 131.166 23.3899L136.784 23.3899C136.791 23.553 136.794 23.7187 136.794 23.8871V27.2232ZM207.618 27.2232H191.288C191.576 26.8958 191.906 26.6105 192.278 26.3672C192.968 25.9155 193.752 25.5746 194.63 25.3444C195.516 25.1143 196.445 24.9524 197.417 24.8586C198.559 24.7393 199.479 24.6285 200.178 24.5263C200.877 24.4155 201.384 24.2535 201.699 24.0405C201.936 23.8809 202.083 23.6641 202.143 23.3899H207.618V27.2232ZM228.993 23.3899V27.2232H223.656C223.668 27.0115 223.675 26.7943 223.675 26.5717C223.675 25.4041 223.513 24.3899 223.189 23.5291C223.171 23.4821 223.153 23.4357 223.134 23.3899H228.993ZM210.15 23.3899C209.953 24.3561 209.855 25.4252 209.855 26.5973C209.855 26.8091 209.858 27.0178 209.865 27.2232H215.434C215.422 27.0111 215.416 26.7939 215.416 26.5717C215.416 25.4382 215.574 24.441 215.889 23.5802C215.913 23.5157 215.937 23.4523 215.962 23.3899H210.15ZM185.299 23.3899C185.457 23.4671 185.614 23.5519 185.768 23.6442C186.646 24.164 187.358 24.8927 187.903 25.8302C188.153 26.2568 188.346 26.7212 188.482 27.2232H182.756C182.681 27.0363 182.59 26.8575 182.483 26.6868C182.133 26.1328 181.635 25.6981 180.987 25.3828C180.348 25.0674 179.585 24.9098 178.698 24.9098H174.058V27.2232H168.522V23.3899H185.299ZM158.274 23.3899V27.2232H152.895C152.91 26.9921 152.918 26.7537 152.918 26.5078C152.918 25.3572 152.756 24.3601 152.432 23.5163C152.416 23.4737 152.399 23.4316 152.382 23.3899H158.274ZM139.386 23.3899C139.194 24.3406 139.098 25.3885 139.098 26.5334C139.098 26.7677 139.102 26.9976 139.11 27.2232H144.681C144.667 26.992 144.659 26.7535 144.659 26.5078C144.659 25.3913 144.817 24.4069 145.132 23.5547C145.153 23.4989 145.174 23.444 145.196 23.3899H139.386ZM96.8798 23.3899H103.05L101.449 25.2594L102.799 27.2232H98.4645H97.5242H95.8965H95.392H90.4505V23.3899H95.8965V24.2067H96.1906L96.8798 23.3899ZM68.2161 23.3899C68.4278 24.3202 68.5337 25.3467 68.5337 26.4694V27.2232H55.1615H51.9527H49.7893C49.7827 27.0382 49.7794 26.8509 49.7794 26.6612C49.7794 25.4873 49.9119 24.3968 50.1767 23.3899H55.3856C55.2593 23.7679 55.1863 24.168 55.1667 24.5902H63.4073C63.4073 24.1636 63.3568 23.7635 63.2559 23.3899H68.2161ZM32.354 23.3899C32.5123 23.4671 32.6686 23.5519 32.8229 23.6442C33.7007 24.164 34.4124 24.8927 34.9578 25.8302C35.2083 26.2568 35.4013 26.7212 35.5367 27.2232H29.8107C29.7362 27.0363 29.6451 26.8575 29.5374 26.6868C29.1879 26.1328 28.6894 25.6981 28.0416 25.3828C27.4024 25.0674 26.6396 24.9098 25.7533 24.9098H21.1127V27.2232H15.5771V23.3899H32.354Z" fill="#FF6F6F" style="mix-blend-mode:multiply"/>
<path fill-rule="evenodd" clip-rule="evenodd" d="M15.5771 34.8899V36.3899H26.7632C28.7235 36.3899 30.3726 36.0746 31.7107 35.4439C32.0682 35.2753 32.4024 35.0907 32.7131 34.8899L15.5771 34.8899ZM38.0157 34.8899V36.3899H43.4617V34.8899H38.0157ZM53.3165 34.8899C53.6268 35.1284 53.9563 35.3471 54.305 35.5461C55.7624 36.3643 57.501 36.7734 59.5209 36.7734C61.1402 36.7734 62.5678 36.5263 63.8036 36.0319C64.5643 35.7245 65.239 35.3438 65.8278 34.8899L53.3165 34.8899ZM71.338 34.8899C71.8201 35.396 72.4 35.8022 73.0777 36.1086C74.0578 36.5433 75.1743 36.7606 76.4271 36.7606C77.3987 36.7606 78.2552 36.6328 78.9967 36.3771C79.7382 36.1129 80.3731 35.7507 80.9016 35.2905C81.046 35.1623 81.1824 35.0288 81.3109 34.8899L71.338 34.8899ZM82.3206 34.8899V36.3899H87.4854V34.8899H82.3206ZM90.4505 34.8899V36.3899H95.8965V34.8899H90.4505ZM101.71 34.8899L102.723 36.3899H109.102L108.071 34.8899H101.71ZM110.144 34.8899V36.3899H115.59V34.8899H110.144ZM118.692 34.8899V36.3899H124.138V34.8899H118.692ZM131.348 34.8899V36.3899H136.794V34.8899H131.348ZM142.716 34.8899C142.82 34.9582 142.927 35.0235 143.036 35.0859C144.246 35.7677 145.588 36.1086 147.063 36.1086C148.102 36.1086 148.997 35.9552 149.747 35.6484C150.262 35.4378 150.713 35.1849 151.099 34.8899L142.716 34.8899ZM152.892 34.8899V36.5049C152.892 37.4257 152.711 38.1651 152.348 38.7232H158.012C158.187 38.0676 158.274 37.3538 158.274 36.5817V34.8899H152.892ZM168.522 34.8899V36.3899H179.708C181.669 36.3899 183.318 36.0746 184.656 35.4439C185.013 35.2753 185.348 35.0907 185.658 34.8899L168.522 34.8899ZM191.471 34.8899C191.953 35.396 192.533 35.8022 193.211 36.1086C194.191 36.5433 195.307 36.7606 196.56 36.7606C197.532 36.7606 198.388 36.6328 199.13 36.3771C199.871 36.1129 200.506 35.7507 201.035 35.2905C201.179 35.1623 201.316 35.0288 201.444 34.8899L191.471 34.8899ZM202.454 34.8899V36.3899H207.618V34.8899H202.454ZM212.89 34.8899C213.166 35.1368 213.458 35.3598 213.767 35.5589C214.977 36.326 216.328 36.7095 217.819 36.7095C218.876 36.7095 219.771 36.5348 220.504 36.1853C221.236 35.8406 221.83 35.4088 222.288 34.8899L212.89 34.8899ZM223.623 34.8899V36.3899H228.993V34.8899H223.623ZM139.706 38.7232H145.132C144.964 38.4968 144.832 38.2602 144.736 38.0135L139.699 38.691C139.701 38.7018 139.704 38.7125 139.706 38.7232Z" fill="#FF6F6F" style="mix-blend-mode:multiply"/>
<path fill-rule="evenodd" clip-rule="evenodd" d="M6.70166 7.40054V28.0672H17.8877C19.848 28.0672 21.4971 27.7519 22.8352 27.1212C22.927 27.0779 23.0173 27.0335 23.1061 26.9881C23.0552 26.885 22.999 26.7845 22.9373 26.6867C22.5878 26.1327 22.0893 25.698 21.4415 25.3827C20.8023 25.0673 20.0396 24.9097 19.1532 24.9097H14.5126V27.2231H8.97705V23.3898H12.2372V16.5871H16.8778C17.7642 16.5871 18.5269 16.7448 19.1661 17.0601C19.8139 17.3754 20.3125 17.8101 20.6619 18.3641C21.0113 18.9181 21.186 19.5573 21.186 20.2817C21.186 21.2703 20.8323 22.0629 20.125 22.6595C19.7111 23.0036 19.1542 23.247 18.4544 23.3898H25.7539C25.9122 23.467 26.0685 23.5518 26.2228 23.644C26.2552 23.6632 26.2874 23.6827 26.3194 23.7025C26.7068 22.8292 26.9005 21.8721 26.9005 20.8314C26.9005 19.5445 26.6278 18.4365 26.0823 17.5075C25.5369 16.57 24.8252 15.8414 23.9474 15.3215C23.0781 14.8016 22.1448 14.5203 21.1477 14.4777V14.222C22.0596 14.0175 22.8693 13.6723 23.5767 13.1865C24.2926 12.6922 24.8551 12.0615 25.2642 11.2945C25.6733 10.5189 25.8778 9.61976 25.8778 8.59704C25.8778 8.18293 25.8456 7.7841 25.7811 7.40054H19.4652C20.0158 7.95634 20.2911 8.66199 20.2911 9.51749C20.2911 10.2078 20.1164 10.8002 19.767 11.2945C19.4261 11.7888 18.9573 12.1723 18.3608 12.445C17.7727 12.7093 17.0994 12.8414 16.3409 12.8414H12.2372V7.40054H6.70166ZM6.70166 3.56721H23.4411C23.0172 3.25396 22.5382 2.97886 22.0042 2.74192C20.7173 2.1709 19.1108 1.88539 17.1846 1.88539H6.70166V3.56721ZM29.1402 8.43084V28.0672H34.5862V27.2231H31.4156V23.3898H34.5862V16.9578C34.5862 16.1567 34.7652 15.4493 35.1231 14.8357C35.4896 14.222 35.9839 13.7448 36.6061 13.4039C37.2368 13.0544 37.9527 12.8797 38.7538 12.8797C39.1288 12.8797 39.5422 12.9095 39.9939 12.9692C40.4456 13.0289 40.7993 13.097 41.0549 13.1737V8.34135C40.8163 8.2817 40.5393 8.23482 40.224 8.20073C39.9086 8.16664 39.6146 8.14959 39.3419 8.14959C38.2424 8.14959 37.2709 8.46493 36.4271 9.09562C35.5834 9.71777 34.9825 10.6382 34.6245 11.857H34.42V8.43084H29.1402ZM45.4295 27.2235C46.8869 28.0416 48.6255 28.4507 50.6454 28.4507C52.2648 28.4507 53.6923 28.2036 54.9281 27.7093C55.2884 27.5636 55.6294 27.4016 55.9512 27.2231H48.5615H45.4289L45.4295 27.2235ZM61.616 23.3898C61.7916 24.1611 61.8943 24.9987 61.9243 25.9024C62.4905 26.7274 63.2498 27.3553 64.2022 27.786C65.1823 28.2206 66.2988 28.4379 67.5516 28.4379C68.5232 28.4379 69.3798 28.3101 70.1212 28.0544C70.7197 27.8412 71.2488 27.5641 71.7085 27.2231H64.5549C64.8427 26.8957 65.1725 26.6104 65.5443 26.3671C66.2347 25.9154 67.0188 25.5744 67.8966 25.3443C68.783 25.1142 69.712 24.9523 70.6836 24.8585C71.8256 24.7392 72.7461 24.6284 73.4449 24.5261C74.1438 24.4154 74.6509 24.2534 74.9662 24.0404C75.2023 23.8808 75.35 23.664 75.4094 23.3898H78.6099V14.8229C78.6099 13.6553 78.384 12.6539 77.9323 11.8186C77.4806 10.9749 76.8627 10.2845 76.0786 9.7476C75.3031 9.21067 74.4124 8.81437 73.4067 8.55868C72.4096 8.303 71.3656 8.17516 70.2746 8.17516C68.7065 8.17516 67.3258 8.4138 66.1326 8.89107C64.9479 9.35982 63.9806 10.0331 63.2306 10.911C62.4806 11.7803 61.9778 12.8115 61.7221 14.0047L66.759 14.4138C66.9465 13.7661 67.33 13.2291 67.9096 12.803C68.4891 12.3683 69.269 12.151 70.2491 12.151C71.1781 12.151 71.894 12.3726 72.3968 12.8158C72.9082 13.259 73.1638 13.8854 73.1638 14.695V14.7718C73.1638 15.1894 73.0062 15.5047 72.6908 15.7178C72.3755 15.9308 71.8684 16.0928 71.1695 16.2036C70.4707 16.3058 69.5502 16.4166 68.4082 16.536C67.4366 16.6297 66.5076 16.7916 65.6212 17.0218C64.7434 17.2519 63.9593 17.5928 63.269 18.0445C62.5786 18.4962 62.0332 19.0928 61.6326 19.8343C61.232 20.5757 61.0317 21.4919 61.0317 22.5828C61.0317 22.8617 61.0448 23.1307 61.0708 23.3898H61.616ZM73.4451 28.0672V27.2231H78.6099V28.0672H73.4451ZM56.6558 23.3898H59.2771C59.3854 23.0851 59.4741 22.7693 59.5432 22.4422L54.5062 22.1098C54.3187 22.6041 54.046 23.0218 53.688 23.3627C53.3301 23.7036 52.8997 23.9593 52.3969 24.1297C51.894 24.3002 51.34 24.3854 50.7349 24.3854C49.9435 24.3854 49.2452 24.241 48.64 23.9521C48.6012 24.1589 48.5768 24.3715 48.5666 24.5901H56.8072C56.8072 24.1635 56.7567 23.7634 56.6558 23.3898ZM42.0801 23.7206C42.4062 24.348 42.7898 24.9164 43.2308 25.4258C43.2918 24.7129 43.4071 24.0343 43.5766 23.3898H47.7747C47.3888 23.059 47.0716 22.6536 46.823 22.1737C46.465 21.4664 46.2861 20.6269 46.2861 19.6553V19.6425H59.6582V18.1468C59.6582 16.4763 59.4238 15.0189 58.9551 13.7746C58.4863 12.5218 57.8301 11.482 56.9863 10.6553C56.1511 9.82857 55.171 9.21067 54.046 8.80158C52.9295 8.38397 51.7236 8.17516 50.4281 8.17516C48.502 8.17516 46.823 8.6013 45.3912 9.45357C43.9679 10.3058 42.8642 11.4948 42.0801 13.0203C41.296 14.5459 40.904 16.3186 40.904 18.3385C40.904 20.4095 41.296 22.2036 42.0801 23.7206ZM46.2912 16.2675C46.324 15.5624 46.5056 14.9189 46.8358 14.3371C47.1937 13.6979 47.688 13.1908 48.3187 12.8158C48.9579 12.4323 49.6909 12.2405 50.5176 12.2405C51.3102 12.2405 52.0048 12.4152 52.6014 12.7646C53.2065 13.1056 53.6795 13.5786 54.0204 14.1837C54.3613 14.7888 54.5318 15.4834 54.5318 16.2675H46.2912ZM71.2335 24.2064C70.6198 24.5218 69.9124 24.6794 69.1113 24.6794C68.2761 24.6794 67.5857 24.4877 67.0403 24.1041C66.5033 23.7121 66.2349 23.1453 66.2349 22.4039C66.2349 21.8925 66.367 21.4664 66.6312 21.1254C66.8954 20.776 67.2661 20.499 67.7434 20.2945C68.2207 20.0899 68.7789 19.9408 69.4181 19.847C69.7164 19.8044 70.0488 19.7575 70.4153 19.7064C70.7817 19.6468 71.1482 19.5828 71.5147 19.5147C71.8812 19.4379 72.2093 19.357 72.4991 19.2718C72.7974 19.178 73.0317 19.0757 73.2022 18.9649V21.0487C73.2022 21.7391 73.0275 22.357 72.6781 22.9024C72.3286 23.4479 71.8471 23.8825 71.2335 24.2064ZM87.021 21.8327V23.3898H83.8504V27.2231H87.021V28.0672H81.575V7.40054H87.021V15.884H87.3151L93.6048 8.43084H99.8563L92.5734 16.9367L100.227 28.0672H93.8477L93.2774 27.2231H96.1991L94.8488 25.2593L96.4495 23.3898H90.6875L88.4969 20.1475L87.021 21.8327ZM87.021 3.56721V1.88539H81.575V3.56721H87.021ZM101.268 8.43084V28.0672H106.714V27.2231H103.544V23.3898H106.714V8.43084H101.268ZM106.912 3.56721C106.933 3.42821 106.944 3.28522 106.944 3.13823C106.944 2.38823 106.655 1.74476 106.075 1.20783C105.504 0.662376 104.814 0.389648 104.004 0.389648C103.194 0.389648 102.5 0.662376 101.92 1.20783C101.349 1.74476 101.064 2.38823 101.064 3.13823C101.064 3.28522 101.074 3.42821 101.096 3.56721H106.912ZM115.263 28.0672V27.2231H112.092V23.3898H115.263V16.7149C115.271 15.8712 115.429 15.151 115.736 14.5544C116.051 13.9493 116.486 13.4891 117.04 13.1737C117.602 12.8584 118.25 12.7007 118.983 12.7007C120.074 12.7007 120.93 13.0416 121.553 13.7235C122.175 14.3968 122.482 15.3343 122.473 16.536V28.0672H127.919V27.2231H124.748V24.8585C124.752 24.3149 124.692 23.8253 124.566 23.3898H127.919V15.5644C127.919 14.0388 127.638 12.7263 127.075 11.6269C126.513 10.5189 125.724 9.66664 124.71 9.07005C123.696 8.47346 122.507 8.17516 121.143 8.17516C119.686 8.17516 118.446 8.51181 117.423 9.1851C116.401 9.84988 115.672 10.7533 115.237 11.8953H115.007V8.43084H109.817V28.0672H115.263ZM139.314 35.8337C139.473 35.8378 139.634 35.8399 139.798 35.8399C140.944 35.8399 142.009 35.7333 142.992 35.52V34.8898H145.003C146.341 34.3289 147.397 33.5164 148.171 32.4522C148.99 31.3272 149.399 29.9294 149.399 28.259V27.2231H146.295C146.31 26.992 146.318 26.7536 146.318 26.5077C146.318 25.3571 146.156 24.36 145.832 23.5162L145.817 23.4775C145.805 23.448 145.794 23.4188 145.782 23.3898H149.399V8.43084H143.991V11.7291H143.786C143.539 11.2007 143.186 10.6638 142.725 10.1183C142.274 9.56437 141.677 9.10414 140.936 8.73766C140.194 8.36266 139.274 8.17516 138.174 8.17516C136.734 8.17516 135.409 8.5459 134.198 9.28738C132.997 10.0289 132.034 11.1453 131.309 12.6368C130.585 14.1283 130.223 15.9862 130.223 18.2107C130.223 20.384 130.576 22.1823 131.284 23.6056C131.639 24.3075 132.054 24.9202 132.529 25.4439C132.571 24.7151 132.657 24.0304 132.786 23.3898H138.287C138.06 23.293 137.848 23.1731 137.65 23.0303C137.045 22.5786 136.581 21.9436 136.257 21.1254C135.941 20.2987 135.784 19.3186 135.784 18.1851C135.784 17.0686 135.941 16.0843 136.257 15.232C136.572 14.3797 137.036 13.7149 137.65 13.2377C138.264 12.7519 139.018 12.509 139.913 12.509C140.791 12.509 141.536 12.7433 142.15 13.2121C142.764 13.6808 143.233 14.3414 143.556 15.1936C143.88 16.0374 144.042 17.0345 144.042 18.1851C144.042 19.3357 143.876 20.3243 143.544 21.151C143.22 21.9692 142.751 22.5999 142.137 23.0431C141.532 23.4777 140.791 23.695 139.913 23.695C139.417 23.695 138.965 23.6271 138.556 23.4913C138.548 23.5123 138.54 23.5333 138.532 23.5546C138.217 24.4068 138.059 25.3912 138.059 26.5077C138.059 26.7534 138.066 26.9918 138.081 27.2231H135.124C136.072 27.5983 137.093 27.786 138.187 27.786C139.227 27.786 140.122 27.6325 140.872 27.3257C141.622 27.0189 142.235 26.6226 142.713 26.1368C143.19 25.651 143.548 25.1354 143.786 24.5899H144.017V28.1823C144.017 29.5289 143.629 30.4877 142.853 31.0587C142.086 31.6382 141.11 31.928 139.926 31.928C139.133 31.928 138.46 31.8215 137.906 31.6084C137.36 31.4039 136.921 31.1311 136.589 30.7902C136.257 30.4493 136.014 30.0828 135.86 29.6908L130.823 30.3683C131.045 31.3996 131.527 32.3286 132.268 33.1553C132.901 33.8606 133.719 34.4388 134.724 34.8898H141.199C140.813 35.1848 140.362 35.4377 139.847 35.6483C139.677 35.718 139.499 35.7798 139.314 35.8337ZM159.647 7.40054V28.0672H170.833C172.793 28.0672 174.442 27.7519 175.78 27.1212C175.872 27.0779 175.962 27.0335 176.051 26.9881C176 26.885 175.944 26.7845 175.882 26.6867C175.533 26.1327 175.034 25.698 174.387 25.3827C173.747 25.0673 172.985 24.9097 172.098 24.9097H167.458V27.2231H161.922V23.3898H165.182V16.5871H169.823C170.709 16.5871 171.472 16.7448 172.111 17.0601C172.759 17.3754 173.258 17.8101 173.607 18.3641C173.956 18.9181 174.131 19.5573 174.131 20.2817C174.131 21.2703 173.777 22.0629 173.07 22.6595C172.656 23.0036 172.099 23.247 171.4 23.3898H178.699C178.857 23.467 179.014 23.5518 179.168 23.644C179.2 23.6632 179.233 23.6827 179.265 23.7025C179.652 22.8292 179.846 21.8721 179.846 20.8314C179.846 19.5445 179.573 18.4365 179.027 17.5075C178.482 16.57 177.77 15.8414 176.893 15.3215C176.023 14.8016 175.09 14.5203 174.093 14.4777V14.222C175.005 14.0175 175.814 13.6723 176.522 13.1865C177.238 12.6922 177.8 12.0615 178.209 11.2945C178.618 10.5189 178.823 9.61976 178.823 8.59704C178.823 8.18293 178.791 7.7841 178.726 7.40054H172.41L172.41 7.40045C172.961 7.95627 173.236 8.66195 173.236 9.51749C173.236 10.2078 173.062 10.8002 172.712 11.2945C172.371 11.7888 171.902 12.1723 171.306 12.445C170.718 12.7093 170.045 12.8414 169.286 12.8414H165.182V7.40054H159.647ZM159.647 3.56721H176.386C175.962 3.25395 175.483 2.97887 174.949 2.74192C173.662 2.1709 172.056 1.88539 170.13 1.88539H159.647V3.56721ZM184.335 27.786C185.315 28.2206 186.432 28.4379 187.685 28.4379C188.656 28.4379 189.513 28.3101 190.254 28.0544C190.853 27.8412 191.382 27.5641 191.842 27.2231H184.688C184.976 26.8957 185.306 26.6104 185.677 26.3671C186.368 25.9154 187.152 25.5744 188.03 25.3443C188.916 25.1142 189.845 24.9523 190.817 24.8585C191.959 24.7392 192.879 24.6284 193.578 24.5261C194.277 24.4154 194.784 24.2534 195.099 24.0404C195.335 23.8808 195.483 23.664 195.542 23.3898H198.743V14.8229C198.743 13.6553 198.517 12.6539 198.065 11.8186C197.614 10.9749 196.996 10.2845 196.212 9.7476C195.436 9.21067 194.546 8.81437 193.54 8.55868C192.543 8.303 191.499 8.17516 190.408 8.17516C188.84 8.17516 187.459 8.4138 186.266 8.89107C185.081 9.35982 184.114 10.0331 183.364 10.911C182.614 11.7803 182.111 12.8115 181.855 14.0047L186.892 14.4138C187.08 13.7661 187.463 13.2291 188.043 12.803C188.622 12.3683 189.402 12.151 190.382 12.151C191.311 12.151 192.027 12.3726 192.53 12.8158C193.041 13.259 193.297 13.8854 193.297 14.695V14.7718C193.297 15.1894 193.139 15.5047 192.824 15.7178C192.509 15.9308 192.002 16.0928 191.303 16.2036C190.604 16.3058 189.683 16.4166 188.541 16.536C187.57 16.6297 186.641 16.7916 185.754 17.0218C184.877 17.2519 184.092 17.5928 183.402 18.0445C182.712 18.4962 182.166 19.0928 181.766 19.8343C181.365 20.5757 181.165 21.4919 181.165 22.5828C181.165 23.8783 181.446 24.9607 182.009 25.83C182.58 26.6908 183.355 27.3428 184.335 27.786ZM193.578 28.0672V27.2231H198.743V28.0672H193.578ZM191.367 24.2064C190.753 24.5218 190.046 24.6794 189.244 24.6794C188.409 24.6794 187.719 24.4877 187.173 24.1041C186.636 23.7121 186.368 23.1453 186.368 22.4039C186.368 21.8925 186.5 21.4664 186.764 21.1254C187.028 20.776 187.399 20.499 187.877 20.2945C188.354 20.0899 188.912 19.9408 189.551 19.847C189.85 19.8044 190.182 19.7575 190.548 19.7064C190.915 19.6468 191.281 19.5828 191.648 19.5147C192.014 19.4379 192.342 19.357 192.632 19.2718C192.93 19.178 193.165 19.0757 193.335 18.9649V21.0487C193.335 21.7391 193.161 22.357 192.811 22.9024C192.462 23.4479 191.98 23.8825 191.367 24.2064ZM204.891 27.2362C206.102 28.0033 207.452 28.3868 208.944 28.3868C210.001 28.3868 210.896 28.2121 211.629 27.8627C212.37 27.5132 212.971 27.0743 213.431 26.5459C213.9 26.009 214.262 25.4678 214.518 24.9223H214.748V28.0672H220.117V27.2231H217.056C217.068 27.0114 217.074 26.7942 217.074 26.5716C217.074 25.404 216.913 24.3898 216.589 23.529C216.571 23.482 216.553 23.4356 216.534 23.3898H220.117V7.40054H214.684V11.7291H214.518C214.279 11.2007 213.93 10.6638 213.469 10.1183C213.018 9.56437 212.421 9.10414 211.68 8.73766C210.947 8.36266 210.031 8.17516 208.931 8.17516C207.491 8.17516 206.166 8.55016 204.955 9.30016C203.754 10.0416 202.791 11.1624 202.066 12.6624C201.342 14.1539 200.979 16.0246 200.979 18.2746C200.979 20.4649 201.329 22.3144 202.028 23.8229C202.381 24.5711 202.795 25.2292 203.271 25.7971C203.306 24.934 203.399 24.1316 203.55 23.3898H208.493C208.464 23.3685 208.435 23.3466 208.407 23.3243C207.802 22.83 207.337 22.1482 207.014 21.2789C206.698 20.401 206.541 19.3911 206.541 18.249C206.541 17.1155 206.698 16.1183 207.014 15.2575C207.329 14.3968 207.793 13.7235 208.407 13.2377C209.021 12.7519 209.775 12.509 210.67 12.509C211.548 12.509 212.293 12.7433 212.907 13.2121C213.521 13.6808 213.989 14.3456 214.313 15.2064C214.637 16.0672 214.799 17.0814 214.799 18.249C214.799 19.4166 214.633 20.4351 214.3 21.3044C213.977 22.1737 213.508 22.8513 212.894 23.3371C212.289 23.8144 211.548 24.053 210.67 24.053C210.135 24.053 209.65 23.9661 209.215 23.7924C208.949 24.6037 208.816 25.5301 208.816 26.5716C208.816 26.7938 208.822 27.0109 208.834 27.2231H204.871L204.891 27.2362ZM214.684 3.56721H220.117V1.88539H214.684V3.56721Z" fill="#FF6F6F" style="mix-blend-mode:multiply"/>
<path fill-rule="evenodd" clip-rule="evenodd" d="M89.2964 15.7232H83.8504V11.8899H89.2964V15.7232ZM222.393 15.7232H216.959V11.8899H222.393V15.7232ZM178.662 11.8899C179.259 12.3316 179.748 12.8491 180.127 13.4424C180.57 14.1308 180.862 14.8911 181.002 15.7232H174.686C174.628 15.6644 174.566 15.6073 174.502 15.5518C173.837 14.9723 172.891 14.6825 171.664 14.6825H167.458V15.7232H161.922V11.8899H178.662ZM103.371 11.8899H109.187C109.096 12.4681 108.818 12.9771 108.35 13.4169C107.779 13.9538 107.089 14.2223 106.279 14.2223C105.47 14.2223 104.775 13.9538 104.196 13.4169C103.735 12.9771 103.46 12.4681 103.371 11.8899ZM25.7165 11.8899C26.3143 12.3316 26.8026 12.8491 27.1816 13.4424C27.625 14.1308 27.9166 14.8911 28.0565 15.7232H21.7406C21.6824 15.6644 21.621 15.6073 21.5566 15.5518C20.8918 14.9723 19.9458 14.6825 18.7185 14.6825H14.5126V15.7232H8.97705V11.8899H25.7165Z" fill="#4DE6FF" style="mix-blend-mode:multiply"/>
<path fill-rule="evenodd" clip-rule="evenodd" d="M36.8616 27.2232H31.4156V23.3899H37.2741C36.9991 23.9481 36.8616 24.5783 36.8616 25.2805V27.2232ZM80.8853 27.2232H64.5549C64.8427 26.8958 65.1725 26.6105 65.5443 26.3672C66.2347 25.9155 67.0188 25.5746 67.8966 25.3444C68.783 25.1143 69.712 24.9524 70.6836 24.8586C71.8256 24.7393 72.7461 24.6285 73.4449 24.5263C74.1438 24.4155 74.6509 24.2535 74.9662 24.0405C75.2023 23.8809 75.35 23.6641 75.4094 23.3899H80.8853V27.2232ZM108.99 27.2232H103.544V23.3899H108.99V27.2232ZM117.538 27.2232H112.092V23.3899H117.794C117.63 23.8735 117.544 24.4228 117.538 25.0376V27.2232ZM130.194 27.2232H124.748V24.8586C124.752 24.315 124.692 23.8254 124.566 23.3899L130.184 23.3899C130.191 23.553 130.194 23.7187 130.194 23.8871V27.2232ZM201.018 27.2232H184.688C184.976 26.8958 185.306 26.6105 185.677 26.3672C186.368 25.9155 187.152 25.5746 188.03 25.3444C188.916 25.1143 189.845 24.9524 190.817 24.8586C191.959 24.7393 192.879 24.6285 193.578 24.5263C194.277 24.4155 194.784 24.2535 195.099 24.0405C195.335 23.8809 195.483 23.6641 195.542 23.3899H201.018V27.2232ZM222.393 23.3899V27.2232H217.056C217.068 27.0115 217.074 26.7943 217.074 26.5717C217.074 25.4041 216.913 24.3899 216.589 23.5291C216.571 23.4821 216.553 23.4357 216.534 23.3899H222.393ZM203.55 23.3899C203.353 24.3561 203.255 25.4252 203.255 26.5973C203.255 26.8091 203.258 27.0178 203.265 27.2232H208.834C208.822 27.0111 208.816 26.7939 208.816 26.5717C208.816 25.4382 208.974 24.441 209.289 23.5802C209.313 23.5157 209.337 23.4523 209.362 23.3899H203.55ZM178.699 23.3899C178.857 23.4671 179.014 23.5519 179.168 23.6442C180.046 24.164 180.757 24.8927 181.303 25.8302C181.553 26.2568 181.746 26.7212 181.882 27.2232H176.156C176.081 27.0363 175.99 26.8575 175.882 26.6868C175.533 26.1328 175.034 25.6981 174.387 25.3828C173.747 25.0674 172.985 24.9098 172.098 24.9098H167.458V27.2232H161.922V23.3899H178.699ZM151.674 23.3899V27.2232H146.295C146.31 26.9921 146.318 26.7537 146.318 26.5078C146.318 25.3572 146.156 24.3601 145.832 23.5163C145.816 23.4737 145.799 23.4316 145.782 23.3899H151.674ZM132.786 23.3899C132.594 24.3406 132.498 25.3885 132.498 26.5334C132.498 26.7677 132.502 26.9976 132.51 27.2232H138.081C138.066 26.992 138.059 26.7535 138.059 26.5078C138.059 25.3913 138.217 24.4069 138.532 23.5547C138.553 23.4989 138.574 23.444 138.596 23.3899H132.786ZM90.2797 23.3899H96.4495L94.8488 25.2594L96.1991 27.2232H91.8644H90.9241H89.2964H88.7919H83.8504V23.3899H89.2964V24.2067H89.5905L90.2797 23.3899ZM61.616 23.3899C61.8277 24.3202 61.9336 25.3467 61.9336 26.4694V27.2232H48.5615H45.3526H43.1892C43.1826 27.0382 43.1793 26.8509 43.1793 26.6612C43.1793 25.4873 43.3118 24.3968 43.5766 23.3899H48.7855C48.6592 23.7679 48.5862 24.168 48.5666 24.5902H56.8072C56.8072 24.1636 56.7567 23.7635 56.6558 23.3899H61.616ZM25.7539 23.3899C25.9122 23.4671 26.0685 23.5519 26.2228 23.6442C27.1006 24.164 27.8123 24.8927 28.3577 25.8302C28.6082 26.2568 28.8012 26.7212 28.9366 27.2232H23.2106C23.1361 27.0363 23.045 26.8575 22.9373 26.6868C22.5878 26.1328 22.0893 25.6981 21.4415 25.3828C20.8023 25.0674 20.0396 24.9098 19.1532 24.9098H14.5126V27.2232H8.97705V23.3899H25.7539Z" fill="#4DE6FF" style="mix-blend-mode:multiply"/>
<path fill-rule="evenodd" clip-rule="evenodd" d="M8.97705 34.8899V36.3899H20.1631C22.1234 36.3899 23.7725 36.0746 25.1106 35.4439C25.4681 35.2753 25.8023 35.0907 26.113 34.8899L8.97705 34.8899ZM31.4156 34.8899V36.3899H36.8616V34.8899H31.4156ZM46.7164 34.8899C47.0267 35.1284 47.3562 35.3471 47.7049 35.5461C49.1623 36.3643 50.9009 36.7734 52.9208 36.7734C54.5401 36.7734 55.9677 36.5263 57.2035 36.0319C57.9642 35.7245 58.6389 35.3438 59.2277 34.8899L46.7164 34.8899ZM64.7379 34.8899C65.22 35.396 65.7999 35.8022 66.4776 36.1086C67.4577 36.5433 68.5742 36.7606 69.827 36.7606C70.7986 36.7606 71.6551 36.6328 72.3966 36.3771C73.1381 36.1129 73.773 35.7507 74.3015 35.2905C74.4459 35.1623 74.5823 35.0288 74.7108 34.8899L64.7379 34.8899ZM75.7205 34.8899V36.3899H80.8853V34.8899H75.7205ZM83.8504 34.8899V36.3899H89.2964V34.8899H83.8504ZM95.1097 34.8899L96.1231 36.3899H102.502L101.471 34.8899H95.1097ZM103.544 34.8899V36.3899H108.99V34.8899H103.544ZM112.092 34.8899V36.3899H117.538V34.8899H112.092ZM124.748 34.8899V36.3899H130.194V34.8899H124.748ZM136.116 34.8899C136.22 34.9582 136.327 35.0235 136.435 35.0859C137.646 35.7677 138.988 36.1086 140.462 36.1086C141.502 36.1086 142.397 35.9552 143.147 35.6484C143.662 35.4378 144.113 35.1849 144.499 34.8899L136.116 34.8899ZM146.292 34.8899V36.5049C146.292 37.4257 146.111 38.1651 145.748 38.7232H151.412C151.587 38.0676 151.674 37.3538 151.674 36.5817V34.8899H146.292ZM161.922 34.8899V36.3899H173.108C175.069 36.3899 176.718 36.0746 178.056 35.4439C178.413 35.2753 178.747 35.0907 179.058 34.8899L161.922 34.8899ZM184.871 34.8899C185.353 35.396 185.933 35.8022 186.611 36.1086C187.591 36.5433 188.707 36.7606 189.96 36.7606C190.932 36.7606 191.788 36.6328 192.53 36.3771C193.271 36.1129 193.906 35.7507 194.435 35.2905C194.579 35.1623 194.715 35.0288 194.844 34.8899L184.871 34.8899ZM195.854 34.8899V36.3899H201.018V34.8899H195.854ZM206.29 34.8899C206.566 35.1368 206.858 35.3598 207.167 35.5589C208.377 36.326 209.728 36.7095 211.219 36.7095C212.276 36.7095 213.171 36.5348 213.904 36.1853C214.635 35.8406 215.23 35.4088 215.688 34.8899L206.29 34.8899ZM217.023 34.8899V36.3899H222.393V34.8899H217.023ZM133.106 38.7232H138.532C138.364 38.4968 138.232 38.2602 138.136 38.0135L133.099 38.691C133.101 38.7018 133.103 38.7125 133.106 38.7232Z" fill="#4DE6FF" style="mix-blend-mode:multiply"/>
<path fill-rule="evenodd" clip-rule="evenodd" d="M0.101562 7.40054V28.0672H11.2876C13.2479 28.0672 14.897 27.7519 16.2351 27.1212C16.3269 27.0779 16.4172 27.0335 16.506 26.9881C16.4551 26.885 16.3989 26.7845 16.3372 26.6867C15.9878 26.1327 15.4892 25.698 14.8414 25.3827C14.2022 25.0673 13.4395 24.9097 12.5531 24.9097H7.91247V27.2231H2.37695V23.3898H5.63707V16.5871H10.2777C11.1641 16.5871 11.9268 16.7448 12.5661 17.0601C13.2138 17.3754 13.7124 17.8101 14.0618 18.3641C14.4112 18.9181 14.5859 19.5573 14.5859 20.2817C14.5859 21.2703 14.2322 22.0629 13.5249 22.6595C13.111 23.0036 12.5541 23.247 11.8543 23.3898H19.1538C19.3121 23.467 19.4684 23.5518 19.6227 23.644C19.6551 23.6632 19.6873 23.6827 19.7193 23.7025C20.1067 22.8292 20.3004 21.8721 20.3004 20.8314C20.3004 19.5445 20.0277 18.4365 19.4822 17.5075C18.9368 16.57 18.2251 15.8414 17.3473 15.3215C16.478 14.8016 15.5447 14.5203 14.5476 14.4777V14.222C15.4595 14.0175 16.2692 13.6723 16.9766 13.1865C17.6925 12.6922 18.255 12.0615 18.6641 11.2945C19.0732 10.5189 19.2777 9.61976 19.2777 8.59704C19.2777 8.18293 19.2455 7.7841 19.181 7.40054H12.8651C13.4157 7.95634 13.6911 8.66199 13.6911 9.51749C13.6911 10.2078 13.5163 10.8002 13.1669 11.2945C12.826 11.7888 12.3572 12.1723 11.7607 12.445C11.1726 12.7093 10.4993 12.8414 9.74077 12.8414H5.63707V7.40054H0.101562ZM0.101562 3.56721H16.841C16.4171 3.25396 15.9381 2.97886 15.4041 2.74192C14.1172 2.1709 12.5107 1.88539 10.5845 1.88539H0.101562V3.56721ZM22.5401 8.43084V28.0672H27.9861V27.2231H24.8155V23.3898H27.9861V16.9578C27.9861 16.1567 28.1651 15.4493 28.523 14.8357C28.8895 14.222 29.3838 13.7448 30.006 13.4039C30.6367 13.0544 31.3526 12.8797 32.1537 12.8797C32.5287 12.8797 32.9421 12.9095 33.3938 12.9692C33.8455 13.0289 34.1992 13.097 34.4548 13.1737V8.34135C34.2162 8.2817 33.9392 8.23482 33.6239 8.20073C33.3085 8.16664 33.0145 8.14959 32.7418 8.14959C31.6423 8.14959 30.6708 8.46493 29.827 9.09562C28.9833 9.71777 28.3824 10.6382 28.0244 11.857H27.8199V8.43084H22.5401ZM38.8294 27.2235C40.2868 28.0416 42.0255 28.4507 44.0453 28.4507C45.6647 28.4507 47.0922 28.2036 48.328 27.7093C48.6883 27.5636 49.0293 27.4016 49.3511 27.2231H41.9614H38.8288L38.8294 27.2235ZM55.0159 23.3898C55.1915 24.1611 55.2943 24.9987 55.3242 25.9024C55.8904 26.7274 56.6497 27.3553 57.6021 27.786C58.5822 28.2206 59.6987 28.4379 60.9515 28.4379C61.9231 28.4379 62.7797 28.3101 63.5211 28.0544C64.1196 27.8412 64.6487 27.5641 65.1084 27.2231H57.9548C58.2426 26.8957 58.5724 26.6104 58.9443 26.3671C59.6346 25.9154 60.4187 25.5744 61.2965 25.3443C62.1829 25.1142 63.1119 24.9523 64.0835 24.8585C65.2255 24.7392 66.146 24.6284 66.8448 24.5261C67.5437 24.4154 68.0508 24.2534 68.3661 24.0404C68.6022 23.8808 68.7499 23.664 68.8093 23.3898H72.0098V14.8229C72.0098 13.6553 71.7839 12.6539 71.3322 11.8186C70.8805 10.9749 70.2626 10.2845 69.4785 9.7476C68.703 9.21067 67.8123 8.81437 66.8066 8.55868C65.8095 8.303 64.7655 8.17516 63.6745 8.17516C62.1064 8.17516 60.7257 8.4138 59.5325 8.89107C58.3478 9.35982 57.3805 10.0331 56.6305 10.911C55.8805 11.7803 55.3777 12.8115 55.122 14.0047L60.1589 14.4138C60.3464 13.7661 60.7299 13.2291 61.3095 12.803C61.889 12.3683 62.6689 12.151 63.649 12.151C64.578 12.151 65.2939 12.3726 65.7967 12.8158C66.3081 13.259 66.5638 13.8854 66.5638 14.695V14.7718C66.5638 15.1894 66.4061 15.5047 66.0907 15.7178C65.7754 15.9308 65.2683 16.0928 64.5694 16.2036C63.8706 16.3058 62.9501 16.4166 61.8081 16.536C60.8365 16.6297 59.9075 16.7916 59.0211 17.0218C58.1433 17.2519 57.3592 17.5928 56.6689 18.0445C55.9785 18.4962 55.4331 19.0928 55.0325 19.8343C54.6319 20.5757 54.4316 21.4919 54.4316 22.5828C54.4316 22.8617 54.4447 23.1307 54.4707 23.3898H55.0159ZM66.845 28.0672V27.2231H72.0098V28.0672H66.845ZM50.0557 23.3898H52.677C52.7853 23.0851 52.874 22.7693 52.9431 22.4422L47.9061 22.1098C47.7186 22.6041 47.4459 23.0218 47.088 23.3627C46.73 23.7036 46.2996 23.9593 45.7968 24.1297C45.2939 24.3002 44.7399 24.3854 44.1348 24.3854C43.3434 24.3854 42.6451 24.241 42.0399 23.9521C42.0011 24.1589 41.9767 24.3715 41.9665 24.5901H50.2071C50.2071 24.1635 50.1566 23.7634 50.0557 23.3898ZM35.48 23.7206C35.8061 24.348 36.1897 24.9164 36.6307 25.4258C36.6917 24.7129 36.807 24.0343 36.9765 23.3898H41.1746C40.7887 23.059 40.4715 22.6536 40.2229 22.1737C39.8649 21.4664 39.686 20.6269 39.686 19.6553V19.6425H53.0581V18.1468C53.0581 16.4763 52.8237 15.0189 52.355 13.7746C51.8862 12.5218 51.23 11.482 50.3862 10.6553C49.551 9.82857 48.5709 9.21067 47.4459 8.80158C46.3294 8.38397 45.1235 8.17516 43.828 8.17516C41.9019 8.17516 40.2229 8.6013 38.7911 9.45357C37.3678 10.3058 36.2641 11.4948 35.48 13.0203C34.6959 14.5459 34.3039 16.3186 34.3039 18.3385C34.3039 20.4095 34.6959 22.2036 35.48 23.7206ZM39.6911 16.2675C39.7239 15.5624 39.9055 14.9189 40.2357 14.3371C40.5936 13.6979 41.088 13.1908 41.7186 12.8158C42.3578 12.4323 43.0908 12.2405 43.9175 12.2405C44.7101 12.2405 45.4047 12.4152 46.0013 12.7646C46.6064 13.1056 47.0794 13.5786 47.4203 14.1837C47.7612 14.7888 47.9317 15.4834 47.9317 16.2675H39.6911ZM64.6334 24.2064C64.0197 24.5218 63.3123 24.6794 62.5112 24.6794C61.676 24.6794 60.9856 24.4877 60.4402 24.1041C59.9032 23.7121 59.6348 23.1453 59.6348 22.4039C59.6348 21.8925 59.7669 21.4664 60.0311 21.1254C60.2953 20.776 60.666 20.499 61.1433 20.2945C61.6206 20.0899 62.1788 19.9408 62.818 19.847C63.1163 19.8044 63.4487 19.7575 63.8152 19.7064C64.1816 19.6468 64.5481 19.5828 64.9146 19.5147C65.2811 19.4379 65.6092 19.357 65.899 19.2718C66.1973 19.178 66.4316 19.0757 66.6021 18.9649V21.0487C66.6021 21.7391 66.4274 22.357 66.078 22.9024C65.7285 23.4479 65.247 23.8825 64.6334 24.2064ZM80.4209 21.8327V23.3898H77.2503V27.2231H80.4209V28.0672H74.9749V7.40054H80.4209V15.884H80.715L87.0047 8.43084H93.2562L85.9733 16.9367L93.6269 28.0672H87.2476L86.6773 27.2231H89.599L88.2487 25.2593L89.8494 23.3898H84.0874L81.8968 20.1475L80.4209 21.8327ZM80.4209 3.56721V1.88539H74.9749V3.56721H80.4209ZM94.668 8.43084V28.0672H100.114V27.2231H96.9434V23.3898H100.114V8.43084H94.668ZM100.312 3.56721C100.333 3.42821 100.344 3.28522 100.344 3.13823C100.344 2.38823 100.054 1.74476 99.4749 1.20783C98.9038 0.662376 98.2135 0.389648 97.4038 0.389648C96.5942 0.389648 95.8996 0.662376 95.32 1.20783C94.749 1.74476 94.4635 2.38823 94.4635 3.13823C94.4635 3.28522 94.4742 3.42821 94.4957 3.56721H100.312ZM108.663 28.0672V27.2231H105.492V23.3898H108.663V16.7149C108.671 15.8712 108.829 15.151 109.136 14.5544C109.451 13.9493 109.886 13.4891 110.44 13.1737C111.002 12.8584 111.65 12.7007 112.383 12.7007C113.474 12.7007 114.33 13.0416 114.952 13.7235C115.575 14.3968 115.881 15.3343 115.873 16.536V28.0672H121.319V27.2231H118.148V24.8585C118.152 24.3149 118.091 23.8253 117.966 23.3898H121.319V15.5644C121.319 14.0388 121.038 12.7263 120.475 11.6269C119.913 10.5189 119.124 9.66664 118.11 9.07005C117.096 8.47346 115.907 8.17516 114.543 8.17516C113.086 8.17516 111.846 8.51181 110.823 9.1851C109.8 9.84988 109.072 10.7533 108.637 11.8953H108.407V8.43084H103.217V28.0672H108.663ZM137.294 35.2876C137.511 35.1648 137.712 35.0322 137.899 34.8898H129.516C129.62 34.9581 129.727 35.0234 129.835 35.0858C130.321 35.3592 130.827 35.5778 131.355 35.7416C130.356 35.6286 129.457 35.4185 128.659 35.1112C127.407 34.634 126.409 33.982 125.668 33.1553C124.926 32.3286 124.445 31.3996 124.223 30.3683L129.26 29.6908C129.414 30.0828 129.657 30.4493 129.989 30.7902C130.321 31.1311 130.76 31.4039 131.306 31.6084C131.86 31.8215 132.533 31.928 133.326 31.928C134.51 31.928 135.486 31.6382 136.253 31.0587C137.029 30.4877 137.417 29.5289 137.417 28.1823V24.5899H137.186C136.948 25.1354 136.59 25.651 136.113 26.1368C135.635 26.6226 135.022 27.0189 134.272 27.3257C133.522 27.6325 132.627 27.786 131.587 27.786C130.493 27.786 129.472 27.5983 128.524 27.2231H131.481C131.466 26.9918 131.459 26.7534 131.459 26.5077C131.459 25.3912 131.617 24.4068 131.932 23.5546C131.94 23.5333 131.948 23.5123 131.956 23.4913C132.365 23.6271 132.817 23.695 133.313 23.695C134.191 23.695 134.932 23.4777 135.537 23.0431C136.151 22.5999 136.62 21.9692 136.943 21.151C137.276 20.3243 137.442 19.3357 137.442 18.1851C137.442 17.0345 137.28 16.0374 136.956 15.1936C136.632 14.3414 136.164 13.6808 135.55 13.2121C134.936 12.7433 134.191 12.509 133.313 12.509C132.418 12.509 131.664 12.7519 131.05 13.2377C130.436 13.7149 129.972 14.3797 129.657 15.232C129.341 16.0843 129.184 17.0686 129.184 18.1851C129.184 19.3186 129.341 20.2987 129.657 21.1254C129.98 21.9436 130.445 22.5786 131.05 23.0303C131.248 23.1731 131.46 23.293 131.687 23.3898H126.186C126.056 24.0304 125.971 24.7151 125.928 25.4439C125.454 24.9202 125.039 24.3075 124.684 23.6056C123.976 22.1823 123.622 20.384 123.622 18.2107C123.622 15.9862 123.985 14.1283 124.709 12.6368C125.434 11.1453 126.397 10.0289 127.598 9.28738C128.809 8.5459 130.134 8.17516 131.574 8.17516C132.674 8.17516 133.594 8.36266 134.336 8.73766C135.077 9.10414 135.674 9.56437 136.125 10.1183C136.586 10.6638 136.939 11.2007 137.186 11.7291H137.391V8.43084H142.799V23.3898H139.182C139.194 23.4188 139.205 23.448 139.217 23.4775L139.232 23.5162C139.556 24.36 139.717 25.3571 139.717 26.5077C139.717 26.7536 139.71 26.992 139.695 27.2231H142.799V28.259C142.799 29.9294 142.39 31.3272 141.571 32.4522C140.753 33.5772 139.62 34.4209 138.171 34.9834C137.887 35.0959 137.595 35.1973 137.294 35.2876ZM153.047 7.40054V28.0672H164.233C166.193 28.0672 167.842 27.7519 169.18 27.1212C169.272 27.0779 169.362 27.0335 169.451 26.9881C169.4 26.885 169.344 26.7845 169.282 26.6867C168.933 26.1327 168.434 25.698 167.787 25.3827C167.147 25.0673 166.385 24.9097 165.498 24.9097H160.858V27.2231H155.322V23.3898H158.582V16.5871H163.223C164.109 16.5871 164.872 16.7448 165.511 17.0601C166.159 17.3754 166.658 17.8101 167.007 18.3641C167.356 18.9181 167.531 19.5573 167.531 20.2817C167.531 21.2703 167.177 22.0629 166.47 22.6595C166.056 23.0036 165.499 23.247 164.799 23.3898H172.099C172.257 23.467 172.414 23.5518 172.568 23.644C172.6 23.6632 172.632 23.6827 172.664 23.7025C173.052 22.8292 173.246 21.8721 173.246 20.8314C173.246 19.5445 172.973 18.4365 172.427 17.5075C171.882 16.57 171.17 15.8414 170.292 15.3215C169.423 14.8016 168.49 14.5203 167.493 14.4777V14.222C168.405 14.0175 169.214 13.6723 169.922 13.1865C170.638 12.6922 171.2 12.0615 171.609 11.2945C172.018 10.5189 172.223 9.61976 172.223 8.59704C172.223 8.18293 172.191 7.7841 172.126 7.40054H165.81L165.81 7.40045C166.361 7.95627 166.636 8.66195 166.636 9.51749C166.636 10.2078 166.461 10.8002 166.112 11.2945C165.771 11.7888 165.302 12.1723 164.706 12.445C164.118 12.7093 163.444 12.8414 162.686 12.8414H158.582V7.40054H153.047ZM153.047 3.56721H169.786C169.362 3.25395 168.883 2.97887 168.349 2.74192C167.062 2.1709 165.456 1.88539 163.53 1.88539H153.047V3.56721ZM177.735 27.786C178.715 28.2206 179.832 28.4379 181.085 28.4379C182.056 28.4379 182.913 28.3101 183.654 28.0544C184.253 27.8412 184.782 27.5641 185.241 27.2231H178.088C178.376 26.8957 178.706 26.6104 179.077 26.3671C179.768 25.9154 180.552 25.5744 181.43 25.3443C182.316 25.1142 183.245 24.9523 184.217 24.8585C185.359 24.7392 186.279 24.6284 186.978 24.5261C187.677 24.4154 188.184 24.2534 188.499 24.0404C188.735 23.8808 188.883 23.664 188.942 23.3898H192.143V14.8229C192.143 13.6553 191.917 12.6539 191.465 11.8186C191.014 10.9749 190.396 10.2845 189.612 9.7476C188.836 9.21067 187.945 8.81437 186.94 8.55868C185.943 8.303 184.899 8.17516 183.808 8.17516C182.239 8.17516 180.859 8.4138 179.666 8.89107C178.481 9.35982 177.514 10.0331 176.764 10.911C176.014 11.7803 175.511 12.8115 175.255 14.0047L180.292 14.4138C180.48 13.7661 180.863 13.2291 181.443 12.803C182.022 12.3683 182.802 12.151 183.782 12.151C184.711 12.151 185.427 12.3726 185.93 12.8158C186.441 13.259 186.697 13.8854 186.697 14.695V14.7718C186.697 15.1894 186.539 15.5047 186.224 15.7178C185.909 15.9308 185.401 16.0928 184.703 16.2036C184.004 16.3058 183.083 16.4166 181.941 16.536C180.97 16.6297 180.041 16.7916 179.154 17.0218C178.276 17.2519 177.492 17.5928 176.802 18.0445C176.112 18.4962 175.566 19.0928 175.166 19.8343C174.765 20.5757 174.565 21.4919 174.565 22.5828C174.565 23.8783 174.846 24.9607 175.409 25.83C175.98 26.6908 176.755 27.3428 177.735 27.786ZM186.978 28.0672V27.2231H192.143V28.0672H186.978ZM184.766 24.2064C184.153 24.5218 183.445 24.6794 182.644 24.6794C181.809 24.6794 181.119 24.4877 180.573 24.1041C180.036 23.7121 179.768 23.1453 179.768 22.4039C179.768 21.8925 179.9 21.4664 180.164 21.1254C180.428 20.776 180.799 20.499 181.276 20.2945C181.754 20.0899 182.312 19.9408 182.951 19.847C183.249 19.8044 183.582 19.7575 183.948 19.7064C184.315 19.6468 184.681 19.5828 185.048 19.5147C185.414 19.4379 185.742 19.357 186.032 19.2718C186.33 19.178 186.565 19.0757 186.735 18.9649V21.0487C186.735 21.7391 186.561 22.357 186.211 22.9024C185.862 23.4479 185.38 23.8825 184.766 24.2064ZM198.291 27.2362C199.501 28.0033 200.852 28.3868 202.344 28.3868C203.401 28.3868 204.296 28.2121 205.028 27.8627C205.77 27.5132 206.371 27.0743 206.831 26.5459C207.3 26.009 207.662 25.4678 207.918 24.9223H208.148V28.0672H213.517V27.2231H210.456C210.468 27.0114 210.474 26.7942 210.474 26.5716C210.474 25.404 210.312 24.3898 209.989 23.529C209.971 23.482 209.953 23.4356 209.934 23.3898H213.517V7.40054H208.084V11.7291H207.918C207.679 11.2007 207.33 10.6638 206.869 10.1183C206.418 9.56437 205.821 9.10414 205.08 8.73766C204.347 8.36266 203.43 8.17516 202.331 8.17516C200.891 8.17516 199.565 8.55016 198.355 9.30016C197.153 10.0416 196.19 11.1624 195.466 12.6624C194.742 14.1539 194.379 16.0246 194.379 18.2746C194.379 20.4649 194.729 22.3144 195.428 23.8229C195.78 24.5711 196.195 25.2292 196.671 25.7971C196.706 24.934 196.799 24.1316 196.95 23.3898H201.892C201.864 23.3685 201.835 23.3466 201.807 23.3243C201.202 22.83 200.737 22.1482 200.413 21.2789C200.098 20.401 199.94 19.3911 199.94 18.249C199.94 17.1155 200.098 16.1183 200.413 15.2575C200.729 14.3968 201.193 13.7235 201.807 13.2377C202.421 12.7519 203.175 12.509 204.07 12.509C204.948 12.509 205.693 12.7433 206.307 13.2121C206.921 13.6808 207.389 14.3456 207.713 15.2064C208.037 16.0672 208.199 17.0814 208.199 18.249C208.199 19.4166 208.033 20.4351 207.7 21.3044C207.376 22.1737 206.908 22.8513 206.294 23.3371C205.689 23.8144 204.948 24.053 204.07 24.053C203.535 24.053 203.05 23.9661 202.615 23.7924C202.349 24.6037 202.216 25.5301 202.216 26.5716C202.216 26.7938 202.222 27.0109 202.234 27.2231H198.271L198.291 27.2362ZM208.084 3.56721H213.517V1.88539H208.084V3.56721Z" fill="#4DE6FF" style="mix-blend-mode:multiply"/>
</svg>
