<svg width="77" height="36" viewBox="0 0 77 36" fill="none" xmlns="http://www.w3.org/2000/svg">
<path fill-rule="evenodd" clip-rule="evenodd" d="M76.2204 14.6859H70.7872V10.8525H76.2204V14.6859ZM32.4895 10.8525C33.0872 11.2942 33.5756 11.8117 33.9545 12.4051C34.3979 13.0935 34.6895 13.8537 34.8294 14.6859H28.5136C28.4553 14.6271 28.394 14.5699 28.3295 14.5145C27.6648 13.9349 26.7188 13.6452 25.4915 13.6452H21.2855V14.6859H15.75V10.8525H32.4895Z" fill="white"/>
<path fill-rule="evenodd" clip-rule="evenodd" d="M54.8462 26.1859H38.5158C38.8036 25.8585 39.1334 25.5731 39.5053 25.3298C40.1956 24.8781 40.9797 24.5372 41.8575 24.3071C42.7439 24.077 43.6729 23.915 44.6445 23.8213C45.7865 23.702 46.707 23.5912 47.4058 23.4889C48.1047 23.3781 48.6118 23.2162 48.9271 23.0031C49.1632 22.8436 49.311 22.6267 49.3703 22.3525H54.8462V26.1859ZM76.2204 22.3525V26.1859H70.8841C70.8962 25.9741 70.9022 25.7569 70.9022 25.5344C70.9022 24.3667 70.7403 23.3525 70.4164 22.4917C70.3988 22.4448 70.3806 22.3984 70.3621 22.3525H76.2204ZM57.3775 22.3525C57.1809 23.3188 57.0826 24.3879 57.0826 25.5599C57.0826 25.7718 57.0859 25.9804 57.0924 26.1859H62.6616C62.6497 25.9737 62.6437 25.7565 62.6437 25.5344C62.6437 24.4008 62.8014 23.4037 63.1167 22.5429C63.1403 22.4784 63.1648 22.4149 63.1901 22.3525H57.3775ZM32.5268 22.3525C32.6851 22.4298 32.8414 22.5145 32.9957 22.6068C33.8736 23.1267 34.5852 23.8554 35.1307 24.7929C35.3812 25.2195 35.5741 25.6838 35.7096 26.1859H29.9835C29.909 25.999 29.8179 25.8201 29.7102 25.6494C29.3608 25.0954 28.8622 24.6608 28.2145 24.3454C27.5753 24.0301 26.8125 23.8724 25.9261 23.8724H21.2855V26.1859H15.75V22.3525H32.5268Z" fill="white"/>
<path fill-rule="evenodd" clip-rule="evenodd" d="M15.75 33.8525V35.3525H26.9361C28.8963 35.3525 30.5455 35.0372 31.8835 34.4065C32.2411 34.238 32.5752 34.0533 32.8859 33.8525L15.75 33.8525ZM38.6988 33.8525C39.1809 34.3586 39.7608 34.7649 40.4385 35.0713C41.4186 35.5059 42.5351 35.7233 43.7879 35.7233C44.7595 35.7233 45.6161 35.5954 46.3575 35.3398C47.099 35.0756 47.734 34.7133 48.2624 34.2531C48.4068 34.125 48.5432 33.9915 48.6717 33.8525L38.6988 33.8525ZM49.6814 33.8525V35.3525H54.8462V33.8525H49.6814ZM60.1178 33.8525C60.3938 34.0994 60.686 34.3224 60.9946 34.5216C62.2048 35.2886 63.5556 35.6721 65.0471 35.6721C66.1039 35.6721 66.9988 35.4974 67.7318 35.148C68.4633 34.8033 69.0579 34.3715 69.5157 33.8525L60.1178 33.8525ZM70.8511 33.8525V35.3525H76.2204V33.8525H70.8511Z" fill="white"/>
<path fill-rule="evenodd" clip-rule="evenodd" d="M6.87451 6.3633V27.03H18.0606C20.0208 27.03 21.67 26.7146 23.008 26.0839C23.0999 26.0407 23.1902 25.9963 23.2789 25.9509C23.2281 25.8477 23.1718 25.7472 23.1101 25.6494C22.7607 25.0954 22.2621 24.6608 21.6144 24.3454C20.9752 24.0301 20.2124 23.8724 19.326 23.8724H14.6854V26.1859H9.1499V22.3525H12.41V15.5498H17.0506C17.937 15.5498 18.6998 15.7075 19.339 16.0229C19.9867 16.3382 20.4853 16.7729 20.8347 17.3268C21.1842 17.8808 21.3589 18.52 21.3589 19.2445C21.3589 20.2331 21.0052 21.0257 20.2978 21.6223C19.8839 21.9664 19.3271 22.2098 18.6273 22.3525H25.9267C26.0851 22.4298 26.2414 22.5145 26.3956 22.6068C26.4281 22.626 26.4602 22.6455 26.4922 22.6653C26.8797 21.7919 27.0734 20.8349 27.0734 19.7942C27.0734 18.5072 26.8006 17.3993 26.2552 16.4703C25.7097 15.5328 24.9981 14.8041 24.1203 14.2842C23.2509 13.7643 22.3177 13.4831 21.3205 13.4405V13.1848C22.2325 12.9802 23.0421 12.6351 23.7495 12.1493C24.4654 11.655 25.0279 11.0243 25.437 10.2572C25.8461 9.48167 26.0506 8.58252 26.0506 7.55979C26.0506 7.14569 26.0184 6.74686 25.9539 6.3633H19.6381C20.1887 6.9191 20.464 7.62475 20.464 8.48025C20.464 9.17059 20.2893 9.76292 19.9399 10.2572C19.5989 10.7516 19.1302 11.1351 18.5336 11.4078C17.9455 11.672 17.2722 11.8041 16.5137 11.8041H12.41V6.3633H6.87451ZM6.87451 2.52996H23.614C23.19 2.21672 22.7111 1.94162 22.1771 1.70468C20.8901 1.13366 19.2836 0.848145 17.3575 0.848145H6.87451V2.52996ZM31.563 26.7487C32.5431 27.1834 33.6596 27.4007 34.9125 27.4007C35.884 27.4007 36.7406 27.2729 37.4821 27.0172C38.0805 26.8039 38.6096 26.5268 39.0693 26.1859H31.9157C32.2035 25.8585 32.5333 25.5731 32.9052 25.3298C33.5955 24.8781 34.3796 24.5372 35.2574 24.3071C36.1438 24.077 37.0728 23.915 38.0444 23.8213C39.1864 23.702 40.1069 23.5912 40.8057 23.4889C41.5046 23.3781 42.0117 23.2162 42.327 23.0031C42.5631 22.8436 42.7109 22.6267 42.7702 22.3525H45.9707V13.7856C45.9707 12.618 45.7448 11.6166 45.2931 10.7814C44.8414 9.93763 44.2235 9.24729 43.4394 8.71036C42.6639 8.17343 41.7732 7.77712 40.7676 7.52144C39.7704 7.26576 38.7264 7.13792 37.6355 7.13792C36.0673 7.13792 34.6866 7.37655 33.4934 7.85383C32.3088 8.32258 31.3414 8.99587 30.5914 9.87371C29.8414 10.743 29.3386 11.7743 29.0829 12.9675L34.1198 13.3766C34.3073 12.7288 34.6909 12.1919 35.2704 11.7658C35.85 11.3311 36.6298 11.1138 37.6099 11.1138C38.5389 11.1138 39.2548 11.3354 39.7576 11.7785C40.269 12.2217 40.5247 12.8481 40.5247 13.6578V13.7345C40.5247 14.1521 40.367 14.4675 40.0517 14.6805C39.7363 14.8936 39.2292 15.0555 38.5303 15.1663C37.8315 15.2686 36.911 15.3794 35.769 15.4987C34.7974 15.5925 33.8684 15.7544 32.9821 15.9845C32.1042 16.2146 31.3201 16.5555 30.6298 17.0072C29.9394 17.4589 29.394 18.0555 28.9934 18.797C28.5928 19.5385 28.3926 20.4547 28.3926 21.5456C28.3926 22.841 28.6738 23.9234 29.2363 24.7927C29.8073 25.6535 30.5829 26.3055 31.563 26.7487ZM40.8059 27.03V26.1859H45.9707V27.03H40.8059ZM38.5943 23.1692C37.9806 23.4845 37.2732 23.6422 36.4721 23.6422C35.6369 23.6422 34.9465 23.4504 34.4011 23.0669C33.8642 22.6749 33.5957 22.1081 33.5957 21.3666C33.5957 20.8552 33.7278 20.4291 33.992 20.0882C34.2562 19.7388 34.6269 19.4618 35.1042 19.2572C35.5815 19.0527 36.1397 18.9035 36.7789 18.8098C37.0772 18.7672 37.4096 18.7203 37.7761 18.6692C38.1426 18.6095 38.509 18.5456 38.8755 18.4774C39.242 18.4007 39.5701 18.3197 39.8599 18.2345C40.1582 18.1408 40.3926 18.0385 40.563 17.9277V20.0115C40.563 20.7018 40.3883 21.3197 40.0389 21.8652C39.6894 22.4106 39.2079 22.8453 38.5943 23.1692ZM52.1191 26.199C53.3293 26.966 54.6801 27.3496 56.1716 27.3496C57.2284 27.3496 58.1233 27.1749 58.8563 26.8254C59.5978 26.476 60.1986 26.0371 60.6588 25.5087C61.1276 24.9717 61.4898 24.4305 61.7455 23.8851H61.9756V27.03H67.3449V26.1859H64.284C64.2961 25.9741 64.3021 25.757 64.3021 25.5344C64.3021 24.3667 64.1402 23.3525 63.8163 22.4917C63.7987 22.4448 63.7805 22.3984 63.762 22.3525H67.3449V6.3633H61.9117V10.6919H61.7455C61.5069 10.1635 61.1574 9.62655 60.6972 9.0811C60.2455 8.52712 59.6489 8.0669 58.9074 7.70042C58.1745 7.32542 57.2583 7.13792 56.1588 7.13792C54.7185 7.13792 53.3932 7.51292 52.183 8.26292C50.9813 9.0044 50.0182 10.1251 49.2938 11.6251C48.5694 13.1166 48.2071 14.9873 48.2071 17.2373C48.2071 19.4277 48.5566 21.2771 49.2554 22.7856C49.6083 23.5338 50.0226 24.1919 50.4984 24.7599C50.5335 23.8968 50.6265 23.0943 50.7774 22.3525H55.7202C55.6914 22.3312 55.6629 22.3094 55.6347 22.2871C55.0296 21.7927 54.5651 21.1109 54.2412 20.2416C53.9259 19.3638 53.7682 18.3538 53.7682 17.2118C53.7682 16.0783 53.9259 15.0811 54.2412 14.2203C54.5566 13.3595 55.0211 12.6862 55.6347 12.2004C56.2483 11.7146 57.0026 11.4717 57.8975 11.4717C58.7753 11.4717 59.5211 11.7061 60.1347 12.1748C60.7483 12.6436 61.2171 13.3084 61.5409 14.1692C61.8648 15.03 62.0267 16.0442 62.0267 17.2118C62.0267 18.3794 61.8605 19.3979 61.5282 20.2672C61.2043 21.1365 60.7355 21.8141 60.1219 22.2999C59.5168 22.7771 58.7753 23.0158 57.8975 23.0158C57.3624 23.0158 56.8775 22.9289 56.443 22.7552C56.1767 23.5665 56.0436 24.4928 56.0436 25.5344C56.0436 25.7565 56.0496 25.9737 56.0615 26.1859H52.0988L52.1191 26.199ZM61.9117 2.52996H67.3449V0.848145H61.9117V2.52996Z" fill="white"/>
<path fill-rule="evenodd" clip-rule="evenodd" d="M69.6203 14.6859H64.1871V10.8525H69.6203V14.6859ZM25.8894 10.8525C26.4871 11.2942 26.9755 11.8117 27.3544 12.4051C27.7978 13.0935 28.0894 13.8537 28.2293 14.6859H21.9135C21.8552 14.6271 21.7939 14.5699 21.7294 14.5145C21.0647 13.9349 20.1187 13.6452 18.8914 13.6452H14.6854V14.6859H9.1499V10.8525H25.8894Z" fill="white"/>
<path fill-rule="evenodd" clip-rule="evenodd" d="M48.2461 26.1859H31.9157C32.2035 25.8585 32.5333 25.5731 32.9052 25.3298C33.5955 24.8781 34.3796 24.5372 35.2574 24.3071C36.1438 24.077 37.0728 23.915 38.0444 23.8213C39.1864 23.702 40.1069 23.5912 40.8057 23.4889C41.5046 23.3781 42.0117 23.2162 42.327 23.0031C42.5631 22.8436 42.7109 22.6267 42.7702 22.3525H48.2461V26.1859ZM69.6203 22.3525V26.1859H64.284C64.2961 25.9741 64.3021 25.7569 64.3021 25.5344C64.3021 24.3667 64.1402 23.3525 63.8163 22.4917C63.7987 22.4448 63.7805 22.3984 63.762 22.3525H69.6203ZM50.7774 22.3525C50.5808 23.3188 50.4825 24.3879 50.4825 25.5599C50.4825 25.7718 50.4858 25.9804 50.4923 26.1859H56.0615C56.0496 25.9737 56.0436 25.7565 56.0436 25.5344C56.0436 24.4008 56.2013 23.4037 56.5166 22.5429C56.5402 22.4784 56.5647 22.4149 56.59 22.3525H50.7774ZM25.9267 22.3525C26.0851 22.4298 26.2414 22.5145 26.3956 22.6068C27.2735 23.1267 27.9851 23.8554 28.5306 24.7929C28.7811 25.2195 28.974 25.6838 29.1095 26.1859H23.3834C23.3089 25.999 23.2178 25.8201 23.1101 25.6494C22.7607 25.0954 22.2621 24.6608 21.6144 24.3454C20.9752 24.0301 20.2124 23.8724 19.326 23.8724H14.6854V26.1859H9.1499V22.3525H25.9267Z" fill="white"/>
<path fill-rule="evenodd" clip-rule="evenodd" d="M9.1499 33.8525V35.3525H20.336C22.2962 35.3525 23.9454 35.0372 25.2834 34.4065C25.641 34.238 25.9751 34.0533 26.2858 33.8525L9.1499 33.8525ZM32.0987 33.8525C32.5809 34.3586 33.1607 34.7649 33.8384 35.0713C34.8185 35.5059 35.935 35.7233 37.1878 35.7233C38.1594 35.7233 39.016 35.5954 39.7574 35.3398C40.4989 35.0756 41.1339 34.7133 41.6623 34.2531C41.8067 34.125 41.9431 33.9915 42.0717 33.8525L32.0987 33.8525ZM43.0813 33.8525V35.3525H48.2461V33.8525H43.0813ZM53.5177 33.8525C53.7937 34.0994 54.0859 34.3224 54.3945 34.5216C55.6047 35.2886 56.9555 35.6721 58.447 35.6721C59.5038 35.6721 60.3987 35.4974 61.1317 35.148C61.8632 34.8033 62.4578 34.3715 62.9156 33.8525L53.5177 33.8525ZM64.251 33.8525V35.3525H69.6203V33.8525H64.251Z" fill="white"/>
<path fill-rule="evenodd" clip-rule="evenodd" d="M0.274414 6.3633V27.03H11.4605C13.4207 27.03 15.0699 26.7146 16.4079 26.0839C16.4998 26.0407 16.5901 25.9963 16.6788 25.9509C16.628 25.8477 16.5717 25.7472 16.51 25.6494C16.1606 25.0954 15.662 24.6608 15.0143 24.3454C14.3751 24.0301 13.6123 23.8724 12.7259 23.8724H8.08532V26.1859H2.5498V22.3525H5.80993V15.5498H10.4506C11.3369 15.5498 12.0997 15.7075 12.7389 16.0229C13.3866 16.3382 13.8852 16.7729 14.2346 17.3268C14.5841 17.8808 14.7588 18.52 14.7588 19.2445C14.7588 20.2331 14.4051 21.0257 13.6977 21.6223C13.2838 21.9664 12.727 22.2098 12.0272 22.3525H19.3266C19.485 22.4298 19.6413 22.5145 19.7955 22.6068C19.828 22.626 19.8601 22.6455 19.8921 22.6653C20.2796 21.7919 20.4733 20.8349 20.4733 19.7942C20.4733 18.5072 20.2006 17.3993 19.6551 16.4703C19.1096 15.5328 18.398 14.8041 17.5202 14.2842C16.6508 13.7643 15.7176 13.4831 14.7204 13.4405V13.1848C15.6324 12.9802 16.442 12.6351 17.1494 12.1493C17.8653 11.655 18.4278 11.0243 18.8369 10.2572C19.246 9.48167 19.4506 8.58252 19.4506 7.55979C19.4506 7.14569 19.4183 6.74686 19.3538 6.3633H13.038C13.5886 6.9191 13.8639 7.62475 13.8639 8.48025C13.8639 9.17059 13.6892 9.76292 13.3398 10.2572C12.9988 10.7516 12.5301 11.1351 11.9335 11.4078C11.3454 11.672 10.6721 11.8041 9.91362 11.8041H5.80993V6.3633H0.274414ZM0.274414 2.52996H17.0139C16.59 2.21672 16.111 1.94162 15.577 1.70468C14.29 1.13366 12.6835 0.848145 10.7574 0.848145H0.274414V2.52996ZM24.9629 26.7487C25.943 27.1834 27.0595 27.4007 28.3124 27.4007C29.2839 27.4007 30.1405 27.2729 30.882 27.0172C31.4804 26.8039 32.0095 26.5268 32.4692 26.1859H25.3156C25.6034 25.8585 25.9332 25.5731 26.3051 25.3298C26.9954 24.8781 27.7795 24.5372 28.6573 24.3071C29.5437 24.077 30.4727 23.915 31.4443 23.8213C32.5863 23.702 33.5068 23.5912 34.2056 23.4889C34.9045 23.3781 35.4116 23.2162 35.7269 23.0031C35.963 22.8436 36.1108 22.6267 36.1701 22.3525H39.3706V13.7856C39.3706 12.618 39.1447 11.6166 38.693 10.7814C38.2413 9.93763 37.6234 9.24729 36.8393 8.71036C36.0638 8.17343 35.1731 7.77712 34.1675 7.52144C33.1703 7.26576 32.1263 7.13792 31.0354 7.13792C29.4672 7.13792 28.0865 7.37655 26.8933 7.85383C25.7087 8.32258 24.7413 8.99587 23.9913 9.87371C23.2413 10.743 22.7385 11.7743 22.4828 12.9675L27.5197 13.3766C27.7072 12.7288 28.0908 12.1919 28.6703 11.7658C29.2499 11.3311 30.0297 11.1138 31.0098 11.1138C31.9388 11.1138 32.6547 11.3354 33.1575 11.7785C33.6689 12.2217 33.9246 12.8481 33.9246 13.6578V13.7345C33.9246 14.1521 33.7669 14.4675 33.4516 14.6805C33.1362 14.8936 32.6291 15.0555 31.9303 15.1663C31.2314 15.2686 30.3109 15.3794 29.1689 15.4987C28.1973 15.5925 27.2683 15.7544 26.382 15.9845C25.5041 16.2146 24.72 16.5555 24.0297 17.0072C23.3393 17.4589 22.7939 18.0555 22.3933 18.797C21.9928 19.5385 21.7925 20.4547 21.7925 21.5456C21.7925 22.841 22.0737 23.9234 22.6362 24.7927C23.2072 25.6535 23.9828 26.3055 24.9629 26.7487ZM34.2058 27.03V26.1859H39.3706V27.03H34.2058ZM31.9942 23.1692C31.3805 23.4845 30.6732 23.6422 29.872 23.6422C29.0368 23.6422 28.3464 23.4504 27.801 23.0669C27.2641 22.6749 26.9956 22.1081 26.9956 21.3666C26.9956 20.8552 27.1277 20.4291 27.3919 20.0882C27.6561 19.7388 28.0268 19.4618 28.5041 19.2572C28.9814 19.0527 29.5396 18.9035 30.1788 18.8098C30.4771 18.7672 30.8095 18.7203 31.176 18.6692C31.5425 18.6095 31.9089 18.5456 32.2754 18.4774C32.6419 18.4007 32.97 18.3197 33.2598 18.2345C33.5581 18.1408 33.7925 18.0385 33.9629 17.9277V20.0115C33.9629 20.7018 33.7882 21.3197 33.4388 21.8652C33.0893 22.4106 32.6078 22.8453 31.9942 23.1692ZM45.519 26.199C46.7292 26.966 48.0801 27.3496 49.5715 27.3496C50.6283 27.3496 51.5232 27.1749 52.2562 26.8254C52.9977 26.476 53.5985 26.0371 54.0587 25.5087C54.5275 24.9717 54.8897 24.4305 55.1454 23.8851H55.3755V27.03H60.7448V26.1859H57.6839C57.696 25.9741 57.702 25.757 57.702 25.5344C57.702 24.3667 57.5401 23.3525 57.2162 22.4917C57.1986 22.4448 57.1805 22.3984 57.1619 22.3525H60.7448V6.3633H55.3116V10.6919H55.1454C54.9068 10.1635 54.5573 9.62655 54.0971 9.0811C53.6454 8.52712 53.0488 8.0669 52.3073 7.70042C51.5744 7.32542 50.6582 7.13792 49.5587 7.13792C48.1184 7.13792 46.7931 7.51292 45.5829 8.26292C44.3812 9.0044 43.4181 10.1251 42.6937 11.6251C41.9693 13.1166 41.607 14.9873 41.607 17.2373C41.607 19.4277 41.9565 21.2771 42.6553 22.7856C43.0082 23.5338 43.4225 24.1919 43.8983 24.7599C43.9334 23.8968 44.0264 23.0943 44.1773 22.3525H49.1201C49.0913 22.3312 49.0628 22.3094 49.0346 22.2871C48.4295 21.7927 47.965 21.1109 47.6411 20.2416C47.3258 19.3638 47.1681 18.3538 47.1681 17.2118C47.1681 16.0783 47.3258 15.0811 47.6411 14.2203C47.9565 13.3595 48.421 12.6862 49.0346 12.2004C49.6482 11.7146 50.4025 11.4717 51.2974 11.4717C52.1752 11.4717 52.921 11.7061 53.5346 12.1748C54.1482 12.6436 54.617 13.3084 54.9408 14.1692C55.2647 15.03 55.4266 16.0442 55.4266 17.2118C55.4266 18.3794 55.2605 19.3979 54.9281 20.2672C54.6042 21.1365 54.1355 21.8141 53.5218 22.2999C52.9167 22.7771 52.1752 23.0158 51.2974 23.0158C50.7623 23.0158 50.2774 22.9289 49.8429 22.7552C49.5766 23.5665 49.4435 24.4928 49.4435 25.5344C49.4435 25.7565 49.4495 25.9737 49.4614 26.1859H45.4987L45.519 26.199ZM55.3116 2.52996H60.7448V0.848145H55.3116V2.52996Z" fill="white"/>
<path fill-rule="evenodd" clip-rule="evenodd" d="M76.2204 14.6859H70.7872V10.8525H76.2204V14.6859ZM32.4895 10.8525C33.0872 11.2942 33.5756 11.8117 33.9545 12.4051C34.3979 13.0935 34.6895 13.8537 34.8294 14.6859H28.5136C28.4553 14.6271 28.394 14.5699 28.3295 14.5145C27.6648 13.9349 26.7188 13.6452 25.4915 13.6452H21.2855V14.6859H15.75V10.8525H32.4895Z" fill="#FF6F6F" style="mix-blend-mode:multiply"/>
<path fill-rule="evenodd" clip-rule="evenodd" d="M54.8462 26.1859H38.5158C38.8036 25.8585 39.1334 25.5731 39.5053 25.3298C40.1956 24.8781 40.9797 24.5372 41.8575 24.3071C42.7439 24.077 43.6729 23.915 44.6445 23.8213C45.7865 23.702 46.707 23.5912 47.4058 23.4889C48.1047 23.3781 48.6118 23.2162 48.9271 23.0031C49.1632 22.8436 49.311 22.6267 49.3703 22.3525H54.8462V26.1859ZM76.2204 22.3525V26.1859H70.8841C70.8962 25.9741 70.9022 25.7569 70.9022 25.5344C70.9022 24.3667 70.7403 23.3525 70.4164 22.4917C70.3988 22.4448 70.3806 22.3984 70.3621 22.3525H76.2204ZM57.3775 22.3525C57.1809 23.3188 57.0826 24.3879 57.0826 25.5599C57.0826 25.7718 57.0859 25.9804 57.0924 26.1859H62.6616C62.6497 25.9737 62.6437 25.7565 62.6437 25.5344C62.6437 24.4008 62.8014 23.4037 63.1167 22.5429C63.1403 22.4784 63.1648 22.4149 63.1901 22.3525H57.3775ZM32.5268 22.3525C32.6851 22.4298 32.8414 22.5145 32.9957 22.6068C33.8736 23.1267 34.5852 23.8554 35.1307 24.7929C35.3812 25.2195 35.5741 25.6838 35.7096 26.1859H29.9835C29.909 25.999 29.8179 25.8201 29.7102 25.6494C29.3608 25.0954 28.8622 24.6608 28.2145 24.3454C27.5753 24.0301 26.8125 23.8724 25.9261 23.8724H21.2855V26.1859H15.75V22.3525H32.5268Z" fill="#FF6F6F" style="mix-blend-mode:multiply"/>
<path fill-rule="evenodd" clip-rule="evenodd" d="M15.75 33.8525V35.3525H26.9361C28.8963 35.3525 30.5455 35.0372 31.8835 34.4065C32.2411 34.238 32.5752 34.0533 32.8859 33.8525L15.75 33.8525ZM38.6988 33.8525C39.1809 34.3586 39.7608 34.7649 40.4385 35.0713C41.4186 35.5059 42.5351 35.7233 43.7879 35.7233C44.7595 35.7233 45.6161 35.5954 46.3575 35.3398C47.099 35.0756 47.734 34.7133 48.2624 34.2531C48.4068 34.125 48.5432 33.9915 48.6717 33.8525L38.6988 33.8525ZM49.6814 33.8525V35.3525H54.8462V33.8525H49.6814ZM60.1178 33.8525C60.3938 34.0994 60.686 34.3224 60.9946 34.5216C62.2048 35.2886 63.5556 35.6721 65.0471 35.6721C66.1039 35.6721 66.9988 35.4974 67.7318 35.148C68.4633 34.8033 69.0579 34.3715 69.5157 33.8525L60.1178 33.8525ZM70.8511 33.8525V35.3525H76.2204V33.8525H70.8511Z" fill="#FF6F6F" style="mix-blend-mode:multiply"/>
<path fill-rule="evenodd" clip-rule="evenodd" d="M6.87451 6.3633V27.03H18.0606C20.0208 27.03 21.67 26.7146 23.008 26.0839C23.0999 26.0407 23.1902 25.9963 23.2789 25.9509C23.2281 25.8477 23.1718 25.7472 23.1101 25.6494C22.7607 25.0954 22.2621 24.6608 21.6144 24.3454C20.9752 24.0301 20.2124 23.8724 19.326 23.8724H14.6854V26.1859H9.1499V22.3525H12.41V15.5498H17.0506C17.937 15.5498 18.6998 15.7075 19.339 16.0229C19.9867 16.3382 20.4853 16.7729 20.8347 17.3268C21.1842 17.8808 21.3589 18.52 21.3589 19.2445C21.3589 20.2331 21.0052 21.0257 20.2978 21.6223C19.8839 21.9664 19.3271 22.2098 18.6273 22.3525H25.9267C26.0851 22.4298 26.2414 22.5145 26.3956 22.6068C26.4281 22.626 26.4602 22.6455 26.4922 22.6653C26.8797 21.7919 27.0734 20.8349 27.0734 19.7942C27.0734 18.5072 26.8006 17.3993 26.2552 16.4703C25.7097 15.5328 24.9981 14.8041 24.1203 14.2842C23.2509 13.7643 22.3177 13.4831 21.3205 13.4405V13.1848C22.2325 12.9802 23.0421 12.6351 23.7495 12.1493C24.4654 11.655 25.0279 11.0243 25.437 10.2572C25.8461 9.48167 26.0506 8.58252 26.0506 7.55979C26.0506 7.14569 26.0184 6.74686 25.9539 6.3633H19.6381C20.1887 6.9191 20.464 7.62475 20.464 8.48025C20.464 9.17059 20.2893 9.76292 19.9399 10.2572C19.5989 10.7516 19.1302 11.1351 18.5336 11.4078C17.9455 11.672 17.2722 11.8041 16.5137 11.8041H12.41V6.3633H6.87451ZM6.87451 2.52996H23.614C23.19 2.21672 22.7111 1.94162 22.1771 1.70468C20.8901 1.13366 19.2836 0.848145 17.3575 0.848145H6.87451V2.52996ZM31.563 26.7487C32.5431 27.1834 33.6596 27.4007 34.9125 27.4007C35.884 27.4007 36.7406 27.2729 37.4821 27.0172C38.0805 26.8039 38.6096 26.5268 39.0693 26.1859H31.9157C32.2035 25.8585 32.5333 25.5731 32.9052 25.3298C33.5955 24.8781 34.3796 24.5372 35.2574 24.3071C36.1438 24.077 37.0728 23.915 38.0444 23.8213C39.1864 23.702 40.1069 23.5912 40.8057 23.4889C41.5046 23.3781 42.0117 23.2162 42.327 23.0031C42.5631 22.8436 42.7109 22.6267 42.7702 22.3525H45.9707V13.7856C45.9707 12.618 45.7448 11.6166 45.2931 10.7814C44.8414 9.93763 44.2235 9.24729 43.4394 8.71036C42.6639 8.17343 41.7732 7.77712 40.7676 7.52144C39.7704 7.26576 38.7264 7.13792 37.6355 7.13792C36.0673 7.13792 34.6866 7.37655 33.4934 7.85383C32.3088 8.32258 31.3414 8.99587 30.5914 9.87371C29.8414 10.743 29.3386 11.7743 29.0829 12.9675L34.1198 13.3766C34.3073 12.7288 34.6909 12.1919 35.2704 11.7658C35.85 11.3311 36.6298 11.1138 37.6099 11.1138C38.5389 11.1138 39.2548 11.3354 39.7576 11.7785C40.269 12.2217 40.5247 12.8481 40.5247 13.6578V13.7345C40.5247 14.1521 40.367 14.4675 40.0517 14.6805C39.7363 14.8936 39.2292 15.0555 38.5303 15.1663C37.8315 15.2686 36.911 15.3794 35.769 15.4987C34.7974 15.5925 33.8684 15.7544 32.9821 15.9845C32.1042 16.2146 31.3201 16.5555 30.6298 17.0072C29.9394 17.4589 29.394 18.0555 28.9934 18.797C28.5928 19.5385 28.3926 20.4547 28.3926 21.5456C28.3926 22.841 28.6738 23.9234 29.2363 24.7927C29.8073 25.6535 30.5829 26.3055 31.563 26.7487ZM40.8059 27.03V26.1859H45.9707V27.03H40.8059ZM38.5943 23.1692C37.9806 23.4845 37.2732 23.6422 36.4721 23.6422C35.6369 23.6422 34.9465 23.4504 34.4011 23.0669C33.8642 22.6749 33.5957 22.1081 33.5957 21.3666C33.5957 20.8552 33.7278 20.4291 33.992 20.0882C34.2562 19.7388 34.6269 19.4618 35.1042 19.2572C35.5815 19.0527 36.1397 18.9035 36.7789 18.8098C37.0772 18.7672 37.4096 18.7203 37.7761 18.6692C38.1426 18.6095 38.509 18.5456 38.8755 18.4774C39.242 18.4007 39.5701 18.3197 39.8599 18.2345C40.1582 18.1408 40.3926 18.0385 40.563 17.9277V20.0115C40.563 20.7018 40.3883 21.3197 40.0389 21.8652C39.6894 22.4106 39.2079 22.8453 38.5943 23.1692ZM52.1191 26.199C53.3293 26.966 54.6801 27.3496 56.1716 27.3496C57.2284 27.3496 58.1233 27.1749 58.8563 26.8254C59.5978 26.476 60.1986 26.0371 60.6588 25.5087C61.1276 24.9717 61.4898 24.4305 61.7455 23.8851H61.9756V27.03H67.3449V26.1859H64.284C64.2961 25.9741 64.3021 25.757 64.3021 25.5344C64.3021 24.3667 64.1402 23.3525 63.8163 22.4917C63.7987 22.4448 63.7805 22.3984 63.762 22.3525H67.3449V6.3633H61.9117V10.6919H61.7455C61.5069 10.1635 61.1574 9.62655 60.6972 9.0811C60.2455 8.52712 59.6489 8.0669 58.9074 7.70042C58.1745 7.32542 57.2583 7.13792 56.1588 7.13792C54.7185 7.13792 53.3932 7.51292 52.183 8.26292C50.9813 9.0044 50.0182 10.1251 49.2938 11.6251C48.5694 13.1166 48.2071 14.9873 48.2071 17.2373C48.2071 19.4277 48.5566 21.2771 49.2554 22.7856C49.6083 23.5338 50.0226 24.1919 50.4984 24.7599C50.5335 23.8968 50.6265 23.0943 50.7774 22.3525H55.7202C55.6914 22.3312 55.6629 22.3094 55.6347 22.2871C55.0296 21.7927 54.5651 21.1109 54.2412 20.2416C53.9259 19.3638 53.7682 18.3538 53.7682 17.2118C53.7682 16.0783 53.9259 15.0811 54.2412 14.2203C54.5566 13.3595 55.0211 12.6862 55.6347 12.2004C56.2483 11.7146 57.0026 11.4717 57.8975 11.4717C58.7753 11.4717 59.5211 11.7061 60.1347 12.1748C60.7483 12.6436 61.2171 13.3084 61.5409 14.1692C61.8648 15.03 62.0267 16.0442 62.0267 17.2118C62.0267 18.3794 61.8605 19.3979 61.5282 20.2672C61.2043 21.1365 60.7355 21.8141 60.1219 22.2999C59.5168 22.7771 58.7753 23.0158 57.8975 23.0158C57.3624 23.0158 56.8775 22.9289 56.443 22.7552C56.1767 23.5665 56.0436 24.4928 56.0436 25.5344C56.0436 25.7565 56.0496 25.9737 56.0615 26.1859H52.0988L52.1191 26.199ZM61.9117 2.52996H67.3449V0.848145H61.9117V2.52996Z" fill="#FF6F6F" style="mix-blend-mode:multiply"/>
<path fill-rule="evenodd" clip-rule="evenodd" d="M69.6203 14.6859H64.1871V10.8525H69.6203V14.6859ZM25.8894 10.8525C26.4871 11.2942 26.9755 11.8117 27.3544 12.4051C27.7978 13.0935 28.0894 13.8537 28.2293 14.6859H21.9135C21.8552 14.6271 21.7939 14.5699 21.7294 14.5145C21.0647 13.9349 20.1187 13.6452 18.8914 13.6452H14.6854V14.6859H9.1499V10.8525H25.8894Z" fill="#4DE6FF" style="mix-blend-mode:multiply"/>
<path fill-rule="evenodd" clip-rule="evenodd" d="M48.2461 26.1859H31.9157C32.2035 25.8585 32.5333 25.5731 32.9052 25.3298C33.5955 24.8781 34.3796 24.5372 35.2574 24.3071C36.1438 24.077 37.0728 23.915 38.0444 23.8213C39.1864 23.702 40.1069 23.5912 40.8057 23.4889C41.5046 23.3781 42.0117 23.2162 42.327 23.0031C42.5631 22.8436 42.7109 22.6267 42.7702 22.3525H48.2461V26.1859ZM69.6203 22.3525V26.1859H64.284C64.2961 25.9741 64.3021 25.7569 64.3021 25.5344C64.3021 24.3667 64.1402 23.3525 63.8163 22.4917C63.7987 22.4448 63.7805 22.3984 63.762 22.3525H69.6203ZM50.7774 22.3525C50.5808 23.3188 50.4825 24.3879 50.4825 25.5599C50.4825 25.7718 50.4858 25.9804 50.4923 26.1859H56.0615C56.0496 25.9737 56.0436 25.7565 56.0436 25.5344C56.0436 24.4008 56.2013 23.4037 56.5166 22.5429C56.5402 22.4784 56.5647 22.4149 56.59 22.3525H50.7774ZM25.9267 22.3525C26.0851 22.4298 26.2414 22.5145 26.3956 22.6068C27.2735 23.1267 27.9851 23.8554 28.5306 24.7929C28.7811 25.2195 28.974 25.6838 29.1095 26.1859H23.3834C23.3089 25.999 23.2178 25.8201 23.1101 25.6494C22.7607 25.0954 22.2621 24.6608 21.6144 24.3454C20.9752 24.0301 20.2124 23.8724 19.326 23.8724H14.6854V26.1859H9.1499V22.3525H25.9267Z" fill="#4DE6FF" style="mix-blend-mode:multiply"/>
<path fill-rule="evenodd" clip-rule="evenodd" d="M9.1499 33.8525V35.3525H20.336C22.2962 35.3525 23.9454 35.0372 25.2834 34.4065C25.641 34.238 25.9751 34.0533 26.2858 33.8525L9.1499 33.8525ZM32.0987 33.8525C32.5809 34.3586 33.1607 34.7649 33.8384 35.0713C34.8185 35.5059 35.935 35.7233 37.1878 35.7233C38.1594 35.7233 39.016 35.5954 39.7574 35.3398C40.4989 35.0756 41.1339 34.7133 41.6623 34.2531C41.8067 34.125 41.9431 33.9915 42.0717 33.8525L32.0987 33.8525ZM43.0813 33.8525V35.3525H48.2461V33.8525H43.0813ZM53.5177 33.8525C53.7937 34.0994 54.0859 34.3224 54.3945 34.5216C55.6047 35.2886 56.9555 35.6721 58.447 35.6721C59.5038 35.6721 60.3987 35.4974 61.1317 35.148C61.8632 34.8033 62.4578 34.3715 62.9156 33.8525L53.5177 33.8525ZM64.251 33.8525V35.3525H69.6203V33.8525H64.251Z" fill="#4DE6FF" style="mix-blend-mode:multiply"/>
<path fill-rule="evenodd" clip-rule="evenodd" d="M0.274414 6.3633V27.03H11.4605C13.4207 27.03 15.0699 26.7146 16.4079 26.0839C16.4998 26.0407 16.5901 25.9963 16.6788 25.9509C16.628 25.8477 16.5717 25.7472 16.51 25.6494C16.1606 25.0954 15.662 24.6608 15.0143 24.3454C14.3751 24.0301 13.6123 23.8724 12.7259 23.8724H8.08532V26.1859H2.5498V22.3525H5.80993V15.5498H10.4506C11.3369 15.5498 12.0997 15.7075 12.7389 16.0229C13.3866 16.3382 13.8852 16.7729 14.2346 17.3268C14.5841 17.8808 14.7588 18.52 14.7588 19.2445C14.7588 20.2331 14.4051 21.0257 13.6977 21.6223C13.2838 21.9664 12.727 22.2098 12.0272 22.3525H19.3266C19.485 22.4298 19.6413 22.5145 19.7955 22.6068C19.828 22.626 19.8601 22.6455 19.8921 22.6653C20.2796 21.7919 20.4733 20.8349 20.4733 19.7942C20.4733 18.5072 20.2006 17.3993 19.6551 16.4703C19.1096 15.5328 18.398 14.8041 17.5202 14.2842C16.6508 13.7643 15.7176 13.4831 14.7204 13.4405V13.1848C15.6324 12.9802 16.442 12.6351 17.1494 12.1493C17.8653 11.655 18.4278 11.0243 18.8369 10.2572C19.246 9.48167 19.4506 8.58252 19.4506 7.55979C19.4506 7.14569 19.4183 6.74686 19.3538 6.3633H13.038C13.5886 6.9191 13.8639 7.62475 13.8639 8.48025C13.8639 9.17059 13.6892 9.76292 13.3398 10.2572C12.9988 10.7516 12.5301 11.1351 11.9335 11.4078C11.3454 11.672 10.6721 11.8041 9.91362 11.8041H5.80993V6.3633H0.274414ZM0.274414 2.52996H17.0139C16.59 2.21672 16.111 1.94162 15.577 1.70468C14.29 1.13366 12.6835 0.848145 10.7574 0.848145H0.274414V2.52996ZM24.9629 26.7487C25.943 27.1834 27.0595 27.4007 28.3124 27.4007C29.2839 27.4007 30.1405 27.2729 30.882 27.0172C31.4804 26.8039 32.0095 26.5268 32.4692 26.1859H25.3156C25.6034 25.8585 25.9332 25.5731 26.3051 25.3298C26.9954 24.8781 27.7795 24.5372 28.6573 24.3071C29.5437 24.077 30.4727 23.915 31.4443 23.8213C32.5863 23.702 33.5068 23.5912 34.2056 23.4889C34.9045 23.3781 35.4116 23.2162 35.7269 23.0031C35.963 22.8436 36.1108 22.6267 36.1701 22.3525H39.3706V13.7856C39.3706 12.618 39.1447 11.6166 38.693 10.7814C38.2413 9.93763 37.6234 9.24729 36.8393 8.71036C36.0638 8.17343 35.1731 7.77712 34.1675 7.52144C33.1703 7.26576 32.1263 7.13792 31.0354 7.13792C29.4672 7.13792 28.0865 7.37655 26.8933 7.85383C25.7087 8.32258 24.7413 8.99587 23.9913 9.87371C23.2413 10.743 22.7385 11.7743 22.4828 12.9675L27.5197 13.3766C27.7072 12.7288 28.0908 12.1919 28.6703 11.7658C29.2499 11.3311 30.0297 11.1138 31.0098 11.1138C31.9388 11.1138 32.6547 11.3354 33.1575 11.7785C33.6689 12.2217 33.9246 12.8481 33.9246 13.6578V13.7345C33.9246 14.1521 33.7669 14.4675 33.4516 14.6805C33.1362 14.8936 32.6291 15.0555 31.9303 15.1663C31.2314 15.2686 30.3109 15.3794 29.1689 15.4987C28.1973 15.5925 27.2683 15.7544 26.382 15.9845C25.5041 16.2146 24.72 16.5555 24.0297 17.0072C23.3393 17.4589 22.7939 18.0555 22.3933 18.797C21.9928 19.5385 21.7925 20.4547 21.7925 21.5456C21.7925 22.841 22.0737 23.9234 22.6362 24.7927C23.2072 25.6535 23.9828 26.3055 24.9629 26.7487ZM34.2058 27.03V26.1859H39.3706V27.03H34.2058ZM31.9942 23.1692C31.3805 23.4845 30.6732 23.6422 29.872 23.6422C29.0368 23.6422 28.3464 23.4504 27.801 23.0669C27.2641 22.6749 26.9956 22.1081 26.9956 21.3666C26.9956 20.8552 27.1277 20.4291 27.3919 20.0882C27.6561 19.7388 28.0268 19.4618 28.5041 19.2572C28.9814 19.0527 29.5396 18.9035 30.1788 18.8098C30.4771 18.7672 30.8095 18.7203 31.176 18.6692C31.5425 18.6095 31.9089 18.5456 32.2754 18.4774C32.6419 18.4007 32.97 18.3197 33.2598 18.2345C33.5581 18.1408 33.7925 18.0385 33.9629 17.9277V20.0115C33.9629 20.7018 33.7882 21.3197 33.4388 21.8652C33.0893 22.4106 32.6078 22.8453 31.9942 23.1692ZM45.519 26.199C46.7292 26.966 48.0801 27.3496 49.5715 27.3496C50.6283 27.3496 51.5232 27.1749 52.2562 26.8254C52.9977 26.476 53.5985 26.0371 54.0587 25.5087C54.5275 24.9717 54.8897 24.4305 55.1454 23.8851H55.3755V27.03H60.7448V26.1859H57.6839C57.696 25.9741 57.702 25.757 57.702 25.5344C57.702 24.3667 57.5401 23.3525 57.2162 22.4917C57.1986 22.4448 57.1805 22.3984 57.1619 22.3525H60.7448V6.3633H55.3116V10.6919H55.1454C54.9068 10.1635 54.5573 9.62655 54.0971 9.0811C53.6454 8.52712 53.0488 8.0669 52.3073 7.70042C51.5744 7.32542 50.6582 7.13792 49.5587 7.13792C48.1184 7.13792 46.7931 7.51292 45.5829 8.26292C44.3812 9.0044 43.4181 10.1251 42.6937 11.6251C41.9693 13.1166 41.607 14.9873 41.607 17.2373C41.607 19.4277 41.9565 21.2771 42.6553 22.7856C43.0082 23.5338 43.4225 24.1919 43.8983 24.7599C43.9334 23.8968 44.0264 23.0943 44.1773 22.3525H49.1201C49.0913 22.3312 49.0628 22.3094 49.0346 22.2871C48.4295 21.7927 47.965 21.1109 47.6411 20.2416C47.3258 19.3638 47.1681 18.3538 47.1681 17.2118C47.1681 16.0783 47.3258 15.0811 47.6411 14.2203C47.9565 13.3595 48.421 12.6862 49.0346 12.2004C49.6482 11.7146 50.4025 11.4717 51.2974 11.4717C52.1752 11.4717 52.921 11.7061 53.5346 12.1748C54.1482 12.6436 54.617 13.3084 54.9408 14.1692C55.2647 15.03 55.4266 16.0442 55.4266 17.2118C55.4266 18.3794 55.2605 19.3979 54.9281 20.2672C54.6042 21.1365 54.1355 21.8141 53.5218 22.2999C52.9167 22.7771 52.1752 23.0158 51.2974 23.0158C50.7623 23.0158 50.2774 22.9289 49.8429 22.7552C49.5766 23.5665 49.4435 24.4928 49.4435 25.5344C49.4435 25.7565 49.4495 25.9737 49.4614 26.1859H45.4987L45.519 26.199ZM55.3116 2.52996H60.7448V0.848145H55.3116V2.52996Z" fill="#4DE6FF" style="mix-blend-mode:multiply"/>
</svg>
