<svg width="125" height="52" viewBox="0 0 158 52" fill="none" xmlns="http://www.w3.org/2000/svg">
<path fill-rule="evenodd" clip-rule="evenodd" d="M50.1361 20.6219H42.8748V15.5386H50.1361V20.6219ZM132.173 20.6219H124.929V15.5386H132.173V20.6219ZM22.1569 15.5386V20.6219H14.8955V15.5386H22.1569Z" fill="#FF0000"/>
<path fill-rule="evenodd" clip-rule="evenodd" d="M50.1361 35.8719H42.8748V30.7886H50.1361V35.8719ZM157.107 30.7886L155.324 35.8719H148.548L149.994 30.7886H157.107ZM136.692 30.7886H143.748L145.181 35.8719H138.464L136.692 30.7886ZM132.173 30.7886V35.8719H125.068C125.078 35.6515 125.082 35.4267 125.082 35.1977C125.082 33.6408 124.867 32.2886 124.435 31.1408C124.389 31.0206 124.342 30.9031 124.293 30.7886H132.173ZM107.084 30.7886C106.799 32.1203 106.656 33.6013 106.656 35.2318C106.656 35.4476 106.659 35.661 106.664 35.8719H114.085C114.076 35.6511 114.071 35.4264 114.071 35.1977C114.071 33.6863 114.281 32.3568 114.702 31.209C114.755 31.0649 114.81 30.9248 114.87 30.7886H107.084ZM104.739 30.7886C105.117 32.169 105.306 33.6727 105.306 35.2999C105.306 35.4923 105.304 35.6829 105.298 35.8719H97.9135C97.9216 35.6674 97.9256 35.4597 97.9256 35.2488C97.9256 33.7261 97.7154 32.3681 97.2949 31.1749C97.2497 31.0431 97.2021 30.9143 97.1521 30.7886H104.739ZM80.1012 30.7886C79.7228 32.169 79.5336 33.6727 79.5336 35.2999C79.5336 35.4923 79.5363 35.6829 79.5416 35.8719H86.926C86.9182 35.6674 86.9143 35.4597 86.9143 35.2488C86.9143 33.7261 87.1188 32.3681 87.5279 31.1749C87.5744 31.0431 87.6232 30.9143 87.6746 30.7886H80.1012ZM77.7011 30.7886C78.0796 32.169 78.2688 33.6727 78.2688 35.2999C78.2688 35.4923 78.2661 35.6829 78.2607 35.8719H70.876C70.8841 35.6674 70.8881 35.4597 70.8881 35.2488C70.8881 33.7261 70.6779 32.3681 70.2574 31.1749C70.2122 31.0431 70.1646 30.9143 70.1145 30.7886H77.7011ZM53.0637 30.7886C52.6853 32.169 52.4961 33.6727 52.4961 35.2999C52.4961 35.4923 52.4988 35.6829 52.5041 35.8719H59.8885C59.8807 35.6674 59.8768 35.4597 59.8768 35.2488C59.8768 33.7261 60.0813 32.3681 60.4904 31.1749C60.5369 31.0431 60.5857 30.9143 60.6371 30.7886H53.0637ZM40.0017 30.7886C40.287 32.1203 40.4296 33.6013 40.4296 35.2318C40.4296 35.4476 40.427 35.661 40.4219 35.8719H33.0002C33.01 35.6511 33.0148 35.4264 33.0148 35.1977C33.0148 33.6863 32.8046 32.3568 32.3841 31.209C32.3314 31.0649 32.2754 30.9248 32.2164 30.7886H40.0017ZM14.8955 35.8719V30.7886H22.7931C22.7438 30.9031 22.6964 31.0206 22.6512 31.1408C22.2194 32.2886 22.0035 33.6408 22.0035 35.1977C22.0035 35.4267 22.0081 35.6515 22.0175 35.8719H14.8955Z" fill="#FF0000"/>
<path fill-rule="evenodd" clip-rule="evenodd" d="M14.8955 46.0386V48.2886H22.0546V46.0386H14.8955ZM36.642 46.0386L23.6217 46.0386C23.683 46.1125 23.7458 46.1864 23.8103 46.2602C24.4353 46.9647 25.2364 47.5499 26.2137 48.0158C27.2023 48.4818 28.4012 48.7147 29.8103 48.7147C31.7989 48.7147 33.5944 48.2033 35.1966 47.1806C35.7134 46.8495 36.1952 46.4688 36.642 46.0386ZM42.8748 46.0386V48.2886H50.1361V46.0386H42.8748ZM56.9846 46.0386C57.4589 46.4322 57.9684 46.7901 58.5131 47.1124C60.4449 48.2374 62.7347 48.7999 65.3824 48.7999C68.0302 48.7999 70.3143 48.2374 72.2347 47.1124C72.7826 46.7901 73.2949 46.4322 73.7715 46.0386L56.9846 46.0386ZM84.0221 46.0386C84.4964 46.4322 85.0059 46.7901 85.5506 47.1124C87.4824 48.2374 89.7722 48.7999 92.4199 48.7999C95.0677 48.7999 97.3518 48.2374 99.2722 47.1124C99.8201 46.7901 100.332 46.4322 100.809 46.0386L84.0221 46.0386ZM110.434 46.0386C110.88 46.4688 111.359 46.8495 111.872 47.1806C113.486 48.2033 115.287 48.7147 117.276 48.7147C118.685 48.7147 119.878 48.4818 120.855 48.0158C121.844 47.5499 122.645 46.9647 123.259 46.2602C123.323 46.1864 123.386 46.1125 123.447 46.0386L110.434 46.0386ZM125.014 46.0386V48.2886H132.173V46.0386H125.014ZM142.01 46.0386L143.056 49.0386L142.63 50.1465C142.484 50.5219 142.318 50.847 142.131 51.1219H149.975C149.976 51.1206 149.976 51.1194 149.976 51.1181L151.758 46.0386H142.01Z" fill="#FF0000"/>
<path fill-rule="evenodd" clip-rule="evenodd" d="M6.1416 7.531L6.1416 35.1977H9.621V30.7886H17.5186C17.4693 30.9031 17.4219 31.0205 17.3767 31.1408C17.0066 32.1245 16.7951 33.2585 16.7422 34.5427C16.9698 34.6779 17.209 34.8054 17.4598 34.9249C18.4484 35.3908 19.6473 35.6238 21.0564 35.6238C23.045 35.6238 24.8405 35.1124 26.4427 34.0897C26.8519 33.8275 27.2391 33.5343 27.6044 33.21C27.4998 32.4909 27.3349 31.8239 27.1096 31.209C27.0569 31.0649 27.0009 30.9248 26.9419 30.7886H29.5963C29.8344 30.3953 30.0559 29.9786 30.2609 29.5386C31.2041 27.5272 31.6757 25.0613 31.6757 22.1408C31.6757 19.1408 31.1927 16.6465 30.2268 14.6579C29.2609 12.6579 27.9711 11.1636 26.3575 10.1749C24.7439 9.17494 22.9825 8.67494 21.0734 8.67494C19.6075 8.67494 18.3802 8.92494 17.3916 9.42494C16.4143 9.91358 15.6189 10.5272 15.0052 11.2658C14.403 11.9931 13.9427 12.709 13.6246 13.4136H13.403V0.288574H6.1416V2.44767H13.403V7.531H6.1416ZM37.6003 35.1977H35.1551C35.1531 33.5807 35.0105 32.111 34.7272 30.7886H34.1209L34.1209 7.531H41.3822V30.7886H37.6003V35.1977ZM13.8973 26.1806C13.4655 25.0215 13.2496 23.6636 13.2496 22.1068C13.2496 20.5499 13.4655 19.1977 13.8973 18.0499C14.3291 16.9022 14.9484 16.0158 15.7552 15.3908C16.5734 14.7658 17.5734 14.4533 18.7552 14.4533C19.9484 14.4533 20.9541 14.7772 21.7723 15.4249C22.5905 16.0727 23.2098 16.9704 23.6302 18.1181C24.0507 19.2658 24.2609 20.5954 24.2609 22.1068C24.2609 23.6295 24.045 24.9761 23.6132 26.1465C23.1927 27.3056 22.5734 28.2147 21.7552 28.8738C20.9371 29.5215 19.9371 29.8454 18.7552 29.8454C17.5848 29.8454 16.5905 29.5272 15.7723 28.8908C14.9541 28.2431 14.3291 27.3397 13.8973 26.1806ZM41.3822 2.44767V0.288574H34.1209L34.1209 2.44767H41.3822ZM47.7892 30.7886C47.6594 31.262 47.5519 31.75 47.4666 32.2525C46.6119 31.4003 45.8932 30.4105 45.3104 29.2829C44.2649 27.2488 43.7422 24.8908 43.7422 22.209C43.7422 19.5045 44.2649 17.1408 45.3104 15.1181C46.3558 13.084 47.8388 11.5045 49.7592 10.3795C51.691 9.24312 53.9808 8.67494 56.6285 8.67494C59.2763 8.67494 61.5604 9.24312 63.4808 10.3795C65.4126 11.5045 66.9013 13.084 67.9467 15.1181C68.9922 17.1408 69.5149 19.5045 69.5149 22.209C69.5149 24.8908 68.9922 27.2488 67.9467 29.2829C67.6714 29.8155 67.3654 30.3174 67.0287 30.7886H64.84C64.8901 30.9143 64.9377 31.0431 64.9829 31.1749C65.146 31.6378 65.2775 32.1254 65.3773 32.6378C64.8014 33.1553 64.1693 33.6166 63.4808 34.0215C61.5604 35.1465 59.2763 35.709 56.6285 35.709C55.9293 35.709 55.2551 35.6698 54.6058 35.5913C54.6034 35.4781 54.6023 35.3639 54.6023 35.2488C54.6023 33.7261 54.8068 32.3681 55.2159 31.1749C55.2623 31.0431 55.3112 30.9143 55.3625 30.7886H47.7892ZM59.6797 29.0613C58.8729 29.7431 57.8672 30.084 56.6626 30.084C55.4467 30.084 54.424 29.7431 53.5944 29.0613C52.7763 28.3681 52.1569 27.4249 51.7365 26.2318C51.3274 25.0386 51.1229 23.6806 51.1229 22.1579C51.1229 20.6352 51.3274 19.2772 51.7365 18.084C52.1569 16.8908 52.7763 15.9477 53.5944 15.2545C54.424 14.5613 55.4467 14.2147 56.6626 14.2147C57.8672 14.2147 58.8729 14.5613 59.6797 15.2545C60.4865 15.9477 61.0944 16.8908 61.5035 18.084C61.924 19.2772 62.1342 20.6352 62.1342 22.1579C62.1342 23.6806 61.924 25.0386 61.5035 26.2318C61.0944 27.4249 60.4865 28.3681 59.6797 29.0613ZM74.8267 30.7886C74.6969 31.262 74.5894 31.75 74.5041 32.2525C73.6494 31.4003 72.9306 30.4105 72.3479 29.2829C71.3024 27.2488 70.7797 24.8908 70.7797 22.209C70.7797 19.5045 71.3024 17.1408 72.3479 15.1181C73.3933 13.084 74.8763 11.5045 76.7967 10.3795C78.7285 9.24312 81.0183 8.67494 83.666 8.67494C86.3138 8.67494 88.5979 9.24312 90.5183 10.3795C92.4501 11.5045 93.9388 13.084 94.9842 15.1181C96.0297 17.1408 96.5524 19.5045 96.5524 22.209C96.5524 24.8908 96.0297 27.2488 94.9842 29.2829C94.7089 29.8155 94.4029 30.3174 94.0662 30.7886H91.8775C91.9276 30.9143 91.9752 31.0431 92.0204 31.1749C92.1835 31.6378 92.315 32.1254 92.4148 32.6378C91.8389 33.1553 91.2068 33.6166 90.5183 34.0215C88.5979 35.1465 86.3138 35.709 83.666 35.709C82.9668 35.709 82.2926 35.6698 81.6433 35.5913C81.6409 35.4781 81.6398 35.3639 81.6398 35.2488C81.6398 33.7261 81.8443 32.3681 82.2534 31.1749C82.2999 31.0431 82.3487 30.9143 82.4 30.7886H74.8267ZM86.7172 29.0613C85.9104 29.7431 84.9047 30.084 83.7001 30.084C82.4842 30.084 81.4615 29.7431 80.632 29.0613C79.8138 28.3681 79.1945 27.4249 78.774 26.2318C78.3649 25.0386 78.1604 23.6806 78.1604 22.1579C78.1604 20.6352 78.3649 19.2772 78.774 18.084C79.1945 16.8908 79.8138 15.9477 80.632 15.2545C81.4615 14.5613 82.4842 14.2147 83.7001 14.2147C84.9047 14.2147 85.9104 14.5613 86.7172 15.2545C87.524 15.9477 88.132 16.8908 88.541 18.084C88.9615 19.2772 89.1717 20.6352 89.1717 22.1579C89.1717 23.6806 88.9615 25.0386 88.541 26.2318C88.132 27.4249 87.524 28.3681 86.7172 29.0613ZM101.81 30.7886C101.675 31.416 101.573 32.0766 101.501 32.7704C100.634 31.8888 99.9004 30.8115 99.3001 29.5386C98.3683 27.5272 97.9024 25.0613 97.9024 22.1408C97.9024 19.1408 98.3854 16.6465 99.3513 14.6579C100.317 12.6579 101.601 11.1636 103.204 10.1749C104.817 9.17494 106.584 8.67494 108.505 8.67494C109.971 8.67494 111.192 8.92494 112.169 9.42494C113.158 9.91358 113.954 10.5272 114.556 11.2658C115.169 11.9931 115.635 12.709 115.954 13.4136H116.175L116.175 7.531H123.419V30.7886H119.018C119.068 30.9031 119.115 31.0205 119.16 31.1408C119.592 32.2886 119.808 33.6408 119.808 35.1977H116.26V31.0045H115.954C115.613 31.7318 115.13 32.4533 114.505 33.1693C113.891 33.8738 113.09 34.459 112.101 34.9249C111.189 35.3596 110.09 35.5915 108.802 35.6207C108.798 35.4812 108.797 35.3402 108.797 35.1977C108.797 33.6863 109.007 32.3568 109.427 31.209C109.48 31.0649 109.536 30.9248 109.595 30.7886H101.81ZM116.175 2.44767H123.419V0.288574H116.175L116.175 2.44767ZM113.789 28.8908C112.982 29.5272 111.993 29.8454 110.823 29.8454C109.63 29.8454 108.624 29.5215 107.806 28.8738C106.999 28.2147 106.38 27.3056 105.948 26.1465C105.527 24.9761 105.317 23.6295 105.317 22.1068C105.317 20.5954 105.527 19.2658 105.948 18.1181C106.368 16.9704 106.988 16.0727 107.806 15.4249C108.624 14.7772 109.63 14.4533 110.823 14.4533C111.993 14.4533 112.988 14.7658 113.806 15.3908C114.624 16.0158 115.249 16.9022 115.681 18.0499C116.113 19.1977 116.329 20.5499 116.329 22.1068C116.329 23.6636 116.107 25.0215 115.664 26.1806C115.232 27.3397 114.607 28.2431 113.789 28.8908ZM128.882 44.7943C129.688 44.942 130.552 45.0159 131.473 45.0159C133.268 45.0159 134.802 44.7261 136.075 44.1465C137.348 43.5784 138.399 42.7658 139.228 41.709C140.069 40.6636 140.734 39.4363 141.223 38.0272L151.399 9.01585H143.711L138.24 28.2431H137.967L132.546 9.01585H124.91L132.503 30.7886H138.473L139.906 35.8719H134.276L134.302 35.9477L133.876 37.0556C133.558 37.8738 133.143 38.4533 132.632 38.7943C132.132 39.1352 131.535 39.2943 130.842 39.2715C130.16 39.2488 129.393 39.1068 128.541 38.8454L126.904 44.2658C127.427 44.4818 128.086 44.6579 128.882 44.7943Z" fill="#FF0000"/>
<path fill-rule="evenodd" clip-rule="evenodd" d="M44.8617 20.6219H37.6004V15.5386H44.8617V20.6219ZM126.899 20.6219H119.655V15.5386H126.899V20.6219ZM16.8825 15.5386V20.6219H9.62109V15.5386H16.8825Z" fill="#FF0000"/>
<path fill-rule="evenodd" clip-rule="evenodd" d="M44.8617 35.8719H37.6004V30.7886H44.8617V35.8719ZM151.833 30.7886L150.05 35.8719H143.273L144.72 30.7886H151.833ZM131.417 30.7886H138.473L139.907 35.8719H133.19L131.417 30.7886ZM126.899 30.7886V35.8719H119.794C119.803 35.6515 119.808 35.4267 119.808 35.1977C119.808 33.6408 119.592 32.2886 119.16 31.1408C119.115 31.0206 119.068 30.9031 119.018 30.7886H126.899ZM101.81 30.7886C101.525 32.1203 101.382 33.6013 101.382 35.2318C101.382 35.4476 101.384 35.661 101.39 35.8719H108.811C108.801 35.6511 108.797 35.4264 108.797 35.1977C108.797 33.6863 109.007 32.3568 109.427 31.209C109.48 31.0649 109.536 30.9248 109.595 30.7886H101.81ZM99.4642 30.7886C99.8427 32.169 100.032 33.6727 100.032 35.2999C100.032 35.4923 100.029 35.6829 100.024 35.8719H92.6391C92.6472 35.6674 92.6512 35.4597 92.6512 35.2488C92.6512 33.7261 92.441 32.3681 92.0205 31.1749C91.9753 31.0431 91.9277 30.9143 91.8776 30.7886H99.4642ZM74.8268 30.7886C74.4484 32.169 74.2592 33.6727 74.2592 35.2999C74.2592 35.4923 74.2618 35.6829 74.2672 35.8719H81.6516C81.6438 35.6674 81.6398 35.4597 81.6398 35.2488C81.6398 33.7261 81.8444 32.3681 82.2535 31.1749C82.2999 31.0431 82.3488 30.9143 82.4001 30.7886H74.8268ZM72.4267 30.7886C72.8052 32.169 72.9944 33.6727 72.9944 35.2999C72.9944 35.4923 72.9917 35.6829 72.9863 35.8719H65.6016C65.6097 35.6674 65.6137 35.4597 65.6137 35.2488C65.6137 33.7261 65.4035 32.3681 64.983 31.1749C64.9378 31.0431 64.8902 30.9143 64.8401 30.7886H72.4267ZM47.7893 30.7886C47.4109 32.169 47.2217 33.6727 47.2217 35.2999C47.2217 35.4923 47.2244 35.6829 47.2297 35.8719H54.6141C54.6063 35.6674 54.6023 35.4597 54.6023 35.2488C54.6023 33.7261 54.8069 32.3681 55.216 31.1749C55.2624 31.0431 55.3113 30.9143 55.3626 30.7886H47.7893ZM34.7272 30.7886C35.0125 32.1203 35.1552 33.6013 35.1552 35.2318C35.1552 35.4476 35.1526 35.661 35.1475 35.8719H27.7258C27.7355 35.6511 27.7404 35.4264 27.7404 35.1977C27.7404 33.6863 27.5302 32.3568 27.1097 31.209C27.0569 31.0649 27.001 30.9248 26.942 30.7886H34.7272ZM9.62109 35.8719V30.7886H17.5187C17.4694 30.9031 17.422 31.0206 17.3768 31.1408C16.945 32.2886 16.729 33.6408 16.729 35.1977C16.729 35.4267 16.7337 35.6515 16.7431 35.8719H9.62109Z" fill="#FF0000"/>
<path fill-rule="evenodd" clip-rule="evenodd" d="M9.62109 46.0386V48.2886H16.7802V46.0386H9.62109ZM31.3676 46.0386L18.3473 46.0386C18.4086 46.1125 18.4714 46.1864 18.5359 46.2602C19.1609 46.9647 19.962 47.5499 20.9393 48.0158C21.9279 48.4818 23.1268 48.7147 24.5359 48.7147C26.5245 48.7147 28.32 48.2033 29.9222 47.1806C30.439 46.8495 30.9208 46.4688 31.3676 46.0386ZM37.6004 46.0386V48.2886H44.8617V46.0386H37.6004ZM51.7102 46.0386C52.1845 46.4322 52.694 46.7901 53.2387 47.1124C55.1705 48.2374 57.4603 48.7999 60.108 48.7999C62.7558 48.7999 65.0398 48.2374 66.9603 47.1124C67.5082 46.7901 68.0205 46.4322 68.4971 46.0386L51.7102 46.0386ZM78.7477 46.0386C79.222 46.4322 79.7315 46.7901 80.2762 47.1124C82.208 48.2374 84.4978 48.7999 87.1455 48.7999C89.7933 48.7999 92.0773 48.2374 93.9978 47.1124C94.5457 46.7901 95.058 46.4322 95.5346 46.0386L78.7477 46.0386ZM105.16 46.0386C105.605 46.4688 106.085 46.8495 106.598 47.1806C108.211 48.2033 110.013 48.7147 112.001 48.7147C113.41 48.7147 114.603 48.4818 115.581 48.0158C116.569 47.5499 117.371 46.9647 117.984 46.2602C118.049 46.1864 118.112 46.1125 118.173 46.0386L105.16 46.0386ZM119.74 46.0386V48.2886H126.899V46.0386H119.74ZM136.735 46.0386L137.782 49.0386L137.355 50.1465C137.209 50.5219 137.043 50.847 136.857 51.1219H144.701C144.701 51.1206 144.702 51.1194 144.702 51.1181L146.484 46.0386H136.735Z" fill="#FF0000"/>
<path fill-rule="evenodd" clip-rule="evenodd" d="M0.866211 7.531L0.866214 35.1977H4.34561V30.7886H12.2433C12.1939 30.9031 12.1466 31.0205 12.1013 31.1408C11.7312 32.1245 11.5197 33.2585 11.4668 34.5427C11.6944 34.6779 11.9336 34.8054 12.1844 34.9249C13.173 35.3908 14.3719 35.6238 15.781 35.6238C17.7696 35.6238 19.5651 35.1124 21.1674 34.0897C21.5765 33.8275 21.9637 33.5343 22.329 33.21C22.2244 32.4909 22.0595 31.8239 21.8342 31.209C21.7815 31.0649 21.7255 30.9248 21.6665 30.7886H24.321C24.559 30.3953 24.7805 29.9786 24.9855 29.5386C25.9287 27.5272 26.4003 25.0613 26.4003 22.1408C26.4003 19.1408 25.9174 16.6465 24.9514 14.6579C23.9855 12.6579 22.6958 11.1636 21.0821 10.1749C19.4685 9.17494 17.7071 8.67494 15.798 8.67494C14.3321 8.67494 13.1049 8.92494 12.1162 9.42494C11.1389 9.91358 10.3435 10.5272 9.72985 11.2658C9.12758 11.9931 8.66735 12.709 8.34917 13.4136H8.12758V0.288574H0.866214V2.44767H8.12757V7.531H0.866211ZM32.3249 35.1977H29.8797C29.8777 33.5807 29.7351 32.111 29.4518 30.7886H28.8455L28.8455 7.531H36.1068V30.7886H32.3249V35.1977ZM8.6219 26.1806C8.19008 25.0215 7.97417 23.6636 7.97417 22.1068C7.97417 20.5499 8.19008 19.1977 8.6219 18.0499C9.05371 16.9022 9.67303 16.0158 10.4798 15.3908C11.298 14.7658 12.298 14.4533 13.4799 14.4533C14.673 14.4533 15.6787 14.7772 16.4969 15.4249C17.3151 16.0727 17.9344 16.9704 18.3549 18.1181C18.7753 19.2658 18.9855 20.5954 18.9855 22.1068C18.9855 23.6295 18.7696 24.9761 18.3378 26.1465C17.9174 27.3056 17.298 28.2147 16.4799 28.8738C15.6617 29.5215 14.6617 29.8454 13.4799 29.8454C12.3094 29.8454 11.3151 29.5272 10.4969 28.8908C9.67871 28.2431 9.05371 27.3397 8.6219 26.1806ZM36.1068 2.44767V0.288574H28.8455L28.8455 2.44767H36.1068ZM42.5138 30.7886C42.384 31.262 42.2765 31.75 42.1912 32.2525C41.3365 31.4003 40.6178 30.4105 40.035 29.2829C38.9895 27.2488 38.4668 24.8908 38.4668 22.209C38.4668 19.5045 38.9895 17.1408 40.035 15.1181C41.0804 13.084 42.5634 11.5045 44.4838 10.3795C46.4156 9.24312 48.7054 8.67494 51.3531 8.67494C54.0009 8.67494 56.285 9.24312 58.2054 10.3795C60.1372 11.5045 61.6259 13.084 62.6713 15.1181C63.7168 17.1408 64.2395 19.5045 64.2395 22.209C64.2395 24.8908 63.7168 27.2488 62.6713 29.2829C62.396 29.8155 62.09 30.3174 61.7533 30.7886H59.5647C59.6147 30.9143 59.6623 31.0431 59.7075 31.1749C59.8706 31.6378 60.0021 32.1254 60.1019 32.6378C59.526 33.1553 58.8939 33.6166 58.2054 34.0215C56.285 35.1465 54.0009 35.709 51.3531 35.709C50.6539 35.709 49.9797 35.6698 49.3304 35.5913C49.328 35.4781 49.3269 35.3639 49.3269 35.2488C49.3269 33.7261 49.5314 32.3681 49.9405 31.1749C49.987 31.0431 50.0358 30.9143 50.0872 30.7886H42.5138ZM54.4043 29.0613C53.5975 29.7431 52.5918 30.084 51.3872 30.084C50.1713 30.084 49.1486 29.7431 48.3191 29.0613C47.5009 28.3681 46.8816 27.4249 46.4611 26.2318C46.052 25.0386 45.8475 23.6806 45.8475 22.1579C45.8475 20.6352 46.052 19.2772 46.4611 18.084C46.8816 16.8908 47.5009 15.9477 48.3191 15.2545C49.1486 14.5613 50.1713 14.2147 51.3872 14.2147C52.5918 14.2147 53.5975 14.5613 54.4043 15.2545C55.2111 15.9477 55.8191 16.8908 56.2281 18.084C56.6486 19.2772 56.8588 20.6352 56.8588 22.1579C56.8588 23.6806 56.6486 25.0386 56.2281 26.2318C55.8191 27.4249 55.2111 28.3681 54.4043 29.0613ZM69.5513 30.7886C69.4215 31.262 69.314 31.75 69.2287 32.2525C68.374 31.4003 67.6553 30.4105 67.0725 29.2829C66.027 27.2488 65.5043 24.8908 65.5043 22.209C65.5043 19.5045 66.027 17.1408 67.0725 15.1181C68.1179 13.084 69.6009 11.5045 71.5213 10.3795C73.4531 9.24312 75.7429 8.67494 78.3906 8.67494C81.0384 8.67494 83.3225 9.24312 85.2429 10.3795C87.1747 11.5045 88.6634 13.084 89.7088 15.1181C90.7543 17.1408 91.277 19.5045 91.277 22.209C91.277 24.8908 90.7543 27.2488 89.7088 29.2829C89.4335 29.8155 89.1275 30.3174 88.7908 30.7886H86.6022C86.6522 30.9143 86.6998 31.0431 86.745 31.1749C86.9081 31.6378 87.0396 32.1254 87.1394 32.6378C86.5635 33.1553 85.9314 33.6166 85.2429 34.0215C83.3225 35.1465 81.0384 35.709 78.3906 35.709C77.6914 35.709 77.0172 35.6698 76.3679 35.5913C76.3655 35.4781 76.3644 35.3639 76.3644 35.2488C76.3644 33.7261 76.5689 32.3681 76.978 31.1749C77.0245 31.0431 77.0733 30.9143 77.1247 30.7886H69.5513ZM81.4418 29.0613C80.635 29.7431 79.6293 30.084 78.4247 30.084C77.2088 30.084 76.1861 29.7431 75.3566 29.0613C74.5384 28.3681 73.9191 27.4249 73.4986 26.2318C73.0895 25.0386 72.885 23.6806 72.885 22.1579C72.885 20.6352 73.0895 19.2772 73.4986 18.084C73.9191 16.8908 74.5384 15.9477 75.3566 15.2545C76.1861 14.5613 77.2088 14.2147 78.4247 14.2147C79.6293 14.2147 80.635 14.5613 81.4418 15.2545C82.2486 15.9477 82.8566 16.8908 83.2656 18.084C83.6861 19.2772 83.8963 20.6352 83.8963 22.1579C83.8963 23.6806 83.6861 25.0386 83.2656 26.2318C82.8566 27.4249 82.2486 28.3681 81.4418 29.0613ZM96.5343 30.7886C96.3999 31.416 96.2972 32.0766 96.2261 32.7704C95.3588 31.8888 94.625 30.8115 94.0247 29.5386C93.0929 27.5272 92.627 25.0613 92.627 22.1408C92.627 19.1408 93.11 16.6465 94.0759 14.6579C95.0418 12.6579 96.3259 11.1636 97.9281 10.1749C99.5418 9.17494 101.309 8.67494 103.229 8.67494C104.695 8.67494 105.917 8.92494 106.894 9.42494C107.883 9.91358 108.678 10.5272 109.28 11.2658C109.894 11.9931 110.36 12.709 110.678 13.4136H110.9L110.9 7.531H118.144V30.7886H113.743C113.792 30.9031 113.84 31.0205 113.885 31.1408C114.317 32.2886 114.533 33.6408 114.533 35.1977H110.985V31.0045H110.678C110.337 31.7318 109.854 32.4533 109.229 33.1693C108.616 33.8738 107.815 34.459 106.826 34.9249C105.914 35.3596 104.814 35.5915 103.527 35.6207C103.523 35.4812 103.521 35.3402 103.521 35.1977C103.521 33.6863 103.731 32.3568 104.152 31.209C104.205 31.0649 104.261 30.9248 104.32 30.7886H96.5343ZM110.9 2.44767H118.144V0.288574H110.9L110.9 2.44767ZM108.513 28.8908C107.707 29.5272 106.718 29.8454 105.547 29.8454C104.354 29.8454 103.349 29.5215 102.53 28.8738C101.724 28.2147 101.104 27.3056 100.672 26.1465C100.252 24.9761 100.042 23.6295 100.042 22.1068C100.042 20.5954 100.252 19.2658 100.672 18.1181C101.093 16.9704 101.712 16.0727 102.53 15.4249C103.349 14.7772 104.354 14.4533 105.547 14.4533C106.718 14.4533 107.712 14.7658 108.53 15.3908C109.349 16.0158 109.974 16.9022 110.405 18.0499C110.837 19.1977 111.053 20.5499 111.053 22.1068C111.053 23.6636 110.832 25.0215 110.388 26.1806C109.957 27.3397 109.332 28.2431 108.513 28.8908ZM123.606 44.7943C124.413 44.942 125.277 45.0159 126.197 45.0159C127.993 45.0159 129.527 44.7261 130.799 44.1465C132.072 43.5784 133.123 42.7658 133.953 41.709C134.794 40.6636 135.459 39.4363 135.947 38.0272L146.123 9.01585H138.436L132.964 28.2431H132.691L127.271 9.01585H119.635L127.228 30.7886H133.198L134.631 35.8719H129L129.027 35.9477L128.601 37.0556C128.282 37.8738 127.868 38.4533 127.356 38.7943C126.856 39.1352 126.26 39.2943 125.566 39.2715C124.885 39.2488 124.118 39.1068 123.265 38.8454L121.629 44.2658C122.152 44.4818 122.811 44.6579 123.606 44.7943Z" fill="#FF0000"/>
<path fill-rule="evenodd" clip-rule="evenodd" d="M50.1361 20.6219H42.8748V15.5386H50.1361V20.6219ZM132.173 20.6219H124.929V15.5386H132.173V20.6219ZM22.1569 15.5386V20.6219H14.8955V15.5386H22.1569Z" fill="#FF6F6F" style="mix-blend-mode:multiply"/>
<path fill-rule="evenodd" clip-rule="evenodd" d="M50.1361 35.8719H42.8748V30.7886H50.1361V35.8719ZM157.107 30.7886L155.324 35.8719H148.548L149.994 30.7886H157.107ZM136.692 30.7886H143.748L145.181 35.8719H138.464L136.692 30.7886ZM132.173 30.7886V35.8719H125.068C125.078 35.6515 125.082 35.4267 125.082 35.1977C125.082 33.6408 124.867 32.2886 124.435 31.1408C124.389 31.0206 124.342 30.9031 124.293 30.7886H132.173ZM107.084 30.7886C106.799 32.1203 106.656 33.6013 106.656 35.2318C106.656 35.4476 106.659 35.661 106.664 35.8719H114.085C114.076 35.6511 114.071 35.4264 114.071 35.1977C114.071 33.6863 114.281 32.3568 114.702 31.209C114.755 31.0649 114.81 30.9248 114.87 30.7886H107.084ZM104.739 30.7886C105.117 32.169 105.306 33.6727 105.306 35.2999C105.306 35.4923 105.304 35.6829 105.298 35.8719H97.9135C97.9216 35.6674 97.9256 35.4597 97.9256 35.2488C97.9256 33.7261 97.7154 32.3681 97.2949 31.1749C97.2497 31.0431 97.2021 30.9143 97.1521 30.7886H104.739ZM80.1012 30.7886C79.7228 32.169 79.5336 33.6727 79.5336 35.2999C79.5336 35.4923 79.5363 35.6829 79.5416 35.8719H86.926C86.9182 35.6674 86.9143 35.4597 86.9143 35.2488C86.9143 33.7261 87.1188 32.3681 87.5279 31.1749C87.5744 31.0431 87.6232 30.9143 87.6746 30.7886H80.1012ZM77.7011 30.7886C78.0796 32.169 78.2688 33.6727 78.2688 35.2999C78.2688 35.4923 78.2661 35.6829 78.2607 35.8719H70.876C70.8841 35.6674 70.8881 35.4597 70.8881 35.2488C70.8881 33.7261 70.6779 32.3681 70.2574 31.1749C70.2122 31.0431 70.1646 30.9143 70.1145 30.7886H77.7011ZM53.0637 30.7886C52.6853 32.169 52.4961 33.6727 52.4961 35.2999C52.4961 35.4923 52.4988 35.6829 52.5041 35.8719H59.8885C59.8807 35.6674 59.8768 35.4597 59.8768 35.2488C59.8768 33.7261 60.0813 32.3681 60.4904 31.1749C60.5369 31.0431 60.5857 30.9143 60.6371 30.7886H53.0637ZM40.0017 30.7886C40.287 32.1203 40.4296 33.6013 40.4296 35.2318C40.4296 35.4476 40.427 35.661 40.4219 35.8719H33.0002C33.01 35.6511 33.0148 35.4264 33.0148 35.1977C33.0148 33.6863 32.8046 32.3568 32.3841 31.209C32.3314 31.0649 32.2754 30.9248 32.2164 30.7886H40.0017ZM14.8955 35.8719V30.7886H22.7931C22.7438 30.9031 22.6964 31.0206 22.6512 31.1408C22.2194 32.2886 22.0035 33.6408 22.0035 35.1977C22.0035 35.4267 22.0081 35.6515 22.0175 35.8719H14.8955Z" fill="#FF6F6F" style="mix-blend-mode:multiply"/>
<path fill-rule="evenodd" clip-rule="evenodd" d="M14.8955 46.0386V48.2886H22.0546V46.0386H14.8955ZM36.642 46.0386L23.6217 46.0386C23.683 46.1125 23.7458 46.1864 23.8103 46.2602C24.4353 46.9647 25.2364 47.5499 26.2137 48.0158C27.2023 48.4818 28.4012 48.7147 29.8103 48.7147C31.7989 48.7147 33.5944 48.2033 35.1966 47.1806C35.7134 46.8495 36.1952 46.4688 36.642 46.0386ZM42.8748 46.0386V48.2886H50.1361V46.0386H42.8748ZM56.9846 46.0386C57.4589 46.4322 57.9684 46.7901 58.5131 47.1124C60.4449 48.2374 62.7347 48.7999 65.3824 48.7999C68.0302 48.7999 70.3143 48.2374 72.2347 47.1124C72.7826 46.7901 73.2949 46.4322 73.7715 46.0386L56.9846 46.0386ZM84.0221 46.0386C84.4964 46.4322 85.0059 46.7901 85.5506 47.1124C87.4824 48.2374 89.7722 48.7999 92.4199 48.7999C95.0677 48.7999 97.3518 48.2374 99.2722 47.1124C99.8201 46.7901 100.332 46.4322 100.809 46.0386L84.0221 46.0386ZM110.434 46.0386C110.88 46.4688 111.359 46.8495 111.872 47.1806C113.486 48.2033 115.287 48.7147 117.276 48.7147C118.685 48.7147 119.878 48.4818 120.855 48.0158C121.844 47.5499 122.645 46.9647 123.259 46.2602C123.323 46.1864 123.386 46.1125 123.447 46.0386L110.434 46.0386ZM125.014 46.0386V48.2886H132.173V46.0386H125.014ZM142.01 46.0386L143.056 49.0386L142.63 50.1465C142.484 50.5219 142.318 50.847 142.131 51.1219H149.975C149.976 51.1206 149.976 51.1194 149.976 51.1181L151.758 46.0386H142.01Z" fill="#FF6F6F" style="mix-blend-mode:multiply"/>
<path fill-rule="evenodd" clip-rule="evenodd" d="M6.1416 7.531L6.1416 35.1977H9.621V30.7886H17.5186C17.4693 30.9031 17.4219 31.0205 17.3767 31.1408C17.0066 32.1245 16.7951 33.2585 16.7422 34.5427C16.9698 34.6779 17.209 34.8054 17.4598 34.9249C18.4484 35.3908 19.6473 35.6238 21.0564 35.6238C23.045 35.6238 24.8405 35.1124 26.4427 34.0897C26.8519 33.8275 27.2391 33.5343 27.6044 33.21C27.4998 32.4909 27.3349 31.8239 27.1096 31.209C27.0569 31.0649 27.0009 30.9248 26.9419 30.7886H29.5963C29.8344 30.3953 30.0559 29.9786 30.2609 29.5386C31.2041 27.5272 31.6757 25.0613 31.6757 22.1408C31.6757 19.1408 31.1927 16.6465 30.2268 14.6579C29.2609 12.6579 27.9711 11.1636 26.3575 10.1749C24.7439 9.17494 22.9825 8.67494 21.0734 8.67494C19.6075 8.67494 18.3802 8.92494 17.3916 9.42494C16.4143 9.91358 15.6189 10.5272 15.0052 11.2658C14.403 11.9931 13.9427 12.709 13.6246 13.4136H13.403V0.288574H6.1416V2.44767H13.403V7.531H6.1416ZM37.6003 35.1977H35.1551C35.1531 33.5807 35.0105 32.111 34.7272 30.7886H34.1209L34.1209 7.531H41.3822V30.7886H37.6003V35.1977ZM13.8973 26.1806C13.4655 25.0215 13.2496 23.6636 13.2496 22.1068C13.2496 20.5499 13.4655 19.1977 13.8973 18.0499C14.3291 16.9022 14.9484 16.0158 15.7552 15.3908C16.5734 14.7658 17.5734 14.4533 18.7552 14.4533C19.9484 14.4533 20.9541 14.7772 21.7723 15.4249C22.5905 16.0727 23.2098 16.9704 23.6302 18.1181C24.0507 19.2658 24.2609 20.5954 24.2609 22.1068C24.2609 23.6295 24.045 24.9761 23.6132 26.1465C23.1927 27.3056 22.5734 28.2147 21.7552 28.8738C20.9371 29.5215 19.9371 29.8454 18.7552 29.8454C17.5848 29.8454 16.5905 29.5272 15.7723 28.8908C14.9541 28.2431 14.3291 27.3397 13.8973 26.1806ZM41.3822 2.44767V0.288574H34.1209L34.1209 2.44767H41.3822ZM47.7892 30.7886C47.6594 31.262 47.5519 31.75 47.4666 32.2525C46.6119 31.4003 45.8932 30.4105 45.3104 29.2829C44.2649 27.2488 43.7422 24.8908 43.7422 22.209C43.7422 19.5045 44.2649 17.1408 45.3104 15.1181C46.3558 13.084 47.8388 11.5045 49.7592 10.3795C51.691 9.24312 53.9808 8.67494 56.6285 8.67494C59.2763 8.67494 61.5604 9.24312 63.4808 10.3795C65.4126 11.5045 66.9013 13.084 67.9467 15.1181C68.9922 17.1408 69.5149 19.5045 69.5149 22.209C69.5149 24.8908 68.9922 27.2488 67.9467 29.2829C67.6714 29.8155 67.3654 30.3174 67.0287 30.7886H64.84C64.8901 30.9143 64.9377 31.0431 64.9829 31.1749C65.146 31.6378 65.2775 32.1254 65.3773 32.6378C64.8014 33.1553 64.1693 33.6166 63.4808 34.0215C61.5604 35.1465 59.2763 35.709 56.6285 35.709C55.9293 35.709 55.2551 35.6698 54.6058 35.5913C54.6034 35.4781 54.6023 35.3639 54.6023 35.2488C54.6023 33.7261 54.8068 32.3681 55.2159 31.1749C55.2623 31.0431 55.3112 30.9143 55.3625 30.7886H47.7892ZM59.6797 29.0613C58.8729 29.7431 57.8672 30.084 56.6626 30.084C55.4467 30.084 54.424 29.7431 53.5944 29.0613C52.7763 28.3681 52.1569 27.4249 51.7365 26.2318C51.3274 25.0386 51.1229 23.6806 51.1229 22.1579C51.1229 20.6352 51.3274 19.2772 51.7365 18.084C52.1569 16.8908 52.7763 15.9477 53.5944 15.2545C54.424 14.5613 55.4467 14.2147 56.6626 14.2147C57.8672 14.2147 58.8729 14.5613 59.6797 15.2545C60.4865 15.9477 61.0944 16.8908 61.5035 18.084C61.924 19.2772 62.1342 20.6352 62.1342 22.1579C62.1342 23.6806 61.924 25.0386 61.5035 26.2318C61.0944 27.4249 60.4865 28.3681 59.6797 29.0613ZM74.8267 30.7886C74.6969 31.262 74.5894 31.75 74.5041 32.2525C73.6494 31.4003 72.9306 30.4105 72.3479 29.2829C71.3024 27.2488 70.7797 24.8908 70.7797 22.209C70.7797 19.5045 71.3024 17.1408 72.3479 15.1181C73.3933 13.084 74.8763 11.5045 76.7967 10.3795C78.7285 9.24312 81.0183 8.67494 83.666 8.67494C86.3138 8.67494 88.5979 9.24312 90.5183 10.3795C92.4501 11.5045 93.9388 13.084 94.9842 15.1181C96.0297 17.1408 96.5524 19.5045 96.5524 22.209C96.5524 24.8908 96.0297 27.2488 94.9842 29.2829C94.7089 29.8155 94.4029 30.3174 94.0662 30.7886H91.8775C91.9276 30.9143 91.9752 31.0431 92.0204 31.1749C92.1835 31.6378 92.315 32.1254 92.4148 32.6378C91.8389 33.1553 91.2068 33.6166 90.5183 34.0215C88.5979 35.1465 86.3138 35.709 83.666 35.709C82.9668 35.709 82.2926 35.6698 81.6433 35.5913C81.6409 35.4781 81.6398 35.3639 81.6398 35.2488C81.6398 33.7261 81.8443 32.3681 82.2534 31.1749C82.2999 31.0431 82.3487 30.9143 82.4 30.7886H74.8267ZM86.7172 29.0613C85.9104 29.7431 84.9047 30.084 83.7001 30.084C82.4842 30.084 81.4615 29.7431 80.632 29.0613C79.8138 28.3681 79.1945 27.4249 78.774 26.2318C78.3649 25.0386 78.1604 23.6806 78.1604 22.1579C78.1604 20.6352 78.3649 19.2772 78.774 18.084C79.1945 16.8908 79.8138 15.9477 80.632 15.2545C81.4615 14.5613 82.4842 14.2147 83.7001 14.2147C84.9047 14.2147 85.9104 14.5613 86.7172 15.2545C87.524 15.9477 88.132 16.8908 88.541 18.084C88.9615 19.2772 89.1717 20.6352 89.1717 22.1579C89.1717 23.6806 88.9615 25.0386 88.541 26.2318C88.132 27.4249 87.524 28.3681 86.7172 29.0613ZM101.81 30.7886C101.675 31.416 101.573 32.0766 101.501 32.7704C100.634 31.8888 99.9004 30.8115 99.3001 29.5386C98.3683 27.5272 97.9024 25.0613 97.9024 22.1408C97.9024 19.1408 98.3854 16.6465 99.3513 14.6579C100.317 12.6579 101.601 11.1636 103.204 10.1749C104.817 9.17494 106.584 8.67494 108.505 8.67494C109.971 8.67494 111.192 8.92494 112.169 9.42494C113.158 9.91358 113.954 10.5272 114.556 11.2658C115.169 11.9931 115.635 12.709 115.954 13.4136H116.175L116.175 7.531H123.419V30.7886H119.018C119.068 30.9031 119.115 31.0205 119.16 31.1408C119.592 32.2886 119.808 33.6408 119.808 35.1977H116.26V31.0045H115.954C115.613 31.7318 115.13 32.4533 114.505 33.1693C113.891 33.8738 113.09 34.459 112.101 34.9249C111.189 35.3596 110.09 35.5915 108.802 35.6207C108.798 35.4812 108.797 35.3402 108.797 35.1977C108.797 33.6863 109.007 32.3568 109.427 31.209C109.48 31.0649 109.536 30.9248 109.595 30.7886H101.81ZM116.175 2.44767H123.419V0.288574H116.175L116.175 2.44767ZM113.789 28.8908C112.982 29.5272 111.993 29.8454 110.823 29.8454C109.63 29.8454 108.624 29.5215 107.806 28.8738C106.999 28.2147 106.38 27.3056 105.948 26.1465C105.527 24.9761 105.317 23.6295 105.317 22.1068C105.317 20.5954 105.527 19.2658 105.948 18.1181C106.368 16.9704 106.988 16.0727 107.806 15.4249C108.624 14.7772 109.63 14.4533 110.823 14.4533C111.993 14.4533 112.988 14.7658 113.806 15.3908C114.624 16.0158 115.249 16.9022 115.681 18.0499C116.113 19.1977 116.329 20.5499 116.329 22.1068C116.329 23.6636 116.107 25.0215 115.664 26.1806C115.232 27.3397 114.607 28.2431 113.789 28.8908ZM128.882 44.7943C129.688 44.942 130.552 45.0159 131.473 45.0159C133.268 45.0159 134.802 44.7261 136.075 44.1465C137.348 43.5784 138.399 42.7658 139.228 41.709C140.069 40.6636 140.734 39.4363 141.223 38.0272L151.399 9.01585H143.711L138.24 28.2431H137.967L132.546 9.01585H124.91L132.503 30.7886H138.473L139.906 35.8719H134.276L134.302 35.9477L133.876 37.0556C133.558 37.8738 133.143 38.4533 132.632 38.7943C132.132 39.1352 131.535 39.2943 130.842 39.2715C130.16 39.2488 129.393 39.1068 128.541 38.8454L126.904 44.2658C127.427 44.4818 128.086 44.6579 128.882 44.7943Z" fill="#FF6F6F" style="mix-blend-mode:multiply"/>
<path fill-rule="evenodd" clip-rule="evenodd" d="M44.8617 20.6219H37.6004V15.5386H44.8617V20.6219ZM126.899 20.6219H119.655V15.5386H126.899V20.6219ZM16.8825 15.5386V20.6219H9.62109V15.5386H16.8825Z" fill="#D30F54" style="mix-blend-mode:multiply"/>
<path fill-rule="evenodd" clip-rule="evenodd" d="M44.8617 35.8719H37.6004V30.7886H44.8617V35.8719ZM151.833 30.7886L150.05 35.8719H143.273L144.72 30.7886H151.833ZM131.417 30.7886H138.473L139.907 35.8719H133.19L131.417 30.7886ZM126.899 30.7886V35.8719H119.794C119.803 35.6515 119.808 35.4267 119.808 35.1977C119.808 33.6408 119.592 32.2886 119.16 31.1408C119.115 31.0206 119.068 30.9031 119.018 30.7886H126.899ZM101.81 30.7886C101.525 32.1203 101.382 33.6013 101.382 35.2318C101.382 35.4476 101.384 35.661 101.39 35.8719H108.811C108.801 35.6511 108.797 35.4264 108.797 35.1977C108.797 33.6863 109.007 32.3568 109.427 31.209C109.48 31.0649 109.536 30.9248 109.595 30.7886H101.81ZM99.4642 30.7886C99.8427 32.169 100.032 33.6727 100.032 35.2999C100.032 35.4923 100.029 35.6829 100.024 35.8719H92.6391C92.6472 35.6674 92.6512 35.4597 92.6512 35.2488C92.6512 33.7261 92.441 32.3681 92.0205 31.1749C91.9753 31.0431 91.9277 30.9143 91.8776 30.7886H99.4642ZM74.8268 30.7886C74.4484 32.169 74.2592 33.6727 74.2592 35.2999C74.2592 35.4923 74.2618 35.6829 74.2672 35.8719H81.6516C81.6438 35.6674 81.6398 35.4597 81.6398 35.2488C81.6398 33.7261 81.8444 32.3681 82.2535 31.1749C82.2999 31.0431 82.3488 30.9143 82.4001 30.7886H74.8268ZM72.4267 30.7886C72.8052 32.169 72.9944 33.6727 72.9944 35.2999C72.9944 35.4923 72.9917 35.6829 72.9863 35.8719H65.6016C65.6097 35.6674 65.6137 35.4597 65.6137 35.2488C65.6137 33.7261 65.4035 32.3681 64.983 31.1749C64.9378 31.0431 64.8902 30.9143 64.8401 30.7886H72.4267ZM47.7893 30.7886C47.4109 32.169 47.2217 33.6727 47.2217 35.2999C47.2217 35.4923 47.2244 35.6829 47.2297 35.8719H54.6141C54.6063 35.6674 54.6023 35.4597 54.6023 35.2488C54.6023 33.7261 54.8069 32.3681 55.216 31.1749C55.2624 31.0431 55.3113 30.9143 55.3626 30.7886H47.7893ZM34.7272 30.7886C35.0125 32.1203 35.1552 33.6013 35.1552 35.2318C35.1552 35.4476 35.1526 35.661 35.1475 35.8719H27.7258C27.7355 35.6511 27.7404 35.4264 27.7404 35.1977C27.7404 33.6863 27.5302 32.3568 27.1097 31.209C27.0569 31.0649 27.001 30.9248 26.942 30.7886H34.7272ZM9.62109 35.8719V30.7886H17.5187C17.4694 30.9031 17.422 31.0206 17.3768 31.1408C16.945 32.2886 16.729 33.6408 16.729 35.1977C16.729 35.4267 16.7337 35.6515 16.7431 35.8719H9.62109Z" fill="#D30F54" style="mix-blend-mode:multiply"/>
<path fill-rule="evenodd" clip-rule="evenodd" d="M9.62109 46.0386V48.2886H16.7802V46.0386H9.62109ZM31.3676 46.0386L18.3473 46.0386C18.4086 46.1125 18.4714 46.1864 18.5359 46.2602C19.1609 46.9647 19.962 47.5499 20.9393 48.0158C21.9279 48.4818 23.1268 48.7147 24.5359 48.7147C26.5245 48.7147 28.32 48.2033 29.9222 47.1806C30.439 46.8495 30.9208 46.4688 31.3676 46.0386ZM37.6004 46.0386V48.2886H44.8617V46.0386H37.6004ZM51.7102 46.0386C52.1845 46.4322 52.694 46.7901 53.2387 47.1124C55.1705 48.2374 57.4603 48.7999 60.108 48.7999C62.7558 48.7999 65.0398 48.2374 66.9603 47.1124C67.5082 46.7901 68.0205 46.4322 68.4971 46.0386L51.7102 46.0386ZM78.7477 46.0386C79.222 46.4322 79.7315 46.7901 80.2762 47.1124C82.208 48.2374 84.4978 48.7999 87.1455 48.7999C89.7933 48.7999 92.0773 48.2374 93.9978 47.1124C94.5457 46.7901 95.058 46.4322 95.5346 46.0386L78.7477 46.0386ZM105.16 46.0386C105.605 46.4688 106.085 46.8495 106.598 47.1806C108.211 48.2033 110.013 48.7147 112.001 48.7147C113.41 48.7147 114.603 48.4818 115.581 48.0158C116.569 47.5499 117.371 46.9647 117.984 46.2602C118.049 46.1864 118.112 46.1125 118.173 46.0386L105.16 46.0386ZM119.74 46.0386V48.2886H126.899V46.0386H119.74ZM136.735 46.0386L137.782 49.0386L137.355 50.1465C137.209 50.5219 137.043 50.847 136.857 51.1219H144.701C144.701 51.1206 144.702 51.1194 144.702 51.1181L146.484 46.0386H136.735Z" fill="#D30F54" style="mix-blend-mode:multiply"/>
<path fill-rule="evenodd" clip-rule="evenodd" d="M0.866211 7.531L0.866214 35.1977H4.34561V30.7886H12.2433C12.1939 30.9031 12.1466 31.0205 12.1013 31.1408C11.7312 32.1245 11.5197 33.2585 11.4668 34.5427C11.6944 34.6779 11.9336 34.8054 12.1844 34.9249C13.173 35.3908 14.3719 35.6238 15.781 35.6238C17.7696 35.6238 19.5651 35.1124 21.1674 34.0897C21.5765 33.8275 21.9637 33.5343 22.329 33.21C22.2244 32.4909 22.0595 31.8239 21.8342 31.209C21.7815 31.0649 21.7255 30.9248 21.6665 30.7886H24.321C24.559 30.3953 24.7805 29.9786 24.9855 29.5386C25.9287 27.5272 26.4003 25.0613 26.4003 22.1408C26.4003 19.1408 25.9174 16.6465 24.9514 14.6579C23.9855 12.6579 22.6958 11.1636 21.0821 10.1749C19.4685 9.17494 17.7071 8.67494 15.798 8.67494C14.3321 8.67494 13.1049 8.92494 12.1162 9.42494C11.1389 9.91358 10.3435 10.5272 9.72985 11.2658C9.12758 11.9931 8.66735 12.709 8.34917 13.4136H8.12758V0.288574H0.866214V2.44767H8.12757V7.531H0.866211ZM32.3249 35.1977H29.8797C29.8777 33.5807 29.7351 32.111 29.4518 30.7886H28.8455L28.8455 7.531H36.1068V30.7886H32.3249V35.1977ZM8.6219 26.1806C8.19008 25.0215 7.97417 23.6636 7.97417 22.1068C7.97417 20.5499 8.19008 19.1977 8.6219 18.0499C9.05371 16.9022 9.67303 16.0158 10.4798 15.3908C11.298 14.7658 12.298 14.4533 13.4799 14.4533C14.673 14.4533 15.6787 14.7772 16.4969 15.4249C17.3151 16.0727 17.9344 16.9704 18.3549 18.1181C18.7753 19.2658 18.9855 20.5954 18.9855 22.1068C18.9855 23.6295 18.7696 24.9761 18.3378 26.1465C17.9174 27.3056 17.298 28.2147 16.4799 28.8738C15.6617 29.5215 14.6617 29.8454 13.4799 29.8454C12.3094 29.8454 11.3151 29.5272 10.4969 28.8908C9.67871 28.2431 9.05371 27.3397 8.6219 26.1806ZM36.1068 2.44767V0.288574H28.8455L28.8455 2.44767H36.1068ZM42.5138 30.7886C42.384 31.262 42.2765 31.75 42.1912 32.2525C41.3365 31.4003 40.6178 30.4105 40.035 29.2829C38.9895 27.2488 38.4668 24.8908 38.4668 22.209C38.4668 19.5045 38.9895 17.1408 40.035 15.1181C41.0804 13.084 42.5634 11.5045 44.4838 10.3795C46.4156 9.24312 48.7054 8.67494 51.3531 8.67494C54.0009 8.67494 56.285 9.24312 58.2054 10.3795C60.1372 11.5045 61.6259 13.084 62.6713 15.1181C63.7168 17.1408 64.2395 19.5045 64.2395 22.209C64.2395 24.8908 63.7168 27.2488 62.6713 29.2829C62.396 29.8155 62.09 30.3174 61.7533 30.7886H59.5647C59.6147 30.9143 59.6623 31.0431 59.7075 31.1749C59.8706 31.6378 60.0021 32.1254 60.1019 32.6378C59.526 33.1553 58.8939 33.6166 58.2054 34.0215C56.285 35.1465 54.0009 35.709 51.3531 35.709C50.6539 35.709 49.9797 35.6698 49.3304 35.5913C49.328 35.4781 49.3269 35.3639 49.3269 35.2488C49.3269 33.7261 49.5314 32.3681 49.9405 31.1749C49.987 31.0431 50.0358 30.9143 50.0872 30.7886H42.5138ZM54.4043 29.0613C53.5975 29.7431 52.5918 30.084 51.3872 30.084C50.1713 30.084 49.1486 29.7431 48.3191 29.0613C47.5009 28.3681 46.8816 27.4249 46.4611 26.2318C46.052 25.0386 45.8475 23.6806 45.8475 22.1579C45.8475 20.6352 46.052 19.2772 46.4611 18.084C46.8816 16.8908 47.5009 15.9477 48.3191 15.2545C49.1486 14.5613 50.1713 14.2147 51.3872 14.2147C52.5918 14.2147 53.5975 14.5613 54.4043 15.2545C55.2111 15.9477 55.8191 16.8908 56.2281 18.084C56.6486 19.2772 56.8588 20.6352 56.8588 22.1579C56.8588 23.6806 56.6486 25.0386 56.2281 26.2318C55.8191 27.4249 55.2111 28.3681 54.4043 29.0613ZM69.5513 30.7886C69.4215 31.262 69.314 31.75 69.2287 32.2525C68.374 31.4003 67.6553 30.4105 67.0725 29.2829C66.027 27.2488 65.5043 24.8908 65.5043 22.209C65.5043 19.5045 66.027 17.1408 67.0725 15.1181C68.1179 13.084 69.6009 11.5045 71.5213 10.3795C73.4531 9.24312 75.7429 8.67494 78.3906 8.67494C81.0384 8.67494 83.3225 9.24312 85.2429 10.3795C87.1747 11.5045 88.6634 13.084 89.7088 15.1181C90.7543 17.1408 91.277 19.5045 91.277 22.209C91.277 24.8908 90.7543 27.2488 89.7088 29.2829C89.4335 29.8155 89.1275 30.3174 88.7908 30.7886H86.6022C86.6522 30.9143 86.6998 31.0431 86.745 31.1749C86.9081 31.6378 87.0396 32.1254 87.1394 32.6378C86.5635 33.1553 85.9314 33.6166 85.2429 34.0215C83.3225 35.1465 81.0384 35.709 78.3906 35.709C77.6914 35.709 77.0172 35.6698 76.3679 35.5913C76.3655 35.4781 76.3644 35.3639 76.3644 35.2488C76.3644 33.7261 76.5689 32.3681 76.978 31.1749C77.0245 31.0431 77.0733 30.9143 77.1247 30.7886H69.5513ZM81.4418 29.0613C80.635 29.7431 79.6293 30.084 78.4247 30.084C77.2088 30.084 76.1861 29.7431 75.3566 29.0613C74.5384 28.3681 73.9191 27.4249 73.4986 26.2318C73.0895 25.0386 72.885 23.6806 72.885 22.1579C72.885 20.6352 73.0895 19.2772 73.4986 18.084C73.9191 16.8908 74.5384 15.9477 75.3566 15.2545C76.1861 14.5613 77.2088 14.2147 78.4247 14.2147C79.6293 14.2147 80.635 14.5613 81.4418 15.2545C82.2486 15.9477 82.8566 16.8908 83.2656 18.084C83.6861 19.2772 83.8963 20.6352 83.8963 22.1579C83.8963 23.6806 83.6861 25.0386 83.2656 26.2318C82.8566 27.4249 82.2486 28.3681 81.4418 29.0613ZM96.5343 30.7886C96.3999 31.416 96.2972 32.0766 96.2261 32.7704C95.3588 31.8888 94.625 30.8115 94.0247 29.5386C93.0929 27.5272 92.627 25.0613 92.627 22.1408C92.627 19.1408 93.11 16.6465 94.0759 14.6579C95.0418 12.6579 96.3259 11.1636 97.9281 10.1749C99.5418 9.17494 101.309 8.67494 103.229 8.67494C104.695 8.67494 105.917 8.92494 106.894 9.42494C107.883 9.91358 108.678 10.5272 109.28 11.2658C109.894 11.9931 110.36 12.709 110.678 13.4136H110.9L110.9 7.531H118.144V30.7886H113.743C113.792 30.9031 113.84 31.0205 113.885 31.1408C114.317 32.2886 114.533 33.6408 114.533 35.1977H110.985V31.0045H110.678C110.337 31.7318 109.854 32.4533 109.229 33.1693C108.616 33.8738 107.815 34.459 106.826 34.9249C105.914 35.3596 104.814 35.5915 103.527 35.6207C103.523 35.4812 103.521 35.3402 103.521 35.1977C103.521 33.6863 103.731 32.3568 104.152 31.209C104.205 31.0649 104.261 30.9248 104.32 30.7886H96.5343ZM110.9 2.44767H118.144V0.288574H110.9L110.9 2.44767ZM108.513 28.8908C107.707 29.5272 106.718 29.8454 105.547 29.8454C104.354 29.8454 103.349 29.5215 102.53 28.8738C101.724 28.2147 101.104 27.3056 100.672 26.1465C100.252 24.9761 100.042 23.6295 100.042 22.1068C100.042 20.5954 100.252 19.2658 100.672 18.1181C101.093 16.9704 101.712 16.0727 102.53 15.4249C103.349 14.7772 104.354 14.4533 105.547 14.4533C106.718 14.4533 107.712 14.7658 108.53 15.3908C109.349 16.0158 109.974 16.9022 110.405 18.0499C110.837 19.1977 111.053 20.5499 111.053 22.1068C111.053 23.6636 110.832 25.0215 110.388 26.1806C109.957 27.3397 109.332 28.2431 108.513 28.8908ZM123.606 44.7943C124.413 44.942 125.277 45.0159 126.197 45.0159C127.993 45.0159 129.527 44.7261 130.799 44.1465C132.072 43.5784 133.123 42.7658 133.953 41.709C134.794 40.6636 135.459 39.4363 135.947 38.0272L146.123 9.01585H138.436L132.964 28.2431H132.691L127.271 9.01585H119.635L127.228 30.7886H133.198L134.631 35.8719H129L129.027 35.9477L128.601 37.0556C128.282 37.8738 127.868 38.4533 127.356 38.7943C126.856 39.1352 126.26 39.2943 125.566 39.2715C124.885 39.2488 124.118 39.1068 123.265 38.8454L121.629 44.2658C122.152 44.4818 122.811 44.6579 123.606 44.7943Z" fill="#D30F54" style="mix-blend-mode:multiply"/>
</svg>
