<svg width="158" height="52" viewBox="0 0 158 52" fill="none" xmlns="http://www.w3.org/2000/svg">
<path fill-rule="evenodd" clip-rule="evenodd" d="M50.1361 20.6219H42.8748V15.5386H50.1361V20.6219ZM132.173 20.6219H124.929V15.5386H132.173V20.6219ZM22.1569 15.5386V20.6219H14.8955V15.5386H22.1569Z" fill="white"/>
<path fill-rule="evenodd" clip-rule="evenodd" d="M50.1361 35.8719H42.8748V30.7886H50.1361V35.8719ZM157.107 30.7886L155.324 35.8719H148.548L149.994 30.7886H157.107ZM136.692 30.7886H143.748L145.181 35.8719H138.464L136.692 30.7886ZM132.173 30.7886V35.8719H125.068C125.078 35.6515 125.082 35.4267 125.082 35.1977C125.082 33.6408 124.867 32.2886 124.435 31.1408C124.389 31.0206 124.342 30.9031 124.293 30.7886H132.173ZM107.084 30.7886C106.799 32.1203 106.656 33.6013 106.656 35.2318C106.656 35.4476 106.659 35.661 106.664 35.8719H114.085C114.076 35.6511 114.071 35.4264 114.071 35.1977C114.071 33.6863 114.281 32.3568 114.702 31.209C114.755 31.0649 114.81 30.9248 114.87 30.7886H107.084ZM104.739 30.7886C105.117 32.169 105.306 33.6727 105.306 35.2999C105.306 35.4923 105.304 35.6829 105.298 35.8719H97.9135C97.9216 35.6674 97.9256 35.4597 97.9256 35.2488C97.9256 33.7261 97.7154 32.3681 97.2949 31.1749C97.2497 31.0431 97.2021 30.9143 97.1521 30.7886H104.739ZM80.1012 30.7886C79.7228 32.169 79.5336 33.6727 79.5336 35.2999C79.5336 35.4923 79.5363 35.6829 79.5416 35.8719H86.926C86.9182 35.6674 86.9143 35.4597 86.9143 35.2488C86.9143 33.7261 87.1188 32.3681 87.5279 31.1749C87.5744 31.0431 87.6232 30.9143 87.6746 30.7886H80.1012ZM77.7011 30.7886C78.0796 32.169 78.2688 33.6727 78.2688 35.2999C78.2688 35.4923 78.2661 35.6829 78.2607 35.8719H70.876C70.8841 35.6674 70.8881 35.4597 70.8881 35.2488C70.8881 33.7261 70.6779 32.3681 70.2574 31.1749C70.2122 31.0431 70.1646 30.9143 70.1145 30.7886H77.7011ZM53.0637 30.7886C52.6853 32.169 52.4961 33.6727 52.4961 35.2999C52.4961 35.4923 52.4988 35.6829 52.5041 35.8719H59.8885C59.8807 35.6674 59.8768 35.4597 59.8768 35.2488C59.8768 33.7261 60.0813 32.3681 60.4904 31.1749C60.5369 31.0431 60.5857 30.9143 60.6371 30.7886H53.0637ZM40.0017 30.7886C40.287 32.1203 40.4296 33.6013 40.4296 35.2318C40.4296 35.4476 40.427 35.661 40.4219 35.8719H33.0002C33.01 35.6511 33.0148 35.4264 33.0148 35.1977C33.0148 33.6863 32.8046 32.3568 32.3841 31.209C32.3314 31.0649 32.2754 30.9248 32.2164 30.7886H40.0017ZM14.8955 35.8719V30.7886H22.7931C22.7438 30.9031 22.6964 31.0206 22.6512 31.1408C22.2194 32.2886 22.0035 33.6408 22.0035 35.1977C22.0035 35.4267 22.0081 35.6515 22.0175 35.8719H14.8955Z" fill="white"/>
<path fill-rule="evenodd" clip-rule="evenodd" d="M14.8955 46.0386V48.2886H22.0546V46.0386H14.8955ZM36.642 46.0386H23.6217C23.683 46.1125 23.7458 46.1864 23.8103 46.2602C24.4353 46.9647 25.2364 47.5499 26.2137 48.0158C27.2023 48.4818 28.4012 48.7147 29.8103 48.7147C31.7989 48.7147 33.5944 48.2033 35.1966 47.1806C35.7134 46.8495 36.1952 46.4688 36.642 46.0386ZM42.8748 46.0386V48.2886H50.1361V46.0386H42.8748ZM56.9846 46.0386C57.4589 46.4322 57.9684 46.7901 58.5131 47.1124C60.4449 48.2374 62.7347 48.7999 65.3824 48.7999C68.0302 48.7999 70.3143 48.2374 72.2347 47.1124C72.7826 46.7901 73.2949 46.4322 73.7715 46.0386H56.9846ZM84.0221 46.0386C84.4964 46.4322 85.0059 46.7901 85.5506 47.1124C87.4824 48.2374 89.7722 48.7999 92.4199 48.7999C95.0677 48.7999 97.3518 48.2374 99.2722 47.1124C99.8201 46.7901 100.332 46.4322 100.809 46.0386H84.0221ZM110.434 46.0386C110.88 46.4688 111.359 46.8495 111.872 47.1806C113.486 48.2033 115.287 48.7147 117.276 48.7147C118.685 48.7147 119.878 48.4818 120.855 48.0158C121.844 47.5499 122.645 46.9647 123.259 46.2602C123.323 46.1864 123.386 46.1125 123.447 46.0386H110.434ZM125.014 46.0386V48.2886H132.173V46.0386H125.014ZM142.01 46.0386L143.056 49.0386L142.63 50.1465C142.484 50.5219 142.318 50.847 142.131 51.1219H149.975C149.976 51.1206 149.976 51.1194 149.976 51.1181L151.758 46.0386H142.01Z" fill="white"/>
<path fill-rule="evenodd" clip-rule="evenodd" d="M6.14111 7.531L6.14112 35.1977H9.62051V30.7886H17.5182C17.4688 30.9031 17.4215 31.0206 17.3762 31.1408C17.0061 32.1245 16.7946 33.2585 16.7417 34.5427C16.9693 34.6779 17.2085 34.8054 17.4593 34.9249C18.4479 35.3908 19.6468 35.6238 21.0559 35.6238C23.0445 35.6238 24.84 35.1124 26.4423 34.0897C26.8514 33.8275 27.2386 33.5343 27.6039 33.21C27.4993 32.4909 27.3344 31.8239 27.1092 31.209C27.0564 31.0649 27.0004 30.9248 26.9414 30.7886H29.5959C29.8339 30.3953 30.0554 29.9786 30.2604 29.5386C31.2036 27.5272 31.6752 25.0613 31.6752 22.1408C31.6752 19.1408 31.1923 16.6465 30.2263 14.6579C29.2604 12.6579 27.9707 11.1636 26.357 10.1749C24.7434 9.17494 22.982 8.67494 21.0729 8.67494C19.607 8.67494 18.3798 8.92494 17.3911 9.42494C16.4138 9.91357 15.6184 10.5272 15.0048 11.2658C14.4025 11.9931 13.9423 12.709 13.6241 13.4136H13.4025V0.288574H6.14112L6.14111 2.44767H13.4025V7.531H6.14111ZM37.5998 35.1977H35.1546C35.1526 33.5807 35.01 32.111 34.7267 30.7886H34.1204L34.1204 7.531H41.3817V30.7886H37.5998V35.1977ZM13.8968 26.1806C13.465 25.0215 13.2491 23.6636 13.2491 22.1068C13.2491 20.5499 13.465 19.1977 13.8968 18.0499C14.3286 16.9022 14.9479 16.0158 15.7548 15.3908C16.5729 14.7658 17.5729 14.4533 18.7548 14.4533C19.9479 14.4533 20.9536 14.7772 21.7718 15.4249C22.59 16.0727 23.2093 16.9704 23.6298 18.1181C24.0502 19.2658 24.2604 20.5954 24.2604 22.1068C24.2604 23.6295 24.0445 24.9761 23.6127 26.1465C23.1923 27.3056 22.5729 28.2147 21.7548 28.8738C20.9366 29.5215 19.9366 29.8454 18.7548 29.8454C17.5843 29.8454 16.59 29.5272 15.7718 28.8908C14.9536 28.2431 14.3286 27.3397 13.8968 26.1806ZM41.3817 2.44767V0.288574H34.1204L34.1204 2.44767H41.3817ZM47.7887 30.7886C47.6589 31.262 47.5514 31.75 47.4661 32.2525C46.6114 31.4003 45.8927 30.4105 45.3099 29.2829C44.2644 27.2488 43.7417 24.8908 43.7417 22.209C43.7417 19.5045 44.2644 17.1408 45.3099 15.1181C46.3553 13.084 47.8383 11.5045 49.7587 10.3795C51.6905 9.24312 53.9803 8.67494 56.628 8.67494C59.2758 8.67494 61.5599 9.24312 63.4803 10.3795C65.4121 11.5045 66.9008 13.084 67.9462 15.1181C68.9917 17.1408 69.5144 19.5045 69.5144 22.209C69.5144 24.8908 68.9917 27.2488 67.9462 29.2829C67.6709 29.8155 67.3649 30.3174 67.0282 30.7886H64.8396C64.8896 30.9143 64.9372 31.0431 64.9824 31.1749C65.1455 31.6378 65.277 32.1254 65.3768 32.6378C64.8009 33.1553 64.1688 33.6166 63.4803 34.0215C61.5599 35.1465 59.2758 35.709 56.628 35.709C55.9288 35.709 55.2546 35.6698 54.6053 35.5913C54.6029 35.4781 54.6018 35.3639 54.6018 35.2488C54.6018 33.7261 54.8063 32.3681 55.2154 31.1749C55.2619 31.0431 55.3107 30.9143 55.3621 30.7886H47.7887ZM59.6792 29.0613C58.8724 29.7431 57.8667 30.084 56.6621 30.084C55.4462 30.084 54.4235 29.7431 53.594 29.0613C52.7758 28.3681 52.1565 27.4249 51.736 26.2318C51.3269 25.0386 51.1224 23.6806 51.1224 22.1579C51.1224 20.6352 51.3269 19.2772 51.736 18.084C52.1565 16.8908 52.7758 15.9477 53.594 15.2545C54.4235 14.5613 55.4462 14.2147 56.6621 14.2147C57.8667 14.2147 58.8724 14.5613 59.6792 15.2545C60.486 15.9477 61.094 16.8908 61.503 18.084C61.9235 19.2772 62.1337 20.6352 62.1337 22.1579C62.1337 23.6806 61.9235 25.0386 61.503 26.2318C61.094 27.4249 60.486 28.3681 59.6792 29.0613ZM74.8262 30.7886C74.6964 31.262 74.5889 31.75 74.5036 32.2525C73.6489 31.4003 72.9302 30.4105 72.3474 29.2829C71.3019 27.2488 70.7792 24.8908 70.7792 22.209C70.7792 19.5045 71.3019 17.1408 72.3474 15.1181C73.3928 13.084 74.8758 11.5045 76.7962 10.3795C78.7281 9.24312 81.0178 8.67494 83.6656 8.67494C86.3133 8.67494 88.5974 9.24312 90.5178 10.3795C92.4496 11.5045 93.9383 13.084 94.9837 15.1181C96.0292 17.1408 96.5519 19.5045 96.5519 22.209C96.5519 24.8908 96.0292 27.2488 94.9837 29.2829C94.7084 29.8155 94.4024 30.3174 94.0657 30.7886H91.8771C91.9271 30.9143 91.9747 31.0431 92.02 31.1749C92.183 31.6378 92.3145 32.1254 92.4143 32.6378C91.8384 33.1553 91.2063 33.6166 90.5178 34.0215C88.5974 35.1465 86.3133 35.709 83.6656 35.709C82.9663 35.709 82.2921 35.6698 81.6428 35.5913C81.6404 35.4781 81.6393 35.3639 81.6393 35.2488C81.6393 33.7261 81.8438 32.3681 82.2529 31.1749C82.2994 31.0431 82.3482 30.9143 82.3996 30.7886H74.8262ZM86.7167 29.0613C85.9099 29.7431 84.9042 30.084 83.6996 30.084C82.4837 30.084 81.461 29.7431 80.6315 29.0613C79.8133 28.3681 79.194 27.4249 78.7735 26.2318C78.3644 25.0386 78.1599 23.6806 78.1599 22.1579C78.1599 20.6352 78.3644 19.2772 78.7735 18.084C79.194 16.8908 79.8133 15.9477 80.6315 15.2545C81.461 14.5613 82.4837 14.2147 83.6996 14.2147C84.9042 14.2147 85.9099 14.5613 86.7167 15.2545C87.5235 15.9477 88.1315 16.8908 88.5406 18.084C88.961 19.2772 89.1712 20.6352 89.1712 22.1579C89.1712 23.6806 88.961 25.0386 88.5406 26.2318C88.1315 27.4249 87.5235 28.3681 86.7167 29.0613ZM101.809 30.7886C101.675 31.416 101.572 32.0766 101.501 32.7704C100.634 31.8888 99.8999 30.8115 99.2996 29.5386C98.3678 27.5272 97.9019 25.0613 97.9019 22.1408C97.9019 19.1408 98.3849 16.6465 99.3508 14.6579C100.317 12.6579 101.601 11.1636 103.203 10.1749C104.817 9.17494 106.584 8.67494 108.504 8.67494C109.97 8.67494 111.192 8.92494 112.169 9.42494C113.158 9.91357 113.953 10.5272 114.555 11.2658C115.169 11.9931 115.635 12.709 115.953 13.4136H116.175L116.175 7.531H123.419V30.7886H119.018C119.067 30.9031 119.114 31.0206 119.16 31.1408C119.592 32.2886 119.807 33.6408 119.807 35.1977H116.26V31.0045H115.953C115.612 31.7318 115.129 32.4533 114.504 33.1693C113.891 33.8738 113.089 34.459 112.101 34.9249C111.189 35.3596 110.089 35.5915 108.802 35.6207C108.798 35.4812 108.796 35.3402 108.796 35.1977C108.796 33.6863 109.006 32.3568 109.427 31.209C109.48 31.0649 109.535 30.9248 109.595 30.7886H101.809ZM116.175 2.44767H123.419V0.288574H116.175L116.175 2.44767ZM113.788 28.8908C112.981 29.5272 111.993 29.8454 110.822 29.8454C109.629 29.8454 108.624 29.5215 107.805 28.8738C106.999 28.2147 106.379 27.3056 105.947 26.1465C105.527 24.9761 105.317 23.6295 105.317 22.1068C105.317 20.5954 105.527 19.2658 105.947 18.1181C106.368 16.9704 106.987 16.0727 107.805 15.4249C108.624 14.7772 109.629 14.4533 110.822 14.4533C111.993 14.4533 112.987 14.7658 113.805 15.3908C114.624 16.0158 115.249 16.9022 115.68 18.0499C116.112 19.1977 116.328 20.5499 116.328 22.1068C116.328 23.6636 116.106 25.0215 115.663 26.1806C115.231 27.3397 114.606 28.2431 113.788 28.8908ZM128.881 44.7943C129.688 44.942 130.552 45.0159 131.472 45.0159C133.268 45.0159 134.802 44.7261 136.074 44.1465C137.347 43.5784 138.398 42.7659 139.228 41.709C140.069 40.6636 140.733 39.4363 141.222 38.0272L151.398 9.01585H143.711L138.239 28.2431H137.966L132.546 9.01585H124.91L132.502 30.7886H138.473L139.906 35.8719H134.275L134.302 35.9477L133.875 37.0556C133.557 37.8738 133.143 38.4533 132.631 38.7943C132.131 39.1352 131.535 39.2943 130.841 39.2715C130.16 39.2488 129.393 39.1068 128.54 38.8454L126.904 44.2658C127.427 44.4818 128.086 44.6579 128.881 44.7943Z" fill="white"/>
<path fill-rule="evenodd" clip-rule="evenodd" d="M44.8612 20.6219H37.5999V15.5386H44.8612V20.6219ZM126.898 20.6219H119.654V15.5386H126.898V20.6219ZM16.882 15.5386V20.6219H9.62061V15.5386H16.882Z" fill="white"/>
<path fill-rule="evenodd" clip-rule="evenodd" d="M44.8612 35.8719H37.5999V30.7886H44.8612V35.8719ZM151.832 30.7886L150.049 35.8719H143.273L144.72 30.7886H151.832ZM131.417 30.7886H138.473L139.906 35.8719H133.189L131.417 30.7886ZM126.898 30.7886V35.8719H119.793C119.803 35.6515 119.808 35.4267 119.808 35.1977C119.808 33.6408 119.592 32.2886 119.16 31.1408C119.115 31.0206 119.067 30.9031 119.018 30.7886H126.898ZM101.809 30.7886C101.524 32.1203 101.381 33.6013 101.381 35.2318C101.381 35.4476 101.384 35.661 101.389 35.8719H108.81C108.801 35.6511 108.796 35.4264 108.796 35.1977C108.796 33.6863 109.006 32.3568 109.427 31.209C109.48 31.0649 109.536 30.9248 109.595 30.7886H101.809ZM99.4638 30.7886C99.8422 32.169 100.031 33.6727 100.031 35.2999C100.031 35.4923 100.029 35.6829 100.023 35.8719H92.6386C92.6467 35.6674 92.6507 35.4597 92.6507 35.2488C92.6507 33.7261 92.4405 32.3681 92.02 31.1749C91.9748 31.0431 91.9272 30.9143 91.8772 30.7886H99.4638ZM74.8263 30.7886C74.4479 32.169 74.2587 33.6727 74.2587 35.2999C74.2587 35.4923 74.2614 35.6829 74.2667 35.8719H81.6511C81.6433 35.6674 81.6394 35.4597 81.6394 35.2488C81.6394 33.7261 81.8439 32.3681 82.253 31.1749C82.2995 31.0431 82.3483 30.9143 82.3997 30.7886H74.8263ZM72.4262 30.7886C72.8047 32.169 72.9939 33.6727 72.9939 35.2999C72.9939 35.4923 72.9912 35.6829 72.9858 35.8719H65.6011C65.6092 35.6674 65.6132 35.4597 65.6132 35.2488C65.6132 33.7261 65.403 32.3681 64.9825 31.1749C64.9373 31.0431 64.8897 30.9143 64.8396 30.7886H72.4262ZM47.7888 30.7886C47.4104 32.169 47.2212 33.6727 47.2212 35.2999C47.2212 35.4923 47.2239 35.6829 47.2292 35.8719H54.6136C54.6058 35.6674 54.6019 35.4597 54.6019 35.2488C54.6019 33.7261 54.8064 32.3681 55.2155 31.1749C55.262 31.0431 55.3108 30.9143 55.3622 30.7886H47.7888ZM34.7268 30.7886C35.0121 32.1203 35.1547 33.6013 35.1547 35.2318C35.1547 35.4476 35.1521 35.661 35.147 35.8719H27.7253C27.7351 35.6511 27.7399 35.4264 27.7399 35.1977C27.7399 33.6863 27.5297 32.3568 27.1092 31.209C27.0565 31.0649 27.0005 30.9248 26.9415 30.7886H34.7268ZM9.62061 35.8719V30.7886H17.5182C17.4689 30.9031 17.4215 31.0206 17.3763 31.1408C16.9445 32.2886 16.7286 33.6408 16.7286 35.1977C16.7286 35.4267 16.7332 35.6515 16.7426 35.8719H9.62061Z" fill="white"/>
<path fill-rule="evenodd" clip-rule="evenodd" d="M9.62061 46.0386V48.2886H16.7797V46.0386H9.62061ZM31.3671 46.0386H18.3468C18.4081 46.1125 18.4709 46.1864 18.5354 46.2602C19.1604 46.9647 19.9615 47.5499 20.9388 48.0158C21.9274 48.4818 23.1263 48.7147 24.5354 48.7147C26.524 48.7147 28.3195 48.2033 29.9217 47.1806C30.4385 46.8495 30.9203 46.4688 31.3671 46.0386ZM37.5999 46.0386V48.2886H44.8612V46.0386H37.5999ZM51.7097 46.0386C52.184 46.4322 52.6935 46.7901 53.2382 47.1124C55.17 48.2374 57.4598 48.7999 60.1075 48.7999C62.7553 48.7999 65.0394 48.2374 66.9598 47.1124C67.5077 46.7901 68.02 46.4322 68.4966 46.0386H51.7097ZM78.7472 46.0386C79.2215 46.4322 79.731 46.7901 80.2757 47.1124C82.2075 48.2374 84.4973 48.7999 87.145 48.7999C89.7928 48.7999 92.0769 48.2374 93.9973 47.1124C94.5452 46.7901 95.0575 46.4322 95.5341 46.0386H78.7472ZM105.159 46.0386C105.605 46.4688 106.084 46.8495 106.597 47.1806C108.211 48.2033 110.012 48.7147 112.001 48.7147C113.41 48.7147 114.603 48.4818 115.58 48.0158C116.569 47.5499 117.37 46.9647 117.984 46.2602C118.048 46.1864 118.111 46.1125 118.172 46.0386H105.159ZM119.739 46.0386V48.2886H126.898V46.0386H119.739ZM136.735 46.0386L137.781 49.0386L137.355 50.1465C137.209 50.5219 137.043 50.847 136.856 51.1219H144.7C144.701 51.1206 144.701 51.1194 144.702 51.1181L146.483 46.0386H136.735Z" fill="white"/>
<path fill-rule="evenodd" clip-rule="evenodd" d="M0.866211 7.531L0.866214 35.1977H4.34561V30.7886H12.2433C12.1939 30.9031 12.1466 31.0206 12.1013 31.1408C11.7312 32.1245 11.5197 33.2585 11.4668 34.5427C11.6944 34.6779 11.9336 34.8054 12.1844 34.9249C13.173 35.3908 14.3719 35.6238 15.781 35.6238C17.7696 35.6238 19.5651 35.1124 21.1674 34.0897C21.5765 33.8275 21.9637 33.5343 22.329 33.21C22.2244 32.4909 22.0595 31.8239 21.8342 31.209C21.7815 31.0649 21.7255 30.9248 21.6665 30.7886H24.321C24.559 30.3953 24.7805 29.9786 24.9855 29.5386C25.9287 27.5272 26.4003 25.0613 26.4003 22.1408C26.4003 19.1408 25.9174 16.6465 24.9514 14.6579C23.9855 12.6579 22.6958 11.1636 21.0821 10.1749C19.4685 9.17494 17.7071 8.67494 15.798 8.67494C14.3321 8.67494 13.1049 8.92494 12.1162 9.42494C11.1389 9.91357 10.3435 10.5272 9.72985 11.2658C9.12758 11.9931 8.66735 12.709 8.34917 13.4136H8.12758V0.288574H0.866214L0.866211 2.44767H8.12757V7.531H0.866211ZM32.3249 35.1977H29.8797C29.8777 33.5807 29.7351 32.111 29.4518 30.7886H28.8455L28.8455 7.531H36.1068V30.7886H32.3249V35.1977ZM8.6219 26.1806C8.19008 25.0215 7.97417 23.6636 7.97417 22.1068C7.97417 20.5499 8.19008 19.1977 8.6219 18.0499C9.05371 16.9022 9.67303 16.0158 10.4798 15.3908C11.298 14.7658 12.298 14.4533 13.4799 14.4533C14.673 14.4533 15.6787 14.7772 16.4969 15.4249C17.3151 16.0727 17.9344 16.9704 18.3549 18.1181C18.7753 19.2658 18.9855 20.5954 18.9855 22.1068C18.9855 23.6295 18.7696 24.9761 18.3378 26.1465C17.9174 27.3056 17.298 28.2147 16.4799 28.8738C15.6617 29.5215 14.6617 29.8454 13.4799 29.8454C12.3094 29.8454 11.3151 29.5272 10.4969 28.8908C9.67871 28.2431 9.05371 27.3397 8.6219 26.1806ZM36.1068 2.44767V0.288574H28.8455L28.8455 2.44767H36.1068ZM42.5138 30.7886C42.384 31.262 42.2765 31.75 42.1912 32.2525C41.3365 31.4003 40.6178 30.4105 40.035 29.2829C38.9895 27.2488 38.4668 24.8908 38.4668 22.209C38.4668 19.5045 38.9895 17.1408 40.035 15.1181C41.0804 13.084 42.5634 11.5045 44.4838 10.3795C46.4156 9.24312 48.7054 8.67494 51.3531 8.67494C54.0009 8.67494 56.285 9.24312 58.2054 10.3795C60.1372 11.5045 61.6259 13.084 62.6713 15.1181C63.7168 17.1408 64.2395 19.5045 64.2395 22.209C64.2395 24.8908 63.7168 27.2488 62.6713 29.2829C62.396 29.8155 62.09 30.3174 61.7533 30.7886H59.5647C59.6147 30.9143 59.6623 31.0431 59.7075 31.1749C59.8706 31.6378 60.0021 32.1254 60.1019 32.6378C59.526 33.1553 58.8939 33.6166 58.2054 34.0215C56.285 35.1465 54.0009 35.709 51.3531 35.709C50.6539 35.709 49.9797 35.6698 49.3304 35.5913C49.328 35.4781 49.3269 35.3639 49.3269 35.2488C49.3269 33.7261 49.5314 32.3681 49.9405 31.1749C49.987 31.0431 50.0358 30.9143 50.0872 30.7886H42.5138ZM54.4043 29.0613C53.5975 29.7431 52.5918 30.084 51.3872 30.084C50.1713 30.084 49.1486 29.7431 48.3191 29.0613C47.5009 28.3681 46.8816 27.4249 46.4611 26.2318C46.052 25.0386 45.8475 23.6806 45.8475 22.1579C45.8475 20.6352 46.052 19.2772 46.4611 18.084C46.8816 16.8908 47.5009 15.9477 48.3191 15.2545C49.1486 14.5613 50.1713 14.2147 51.3872 14.2147C52.5918 14.2147 53.5975 14.5613 54.4043 15.2545C55.2111 15.9477 55.8191 16.8908 56.2281 18.084C56.6486 19.2772 56.8588 20.6352 56.8588 22.1579C56.8588 23.6806 56.6486 25.0386 56.2281 26.2318C55.8191 27.4249 55.2111 28.3681 54.4043 29.0613ZM69.5513 30.7886C69.4215 31.262 69.314 31.75 69.2287 32.2525C68.374 31.4003 67.6553 30.4105 67.0725 29.2829C66.027 27.2488 65.5043 24.8908 65.5043 22.209C65.5043 19.5045 66.027 17.1408 67.0725 15.1181C68.1179 13.084 69.6009 11.5045 71.5213 10.3795C73.4531 9.24312 75.7429 8.67494 78.3906 8.67494C81.0384 8.67494 83.3225 9.24312 85.2429 10.3795C87.1747 11.5045 88.6634 13.084 89.7088 15.1181C90.7543 17.1408 91.277 19.5045 91.277 22.209C91.277 24.8908 90.7543 27.2488 89.7088 29.2829C89.4335 29.8155 89.1275 30.3174 88.7908 30.7886H86.6022C86.6522 30.9143 86.6998 31.0431 86.745 31.1749C86.9081 31.6378 87.0396 32.1254 87.1394 32.6378C86.5635 33.1553 85.9314 33.6166 85.2429 34.0215C83.3225 35.1465 81.0384 35.709 78.3906 35.709C77.6914 35.709 77.0172 35.6698 76.3679 35.5913C76.3655 35.4781 76.3644 35.3639 76.3644 35.2488C76.3644 33.7261 76.5689 32.3681 76.978 31.1749C77.0245 31.0431 77.0733 30.9143 77.1247 30.7886H69.5513ZM81.4418 29.0613C80.635 29.7431 79.6293 30.084 78.4247 30.084C77.2088 30.084 76.1861 29.7431 75.3566 29.0613C74.5384 28.3681 73.9191 27.4249 73.4986 26.2318C73.0895 25.0386 72.885 23.6806 72.885 22.1579C72.885 20.6352 73.0895 19.2772 73.4986 18.084C73.9191 16.8908 74.5384 15.9477 75.3566 15.2545C76.1861 14.5613 77.2088 14.2147 78.4247 14.2147C79.6293 14.2147 80.635 14.5613 81.4418 15.2545C82.2486 15.9477 82.8566 16.8908 83.2656 18.084C83.6861 19.2772 83.8963 20.6352 83.8963 22.1579C83.8963 23.6806 83.6861 25.0386 83.2656 26.2318C82.8566 27.4249 82.2486 28.3681 81.4418 29.0613ZM96.5343 30.7886C96.3999 31.416 96.2972 32.0766 96.2261 32.7704C95.3588 31.8888 94.625 30.8115 94.0247 29.5386C93.0929 27.5272 92.627 25.0613 92.627 22.1408C92.627 19.1408 93.11 16.6465 94.0759 14.6579C95.0418 12.6579 96.3259 11.1636 97.9281 10.1749C99.5418 9.17494 101.309 8.67494 103.229 8.67494C104.695 8.67494 105.917 8.92494 106.894 9.42494C107.883 9.91357 108.678 10.5272 109.28 11.2658C109.894 11.9931 110.36 12.709 110.678 13.4136H110.9L110.9 7.531H118.144V30.7886H113.743C113.792 30.9031 113.84 31.0206 113.885 31.1408C114.317 32.2886 114.533 33.6408 114.533 35.1977H110.985V31.0045H110.678C110.337 31.7318 109.854 32.4533 109.229 33.1693C108.616 33.8738 107.815 34.459 106.826 34.9249C105.914 35.3596 104.814 35.5915 103.527 35.6207C103.523 35.4812 103.521 35.3402 103.521 35.1977C103.521 33.6863 103.731 32.3568 104.152 31.209C104.205 31.0649 104.261 30.9248 104.32 30.7886H96.5343ZM110.9 2.44767H118.144V0.288574H110.9L110.9 2.44767ZM108.513 28.8908C107.707 29.5272 106.718 29.8454 105.547 29.8454C104.354 29.8454 103.349 29.5215 102.53 28.8738C101.724 28.2147 101.104 27.3056 100.672 26.1465C100.252 24.9761 100.042 23.6295 100.042 22.1068C100.042 20.5954 100.252 19.2658 100.672 18.1181C101.093 16.9704 101.712 16.0727 102.53 15.4249C103.349 14.7772 104.354 14.4533 105.547 14.4533C106.718 14.4533 107.712 14.7658 108.53 15.3908C109.349 16.0158 109.974 16.9022 110.405 18.0499C110.837 19.1977 111.053 20.5499 111.053 22.1068C111.053 23.6636 110.832 25.0215 110.388 26.1806C109.957 27.3397 109.332 28.2431 108.513 28.8908ZM123.606 44.7943C124.413 44.942 125.277 45.0159 126.197 45.0159C127.993 45.0159 129.527 44.7261 130.799 44.1465C132.072 43.5784 133.123 42.7659 133.953 41.709C134.794 40.6636 135.459 39.4363 135.947 38.0272L146.123 9.01585H138.436L132.964 28.2431H132.691L127.271 9.01585H119.635L127.228 30.7886H133.198L134.631 35.8719H129L129.027 35.9477L128.601 37.0556C128.282 37.8738 127.868 38.4533 127.356 38.7943C126.856 39.1352 126.26 39.2943 125.566 39.2715C124.885 39.2488 124.118 39.1068 123.265 38.8454L121.629 44.2658C122.152 44.4818 122.811 44.6579 123.606 44.7943Z" fill="white"/>
<path fill-rule="evenodd" clip-rule="evenodd" d="M50.1361 20.6219H42.8748V15.5386H50.1361V20.6219ZM132.173 20.6219H124.929V15.5386H132.173V20.6219ZM22.1569 15.5386V20.6219H14.8955V15.5386H22.1569Z" fill="#FF6F6F" style="mix-blend-mode:multiply"/>
<path fill-rule="evenodd" clip-rule="evenodd" d="M50.1361 35.8719H42.8748V30.7886H50.1361V35.8719ZM157.107 30.7886L155.324 35.8719H148.548L149.994 30.7886H157.107ZM136.692 30.7886H143.748L145.181 35.8719H138.464L136.692 30.7886ZM132.173 30.7886V35.8719H125.068C125.078 35.6515 125.082 35.4267 125.082 35.1977C125.082 33.6408 124.867 32.2886 124.435 31.1408C124.389 31.0206 124.342 30.9031 124.293 30.7886H132.173ZM107.084 30.7886C106.799 32.1203 106.656 33.6013 106.656 35.2318C106.656 35.4476 106.659 35.661 106.664 35.8719H114.085C114.076 35.6511 114.071 35.4264 114.071 35.1977C114.071 33.6863 114.281 32.3568 114.702 31.209C114.755 31.0649 114.81 30.9248 114.87 30.7886H107.084ZM104.739 30.7886C105.117 32.169 105.306 33.6727 105.306 35.2999C105.306 35.4923 105.304 35.6829 105.298 35.8719H97.9135C97.9216 35.6674 97.9256 35.4597 97.9256 35.2488C97.9256 33.7261 97.7154 32.3681 97.2949 31.1749C97.2497 31.0431 97.2021 30.9143 97.1521 30.7886H104.739ZM80.1012 30.7886C79.7228 32.169 79.5336 33.6727 79.5336 35.2999C79.5336 35.4923 79.5363 35.6829 79.5416 35.8719H86.926C86.9182 35.6674 86.9143 35.4597 86.9143 35.2488C86.9143 33.7261 87.1188 32.3681 87.5279 31.1749C87.5744 31.0431 87.6232 30.9143 87.6746 30.7886H80.1012ZM77.7011 30.7886C78.0796 32.169 78.2688 33.6727 78.2688 35.2999C78.2688 35.4923 78.2661 35.6829 78.2607 35.8719H70.876C70.8841 35.6674 70.8881 35.4597 70.8881 35.2488C70.8881 33.7261 70.6779 32.3681 70.2574 31.1749C70.2122 31.0431 70.1646 30.9143 70.1145 30.7886H77.7011ZM53.0637 30.7886C52.6853 32.169 52.4961 33.6727 52.4961 35.2999C52.4961 35.4923 52.4988 35.6829 52.5041 35.8719H59.8885C59.8807 35.6674 59.8768 35.4597 59.8768 35.2488C59.8768 33.7261 60.0813 32.3681 60.4904 31.1749C60.5369 31.0431 60.5857 30.9143 60.6371 30.7886H53.0637ZM40.0017 30.7886C40.287 32.1203 40.4296 33.6013 40.4296 35.2318C40.4296 35.4476 40.427 35.661 40.4219 35.8719H33.0002C33.01 35.6511 33.0148 35.4264 33.0148 35.1977C33.0148 33.6863 32.8046 32.3568 32.3841 31.209C32.3314 31.0649 32.2754 30.9248 32.2164 30.7886H40.0017ZM14.8955 35.8719V30.7886H22.7931C22.7438 30.9031 22.6964 31.0206 22.6512 31.1408C22.2194 32.2886 22.0035 33.6408 22.0035 35.1977C22.0035 35.4267 22.0081 35.6515 22.0175 35.8719H14.8955Z" fill="#FF6F6F" style="mix-blend-mode:multiply"/>
<path fill-rule="evenodd" clip-rule="evenodd" d="M14.8955 46.0386V48.2886H22.0546V46.0386H14.8955ZM36.642 46.0386H23.6217C23.683 46.1125 23.7458 46.1864 23.8103 46.2602C24.4353 46.9647 25.2364 47.5499 26.2137 48.0158C27.2023 48.4818 28.4012 48.7147 29.8103 48.7147C31.7989 48.7147 33.5944 48.2033 35.1966 47.1806C35.7134 46.8495 36.1952 46.4688 36.642 46.0386ZM42.8748 46.0386V48.2886H50.1361V46.0386H42.8748ZM56.9846 46.0386C57.4589 46.4322 57.9684 46.7901 58.5131 47.1124C60.4449 48.2374 62.7347 48.7999 65.3824 48.7999C68.0302 48.7999 70.3143 48.2374 72.2347 47.1124C72.7826 46.7901 73.2949 46.4322 73.7715 46.0386H56.9846ZM84.0221 46.0386C84.4964 46.4322 85.0059 46.7901 85.5506 47.1124C87.4824 48.2374 89.7722 48.7999 92.4199 48.7999C95.0677 48.7999 97.3518 48.2374 99.2722 47.1124C99.8201 46.7901 100.332 46.4322 100.809 46.0386H84.0221ZM110.434 46.0386C110.88 46.4688 111.359 46.8495 111.872 47.1806C113.486 48.2033 115.287 48.7147 117.276 48.7147C118.685 48.7147 119.878 48.4818 120.855 48.0158C121.844 47.5499 122.645 46.9647 123.259 46.2602C123.323 46.1864 123.386 46.1125 123.447 46.0386H110.434ZM125.014 46.0386V48.2886H132.173V46.0386H125.014ZM142.01 46.0386L143.056 49.0386L142.63 50.1465C142.484 50.5219 142.318 50.847 142.131 51.1219H149.975C149.976 51.1206 149.976 51.1194 149.976 51.1181L151.758 46.0386H142.01Z" fill="#FF6F6F" style="mix-blend-mode:multiply"/>
<path fill-rule="evenodd" clip-rule="evenodd" d="M6.14111 7.531L6.14112 35.1977H9.62051V30.7886H17.5182C17.4688 30.9031 17.4215 31.0206 17.3762 31.1408C17.0061 32.1245 16.7946 33.2585 16.7417 34.5427C16.9693 34.6779 17.2085 34.8054 17.4593 34.9249C18.4479 35.3908 19.6468 35.6238 21.0559 35.6238C23.0445 35.6238 24.84 35.1124 26.4423 34.0897C26.8514 33.8275 27.2386 33.5343 27.6039 33.21C27.4993 32.4909 27.3344 31.8239 27.1092 31.209C27.0564 31.0649 27.0004 30.9248 26.9414 30.7886H29.5959C29.8339 30.3953 30.0554 29.9786 30.2604 29.5386C31.2036 27.5272 31.6752 25.0613 31.6752 22.1408C31.6752 19.1408 31.1923 16.6465 30.2263 14.6579C29.2604 12.6579 27.9707 11.1636 26.357 10.1749C24.7434 9.17494 22.982 8.67494 21.0729 8.67494C19.607 8.67494 18.3798 8.92494 17.3911 9.42494C16.4138 9.91357 15.6184 10.5272 15.0048 11.2658C14.4025 11.9931 13.9423 12.709 13.6241 13.4136H13.4025V0.288574H6.14112L6.14111 2.44767H13.4025V7.531H6.14111ZM37.5998 35.1977H35.1546C35.1526 33.5807 35.01 32.111 34.7267 30.7886H34.1204L34.1204 7.531H41.3817V30.7886H37.5998V35.1977ZM13.8968 26.1806C13.465 25.0215 13.2491 23.6636 13.2491 22.1068C13.2491 20.5499 13.465 19.1977 13.8968 18.0499C14.3286 16.9022 14.9479 16.0158 15.7548 15.3908C16.5729 14.7658 17.5729 14.4533 18.7548 14.4533C19.9479 14.4533 20.9536 14.7772 21.7718 15.4249C22.59 16.0727 23.2093 16.9704 23.6298 18.1181C24.0502 19.2658 24.2604 20.5954 24.2604 22.1068C24.2604 23.6295 24.0445 24.9761 23.6127 26.1465C23.1923 27.3056 22.5729 28.2147 21.7548 28.8738C20.9366 29.5215 19.9366 29.8454 18.7548 29.8454C17.5843 29.8454 16.59 29.5272 15.7718 28.8908C14.9536 28.2431 14.3286 27.3397 13.8968 26.1806ZM41.3817 2.44767V0.288574H34.1204L34.1204 2.44767H41.3817ZM47.7887 30.7886C47.6589 31.262 47.5514 31.75 47.4661 32.2525C46.6114 31.4003 45.8927 30.4105 45.3099 29.2829C44.2644 27.2488 43.7417 24.8908 43.7417 22.209C43.7417 19.5045 44.2644 17.1408 45.3099 15.1181C46.3553 13.084 47.8383 11.5045 49.7587 10.3795C51.6905 9.24312 53.9803 8.67494 56.628 8.67494C59.2758 8.67494 61.5599 9.24312 63.4803 10.3795C65.4121 11.5045 66.9008 13.084 67.9462 15.1181C68.9917 17.1408 69.5144 19.5045 69.5144 22.209C69.5144 24.8908 68.9917 27.2488 67.9462 29.2829C67.6709 29.8155 67.3649 30.3174 67.0282 30.7886H64.8396C64.8896 30.9143 64.9372 31.0431 64.9824 31.1749C65.1455 31.6378 65.277 32.1254 65.3768 32.6378C64.8009 33.1553 64.1688 33.6166 63.4803 34.0215C61.5599 35.1465 59.2758 35.709 56.628 35.709C55.9288 35.709 55.2546 35.6698 54.6053 35.5913C54.6029 35.4781 54.6018 35.3639 54.6018 35.2488C54.6018 33.7261 54.8063 32.3681 55.2154 31.1749C55.2619 31.0431 55.3107 30.9143 55.3621 30.7886H47.7887ZM59.6792 29.0613C58.8724 29.7431 57.8667 30.084 56.6621 30.084C55.4462 30.084 54.4235 29.7431 53.594 29.0613C52.7758 28.3681 52.1565 27.4249 51.736 26.2318C51.3269 25.0386 51.1224 23.6806 51.1224 22.1579C51.1224 20.6352 51.3269 19.2772 51.736 18.084C52.1565 16.8908 52.7758 15.9477 53.594 15.2545C54.4235 14.5613 55.4462 14.2147 56.6621 14.2147C57.8667 14.2147 58.8724 14.5613 59.6792 15.2545C60.486 15.9477 61.094 16.8908 61.503 18.084C61.9235 19.2772 62.1337 20.6352 62.1337 22.1579C62.1337 23.6806 61.9235 25.0386 61.503 26.2318C61.094 27.4249 60.486 28.3681 59.6792 29.0613ZM74.8262 30.7886C74.6964 31.262 74.5889 31.75 74.5036 32.2525C73.6489 31.4003 72.9302 30.4105 72.3474 29.2829C71.3019 27.2488 70.7792 24.8908 70.7792 22.209C70.7792 19.5045 71.3019 17.1408 72.3474 15.1181C73.3928 13.084 74.8758 11.5045 76.7962 10.3795C78.7281 9.24312 81.0178 8.67494 83.6656 8.67494C86.3133 8.67494 88.5974 9.24312 90.5178 10.3795C92.4496 11.5045 93.9383 13.084 94.9837 15.1181C96.0292 17.1408 96.5519 19.5045 96.5519 22.209C96.5519 24.8908 96.0292 27.2488 94.9837 29.2829C94.7084 29.8155 94.4024 30.3174 94.0657 30.7886H91.8771C91.9271 30.9143 91.9747 31.0431 92.02 31.1749C92.183 31.6378 92.3145 32.1254 92.4143 32.6378C91.8384 33.1553 91.2063 33.6166 90.5178 34.0215C88.5974 35.1465 86.3133 35.709 83.6656 35.709C82.9663 35.709 82.2921 35.6698 81.6428 35.5913C81.6404 35.4781 81.6393 35.3639 81.6393 35.2488C81.6393 33.7261 81.8438 32.3681 82.2529 31.1749C82.2994 31.0431 82.3482 30.9143 82.3996 30.7886H74.8262ZM86.7167 29.0613C85.9099 29.7431 84.9042 30.084 83.6996 30.084C82.4837 30.084 81.461 29.7431 80.6315 29.0613C79.8133 28.3681 79.194 27.4249 78.7735 26.2318C78.3644 25.0386 78.1599 23.6806 78.1599 22.1579C78.1599 20.6352 78.3644 19.2772 78.7735 18.084C79.194 16.8908 79.8133 15.9477 80.6315 15.2545C81.461 14.5613 82.4837 14.2147 83.6996 14.2147C84.9042 14.2147 85.9099 14.5613 86.7167 15.2545C87.5235 15.9477 88.1315 16.8908 88.5406 18.084C88.961 19.2772 89.1712 20.6352 89.1712 22.1579C89.1712 23.6806 88.961 25.0386 88.5406 26.2318C88.1315 27.4249 87.5235 28.3681 86.7167 29.0613ZM101.809 30.7886C101.675 31.416 101.572 32.0766 101.501 32.7704C100.634 31.8888 99.8999 30.8115 99.2996 29.5386C98.3678 27.5272 97.9019 25.0613 97.9019 22.1408C97.9019 19.1408 98.3849 16.6465 99.3508 14.6579C100.317 12.6579 101.601 11.1636 103.203 10.1749C104.817 9.17494 106.584 8.67494 108.504 8.67494C109.97 8.67494 111.192 8.92494 112.169 9.42494C113.158 9.91357 113.953 10.5272 114.555 11.2658C115.169 11.9931 115.635 12.709 115.953 13.4136H116.175L116.175 7.531H123.419V30.7886H119.018C119.067 30.9031 119.114 31.0206 119.16 31.1408C119.592 32.2886 119.807 33.6408 119.807 35.1977H116.26V31.0045H115.953C115.612 31.7318 115.129 32.4533 114.504 33.1693C113.891 33.8738 113.089 34.459 112.101 34.9249C111.189 35.3596 110.089 35.5915 108.802 35.6207C108.798 35.4812 108.796 35.3402 108.796 35.1977C108.796 33.6863 109.006 32.3568 109.427 31.209C109.48 31.0649 109.535 30.9248 109.595 30.7886H101.809ZM116.175 2.44767H123.419V0.288574H116.175L116.175 2.44767ZM113.788 28.8908C112.981 29.5272 111.993 29.8454 110.822 29.8454C109.629 29.8454 108.624 29.5215 107.805 28.8738C106.999 28.2147 106.379 27.3056 105.947 26.1465C105.527 24.9761 105.317 23.6295 105.317 22.1068C105.317 20.5954 105.527 19.2658 105.947 18.1181C106.368 16.9704 106.987 16.0727 107.805 15.4249C108.624 14.7772 109.629 14.4533 110.822 14.4533C111.993 14.4533 112.987 14.7658 113.805 15.3908C114.624 16.0158 115.249 16.9022 115.68 18.0499C116.112 19.1977 116.328 20.5499 116.328 22.1068C116.328 23.6636 116.106 25.0215 115.663 26.1806C115.231 27.3397 114.606 28.2431 113.788 28.8908ZM128.881 44.7943C129.688 44.942 130.552 45.0159 131.472 45.0159C133.268 45.0159 134.802 44.7261 136.074 44.1465C137.347 43.5784 138.398 42.7659 139.228 41.709C140.069 40.6636 140.733 39.4363 141.222 38.0272L151.398 9.01585H143.711L138.239 28.2431H137.966L132.546 9.01585H124.91L132.502 30.7886H138.473L139.906 35.8719H134.275L134.302 35.9477L133.875 37.0556C133.557 37.8738 133.143 38.4533 132.631 38.7943C132.131 39.1352 131.535 39.2943 130.841 39.2715C130.16 39.2488 129.393 39.1068 128.54 38.8454L126.904 44.2658C127.427 44.4818 128.086 44.6579 128.881 44.7943Z" fill="#FF6F6F" style="mix-blend-mode:multiply"/>
<path fill-rule="evenodd" clip-rule="evenodd" d="M44.8612 20.6219H37.5999V15.5386H44.8612V20.6219ZM126.898 20.6219H119.654V15.5386H126.898V20.6219ZM16.882 15.5386V20.6219H9.62061V15.5386H16.882Z" fill="#D30F54" style="mix-blend-mode:multiply"/>
<path fill-rule="evenodd" clip-rule="evenodd" d="M44.8612 35.8719H37.5999V30.7886H44.8612V35.8719ZM151.832 30.7886L150.049 35.8719H143.273L144.72 30.7886H151.832ZM131.417 30.7886H138.473L139.906 35.8719H133.189L131.417 30.7886ZM126.898 30.7886V35.8719H119.793C119.803 35.6515 119.808 35.4267 119.808 35.1977C119.808 33.6408 119.592 32.2886 119.16 31.1408C119.115 31.0206 119.067 30.9031 119.018 30.7886H126.898ZM101.809 30.7886C101.524 32.1203 101.381 33.6013 101.381 35.2318C101.381 35.4476 101.384 35.661 101.389 35.8719H108.81C108.801 35.6511 108.796 35.4264 108.796 35.1977C108.796 33.6863 109.006 32.3568 109.427 31.209C109.48 31.0649 109.536 30.9248 109.595 30.7886H101.809ZM99.4638 30.7886C99.8422 32.169 100.031 33.6727 100.031 35.2999C100.031 35.4923 100.029 35.6829 100.023 35.8719H92.6386C92.6467 35.6674 92.6507 35.4597 92.6507 35.2488C92.6507 33.7261 92.4405 32.3681 92.02 31.1749C91.9748 31.0431 91.9272 30.9143 91.8772 30.7886H99.4638ZM74.8263 30.7886C74.4479 32.169 74.2587 33.6727 74.2587 35.2999C74.2587 35.4923 74.2614 35.6829 74.2667 35.8719H81.6511C81.6433 35.6674 81.6394 35.4597 81.6394 35.2488C81.6394 33.7261 81.8439 32.3681 82.253 31.1749C82.2995 31.0431 82.3483 30.9143 82.3997 30.7886H74.8263ZM72.4262 30.7886C72.8047 32.169 72.9939 33.6727 72.9939 35.2999C72.9939 35.4923 72.9912 35.6829 72.9858 35.8719H65.6011C65.6092 35.6674 65.6132 35.4597 65.6132 35.2488C65.6132 33.7261 65.403 32.3681 64.9825 31.1749C64.9373 31.0431 64.8897 30.9143 64.8396 30.7886H72.4262ZM47.7888 30.7886C47.4104 32.169 47.2212 33.6727 47.2212 35.2999C47.2212 35.4923 47.2239 35.6829 47.2292 35.8719H54.6136C54.6058 35.6674 54.6019 35.4597 54.6019 35.2488C54.6019 33.7261 54.8064 32.3681 55.2155 31.1749C55.262 31.0431 55.3108 30.9143 55.3622 30.7886H47.7888ZM34.7268 30.7886C35.0121 32.1203 35.1547 33.6013 35.1547 35.2318C35.1547 35.4476 35.1521 35.661 35.147 35.8719H27.7253C27.7351 35.6511 27.7399 35.4264 27.7399 35.1977C27.7399 33.6863 27.5297 32.3568 27.1092 31.209C27.0565 31.0649 27.0005 30.9248 26.9415 30.7886H34.7268ZM9.62061 35.8719V30.7886H17.5182C17.4689 30.9031 17.4215 31.0206 17.3763 31.1408C16.9445 32.2886 16.7286 33.6408 16.7286 35.1977C16.7286 35.4267 16.7332 35.6515 16.7426 35.8719H9.62061Z" fill="#D30F54" style="mix-blend-mode:multiply"/>
<path fill-rule="evenodd" clip-rule="evenodd" d="M9.62061 46.0386V48.2886H16.7797V46.0386H9.62061ZM31.3671 46.0386H18.3468C18.4081 46.1125 18.4709 46.1864 18.5354 46.2602C19.1604 46.9647 19.9615 47.5499 20.9388 48.0158C21.9274 48.4818 23.1263 48.7147 24.5354 48.7147C26.524 48.7147 28.3195 48.2033 29.9217 47.1806C30.4385 46.8495 30.9203 46.4688 31.3671 46.0386ZM37.5999 46.0386V48.2886H44.8612V46.0386H37.5999ZM51.7097 46.0386C52.184 46.4322 52.6935 46.7901 53.2382 47.1124C55.17 48.2374 57.4598 48.7999 60.1075 48.7999C62.7553 48.7999 65.0394 48.2374 66.9598 47.1124C67.5077 46.7901 68.02 46.4322 68.4966 46.0386H51.7097ZM78.7472 46.0386C79.2215 46.4322 79.731 46.7901 80.2757 47.1124C82.2075 48.2374 84.4973 48.7999 87.145 48.7999C89.7928 48.7999 92.0769 48.2374 93.9973 47.1124C94.5452 46.7901 95.0575 46.4322 95.5341 46.0386H78.7472ZM105.159 46.0386C105.605 46.4688 106.084 46.8495 106.597 47.1806C108.211 48.2033 110.012 48.7147 112.001 48.7147C113.41 48.7147 114.603 48.4818 115.58 48.0158C116.569 47.5499 117.37 46.9647 117.984 46.2602C118.048 46.1864 118.111 46.1125 118.172 46.0386H105.159ZM119.739 46.0386V48.2886H126.898V46.0386H119.739ZM136.735 46.0386L137.781 49.0386L137.355 50.1465C137.209 50.5219 137.043 50.847 136.856 51.1219H144.7C144.701 51.1206 144.701 51.1194 144.702 51.1181L146.483 46.0386H136.735Z" fill="#D30F54" style="mix-blend-mode:multiply"/>
<path fill-rule="evenodd" clip-rule="evenodd" d="M0.866211 7.531L0.866214 35.1977H4.34561V30.7886H12.2433C12.1939 30.9031 12.1466 31.0206 12.1013 31.1408C11.7312 32.1245 11.5197 33.2585 11.4668 34.5427C11.6944 34.6779 11.9336 34.8054 12.1844 34.9249C13.173 35.3908 14.3719 35.6238 15.781 35.6238C17.7696 35.6238 19.5651 35.1124 21.1674 34.0897C21.5765 33.8275 21.9637 33.5343 22.329 33.21C22.2244 32.4909 22.0595 31.8239 21.8342 31.209C21.7815 31.0649 21.7255 30.9248 21.6665 30.7886H24.321C24.559 30.3953 24.7805 29.9786 24.9855 29.5386C25.9287 27.5272 26.4003 25.0613 26.4003 22.1408C26.4003 19.1408 25.9174 16.6465 24.9514 14.6579C23.9855 12.6579 22.6958 11.1636 21.0821 10.1749C19.4685 9.17494 17.7071 8.67494 15.798 8.67494C14.3321 8.67494 13.1049 8.92494 12.1162 9.42494C11.1389 9.91357 10.3435 10.5272 9.72985 11.2658C9.12758 11.9931 8.66735 12.709 8.34917 13.4136H8.12758V0.288574H0.866214L0.866211 2.44767H8.12757V7.531H0.866211ZM32.3249 35.1977H29.8797C29.8777 33.5807 29.7351 32.111 29.4518 30.7886H28.8455L28.8455 7.531H36.1068V30.7886H32.3249V35.1977ZM8.6219 26.1806C8.19008 25.0215 7.97417 23.6636 7.97417 22.1068C7.97417 20.5499 8.19008 19.1977 8.6219 18.0499C9.05371 16.9022 9.67303 16.0158 10.4798 15.3908C11.298 14.7658 12.298 14.4533 13.4799 14.4533C14.673 14.4533 15.6787 14.7772 16.4969 15.4249C17.3151 16.0727 17.9344 16.9704 18.3549 18.1181C18.7753 19.2658 18.9855 20.5954 18.9855 22.1068C18.9855 23.6295 18.7696 24.9761 18.3378 26.1465C17.9174 27.3056 17.298 28.2147 16.4799 28.8738C15.6617 29.5215 14.6617 29.8454 13.4799 29.8454C12.3094 29.8454 11.3151 29.5272 10.4969 28.8908C9.67871 28.2431 9.05371 27.3397 8.6219 26.1806ZM36.1068 2.44767V0.288574H28.8455L28.8455 2.44767H36.1068ZM42.5138 30.7886C42.384 31.262 42.2765 31.75 42.1912 32.2525C41.3365 31.4003 40.6178 30.4105 40.035 29.2829C38.9895 27.2488 38.4668 24.8908 38.4668 22.209C38.4668 19.5045 38.9895 17.1408 40.035 15.1181C41.0804 13.084 42.5634 11.5045 44.4838 10.3795C46.4156 9.24312 48.7054 8.67494 51.3531 8.67494C54.0009 8.67494 56.285 9.24312 58.2054 10.3795C60.1372 11.5045 61.6259 13.084 62.6713 15.1181C63.7168 17.1408 64.2395 19.5045 64.2395 22.209C64.2395 24.8908 63.7168 27.2488 62.6713 29.2829C62.396 29.8155 62.09 30.3174 61.7533 30.7886H59.5647C59.6147 30.9143 59.6623 31.0431 59.7075 31.1749C59.8706 31.6378 60.0021 32.1254 60.1019 32.6378C59.526 33.1553 58.8939 33.6166 58.2054 34.0215C56.285 35.1465 54.0009 35.709 51.3531 35.709C50.6539 35.709 49.9797 35.6698 49.3304 35.5913C49.328 35.4781 49.3269 35.3639 49.3269 35.2488C49.3269 33.7261 49.5314 32.3681 49.9405 31.1749C49.987 31.0431 50.0358 30.9143 50.0872 30.7886H42.5138ZM54.4043 29.0613C53.5975 29.7431 52.5918 30.084 51.3872 30.084C50.1713 30.084 49.1486 29.7431 48.3191 29.0613C47.5009 28.3681 46.8816 27.4249 46.4611 26.2318C46.052 25.0386 45.8475 23.6806 45.8475 22.1579C45.8475 20.6352 46.052 19.2772 46.4611 18.084C46.8816 16.8908 47.5009 15.9477 48.3191 15.2545C49.1486 14.5613 50.1713 14.2147 51.3872 14.2147C52.5918 14.2147 53.5975 14.5613 54.4043 15.2545C55.2111 15.9477 55.8191 16.8908 56.2281 18.084C56.6486 19.2772 56.8588 20.6352 56.8588 22.1579C56.8588 23.6806 56.6486 25.0386 56.2281 26.2318C55.8191 27.4249 55.2111 28.3681 54.4043 29.0613ZM69.5513 30.7886C69.4215 31.262 69.314 31.75 69.2287 32.2525C68.374 31.4003 67.6553 30.4105 67.0725 29.2829C66.027 27.2488 65.5043 24.8908 65.5043 22.209C65.5043 19.5045 66.027 17.1408 67.0725 15.1181C68.1179 13.084 69.6009 11.5045 71.5213 10.3795C73.4531 9.24312 75.7429 8.67494 78.3906 8.67494C81.0384 8.67494 83.3225 9.24312 85.2429 10.3795C87.1747 11.5045 88.6634 13.084 89.7088 15.1181C90.7543 17.1408 91.277 19.5045 91.277 22.209C91.277 24.8908 90.7543 27.2488 89.7088 29.2829C89.4335 29.8155 89.1275 30.3174 88.7908 30.7886H86.6022C86.6522 30.9143 86.6998 31.0431 86.745 31.1749C86.9081 31.6378 87.0396 32.1254 87.1394 32.6378C86.5635 33.1553 85.9314 33.6166 85.2429 34.0215C83.3225 35.1465 81.0384 35.709 78.3906 35.709C77.6914 35.709 77.0172 35.6698 76.3679 35.5913C76.3655 35.4781 76.3644 35.3639 76.3644 35.2488C76.3644 33.7261 76.5689 32.3681 76.978 31.1749C77.0245 31.0431 77.0733 30.9143 77.1247 30.7886H69.5513ZM81.4418 29.0613C80.635 29.7431 79.6293 30.084 78.4247 30.084C77.2088 30.084 76.1861 29.7431 75.3566 29.0613C74.5384 28.3681 73.9191 27.4249 73.4986 26.2318C73.0895 25.0386 72.885 23.6806 72.885 22.1579C72.885 20.6352 73.0895 19.2772 73.4986 18.084C73.9191 16.8908 74.5384 15.9477 75.3566 15.2545C76.1861 14.5613 77.2088 14.2147 78.4247 14.2147C79.6293 14.2147 80.635 14.5613 81.4418 15.2545C82.2486 15.9477 82.8566 16.8908 83.2656 18.084C83.6861 19.2772 83.8963 20.6352 83.8963 22.1579C83.8963 23.6806 83.6861 25.0386 83.2656 26.2318C82.8566 27.4249 82.2486 28.3681 81.4418 29.0613ZM96.5343 30.7886C96.3999 31.416 96.2972 32.0766 96.2261 32.7704C95.3588 31.8888 94.625 30.8115 94.0247 29.5386C93.0929 27.5272 92.627 25.0613 92.627 22.1408C92.627 19.1408 93.11 16.6465 94.0759 14.6579C95.0418 12.6579 96.3259 11.1636 97.9281 10.1749C99.5418 9.17494 101.309 8.67494 103.229 8.67494C104.695 8.67494 105.917 8.92494 106.894 9.42494C107.883 9.91357 108.678 10.5272 109.28 11.2658C109.894 11.9931 110.36 12.709 110.678 13.4136H110.9L110.9 7.531H118.144V30.7886H113.743C113.792 30.9031 113.84 31.0206 113.885 31.1408C114.317 32.2886 114.533 33.6408 114.533 35.1977H110.985V31.0045H110.678C110.337 31.7318 109.854 32.4533 109.229 33.1693C108.616 33.8738 107.815 34.459 106.826 34.9249C105.914 35.3596 104.814 35.5915 103.527 35.6207C103.523 35.4812 103.521 35.3402 103.521 35.1977C103.521 33.6863 103.731 32.3568 104.152 31.209C104.205 31.0649 104.261 30.9248 104.32 30.7886H96.5343ZM110.9 2.44767H118.144V0.288574H110.9L110.9 2.44767ZM108.513 28.8908C107.707 29.5272 106.718 29.8454 105.547 29.8454C104.354 29.8454 103.349 29.5215 102.53 28.8738C101.724 28.2147 101.104 27.3056 100.672 26.1465C100.252 24.9761 100.042 23.6295 100.042 22.1068C100.042 20.5954 100.252 19.2658 100.672 18.1181C101.093 16.9704 101.712 16.0727 102.53 15.4249C103.349 14.7772 104.354 14.4533 105.547 14.4533C106.718 14.4533 107.712 14.7658 108.53 15.3908C109.349 16.0158 109.974 16.9022 110.405 18.0499C110.837 19.1977 111.053 20.5499 111.053 22.1068C111.053 23.6636 110.832 25.0215 110.388 26.1806C109.957 27.3397 109.332 28.2431 108.513 28.8908ZM123.606 44.7943C124.413 44.942 125.277 45.0159 126.197 45.0159C127.993 45.0159 129.527 44.7261 130.799 44.1465C132.072 43.5784 133.123 42.7659 133.953 41.709C134.794 40.6636 135.459 39.4363 135.947 38.0272L146.123 9.01585H138.436L132.964 28.2431H132.691L127.271 9.01585H119.635L127.228 30.7886H133.198L134.631 35.8719H129L129.027 35.9477L128.601 37.0556C128.282 37.8738 127.868 38.4533 127.356 38.7943C126.856 39.1352 126.26 39.2943 125.566 39.2715C124.885 39.2488 124.118 39.1068 123.265 38.8454L121.629 44.2658C122.152 44.4818 122.811 44.6579 123.606 44.7943Z" fill="#D30F54" style="mix-blend-mode:multiply"/>
</svg>
