<svg width="265" height="67" viewBox="0 0 265 67" fill="none" xmlns="http://www.w3.org/2000/svg">
<path d="M8.90629 7.10573L3.62305 57.7414H14.3404L16.8626 33.5673C17.9393 32.892 20.3997 31.8116 23.0162 31.8116C25.9019 31.8116 26.5974 33.4997 26.3376 35.9982L24.0689 57.7414H34.7862L37.2236 34.3776C37.8992 27.8983 35.7938 23.0417 26.6822 23.0417C22.9921 23.0417 20.2102 23.986 17.7351 25.2004L19.6236 7.10573H8.90629Z" fill="black"/>
<path d="M68.6734 44.4369C70.6499 33.8386 70.7714 23.0398 56.4257 23.0398C46.0394 23.0398 40.1571 28.7056 38.8886 40.8623C37.6202 53.018 42.387 58.6848 53.4437 58.6848C57.4658 58.6848 62.2359 57.942 66.2936 56.3235L67.1734 47.885C64.6334 49.1025 60.7736 50.1175 55.746 50.1175C50.5172 50.1175 48.3721 48.8324 49.099 44.4369H68.6734ZM55.7156 31.1344C59.8048 31.1344 60.2981 34.1087 59.3072 37.8279H49.7882C50.2323 33.5685 52.0957 31.1344 55.7156 31.1344Z" fill="black"/>
<path d="M74.1064 23.9852L70.585 57.7395H81.3023L83.8234 33.5706C84.9012 32.8901 87.3617 31.8097 89.9781 31.8097C92.8638 31.8097 93.5593 33.4978 93.2995 35.9963L91.0308 57.7395H101.748L104.185 34.3757C104.861 27.8964 102.756 23.0398 93.6441 23.0398C89.954 23.0398 85.6145 24.1192 81.6228 26.4129L80.5366 23.9852H74.1064Z" fill="black"/>
<path d="M127.466 49.578C126.915 49.7131 125.546 49.9843 124.138 49.9843C120.72 49.9843 119.869 48.4976 120.145 45.8631L121.49 32.9594H129.803L130.739 23.987H122.427L123.42 14.4659L112.4 17.3695L111.674 24.3235L106.09 25.808L105.343 32.9594H110.773L109.335 46.7409C108.504 54.7058 111.639 58.6866 121.018 58.6866C122.493 58.6866 125.068 58.4165 126.586 58.0113L127.466 49.578Z" fill="black"/>
<path d="M149.115 36.6255L142.946 37.2332C136.85 37.8409 130.078 39.1925 129.126 48.3116C128.598 53.376 130.887 59.0418 139.396 59.0418C143.422 59.0418 146.985 57.6924 149.621 55.5337L150.827 58.0965H157.258L159.548 36.1507C160.337 28.591 158.601 23.3968 146.538 23.3968C141.773 23.3968 136.623 24.6112 134.24 25.6231L133.296 34.6651C136.378 33.3822 141.402 32.0992 145.63 32.0992C148.514 32.0992 149.504 32.9095 149.342 34.4626L149.115 36.6255ZM148.503 42.4981L147.721 49.9934C146.534 51.0812 144.666 51.6225 142.72 51.6225C140.439 51.6225 138.984 50.1358 139.243 47.6364C139.519 45.0018 140.882 43.5152 143.943 43.11L148.503 42.4981Z" fill="black"/>
<path d="M175.562 49.3037C173.417 49.3037 172.891 48.5609 173.025 47.2779L175.455 23.9879H164.805L162.22 48.7635C161.537 55.3113 165.781 58.2824 171.542 58.2824C173.219 58.2824 174.654 58.0123 174.654 58.0123L175.562 49.3037ZM164.821 14.1925C164.441 17.8358 166.899 20.6032 170.516 20.6032C174.067 20.6032 177.17 17.8358 177.55 14.1925C177.923 10.6158 175.405 7.78185 171.854 7.78185C168.237 7.78185 165.194 10.6158 164.821 14.1925Z" fill="black"/>
<path d="M197.037 58.6871C212.856 58.6871 218.203 47.8904 219.817 32.4239C221.43 16.9564 218.337 6.16076 202.518 6.16076C186.699 6.16076 181.352 16.9564 179.739 32.4239C178.124 47.8904 181.218 58.6871 197.037 58.6871ZM201.497 15.9435C208.136 15.9435 210.199 20.6038 208.966 32.4239C207.732 44.243 204.698 48.9044 198.058 48.9044C191.418 48.9044 189.356 44.243 190.59 32.4239C191.823 20.6038 194.857 15.9435 201.497 15.9435Z" fill="black"/>
<path d="M241.719 26.9523C236.565 26.2095 234.739 25.0615 235.119 21.4141C235.458 18.1718 238.727 16.4162 244.294 16.4162C249.391 16.4162 254.81 17.7667 257.416 19.1172L258.507 8.65709C256.296 7.37516 251.399 6.16076 244.56 6.16076C231.286 6.16076 225.092 12.2328 224.134 21.4141C223.098 31.3425 227.593 35.1249 240.153 36.8141C245.181 37.4894 246.724 38.7724 246.323 42.6224C245.962 46.0672 243.503 48.4317 235.923 48.4317C229.286 48.4317 223.927 45.8647 221.724 44.5141L220.569 55.583C223.961 57.7417 230.494 58.6871 235.926 58.6871C247.794 58.6871 256.103 54.1661 257.414 41.6095C258.541 30.8023 252.685 28.5064 241.719 26.9523Z" fill="black"/>
</svg>
