<svg width="376" height="35" viewBox="0 0 376 35" fill="none" xmlns="http://www.w3.org/2000/svg">
<path d="M3.97852 1.93115L0.724572 33.8227H7.43491L8.98812 18.5998C9.6606 18.1746 11.1979 17.4942 12.8336 17.4942C14.637 17.4942 15.0737 18.5573 14.9132 20.1306L13.5162 33.8227H20.2265L21.7276 19.1101C22.1441 15.028 20.8209 11.9664 15.1171 11.9664C12.8104 11.9664 11.0721 12.5617 9.52611 13.3271L10.6889 1.93115H3.97852Z" fill="black"/>
<path d="M41.3972 25.4401C42.6229 18.7641 42.688 11.9606 33.718 11.9606C27.221 11.9606 23.5454 15.5324 22.7649 23.1864C21.9844 30.8404 24.9735 34.4122 31.8896 34.4122C34.4045 34.4122 37.3863 33.9445 39.9215 32.9239L40.4635 27.6087C38.8765 28.3741 36.4642 29.0119 33.3205 29.0119C30.0511 29.0119 28.7083 28.204 29.1578 25.4401H41.3972ZM33.2815 17.0632C35.8383 17.0632 36.1505 18.9342 35.5348 21.2729H29.5828C29.8559 18.594 31.018 17.0632 33.2815 17.0632Z" fill="black"/>
<path d="M44.7093 12.5559L42.5414 33.817H49.2474L50.7996 18.594C51.4717 18.1688 53.008 17.4885 54.6426 17.4885C56.4448 17.4885 56.8813 18.5515 56.7209 20.1248L55.3248 33.817H62.0308L63.531 19.1043C63.9472 15.0222 62.6248 11.9606 56.9247 11.9606C54.6195 11.9606 51.9096 12.6409 49.4151 14.0867L48.7329 12.5559H44.7093Z" fill="black"/>
<path d="M78.1195 28.6849C77.7753 28.7699 76.9189 28.94 76.038 28.94C73.8986 28.94 73.3649 28.0045 73.5341 26.3462L74.363 18.2245H79.5646L80.1417 12.5691H74.9401L75.552 6.57349L68.6536 8.40193L68.2066 12.7817L64.7133 13.7172L64.2534 18.2245H67.6512L66.7659 26.899C66.2539 31.9165 68.2211 34.4253 74.0939 34.4253C75.0168 34.4253 76.6282 34.2552 77.5771 34.0001L78.1195 28.6849Z" fill="black"/>
<path d="M92.526 27.9914C92.526 27.9914 91.1356 28.8843 89.4591 28.8843C86.3576 28.8843 85.8952 26.8433 86.268 23.1864C86.6366 19.572 87.5196 17.4884 90.6211 17.4884C92.2976 17.4884 93.5058 18.3814 93.5058 18.3814L92.526 27.9914ZM100.806 12.5559H96.7822L95.4772 14.2568C94.1403 12.9811 92.2745 11.9606 88.9215 11.9606C83.4729 11.9606 80.4437 15.3623 79.6459 23.1864C78.8481 31.0104 81.1836 34.4122 86.6322 34.4122C89.9852 34.4122 92.0722 34.4972 93.6692 33.2216L94.6144 33.8169H98.6379L100.806 12.5559Z" fill="black"/>
<path d="M101.309 33.8353H107.992L110.167 12.5743H103.483L101.309 33.8353ZM103.483 6.40861C103.248 8.7048 104.793 10.4482 107.063 10.4482C109.291 10.4482 111.235 8.7048 111.47 6.40861C111.7 4.15494 110.117 2.36902 107.889 2.36902C105.619 2.36902 103.713 4.15494 103.483 6.40861Z" fill="black"/>
<path d="M123.648 34.4219C133.542 34.4219 136.877 27.6184 137.87 17.8809C138.863 8.14336 136.916 1.33984 127.022 1.33984C117.128 1.33984 113.793 8.14336 112.8 17.8809C111.807 27.6184 113.754 34.4219 123.648 34.4219ZM126.393 7.50553C130.543 7.50553 131.837 10.4395 131.078 17.8809C130.319 25.3222 128.427 28.2563 124.277 28.2563C120.126 28.2563 118.832 25.3222 119.591 17.8809C120.35 10.4395 122.243 7.50553 126.393 7.50553Z" fill="black"/>
<path d="M151.494 14.4366C148.271 13.9689 147.129 13.246 147.363 10.9498C147.572 8.90876 149.613 7.80319 153.094 7.80319C156.28 7.80319 159.674 8.65362 161.307 9.50406L161.979 2.91316C160.594 2.10524 157.527 1.33984 153.25 1.33984C144.947 1.33984 141.076 5.16682 140.486 10.9498C139.849 17.2005 142.667 19.5818 150.526 20.6448C153.669 21.07 154.635 21.878 154.388 24.3017C154.166 26.4703 152.631 27.9586 147.893 27.9586C143.741 27.9586 140.384 26.3428 139.003 25.4923L138.292 32.4659C140.417 33.8266 144.508 34.4219 147.904 34.4219C155.326 34.4219 160.523 31.573 161.33 23.6639C162.024 16.8604 158.355 15.4146 151.494 14.4366Z" fill="black"/>
<circle cx="177.145" cy="18.1023" r="3.38783" fill="black"/>
<path d="M194.596 1.34537H201.4L199.996 12.7424C201.868 11.8352 203.767 11.3816 205.695 11.3816C208.417 11.3816 210.259 12.0195 211.223 13.2953C212.187 14.5427 212.527 16.2863 212.244 18.526L210.458 33.2401H203.654L205.312 19.5466C205.539 17.7889 204.859 16.91 203.271 16.91C201.882 16.91 200.563 17.2786 199.316 18.0157L197.487 33.2401H190.683L194.596 1.34537Z" fill="black"/>
<path d="M223.548 24.8624H220.316C220.06 26.1949 220.259 27.1305 220.911 27.6692C221.563 28.1795 222.74 28.4346 224.441 28.4346C227.304 28.4346 229.728 27.9668 231.713 27.0313L231.075 32.3471C228.552 33.3393 225.83 33.8355 222.91 33.8355C219.394 33.8355 216.885 32.9282 215.383 31.1138C213.908 29.271 213.398 26.4359 213.852 22.6085C214.759 15.1239 218.544 11.3816 225.206 11.3816C228.41 11.3816 230.692 11.9486 232.053 13.0826C233.442 14.2167 233.995 15.8894 233.711 18.1007C233.173 22.6085 229.785 24.8624 223.548 24.8624ZM220.826 20.6948H224.143C225.022 20.6948 225.702 20.4964 226.184 20.0995C226.666 19.6742 226.95 19.1639 227.035 18.5685C227.12 17.9732 226.964 17.477 226.567 17.0801C226.17 16.6832 225.532 16.4847 224.653 16.4847C222.414 16.4847 221.138 17.8881 220.826 20.6948Z" fill="black"/>
<path d="M243.781 27.9243L243.101 33.4102C242.505 33.5236 241.853 33.5803 241.145 33.5803C239.217 33.5803 237.7 33.0842 236.594 32.0919C235.489 31.0713 235.063 29.5687 235.318 27.5841L238.55 1.34537H245.312L242.208 26.6485C242.151 27.0738 242.236 27.3998 242.463 27.6266C242.69 27.8251 243.129 27.9243 243.781 27.9243Z" fill="black"/>
<path d="M254.855 27.9243L254.174 33.4102C253.579 33.5236 252.927 33.5803 252.218 33.5803C250.29 33.5803 248.773 33.0842 247.668 32.0919C246.562 31.0713 246.137 29.5687 246.392 27.5841L249.624 1.34537H256.386L253.281 26.6485C253.224 27.0738 253.31 27.3998 253.536 27.6266C253.763 27.8251 254.203 27.9243 254.855 27.9243Z" fill="black"/>
<path d="M276.134 33.2401H272.052L271.371 31.7092C268.877 33.1267 266.325 33.8355 263.717 33.8355C260.995 33.8355 259.152 33.2118 258.188 31.9643C257.224 30.6885 256.87 28.9308 257.125 26.6911L258.954 11.9769H265.758L264.057 25.6704C263.859 27.4282 264.553 28.3071 266.141 28.3071C267.558 28.3071 268.862 27.9385 270.053 27.2014L271.924 11.9769H278.729L276.134 33.2401Z" fill="black"/>
<path d="M291.351 33.5803H285.482L280.209 11.9769H287.311L289.437 25.1601L294.795 11.9769H301.897L291.351 33.5803Z" fill="black"/>
<path d="M313.337 27.414L314.527 17.8031C313.734 17.2077 312.77 16.91 311.636 16.91C310.161 16.91 309.098 17.3778 308.446 18.3134C307.794 19.2206 307.34 20.6523 307.085 22.6085C306.858 24.5931 306.958 26.039 307.383 26.9462C307.808 27.8534 308.758 28.3071 310.232 28.3071C310.743 28.3071 311.253 28.2362 311.763 28.0944C312.274 27.9527 312.656 27.7967 312.911 27.6266L313.337 27.414ZM322.055 11.9769L319.46 33.2401H315.378L314.4 31.5391C312.472 33.07 310.09 33.8355 307.255 33.8355C304.477 33.8355 302.521 32.9424 301.387 31.1563C300.253 29.3419 299.913 26.4926 300.366 22.6085C300.848 18.7245 301.883 15.8894 303.471 14.1033C305.058 12.2888 307.241 11.3816 310.02 11.3816C312.826 11.3816 315.024 12.1471 316.611 13.678L317.972 11.9769H322.055Z" fill="black"/>
<path d="M341.439 32.6873C339.653 33.4527 337.541 33.8355 335.103 33.8355C332.665 33.8355 330.638 33.4386 329.022 32.6447C327.406 31.8226 326.243 30.6885 325.534 29.2426C324.826 27.7684 324.372 26.0248 324.174 24.0119C323.975 21.9706 324.06 19.7309 324.429 17.2927C324.741 14.7128 325.208 12.4731 325.832 10.5736C326.456 8.64572 327.321 6.91632 328.426 5.38537C329.56 3.85442 331.02 2.70621 332.806 1.94074C334.593 1.14691 336.705 0.75 339.143 0.75C341.581 0.75 343.608 1.16109 345.224 1.98327C346.84 2.77709 348.002 3.91112 348.711 5.38537C349.42 6.83126 349.874 8.57484 350.072 10.6161C350.299 12.629 350.228 14.8546 349.859 17.2927C349.519 19.8727 349.037 22.1266 348.414 24.0544C347.79 25.9539 346.911 27.6692 345.777 29.2001C344.671 30.7311 343.225 31.8934 341.439 32.6873ZM342.587 9.29779C341.907 7.71014 340.518 6.91632 338.42 6.91632C336.322 6.91632 334.72 7.72432 333.614 9.34032C332.537 10.928 331.772 13.5788 331.318 17.2927C330.836 21.0067 330.949 23.6717 331.658 25.2877C332.367 26.8753 333.77 27.6692 335.868 27.6692C337.966 27.6692 339.554 26.8753 340.631 25.2877C341.709 23.7 342.488 21.0351 342.97 17.2927C343.424 13.5504 343.296 10.8854 342.587 9.29779Z" fill="black"/>
<path d="M364.39 13.8481C366.318 14.1316 367.863 14.4435 369.026 14.7837C370.188 15.0955 371.237 15.5917 372.172 16.2721C373.108 16.9242 373.732 17.8031 374.044 18.9087C374.355 20.0144 374.412 21.4036 374.214 23.0763C373.335 30.2491 368.728 33.8355 360.393 33.8355C355.97 33.8355 352.724 33.1834 350.654 31.8793L351.547 24.9049C354.184 26.5493 357.161 27.3715 360.478 27.3715C364.645 27.3715 366.871 26.1524 367.154 23.7142C367.296 22.5235 367.083 21.673 366.516 21.1626C365.978 20.6523 364.915 20.2838 363.327 20.0569C359.301 19.5183 356.537 18.5402 355.034 17.1226C353.532 15.7051 352.965 13.4512 353.333 10.3609C353.702 7.35576 354.963 5.00263 357.118 3.30158C359.273 1.60053 362.377 0.75 366.431 0.75C370.514 0.75 373.462 1.27449 375.277 2.32347L374.469 8.91505C373.59 8.46144 372.371 8.06453 370.812 7.72432C369.252 7.38411 367.707 7.214 366.176 7.214C362.491 7.214 360.534 8.26298 360.308 10.3609C360.166 11.4666 360.393 12.2605 360.988 12.7424C361.583 13.2244 362.717 13.5929 364.39 13.8481Z" fill="black"/>
</svg>
