<svg width="200" height="49" viewBox="0 0 243 49" fill="none" xmlns="http://www.w3.org/2000/svg">
<path fill-rule="evenodd" clip-rule="evenodd" d="M17.9672 20.7782L14.8447 15.6948H23.1653L26.1731 20.7782H17.9672ZM46.5018 15.6948H54.2802C54.1738 16.5003 53.7979 17.2068 53.1526 17.8141C52.3912 18.5301 51.4708 18.888 50.3912 18.888C49.3117 18.888 48.3855 18.5301 47.6128 17.8141C46.977 17.2068 46.6066 16.5003 46.5018 15.6948ZM43.2916 15.6948L40.189 20.7782H31.9681L34.9905 15.6948H43.2916Z" fill="#FF0000"/>
<path fill-rule="evenodd" clip-rule="evenodd" d="M21.0869 36.0282L24.2405 30.9903L24.2126 30.9448H33.9842L33.9564 30.9903L37.1002 36.0282H21.0869ZM54.0053 36.0282H46.7439V30.9448H54.0053V36.0282ZM79.6323 36.0282H58.0366C58.3766 35.6721 58.757 35.3565 59.1777 35.0812C60.0982 34.4789 61.1436 34.0244 62.3141 33.7176C63.4959 33.4107 64.7345 33.1948 66.03 33.0698C67.5527 32.9107 68.78 32.763 69.7118 32.6266C70.6436 32.4789 71.3198 32.263 71.7402 31.9789C72.1014 31.7349 72.3075 31.3902 72.3584 30.9448H79.6323V36.0282ZM117.165 36.0282H109.903V30.9448H117.421C117.25 31.4826 117.165 32.0773 117.165 32.7289V36.0282ZM132.454 36.0282H125.415V32.1153C125.415 31.6975 125.376 31.3073 125.297 30.9448H132.633C132.514 31.4057 132.454 31.9095 132.454 32.4562V36.0282ZM147.949 36.0282H140.704V32.2687C140.704 31.7876 140.662 31.3463 140.578 30.9448H147.949V36.0282ZM184.833 36.0282H177.572V30.9448H185.089C184.919 31.4826 184.833 32.0773 184.833 32.7289V36.0282ZM200.123 36.0282H193.083V32.1153C193.083 31.6975 193.044 31.3073 192.966 30.9448H200.301C200.183 31.4057 200.123 31.9095 200.123 32.4562V36.0282ZM215.617 36.0282H208.373V32.2687C208.373 31.7876 208.331 31.3463 208.246 30.9448H215.617V36.0282ZM242.44 30.9448C242.748 32.2289 242.902 33.6532 242.902 35.2176V36.0282H225.073H220.794H217.904C217.899 35.8449 217.896 35.6599 217.896 35.4732C217.896 33.843 218.088 32.3335 218.471 30.9448H225.43C225.225 31.4975 225.109 32.0865 225.079 32.7119H236.067C236.067 32.0792 235.984 31.4901 235.817 30.9448H242.44ZM174.771 30.9448C175.079 32.2289 175.233 33.6532 175.233 35.2176V36.0282H157.404H153.125H150.235C150.23 35.8449 150.228 35.6599 150.228 35.4732C150.228 33.843 150.419 32.3335 150.802 30.9448H157.761C157.557 31.4975 157.44 32.0865 157.411 32.7119H168.398C168.398 32.0792 168.315 31.4901 168.148 30.9448H174.771ZM107.014 30.9448C107.392 32.3252 107.582 33.829 107.582 35.4562C107.582 35.6485 107.579 35.8392 107.574 36.0282H100.189C100.197 35.8236 100.201 35.6159 100.201 35.4051C100.201 33.8823 99.9908 32.5244 99.5703 31.3312C99.5251 31.1993 99.4775 31.0706 99.4275 30.9448H107.014ZM82.3766 30.9448C81.9982 32.3252 81.809 33.829 81.809 35.4562C81.809 35.6485 81.8117 35.8392 81.817 36.0282H89.2014C89.1936 35.8236 89.1897 35.6159 89.1897 35.4051C89.1897 33.8823 89.3942 32.5244 89.8033 31.3312C89.8497 31.1993 89.8986 31.0706 89.95 30.9448H82.3766Z" fill="#FF0000"/>
<path fill-rule="evenodd" clip-rule="evenodd" d="M222.299 46.1948L239.605 46.1948C238.75 46.9115 237.746 47.5024 236.595 47.9676C234.948 48.6266 233.044 48.9562 230.885 48.9562C228.192 48.9562 225.874 48.4107 223.931 47.3198C223.346 46.9864 222.803 46.6114 222.299 46.1948ZM154.631 46.1948L171.937 46.1948C171.081 46.9115 170.078 47.5024 168.927 47.9676C167.279 48.6266 165.376 48.9562 163.216 48.9562C160.523 48.9562 158.205 48.4107 156.262 47.3198C155.678 46.9864 155.134 46.6114 154.631 46.1948ZM86.2976 46.1948L103.084 46.1948C102.608 46.5884 102.096 46.9464 101.548 47.2687C99.6272 48.3937 97.3431 48.9562 94.6954 48.9562C92.0477 48.9562 89.7579 48.3937 87.8261 47.2687C87.2814 46.9464 86.7719 46.5884 86.2976 46.1948ZM46.744 46.1948H54.0054V48.4448H46.744V46.1948ZM43.4445 46.1948H35.008L36.3599 48.4448H44.8485L43.4445 46.1948ZM23.1209 46.1948L21.769 48.4448H13.3145L14.7229 46.1948H23.1209ZM57.8756 46.1948H71.6209C71.3873 46.4712 71.1317 46.7326 70.8539 46.9789C70.1494 47.5926 69.3028 48.0755 68.3142 48.4278C67.3255 48.7687 66.1835 48.9391 64.888 48.9391C63.2176 48.9391 61.7289 48.6494 60.4221 48.0698C59.4096 47.612 58.5607 46.987 57.8756 46.1948ZM72.746 46.1948H79.6324V48.4448H72.746V46.1948ZM109.903 46.1948H117.165V48.4448H109.903V46.1948ZM125.415 46.1948V48.4448H132.455V46.1948H125.415ZM140.705 46.1948H147.949V48.4448H140.705V46.1948ZM177.572 46.1948H184.833V48.4448H177.572V46.1948ZM193.083 46.1948V48.4448H200.123V46.1948H193.083ZM208.373 46.1948H215.618V48.4448H208.373V46.1948Z" fill="#FF0000"/>
<path fill-rule="evenodd" clip-rule="evenodd" d="M17.2791 4.59824L16.0016 2.43914H7.63228L8.95851 4.59824H17.2791ZM20.2869 9.68157H12.081L18.3539 19.8937L7.42773 37.3482H15.8823L23.0414 25.4335H23.3141L26.6256 30.9448H29.5735L29.5458 30.9903L32.6895 36.0282H29.68L30.4732 37.3482H38.9618L28.0698 19.8937L34.3028 9.68157H26.0819L23.3141 14.3369H23.0414L20.2869 9.68157ZM29.1043 4.59824H37.4054L38.7232 2.43914H30.388L29.1043 4.59824ZM40.8573 11.1664V37.3482H48.1186V36.0282H42.3333V30.9448H48.1186V11.1664H40.8573ZM48.394 4.59824C48.415 4.43921 48.4255 4.27634 48.4255 4.1096C48.4255 3.1096 48.0391 2.25164 47.2664 1.53574C46.505 0.808461 45.5846 0.444824 44.505 0.444824C43.4255 0.444824 42.4993 0.808461 41.7266 1.53574C40.9652 2.25164 40.5846 3.1096 40.5846 4.1096C40.5846 4.27634 40.5949 4.43922 40.6156 4.59824H48.394ZM54.5354 36.9732C55.8422 37.5528 57.3309 37.8426 59.0013 37.8426C60.2968 37.8426 61.4388 37.6721 62.4275 37.3312C63.3364 37.0073 64.1253 36.573 64.7941 36.0282H53.626C53.966 35.6721 54.3463 35.3565 54.7671 35.0812C55.6875 34.4789 56.733 34.0244 57.9034 33.7176C59.0853 33.4107 60.3239 33.1948 61.6194 33.0698C63.1421 32.9107 64.3694 32.763 65.3012 32.6266C66.233 32.4789 66.9091 32.263 67.3296 31.9789C67.6908 31.7349 67.8968 31.3902 67.9477 30.9448H73.7456V19.6891C73.7456 18.1323 73.4445 16.7971 72.8422 15.6835C72.24 14.5585 71.4161 13.638 70.3706 12.9221C69.3365 12.2062 68.149 11.6778 66.8081 11.3369C65.4786 10.996 64.0865 10.8255 62.632 10.8255C60.5411 10.8255 58.7002 11.1437 57.1093 11.7801C55.5297 12.4051 54.24 13.3028 53.24 14.4732C52.24 15.6323 51.5695 17.0073 51.2286 18.5982L57.9445 19.1437C58.1945 18.2801 58.7059 17.5641 59.4786 16.996C60.2513 16.4164 61.2911 16.1266 62.5979 16.1266C63.8365 16.1266 64.7911 16.4221 65.4615 17.013C66.1434 17.6039 66.4843 18.4391 66.4843 19.5187V19.621C66.4843 20.1778 66.274 20.5982 65.8536 20.8823C65.4331 21.1664 64.757 21.3823 63.8252 21.5301C62.8934 21.6664 61.6661 21.8141 60.1434 21.9732C58.8479 22.0982 57.6093 22.3141 56.4275 22.621C55.257 22.9278 54.2115 23.3823 53.2911 23.9846C52.3706 24.5869 51.6434 25.3823 51.1093 26.371C50.5752 27.3596 50.3081 28.5812 50.3081 30.0357C50.3081 31.763 50.6831 33.2062 51.4331 34.3653C52.1945 35.513 53.2286 36.3823 54.5354 36.9732ZM66.8593 37.3482V36.0282H73.7456V37.3482H66.8593ZM63.9104 32.2005C63.0922 32.621 62.149 32.8312 61.0809 32.8312C59.9672 32.8312 59.0468 32.5755 58.3195 32.0641C57.6036 31.5414 57.2456 30.7857 57.2456 29.7971C57.2456 29.1153 57.4218 28.5471 57.774 28.0926C58.1263 27.6266 58.6206 27.2573 59.257 26.9846C59.8934 26.7119 60.6377 26.513 61.49 26.388C61.8877 26.3312 62.3309 26.2687 62.8195 26.2005C63.3081 26.121 63.7968 26.0357 64.2854 25.9448C64.774 25.8426 65.2115 25.7346 65.5979 25.621C65.9956 25.496 66.3081 25.3596 66.5354 25.2119V27.9903C66.5354 28.9107 66.3025 29.7346 65.8365 30.4619C65.3706 31.1891 64.7286 31.7687 63.9104 32.2005ZM81.9394 36.1721C83.8712 37.2971 86.161 37.8596 88.8087 37.8596C91.4564 37.8596 93.7405 37.2971 95.661 36.1721C95.7412 36.1249 95.8208 36.0769 95.8995 36.0282H95.7783C95.7863 35.8236 95.7904 35.6159 95.7904 35.4051C95.7904 33.8823 95.5802 32.5244 95.1597 31.3312C95.1145 31.1993 95.0669 31.0706 95.0168 30.9448H100.365C101.252 29.0244 101.695 26.8293 101.695 24.3596C101.695 21.6551 101.172 19.2914 100.127 17.2687C99.0814 15.2346 97.5928 13.6551 95.661 12.5301C93.7405 11.3937 91.4564 10.8255 88.8087 10.8255C86.161 10.8255 83.8712 11.3937 81.9394 12.5301C80.0189 13.6551 78.536 15.2346 77.4905 17.2687C76.4451 19.2914 75.9223 21.6551 75.9223 24.3596C75.9223 27.0414 76.4451 29.3994 77.4905 31.4335C77.571 31.5892 77.6541 31.7423 77.7398 31.8928C77.8057 31.5706 77.8811 31.2546 77.966 30.9448H85.4818C84.8071 30.283 84.2854 29.4288 83.9167 28.3823C83.5076 27.1891 83.303 25.8312 83.303 24.3085C83.303 22.7857 83.5076 21.4278 83.9167 20.2346C84.3371 19.0414 84.9564 18.0982 85.7746 17.4051C86.6042 16.7119 87.6269 16.3653 88.8428 16.3653C90.0473 16.3653 91.053 16.7119 91.8598 17.4051C92.6667 18.0982 93.2746 19.0414 93.6837 20.2346C94.1042 21.4278 94.3144 22.7857 94.3144 24.3085C94.3144 25.8312 94.1042 27.1891 93.6837 28.3823C93.2746 29.5755 92.6667 30.5187 91.8598 31.2119C91.053 31.8937 90.0473 32.2346 88.8428 32.2346C87.6269 32.2346 86.6042 31.8937 85.7746 31.2119C85.6886 31.139 85.6047 31.0633 85.5231 30.9849C85.4777 31.0979 85.4342 31.2133 85.3926 31.3312C84.9836 32.5244 84.779 33.8823 84.779 35.4051C84.779 35.6159 84.7829 35.8236 84.7908 36.0282H81.7023C81.7805 36.0769 81.8596 36.1249 81.9394 36.1721ZM104.017 11.1664V37.3482H111.278V36.0282H105.493V30.9448H111.278V21.6323C111.278 20.6664 111.466 19.8255 111.841 19.1096C112.216 18.3823 112.721 17.8198 113.358 17.4221C114.005 17.013 114.733 16.8085 115.539 16.8085C116.733 16.8085 117.693 17.1891 118.42 17.9505C119.159 18.7119 119.528 19.7346 119.528 21.0187V37.3482H126.568V36.0282H121.004V32.1153C121.004 31.6975 120.965 31.3073 120.887 30.9448H126.568V21.3596C126.568 19.996 126.937 18.8994 127.676 18.0698C128.414 17.2289 129.443 16.8085 130.761 16.8085C131.92 16.8085 132.886 17.1721 133.659 17.8994C134.431 18.6266 134.818 19.7176 134.818 21.1721V37.3482H142.062V36.0282H136.294V32.2687C136.294 31.7876 136.252 31.3463 136.167 30.9448H142.062V19.7403C142.062 16.8994 141.295 14.7062 139.761 13.1607C138.238 11.6039 136.255 10.8255 133.812 10.8255C131.892 10.8255 130.227 11.2801 128.818 12.1891C127.42 13.0869 126.454 14.2857 125.92 15.7857H125.647C125.227 14.263 124.386 13.0585 123.125 12.1721C121.863 11.2744 120.335 10.8255 118.539 10.8255C116.767 10.8255 115.244 11.2687 113.971 12.1551C112.698 13.0414 111.789 14.2516 111.244 15.7857H110.937V11.1664H104.017ZM150.375 36.2232C152.318 37.3141 154.637 37.8596 157.33 37.8596C159.489 37.8596 161.392 37.5301 163.04 36.871C163.648 36.6252 164.215 36.3442 164.741 36.0282H152.993H150.046C150.154 36.0947 150.264 36.1597 150.375 36.2232ZM163.738 30.9448H168.896C169.015 30.5904 169.114 30.2249 169.193 29.8482L162.477 29.4051C162.227 30.0641 161.864 30.621 161.387 31.0755C160.909 31.5301 160.335 31.871 159.665 32.0982C158.994 32.3255 158.256 32.4391 157.449 32.4391C156.233 32.4391 155.182 32.1835 154.296 31.6721C153.947 31.4709 153.629 31.2364 153.342 30.9684C153.143 31.5142 153.029 32.0954 153 32.7119H163.988C163.988 32.0792 163.904 31.4901 163.738 30.9448ZM152.233 29.4903C152.524 30.0516 152.885 30.5364 153.317 30.9448H146.392C146.298 31.2845 146.216 31.6313 146.145 31.9854C146.064 31.8436 145.985 31.6994 145.909 31.5528C144.864 29.5301 144.341 27.138 144.341 24.3766C144.341 21.6835 144.864 19.3198 145.909 17.2857C146.955 15.2516 148.426 13.6664 150.324 12.5301C152.233 11.3937 154.472 10.8255 157.04 10.8255C158.767 10.8255 160.375 11.1039 161.864 11.6607C163.364 12.2062 164.671 13.0301 165.784 14.1323C166.909 15.2346 167.784 16.621 168.409 18.2914C169.034 19.9505 169.347 21.8937 169.347 24.121V26.1153H151.517V26.1323C151.517 27.4278 151.756 28.5471 152.233 29.4903ZM151.524 21.6153C151.568 20.6751 151.81 19.8172 152.25 19.0414C152.727 18.1891 153.387 17.513 154.227 17.013C155.08 16.5016 156.057 16.246 157.159 16.246C158.216 16.246 159.142 16.4789 159.938 16.9448C160.744 17.3994 161.375 18.0301 161.83 18.8369C162.284 19.6437 162.512 20.5698 162.512 21.6153H151.524ZM171.685 11.1664V37.3482H178.947V36.0282H173.161V30.9448H178.947V21.6323C178.947 20.6664 179.134 19.8255 179.509 19.1096C179.884 18.3823 180.39 17.8198 181.026 17.4221C181.674 17.013 182.401 16.8085 183.208 16.8085C184.401 16.8085 185.362 17.1891 186.089 17.9505C186.827 18.7119 187.197 19.7346 187.197 21.0187V37.3482H194.237V36.0282H188.673V32.1153C188.673 31.6975 188.634 31.3073 188.555 30.9448H194.237V21.3596C194.237 19.996 194.606 18.8994 195.344 18.0698C196.083 17.2289 197.112 16.8085 198.43 16.8085C199.589 16.8085 200.555 17.1721 201.327 17.8994C202.1 18.6266 202.487 19.7176 202.487 21.1721V37.3482H209.731V36.0282H203.963V32.2687C203.963 31.7876 203.92 31.3463 203.836 30.9448H209.731V19.7403C209.731 16.8994 208.964 14.7062 207.43 13.1607C205.907 11.6039 203.924 10.8255 201.481 10.8255C199.56 10.8255 197.896 11.2801 196.487 12.1891C195.089 13.0869 194.123 14.2857 193.589 15.7857H193.316C192.896 14.263 192.055 13.0585 190.793 12.1721C189.532 11.2744 188.004 10.8255 186.208 10.8255C184.435 10.8255 182.913 11.2687 181.64 12.1551C180.367 13.0414 179.458 14.2516 178.913 15.7857H178.606V11.1664H171.685ZM218.044 36.2232C219.987 37.3141 222.305 37.8596 224.998 37.8596C227.158 37.8596 229.061 37.5301 230.709 36.871C231.317 36.6252 231.884 36.3442 232.41 36.0282H220.662H217.714C217.823 36.0947 217.933 36.1597 218.044 36.2232ZM231.407 30.9448H236.565C236.683 30.5904 236.783 30.2249 236.862 29.8482L230.146 29.4051C229.896 30.0641 229.533 30.621 229.055 31.0755C228.578 31.5301 228.004 31.871 227.334 32.0982C226.663 32.3255 225.925 32.4391 225.118 32.4391C223.902 32.4391 222.851 32.1835 221.964 31.6721C221.616 31.4709 221.298 31.2364 221.011 30.9684C220.811 31.5142 220.698 32.0954 220.669 32.7119H231.656C231.656 32.0792 231.573 31.4901 231.407 30.9448ZM219.902 29.4903C220.193 30.0516 220.554 30.5364 220.986 30.9448H214.06C213.967 31.2845 213.885 31.6313 213.814 31.9854C213.733 31.8436 213.654 31.6994 213.578 31.5528C212.533 29.5301 212.01 27.138 212.01 24.3766C212.01 21.6835 212.533 19.3198 213.578 17.2857C214.623 15.2516 216.095 13.6664 217.993 12.5301C219.902 11.3937 222.141 10.8255 224.709 10.8255C226.436 10.8255 228.044 11.1039 229.533 11.6607C231.033 12.2062 232.339 13.0301 233.453 14.1323C234.578 15.2346 235.453 16.621 236.078 18.2914C236.703 19.9505 237.016 21.8937 237.016 24.121V26.1153H219.186V26.1323C219.186 27.4278 219.425 28.5471 219.902 29.4903ZM219.193 21.6153C219.237 20.6751 219.479 19.8172 219.919 19.0414C220.396 18.1891 221.055 17.513 221.896 17.013C222.748 16.5016 223.726 16.246 224.828 16.246C225.885 16.246 226.811 16.4789 227.606 16.9448C228.413 17.3994 229.044 18.0301 229.498 18.8369C229.953 19.6437 230.18 20.5698 230.18 21.6153H219.193Z" fill="#FF0000"/>
<path fill-rule="evenodd" clip-rule="evenodd" d="M10.6176 20.7782L7.49512 15.6948H15.8157L18.8235 20.7782H10.6176ZM39.1522 15.6948H46.9306C46.8242 16.5003 46.4483 17.2068 45.803 17.8141C45.0416 18.5301 44.1212 18.888 43.0416 18.888C41.9621 18.888 41.0359 18.5301 40.2632 17.8141C39.6274 17.2068 39.257 16.5003 39.1522 15.6948ZM35.942 15.6948L32.8394 20.7782H24.6185L27.6409 15.6948H35.942Z" fill="#FF0000"/>
<path fill-rule="evenodd" clip-rule="evenodd" d="M13.7363 36.0282L16.8899 30.9903L16.862 30.9448H26.6336L26.6058 30.9903L29.7496 36.0282H13.7363ZM46.6547 36.0282H39.3933V30.9448H46.6547V36.0282ZM72.2817 36.0282H50.686C51.026 35.6721 51.4064 35.3565 51.8271 35.0812C52.7476 34.4789 53.793 34.0244 54.9635 33.7176C56.1453 33.4107 57.384 33.1948 58.6794 33.0698C60.2021 32.9107 61.4294 32.763 62.3612 32.6266C63.293 32.4789 63.9692 32.263 64.3896 31.9789C64.7508 31.7349 64.9569 31.3902 65.0078 30.9448H72.2817V36.0282ZM109.814 36.0282H102.553V30.9448H110.07C109.899 31.4826 109.814 32.0773 109.814 32.7289V36.0282ZM125.104 36.0282H118.064V32.1153C118.064 31.6975 118.025 31.3073 117.947 30.9448H125.282C125.163 31.4057 125.104 31.9095 125.104 32.4562V36.0282ZM140.598 36.0282H133.354V32.2687C133.354 31.7876 133.312 31.3463 133.227 30.9448H140.598V36.0282ZM177.483 36.0282H170.221V30.9448H177.739C177.568 31.4826 177.483 32.0773 177.483 32.7289V36.0282ZM192.773 36.0282H185.733V32.1153C185.733 31.6975 185.694 31.3073 185.616 30.9448H192.951C192.832 31.4057 192.773 31.9095 192.773 32.4562V36.0282ZM208.267 36.0282H201.023V32.2687C201.023 31.7876 200.98 31.3463 200.896 30.9448H208.267V36.0282ZM235.089 30.9448C235.397 32.2289 235.552 33.6532 235.552 35.2176V36.0282H217.722H213.444H210.553C210.548 35.8449 210.546 35.6599 210.546 35.4732C210.546 33.843 210.737 32.3335 211.12 30.9448H218.079C217.875 31.4975 217.758 32.0865 217.729 32.7119H228.716C228.716 32.0792 228.633 31.4901 228.467 30.9448H235.089ZM167.42 30.9448C167.729 32.2289 167.883 33.6532 167.883 35.2176V36.0282H150.053H145.775H142.884C142.88 35.8449 142.877 35.6599 142.877 35.4732C142.877 33.843 143.069 32.3335 143.452 30.9448H150.411C150.206 31.4975 150.089 32.0865 150.06 32.7119H161.048C161.048 32.0792 160.964 31.4901 160.798 30.9448H167.42ZM99.6635 30.9448C100.042 32.3252 100.231 33.829 100.231 35.4562C100.231 35.6485 100.228 35.8392 100.223 36.0282H92.8383C92.8464 35.8236 92.8504 35.6159 92.8504 35.4051C92.8504 33.8823 92.6402 32.5244 92.2198 31.3312C92.1746 31.1993 92.1269 31.0706 92.0769 30.9448H99.6635ZM75.026 30.9448C74.6476 32.3252 74.4584 33.829 74.4584 35.4562C74.4584 35.6485 74.4611 35.8392 74.4665 36.0282H81.8508C81.843 35.8236 81.8391 35.6159 81.8391 35.4051C81.8391 33.8823 82.0436 32.5244 82.4527 31.3312C82.4992 31.1993 82.548 31.0706 82.5994 30.9448H75.026Z" fill="#FF0000"/>
<path fill-rule="evenodd" clip-rule="evenodd" d="M214.949 46.1948L232.255 46.1948C231.399 46.9115 230.396 47.5024 229.245 47.9676C227.597 48.6266 225.694 48.9562 223.535 48.9562C220.841 48.9562 218.523 48.4107 216.58 47.3198C215.996 46.9864 215.452 46.6114 214.949 46.1948ZM147.28 46.1948L164.586 46.1948C163.73 46.9115 162.727 47.5024 161.576 47.9676C159.928 48.6266 158.025 48.9562 155.866 48.9562C153.173 48.9562 150.854 48.4107 148.911 47.3198C148.327 46.9864 147.783 46.6114 147.28 46.1948ZM78.947 46.1948L95.7339 46.1948C95.2573 46.5884 94.745 46.9464 94.1971 47.2687C92.2767 48.3937 89.9926 48.9562 87.3448 48.9562C84.6971 48.9562 82.4073 48.3937 80.4755 47.2687C79.9308 46.9464 79.4213 46.5884 78.947 46.1948ZM39.3934 46.1948H46.6548V48.4448H39.3934V46.1948ZM36.0939 46.1948H27.6574L29.0093 48.4448H37.498L36.0939 46.1948ZM15.7703 46.1948L14.4184 48.4448H5.96387L7.37231 46.1948H15.7703ZM50.5251 46.1948H64.2703C64.0367 46.4712 63.7811 46.7326 63.5034 46.9789C62.7988 47.5926 61.9522 48.0755 60.9636 48.4278C59.9749 48.7687 58.8329 48.9391 57.5374 48.9391C55.867 48.9391 54.3784 48.6494 53.0715 48.0698C52.059 47.612 51.2102 46.987 50.5251 46.1948ZM65.3954 46.1948H72.2818V48.4448H65.3954V46.1948ZM102.553 46.1948H109.814V48.4448H102.553V46.1948ZM118.064 46.1948V48.4448H125.104V46.1948H118.064ZM133.354 46.1948H140.598V48.4448H133.354V46.1948ZM170.222 46.1948H177.483V48.4448H170.222V46.1948ZM185.733 46.1948V48.4448H192.773V46.1948H185.733ZM201.023 46.1948H208.267V48.4448H201.023V46.1948Z" fill="#FF0000"/>
<path fill-rule="evenodd" clip-rule="evenodd" d="M9.9295 4.59824L8.65199 2.43914H0.28267L1.6089 4.59824H9.9295ZM12.9373 9.68157H4.73138L11.0043 19.8937L0.078125 37.3482H8.53267L15.6918 25.4335H15.9645L19.276 30.9448H22.2239L22.1962 30.9903L25.3399 36.0282H22.3304L23.1236 37.3482H31.6122L20.7202 19.8937L26.9531 9.68157H18.7323L15.9645 14.3369H15.6918L12.9373 9.68157ZM21.7546 4.59824H30.0558L31.3736 2.43914H23.0384L21.7546 4.59824ZM33.5077 11.1664V37.3482H40.769V36.0282H34.9837V30.9448H40.769V11.1664H33.5077ZM41.0443 4.59824C41.0653 4.43921 41.0759 4.27634 41.0759 4.1096C41.0759 3.1096 40.6895 2.25164 39.9168 1.53574C39.1554 0.808461 38.2349 0.444824 37.1554 0.444824C36.0759 0.444824 35.1497 0.808461 34.377 1.53574C33.6156 2.25164 33.2349 3.1096 33.2349 4.1096C33.2349 4.27634 33.2453 4.43922 33.266 4.59824H41.0443ZM47.1858 36.9732C48.4926 37.5528 49.9813 37.8426 51.6517 37.8426C52.9472 37.8426 54.0892 37.6721 55.0778 37.3312C55.9868 37.0073 56.7757 36.573 57.4445 36.0282H46.2764C46.6164 35.6721 46.9967 35.3565 47.4175 35.0812C48.3379 34.4789 49.3834 34.0244 50.5538 33.7176C51.7357 33.4107 52.9743 33.1948 54.2697 33.0698C55.7925 32.9107 57.0197 32.763 57.9516 32.6266C58.8834 32.4789 59.5595 32.263 59.98 31.9789C60.3412 31.7349 60.5472 31.3902 60.5981 30.9448H66.396V19.6891C66.396 18.1323 66.0949 16.7971 65.4926 15.6835C64.8903 14.5585 64.0665 13.638 63.021 12.9221C61.9869 12.2062 60.7994 11.6778 59.4585 11.3369C58.129 10.996 56.7369 10.8255 55.2824 10.8255C53.1915 10.8255 51.3506 11.1437 49.7597 11.7801C48.1801 12.4051 46.8903 13.3028 45.8903 14.4732C44.8903 15.6323 44.2199 17.0073 43.879 18.5982L50.5949 19.1437C50.8449 18.2801 51.3563 17.5641 52.129 16.996C52.9017 16.4164 53.9415 16.1266 55.2483 16.1266C56.4869 16.1266 57.4415 16.4221 58.1119 17.013C58.7938 17.6039 59.1347 18.4391 59.1347 19.5187V19.621C59.1347 20.1778 58.9244 20.5982 58.504 20.8823C58.0835 21.1664 57.4074 21.3823 56.4756 21.5301C55.5438 21.6664 54.3165 21.8141 52.7938 21.9732C51.4983 22.0982 50.2597 22.3141 49.0778 22.621C47.9074 22.9278 46.8619 23.3823 45.9415 23.9846C45.021 24.5869 44.2938 25.3823 43.7597 26.371C43.2256 27.3596 42.9585 28.5812 42.9585 30.0357C42.9585 31.763 43.3335 33.2062 44.0835 34.3653C44.8449 35.513 45.879 36.3823 47.1858 36.9732ZM59.5097 37.3482V36.0282H66.396V37.3482H59.5097ZM56.5608 32.2005C55.7426 32.621 54.7994 32.8312 53.7313 32.8312C52.6176 32.8312 51.6972 32.5755 50.9699 32.0641C50.254 31.5414 49.896 30.7857 49.896 29.7971C49.896 29.1153 50.0722 28.5471 50.4244 28.0926C50.7767 27.6266 51.271 27.2573 51.9074 26.9846C52.5438 26.7119 53.2881 26.513 54.1403 26.388C54.5381 26.3312 54.9813 26.2687 55.4699 26.2005C55.9585 26.121 56.4472 26.0357 56.9358 25.9448C57.4244 25.8426 57.8619 25.7346 58.2483 25.621C58.646 25.496 58.9585 25.3596 59.1858 25.2119V27.9903C59.1858 28.9107 58.9528 29.7346 58.4869 30.4619C58.021 31.1891 57.379 31.7687 56.5608 32.2005ZM74.5898 36.1721C76.5216 37.2971 78.8114 37.8596 81.4591 37.8596C84.1068 37.8596 86.3909 37.2971 88.3114 36.1721C88.3916 36.1249 88.4711 36.0769 88.5499 36.0282H88.4287C88.4367 35.8236 88.4408 35.6159 88.4408 35.4051C88.4408 33.8823 88.2305 32.5244 87.8101 31.3312C87.7649 31.1993 87.7173 31.0706 87.6672 30.9448H93.0155C93.9021 29.0244 94.3455 26.8293 94.3455 24.3596C94.3455 21.6551 93.8227 19.2914 92.7773 17.2687C91.7318 15.2346 90.2432 13.6551 88.3114 12.5301C86.3909 11.3937 84.1068 10.8255 81.4591 10.8255C78.8114 10.8255 76.5216 11.3937 74.5898 12.5301C72.6693 13.6551 71.1864 15.2346 70.1409 17.2687C69.0955 19.2914 68.5727 21.6551 68.5727 24.3596C68.5727 27.0414 69.0955 29.3994 70.1409 31.4335C70.2214 31.5892 70.3045 31.7423 70.3902 31.8928C70.4561 31.5706 70.5315 31.2546 70.6164 30.9448H78.1322C77.4575 30.283 76.9358 29.4288 76.567 28.3823C76.158 27.1891 75.9534 25.8312 75.9534 24.3085C75.9534 22.7857 76.158 21.4278 76.567 20.2346C76.9875 19.0414 77.6068 18.0982 78.425 17.4051C79.2545 16.7119 80.2773 16.3653 81.4932 16.3653C82.6977 16.3653 83.7034 16.7119 84.5102 17.4051C85.317 18.0982 85.925 19.0414 86.3341 20.2346C86.7545 21.4278 86.9648 22.7857 86.9648 24.3085C86.9648 25.8312 86.7545 27.1891 86.3341 28.3823C85.925 29.5755 85.317 30.5187 84.5102 31.2119C83.7034 31.8937 82.6977 32.2346 81.4932 32.2346C80.2773 32.2346 79.2545 31.8937 78.425 31.2119C78.339 31.139 78.2551 31.0633 78.1735 30.9849C78.1281 31.0979 78.0846 31.2133 78.043 31.3312C77.6339 32.5244 77.4294 33.8823 77.4294 35.4051C77.4294 35.6159 77.4333 35.8236 77.4412 36.0282H74.3527C74.4309 36.0769 74.51 36.1249 74.5898 36.1721ZM96.667 11.1664V37.3482H103.928V36.0282H98.143V30.9448H103.928V21.6323C103.928 20.6664 104.116 19.8255 104.491 19.1096C104.866 18.3823 105.372 17.8198 106.008 17.4221C106.656 17.013 107.383 16.8085 108.19 16.8085C109.383 16.8085 110.343 17.1891 111.07 17.9505C111.809 18.7119 112.178 19.7346 112.178 21.0187V37.3482H119.218V36.0282H113.654V32.1153C113.654 31.6975 113.615 31.3073 113.537 30.9448H119.218V21.3596C119.218 19.996 119.588 18.8994 120.326 18.0698C121.065 17.2289 122.093 16.8085 123.411 16.8085C124.57 16.8085 125.536 17.1721 126.309 17.8994C127.082 18.6266 127.468 19.7176 127.468 21.1721V37.3482H134.713V36.0282H128.944V32.2687C128.944 31.7876 128.902 31.3463 128.817 30.9448H134.713V19.7403C134.713 16.8994 133.945 14.7062 132.411 13.1607C130.889 11.6039 128.906 10.8255 126.463 10.8255C124.542 10.8255 122.877 11.2801 121.468 12.1891C120.07 13.0869 119.105 14.2857 118.57 15.7857H118.298C117.877 14.263 117.036 13.0585 115.775 12.1721C114.514 11.2744 112.985 10.8255 111.19 10.8255C109.417 10.8255 107.894 11.2687 106.622 12.1551C105.349 13.0414 104.44 14.2516 103.894 15.7857H103.588V11.1664H96.667ZM143.026 36.2232C144.969 37.3141 147.287 37.8596 149.98 37.8596C152.139 37.8596 154.043 37.5301 155.69 36.871C156.299 36.6252 156.866 36.3442 157.391 36.0282H145.644H142.696C142.804 36.0947 142.914 36.1597 143.026 36.2232ZM156.388 30.9448H161.546C161.665 30.5904 161.764 30.2249 161.844 29.8482L155.128 29.4051C154.878 30.0641 154.514 30.621 154.037 31.0755C153.56 31.5301 152.986 31.871 152.315 32.0982C151.645 32.3255 150.906 32.4391 150.099 32.4391C148.884 32.4391 147.832 32.1835 146.946 31.6721C146.597 31.4709 146.279 31.2364 145.992 30.9684C145.793 31.5142 145.679 32.0954 145.65 32.7119H156.638C156.638 32.0792 156.555 31.4901 156.388 30.9448ZM144.884 29.4903C145.174 30.0516 145.536 30.5364 145.967 30.9448H139.042C138.948 31.2845 138.866 31.6313 138.795 31.9854C138.714 31.8436 138.636 31.6994 138.56 31.5528C137.514 29.5301 136.991 27.138 136.991 24.3766C136.991 21.6835 137.514 19.3198 138.56 17.2857C139.605 15.2516 141.077 13.6664 142.974 12.5301C144.884 11.3937 147.122 10.8255 149.69 10.8255C151.418 10.8255 153.026 11.1039 154.514 11.6607C156.014 12.2062 157.321 13.0301 158.435 14.1323C159.56 15.2346 160.435 16.621 161.06 18.2914C161.685 19.9505 161.997 21.8937 161.997 24.121V26.1153H144.168V26.1323C144.168 27.4278 144.406 28.5471 144.884 29.4903ZM144.174 21.6153C144.218 20.6751 144.46 19.8172 144.901 19.0414C145.378 18.1891 146.037 17.513 146.878 17.013C147.73 16.5016 148.707 16.246 149.81 16.246C150.866 16.246 151.793 16.4789 152.588 16.9448C153.395 17.3994 154.026 18.0301 154.48 18.8369C154.935 19.6437 155.162 20.5698 155.162 21.6153H144.174ZM164.336 11.1664V37.3482H171.597V36.0282H165.812V30.9448H171.597V21.6323C171.597 20.6664 171.785 19.8255 172.16 19.1096C172.535 18.3823 173.04 17.8198 173.677 17.4221C174.324 17.013 175.052 16.8085 175.859 16.8085C177.052 16.8085 178.012 17.1891 178.739 17.9505C179.478 18.7119 179.847 19.7346 179.847 21.0187V37.3482H186.887V36.0282H181.323V32.1153C181.323 31.6975 181.284 31.3073 181.206 30.9448H186.887V21.3596C186.887 19.996 187.256 18.8994 187.995 18.0698C188.734 17.2289 189.762 16.8085 191.08 16.8085C192.239 16.8085 193.205 17.1721 193.978 17.8994C194.751 18.6266 195.137 19.7176 195.137 21.1721V37.3482H202.381V36.0282H196.613V32.2687C196.613 31.7876 196.571 31.3463 196.486 30.9448H202.381V19.7403C202.381 16.8994 201.614 14.7062 200.08 13.1607C198.557 11.6039 196.574 10.8255 194.131 10.8255C192.211 10.8255 190.546 11.2801 189.137 12.1891C187.739 13.0869 186.773 14.2857 186.239 15.7857H185.966C185.546 14.263 184.705 13.0585 183.444 12.1721C182.182 11.2744 180.654 10.8255 178.859 10.8255C177.086 10.8255 175.563 11.2687 174.29 12.1551C173.018 13.0414 172.109 14.2516 171.563 15.7857H171.256V11.1664H164.336ZM210.694 36.2232C212.638 37.3141 214.956 37.8596 217.649 37.8596C219.808 37.8596 221.711 37.5301 223.359 36.871C223.967 36.6252 224.534 36.3442 225.06 36.0282H213.312H210.365C210.473 36.0947 210.583 36.1597 210.694 36.2232ZM224.057 30.9448H229.215C229.334 30.5904 229.433 30.2249 229.513 29.8482L222.797 29.4051C222.547 30.0641 222.183 30.621 221.706 31.0755C221.228 31.5301 220.655 31.871 219.984 32.0982C219.314 32.3255 218.575 32.4391 217.768 32.4391C216.552 32.4391 215.501 32.1835 214.615 31.6721C214.266 31.4709 213.948 31.2364 213.661 30.9684C213.462 31.5142 213.348 32.0954 213.319 32.7119H224.307C224.307 32.0792 224.223 31.4901 224.057 30.9448ZM212.552 29.4903C212.843 30.0516 213.204 30.5364 213.636 30.9448H206.711C206.617 31.2845 206.535 31.6313 206.464 31.9854C206.383 31.8436 206.305 31.6994 206.228 31.5528C205.183 29.5301 204.66 27.138 204.66 24.3766C204.66 21.6835 205.183 19.3198 206.228 17.2857C207.274 15.2516 208.745 13.6664 210.643 12.5301C212.552 11.3937 214.791 10.8255 217.359 10.8255C219.086 10.8255 220.694 11.1039 222.183 11.6607C223.683 12.2062 224.99 13.0301 226.103 14.1323C227.228 15.2346 228.103 16.621 228.728 18.2914C229.353 19.9505 229.666 21.8937 229.666 24.121V26.1153H211.836V26.1323C211.836 27.4278 212.075 28.5471 212.552 29.4903ZM211.843 21.6153C211.887 20.6751 212.129 19.8172 212.569 19.0414C213.047 18.1891 213.706 17.513 214.547 17.013C215.399 16.5016 216.376 16.246 217.478 16.246C218.535 16.246 219.461 16.4789 220.257 16.9448C221.064 17.3994 221.694 18.0301 222.149 18.8369C222.603 19.6437 222.831 20.5698 222.831 21.6153H211.843Z" fill="#FF0000"/>
<path fill-rule="evenodd" clip-rule="evenodd" d="M17.9672 20.7782L14.8447 15.6948H23.1653L26.1731 20.7782H17.9672ZM46.5018 15.6948H54.2802C54.1738 16.5003 53.7979 17.2068 53.1526 17.8141C52.3912 18.5301 51.4708 18.888 50.3912 18.888C49.3117 18.888 48.3855 18.5301 47.6128 17.8141C46.977 17.2068 46.6066 16.5003 46.5018 15.6948ZM43.2916 15.6948L40.189 20.7782H31.9681L34.9905 15.6948H43.2916Z" fill="#FF5555" style="mix-blend-mode:multiply"/>
<path fill-rule="evenodd" clip-rule="evenodd" d="M21.0869 36.0282L24.2405 30.9903L24.2126 30.9448H33.9842L33.9564 30.9903L37.1002 36.0282H21.0869ZM54.0053 36.0282H46.7439V30.9448H54.0053V36.0282ZM79.6323 36.0282H58.0366C58.3766 35.6721 58.757 35.3565 59.1777 35.0812C60.0982 34.4789 61.1436 34.0244 62.3141 33.7176C63.4959 33.4107 64.7345 33.1948 66.03 33.0698C67.5527 32.9107 68.78 32.763 69.7118 32.6266C70.6436 32.4789 71.3198 32.263 71.7402 31.9789C72.1014 31.7349 72.3075 31.3902 72.3584 30.9448H79.6323V36.0282ZM117.165 36.0282H109.903V30.9448H117.421C117.25 31.4826 117.165 32.0773 117.165 32.7289V36.0282ZM132.454 36.0282H125.415V32.1153C125.415 31.6975 125.376 31.3073 125.297 30.9448H132.633C132.514 31.4057 132.454 31.9095 132.454 32.4562V36.0282ZM147.949 36.0282H140.704V32.2687C140.704 31.7876 140.662 31.3463 140.578 30.9448H147.949V36.0282ZM184.833 36.0282H177.572V30.9448H185.089C184.919 31.4826 184.833 32.0773 184.833 32.7289V36.0282ZM200.123 36.0282H193.083V32.1153C193.083 31.6975 193.044 31.3073 192.966 30.9448H200.301C200.183 31.4057 200.123 31.9095 200.123 32.4562V36.0282ZM215.617 36.0282H208.373V32.2687C208.373 31.7876 208.331 31.3463 208.246 30.9448H215.617V36.0282ZM242.44 30.9448C242.748 32.2289 242.902 33.6532 242.902 35.2176V36.0282H225.073H220.794H217.904C217.899 35.8449 217.896 35.6599 217.896 35.4732C217.896 33.843 218.088 32.3335 218.471 30.9448H225.43C225.225 31.4975 225.109 32.0865 225.079 32.7119H236.067C236.067 32.0792 235.984 31.4901 235.817 30.9448H242.44ZM174.771 30.9448C175.079 32.2289 175.233 33.6532 175.233 35.2176V36.0282H157.404H153.125H150.235C150.23 35.8449 150.228 35.6599 150.228 35.4732C150.228 33.843 150.419 32.3335 150.802 30.9448H157.761C157.557 31.4975 157.44 32.0865 157.411 32.7119H168.398C168.398 32.0792 168.315 31.4901 168.148 30.9448H174.771ZM107.014 30.9448C107.392 32.3252 107.582 33.829 107.582 35.4562C107.582 35.6485 107.579 35.8392 107.574 36.0282H100.189C100.197 35.8236 100.201 35.6159 100.201 35.4051C100.201 33.8823 99.9908 32.5244 99.5703 31.3312C99.5251 31.1993 99.4775 31.0706 99.4275 30.9448H107.014ZM82.3766 30.9448C81.9982 32.3252 81.809 33.829 81.809 35.4562C81.809 35.6485 81.8117 35.8392 81.817 36.0282H89.2014C89.1936 35.8236 89.1897 35.6159 89.1897 35.4051C89.1897 33.8823 89.3942 32.5244 89.8033 31.3312C89.8497 31.1993 89.8986 31.0706 89.95 30.9448H82.3766Z" fill="#FF5555" style="mix-blend-mode:multiply"/>
<path fill-rule="evenodd" clip-rule="evenodd" d="M222.299 46.1948L239.605 46.1948C238.75 46.9115 237.746 47.5024 236.595 47.9676C234.948 48.6266 233.044 48.9562 230.885 48.9562C228.192 48.9562 225.874 48.4107 223.931 47.3198C223.346 46.9864 222.803 46.6114 222.299 46.1948ZM154.631 46.1948L171.937 46.1948C171.081 46.9115 170.078 47.5024 168.927 47.9676C167.279 48.6266 165.376 48.9562 163.216 48.9562C160.523 48.9562 158.205 48.4107 156.262 47.3198C155.678 46.9864 155.134 46.6114 154.631 46.1948ZM86.2976 46.1948L103.084 46.1948C102.608 46.5884 102.096 46.9464 101.548 47.2687C99.6272 48.3937 97.3431 48.9562 94.6954 48.9562C92.0477 48.9562 89.7579 48.3937 87.8261 47.2687C87.2814 46.9464 86.7719 46.5884 86.2976 46.1948ZM46.744 46.1948H54.0054V48.4448H46.744V46.1948ZM43.4445 46.1948H35.008L36.3599 48.4448H44.8485L43.4445 46.1948ZM23.1209 46.1948L21.769 48.4448H13.3145L14.7229 46.1948H23.1209ZM57.8756 46.1948H71.6209C71.3873 46.4712 71.1317 46.7326 70.8539 46.9789C70.1494 47.5926 69.3028 48.0755 68.3142 48.4278C67.3255 48.7687 66.1835 48.9391 64.888 48.9391C63.2176 48.9391 61.7289 48.6494 60.4221 48.0698C59.4096 47.612 58.5607 46.987 57.8756 46.1948ZM72.746 46.1948H79.6324V48.4448H72.746V46.1948ZM109.903 46.1948H117.165V48.4448H109.903V46.1948ZM125.415 46.1948V48.4448H132.455V46.1948H125.415ZM140.705 46.1948H147.949V48.4448H140.705V46.1948ZM177.572 46.1948H184.833V48.4448H177.572V46.1948ZM193.083 46.1948V48.4448H200.123V46.1948H193.083ZM208.373 46.1948H215.618V48.4448H208.373V46.1948Z" fill="#FF5555" style="mix-blend-mode:multiply"/>
<path fill-rule="evenodd" clip-rule="evenodd" d="M17.2791 4.59824L16.0016 2.43914H7.63228L8.95851 4.59824H17.2791ZM20.2869 9.68157H12.081L18.3539 19.8937L7.42773 37.3482H15.8823L23.0414 25.4335H23.3141L26.6256 30.9448H29.5735L29.5458 30.9903L32.6895 36.0282H29.68L30.4732 37.3482H38.9618L28.0698 19.8937L34.3028 9.68157H26.0819L23.3141 14.3369H23.0414L20.2869 9.68157ZM29.1043 4.59824H37.4054L38.7232 2.43914H30.388L29.1043 4.59824ZM40.8573 11.1664V37.3482H48.1186V36.0282H42.3333V30.9448H48.1186V11.1664H40.8573ZM48.394 4.59824C48.415 4.43921 48.4255 4.27634 48.4255 4.1096C48.4255 3.1096 48.0391 2.25164 47.2664 1.53574C46.505 0.808461 45.5846 0.444824 44.505 0.444824C43.4255 0.444824 42.4993 0.808461 41.7266 1.53574C40.9652 2.25164 40.5846 3.1096 40.5846 4.1096C40.5846 4.27634 40.5949 4.43922 40.6156 4.59824H48.394ZM54.5354 36.9732C55.8422 37.5528 57.3309 37.8426 59.0013 37.8426C60.2968 37.8426 61.4388 37.6721 62.4275 37.3312C63.3364 37.0073 64.1253 36.573 64.7941 36.0282H53.626C53.966 35.6721 54.3463 35.3565 54.7671 35.0812C55.6875 34.4789 56.733 34.0244 57.9034 33.7176C59.0853 33.4107 60.3239 33.1948 61.6194 33.0698C63.1421 32.9107 64.3694 32.763 65.3012 32.6266C66.233 32.4789 66.9091 32.263 67.3296 31.9789C67.6908 31.7349 67.8968 31.3902 67.9477 30.9448H73.7456V19.6891C73.7456 18.1323 73.4445 16.7971 72.8422 15.6835C72.24 14.5585 71.4161 13.638 70.3706 12.9221C69.3365 12.2062 68.149 11.6778 66.8081 11.3369C65.4786 10.996 64.0865 10.8255 62.632 10.8255C60.5411 10.8255 58.7002 11.1437 57.1093 11.7801C55.5297 12.4051 54.24 13.3028 53.24 14.4732C52.24 15.6323 51.5695 17.0073 51.2286 18.5982L57.9445 19.1437C58.1945 18.2801 58.7059 17.5641 59.4786 16.996C60.2513 16.4164 61.2911 16.1266 62.5979 16.1266C63.8365 16.1266 64.7911 16.4221 65.4615 17.013C66.1434 17.6039 66.4843 18.4391 66.4843 19.5187V19.621C66.4843 20.1778 66.274 20.5982 65.8536 20.8823C65.4331 21.1664 64.757 21.3823 63.8252 21.5301C62.8934 21.6664 61.6661 21.8141 60.1434 21.9732C58.8479 22.0982 57.6093 22.3141 56.4275 22.621C55.257 22.9278 54.2115 23.3823 53.2911 23.9846C52.3706 24.5869 51.6434 25.3823 51.1093 26.371C50.5752 27.3596 50.3081 28.5812 50.3081 30.0357C50.3081 31.763 50.6831 33.2062 51.4331 34.3653C52.1945 35.513 53.2286 36.3823 54.5354 36.9732ZM66.8593 37.3482V36.0282H73.7456V37.3482H66.8593ZM63.9104 32.2005C63.0922 32.621 62.149 32.8312 61.0809 32.8312C59.9672 32.8312 59.0468 32.5755 58.3195 32.0641C57.6036 31.5414 57.2456 30.7857 57.2456 29.7971C57.2456 29.1153 57.4218 28.5471 57.774 28.0926C58.1263 27.6266 58.6206 27.2573 59.257 26.9846C59.8934 26.7119 60.6377 26.513 61.49 26.388C61.8877 26.3312 62.3309 26.2687 62.8195 26.2005C63.3081 26.121 63.7968 26.0357 64.2854 25.9448C64.774 25.8426 65.2115 25.7346 65.5979 25.621C65.9956 25.496 66.3081 25.3596 66.5354 25.2119V27.9903C66.5354 28.9107 66.3025 29.7346 65.8365 30.4619C65.3706 31.1891 64.7286 31.7687 63.9104 32.2005ZM81.9394 36.1721C83.8712 37.2971 86.161 37.8596 88.8087 37.8596C91.4564 37.8596 93.7405 37.2971 95.661 36.1721C95.7412 36.1249 95.8208 36.0769 95.8995 36.0282H95.7783C95.7863 35.8236 95.7904 35.6159 95.7904 35.4051C95.7904 33.8823 95.5802 32.5244 95.1597 31.3312C95.1145 31.1993 95.0669 31.0706 95.0168 30.9448H100.365C101.252 29.0244 101.695 26.8293 101.695 24.3596C101.695 21.6551 101.172 19.2914 100.127 17.2687C99.0814 15.2346 97.5928 13.6551 95.661 12.5301C93.7405 11.3937 91.4564 10.8255 88.8087 10.8255C86.161 10.8255 83.8712 11.3937 81.9394 12.5301C80.0189 13.6551 78.536 15.2346 77.4905 17.2687C76.4451 19.2914 75.9223 21.6551 75.9223 24.3596C75.9223 27.0414 76.4451 29.3994 77.4905 31.4335C77.571 31.5892 77.6541 31.7423 77.7398 31.8928C77.8057 31.5706 77.8811 31.2546 77.966 30.9448H85.4818C84.8071 30.283 84.2854 29.4288 83.9167 28.3823C83.5076 27.1891 83.303 25.8312 83.303 24.3085C83.303 22.7857 83.5076 21.4278 83.9167 20.2346C84.3371 19.0414 84.9564 18.0982 85.7746 17.4051C86.6042 16.7119 87.6269 16.3653 88.8428 16.3653C90.0473 16.3653 91.053 16.7119 91.8598 17.4051C92.6667 18.0982 93.2746 19.0414 93.6837 20.2346C94.1042 21.4278 94.3144 22.7857 94.3144 24.3085C94.3144 25.8312 94.1042 27.1891 93.6837 28.3823C93.2746 29.5755 92.6667 30.5187 91.8598 31.2119C91.053 31.8937 90.0473 32.2346 88.8428 32.2346C87.6269 32.2346 86.6042 31.8937 85.7746 31.2119C85.6886 31.139 85.6047 31.0633 85.5231 30.9849C85.4777 31.0979 85.4342 31.2133 85.3926 31.3312C84.9836 32.5244 84.779 33.8823 84.779 35.4051C84.779 35.6159 84.7829 35.8236 84.7908 36.0282H81.7023C81.7805 36.0769 81.8596 36.1249 81.9394 36.1721ZM104.017 11.1664V37.3482H111.278V36.0282H105.493V30.9448H111.278V21.6323C111.278 20.6664 111.466 19.8255 111.841 19.1096C112.216 18.3823 112.721 17.8198 113.358 17.4221C114.005 17.013 114.733 16.8085 115.539 16.8085C116.733 16.8085 117.693 17.1891 118.42 17.9505C119.159 18.7119 119.528 19.7346 119.528 21.0187V37.3482H126.568V36.0282H121.004V32.1153C121.004 31.6975 120.965 31.3073 120.887 30.9448H126.568V21.3596C126.568 19.996 126.937 18.8994 127.676 18.0698C128.414 17.2289 129.443 16.8085 130.761 16.8085C131.92 16.8085 132.886 17.1721 133.659 17.8994C134.431 18.6266 134.818 19.7176 134.818 21.1721V37.3482H142.062V36.0282H136.294V32.2687C136.294 31.7876 136.252 31.3463 136.167 30.9448H142.062V19.7403C142.062 16.8994 141.295 14.7062 139.761 13.1607C138.238 11.6039 136.255 10.8255 133.812 10.8255C131.892 10.8255 130.227 11.2801 128.818 12.1891C127.42 13.0869 126.454 14.2857 125.92 15.7857H125.647C125.227 14.263 124.386 13.0585 123.125 12.1721C121.863 11.2744 120.335 10.8255 118.539 10.8255C116.767 10.8255 115.244 11.2687 113.971 12.1551C112.698 13.0414 111.789 14.2516 111.244 15.7857H110.937V11.1664H104.017ZM150.375 36.2232C152.318 37.3141 154.637 37.8596 157.33 37.8596C159.489 37.8596 161.392 37.5301 163.04 36.871C163.648 36.6252 164.215 36.3442 164.741 36.0282H152.993H150.046C150.154 36.0947 150.264 36.1597 150.375 36.2232ZM163.738 30.9448H168.896C169.015 30.5904 169.114 30.2249 169.193 29.8482L162.477 29.4051C162.227 30.0641 161.864 30.621 161.387 31.0755C160.909 31.5301 160.335 31.871 159.665 32.0982C158.994 32.3255 158.256 32.4391 157.449 32.4391C156.233 32.4391 155.182 32.1835 154.296 31.6721C153.947 31.4709 153.629 31.2364 153.342 30.9684C153.143 31.5142 153.029 32.0954 153 32.7119H163.988C163.988 32.0792 163.904 31.4901 163.738 30.9448ZM152.233 29.4903C152.524 30.0516 152.885 30.5364 153.317 30.9448H146.392C146.298 31.2845 146.216 31.6313 146.145 31.9854C146.064 31.8436 145.985 31.6994 145.909 31.5528C144.864 29.5301 144.341 27.138 144.341 24.3766C144.341 21.6835 144.864 19.3198 145.909 17.2857C146.955 15.2516 148.426 13.6664 150.324 12.5301C152.233 11.3937 154.472 10.8255 157.04 10.8255C158.767 10.8255 160.375 11.1039 161.864 11.6607C163.364 12.2062 164.671 13.0301 165.784 14.1323C166.909 15.2346 167.784 16.621 168.409 18.2914C169.034 19.9505 169.347 21.8937 169.347 24.121V26.1153H151.517V26.1323C151.517 27.4278 151.756 28.5471 152.233 29.4903ZM151.524 21.6153C151.568 20.6751 151.81 19.8172 152.25 19.0414C152.727 18.1891 153.387 17.513 154.227 17.013C155.08 16.5016 156.057 16.246 157.159 16.246C158.216 16.246 159.142 16.4789 159.938 16.9448C160.744 17.3994 161.375 18.0301 161.83 18.8369C162.284 19.6437 162.512 20.5698 162.512 21.6153H151.524ZM171.685 11.1664V37.3482H178.947V36.0282H173.161V30.9448H178.947V21.6323C178.947 20.6664 179.134 19.8255 179.509 19.1096C179.884 18.3823 180.39 17.8198 181.026 17.4221C181.674 17.013 182.401 16.8085 183.208 16.8085C184.401 16.8085 185.362 17.1891 186.089 17.9505C186.827 18.7119 187.197 19.7346 187.197 21.0187V37.3482H194.237V36.0282H188.673V32.1153C188.673 31.6975 188.634 31.3073 188.555 30.9448H194.237V21.3596C194.237 19.996 194.606 18.8994 195.344 18.0698C196.083 17.2289 197.112 16.8085 198.43 16.8085C199.589 16.8085 200.555 17.1721 201.327 17.8994C202.1 18.6266 202.487 19.7176 202.487 21.1721V37.3482H209.731V36.0282H203.963V32.2687C203.963 31.7876 203.92 31.3463 203.836 30.9448H209.731V19.7403C209.731 16.8994 208.964 14.7062 207.43 13.1607C205.907 11.6039 203.924 10.8255 201.481 10.8255C199.56 10.8255 197.896 11.2801 196.487 12.1891C195.089 13.0869 194.123 14.2857 193.589 15.7857H193.316C192.896 14.263 192.055 13.0585 190.793 12.1721C189.532 11.2744 188.004 10.8255 186.208 10.8255C184.435 10.8255 182.913 11.2687 181.64 12.1551C180.367 13.0414 179.458 14.2516 178.913 15.7857H178.606V11.1664H171.685ZM218.044 36.2232C219.987 37.3141 222.305 37.8596 224.998 37.8596C227.158 37.8596 229.061 37.5301 230.709 36.871C231.317 36.6252 231.884 36.3442 232.41 36.0282H220.662H217.714C217.823 36.0947 217.933 36.1597 218.044 36.2232ZM231.407 30.9448H236.565C236.683 30.5904 236.783 30.2249 236.862 29.8482L230.146 29.4051C229.896 30.0641 229.533 30.621 229.055 31.0755C228.578 31.5301 228.004 31.871 227.334 32.0982C226.663 32.3255 225.925 32.4391 225.118 32.4391C223.902 32.4391 222.851 32.1835 221.964 31.6721C221.616 31.4709 221.298 31.2364 221.011 30.9684C220.811 31.5142 220.698 32.0954 220.669 32.7119H231.656C231.656 32.0792 231.573 31.4901 231.407 30.9448ZM219.902 29.4903C220.193 30.0516 220.554 30.5364 220.986 30.9448H214.06C213.967 31.2845 213.885 31.6313 213.814 31.9854C213.733 31.8436 213.654 31.6994 213.578 31.5528C212.533 29.5301 212.01 27.138 212.01 24.3766C212.01 21.6835 212.533 19.3198 213.578 17.2857C214.623 15.2516 216.095 13.6664 217.993 12.5301C219.902 11.3937 222.141 10.8255 224.709 10.8255C226.436 10.8255 228.044 11.1039 229.533 11.6607C231.033 12.2062 232.339 13.0301 233.453 14.1323C234.578 15.2346 235.453 16.621 236.078 18.2914C236.703 19.9505 237.016 21.8937 237.016 24.121V26.1153H219.186V26.1323C219.186 27.4278 219.425 28.5471 219.902 29.4903ZM219.193 21.6153C219.237 20.6751 219.479 19.8172 219.919 19.0414C220.396 18.1891 221.055 17.513 221.896 17.013C222.748 16.5016 223.726 16.246 224.828 16.246C225.885 16.246 226.811 16.4789 227.606 16.9448C228.413 17.3994 229.044 18.0301 229.498 18.8369C229.953 19.6437 230.18 20.5698 230.18 21.6153H219.193Z" fill="#FF5555" style="mix-blend-mode:multiply"/>
<path fill-rule="evenodd" clip-rule="evenodd" d="M10.6176 20.7782L7.49512 15.6948H15.8157L18.8235 20.7782H10.6176ZM39.1522 15.6948H46.9306C46.8242 16.5003 46.4483 17.2068 45.803 17.8141C45.0416 18.5301 44.1212 18.888 43.0416 18.888C41.9621 18.888 41.0359 18.5301 40.2632 17.8141C39.6274 17.2068 39.257 16.5003 39.1522 15.6948ZM35.942 15.6948L32.8394 20.7782H24.6185L27.6409 15.6948H35.942Z" fill="#88A3FF" style="mix-blend-mode:multiply"/>
<path fill-rule="evenodd" clip-rule="evenodd" d="M13.7363 36.0282L16.8899 30.9903L16.862 30.9448H26.6336L26.6058 30.9903L29.7496 36.0282H13.7363ZM46.6547 36.0282H39.3933V30.9448H46.6547V36.0282ZM72.2817 36.0282H50.686C51.026 35.6721 51.4064 35.3565 51.8271 35.0812C52.7476 34.4789 53.793 34.0244 54.9635 33.7176C56.1453 33.4107 57.384 33.1948 58.6794 33.0698C60.2021 32.9107 61.4294 32.763 62.3612 32.6266C63.293 32.4789 63.9692 32.263 64.3896 31.9789C64.7508 31.7349 64.9569 31.3902 65.0078 30.9448H72.2817V36.0282ZM109.814 36.0282H102.553V30.9448H110.07C109.899 31.4826 109.814 32.0773 109.814 32.7289V36.0282ZM125.104 36.0282H118.064V32.1153C118.064 31.6975 118.025 31.3073 117.947 30.9448H125.282C125.163 31.4057 125.104 31.9095 125.104 32.4562V36.0282ZM140.598 36.0282H133.354V32.2687C133.354 31.7876 133.312 31.3463 133.227 30.9448H140.598V36.0282ZM177.483 36.0282H170.221V30.9448H177.739C177.568 31.4826 177.483 32.0773 177.483 32.7289V36.0282ZM192.773 36.0282H185.733V32.1153C185.733 31.6975 185.694 31.3073 185.616 30.9448H192.951C192.832 31.4057 192.773 31.9095 192.773 32.4562V36.0282ZM208.267 36.0282H201.023V32.2687C201.023 31.7876 200.98 31.3463 200.896 30.9448H208.267V36.0282ZM235.089 30.9448C235.397 32.2289 235.552 33.6532 235.552 35.2176V36.0282H217.722H213.444H210.553C210.548 35.8449 210.546 35.6599 210.546 35.4732C210.546 33.843 210.737 32.3335 211.12 30.9448H218.079C217.875 31.4975 217.758 32.0865 217.729 32.7119H228.716C228.716 32.0792 228.633 31.4901 228.467 30.9448H235.089ZM167.42 30.9448C167.729 32.2289 167.883 33.6532 167.883 35.2176V36.0282H150.053H145.775H142.884C142.88 35.8449 142.877 35.6599 142.877 35.4732C142.877 33.843 143.069 32.3335 143.452 30.9448H150.411C150.206 31.4975 150.089 32.0865 150.06 32.7119H161.048C161.048 32.0792 160.964 31.4901 160.798 30.9448H167.42ZM99.6635 30.9448C100.042 32.3252 100.231 33.829 100.231 35.4562C100.231 35.6485 100.228 35.8392 100.223 36.0282H92.8383C92.8464 35.8236 92.8504 35.6159 92.8504 35.4051C92.8504 33.8823 92.6402 32.5244 92.2198 31.3312C92.1746 31.1993 92.1269 31.0706 92.0769 30.9448H99.6635ZM75.026 30.9448C74.6476 32.3252 74.4584 33.829 74.4584 35.4562C74.4584 35.6485 74.4611 35.8392 74.4665 36.0282H81.8508C81.843 35.8236 81.8391 35.6159 81.8391 35.4051C81.8391 33.8823 82.0436 32.5244 82.4527 31.3312C82.4992 31.1993 82.548 31.0706 82.5994 30.9448H75.026Z" fill="#88A3FF" style="mix-blend-mode:multiply"/>
<path fill-rule="evenodd" clip-rule="evenodd" d="M214.949 46.1948L232.255 46.1948C231.399 46.9115 230.396 47.5024 229.245 47.9676C227.597 48.6266 225.694 48.9562 223.535 48.9562C220.841 48.9562 218.523 48.4107 216.58 47.3198C215.996 46.9864 215.452 46.6114 214.949 46.1948ZM147.28 46.1948L164.586 46.1948C163.73 46.9115 162.727 47.5024 161.576 47.9676C159.928 48.6266 158.025 48.9562 155.866 48.9562C153.173 48.9562 150.854 48.4107 148.911 47.3198C148.327 46.9864 147.783 46.6114 147.28 46.1948ZM78.947 46.1948L95.7339 46.1948C95.2573 46.5884 94.745 46.9464 94.1971 47.2687C92.2767 48.3937 89.9926 48.9562 87.3448 48.9562C84.6971 48.9562 82.4073 48.3937 80.4755 47.2687C79.9308 46.9464 79.4213 46.5884 78.947 46.1948ZM39.3934 46.1948H46.6548V48.4448H39.3934V46.1948ZM36.0939 46.1948H27.6574L29.0093 48.4448H37.498L36.0939 46.1948ZM15.7703 46.1948L14.4184 48.4448H5.96387L7.37231 46.1948H15.7703ZM50.5251 46.1948H64.2703C64.0367 46.4712 63.7811 46.7326 63.5034 46.9789C62.7988 47.5926 61.9522 48.0755 60.9636 48.4278C59.9749 48.7687 58.8329 48.9391 57.5374 48.9391C55.867 48.9391 54.3784 48.6494 53.0715 48.0698C52.059 47.612 51.2102 46.987 50.5251 46.1948ZM65.3954 46.1948H72.2818V48.4448H65.3954V46.1948ZM102.553 46.1948H109.814V48.4448H102.553V46.1948ZM118.064 46.1948V48.4448H125.104V46.1948H118.064ZM133.354 46.1948H140.598V48.4448H133.354V46.1948ZM170.222 46.1948H177.483V48.4448H170.222V46.1948ZM185.733 46.1948V48.4448H192.773V46.1948H185.733ZM201.023 46.1948H208.267V48.4448H201.023V46.1948Z" fill="#88A3FF" style="mix-blend-mode:multiply"/>
<path fill-rule="evenodd" clip-rule="evenodd" d="M9.9295 4.59824L8.65199 2.43914H0.28267L1.6089 4.59824H9.9295ZM12.9373 9.68157H4.73138L11.0043 19.8937L0.078125 37.3482H8.53267L15.6918 25.4335H15.9645L19.276 30.9448H22.2239L22.1962 30.9903L25.3399 36.0282H22.3304L23.1236 37.3482H31.6122L20.7202 19.8937L26.9531 9.68157H18.7323L15.9645 14.3369H15.6918L12.9373 9.68157ZM21.7546 4.59824H30.0558L31.3736 2.43914H23.0384L21.7546 4.59824ZM33.5077 11.1664V37.3482H40.769V36.0282H34.9837V30.9448H40.769V11.1664H33.5077ZM41.0443 4.59824C41.0653 4.43921 41.0759 4.27634 41.0759 4.1096C41.0759 3.1096 40.6895 2.25164 39.9168 1.53574C39.1554 0.808461 38.2349 0.444824 37.1554 0.444824C36.0759 0.444824 35.1497 0.808461 34.377 1.53574C33.6156 2.25164 33.2349 3.1096 33.2349 4.1096C33.2349 4.27634 33.2453 4.43922 33.266 4.59824H41.0443ZM47.1858 36.9732C48.4926 37.5528 49.9813 37.8426 51.6517 37.8426C52.9472 37.8426 54.0892 37.6721 55.0778 37.3312C55.9868 37.0073 56.7757 36.573 57.4445 36.0282H46.2764C46.6164 35.6721 46.9967 35.3565 47.4175 35.0812C48.3379 34.4789 49.3834 34.0244 50.5538 33.7176C51.7357 33.4107 52.9743 33.1948 54.2697 33.0698C55.7925 32.9107 57.0197 32.763 57.9516 32.6266C58.8834 32.4789 59.5595 32.263 59.98 31.9789C60.3412 31.7349 60.5472 31.3902 60.5981 30.9448H66.396V19.6891C66.396 18.1323 66.0949 16.7971 65.4926 15.6835C64.8903 14.5585 64.0665 13.638 63.021 12.9221C61.9869 12.2062 60.7994 11.6778 59.4585 11.3369C58.129 10.996 56.7369 10.8255 55.2824 10.8255C53.1915 10.8255 51.3506 11.1437 49.7597 11.7801C48.1801 12.4051 46.8903 13.3028 45.8903 14.4732C44.8903 15.6323 44.2199 17.0073 43.879 18.5982L50.5949 19.1437C50.8449 18.2801 51.3563 17.5641 52.129 16.996C52.9017 16.4164 53.9415 16.1266 55.2483 16.1266C56.4869 16.1266 57.4415 16.4221 58.1119 17.013C58.7938 17.6039 59.1347 18.4391 59.1347 19.5187V19.621C59.1347 20.1778 58.9244 20.5982 58.504 20.8823C58.0835 21.1664 57.4074 21.3823 56.4756 21.5301C55.5438 21.6664 54.3165 21.8141 52.7938 21.9732C51.4983 22.0982 50.2597 22.3141 49.0778 22.621C47.9074 22.9278 46.8619 23.3823 45.9415 23.9846C45.021 24.5869 44.2938 25.3823 43.7597 26.371C43.2256 27.3596 42.9585 28.5812 42.9585 30.0357C42.9585 31.763 43.3335 33.2062 44.0835 34.3653C44.8449 35.513 45.879 36.3823 47.1858 36.9732ZM59.5097 37.3482V36.0282H66.396V37.3482H59.5097ZM56.5608 32.2005C55.7426 32.621 54.7994 32.8312 53.7313 32.8312C52.6176 32.8312 51.6972 32.5755 50.9699 32.0641C50.254 31.5414 49.896 30.7857 49.896 29.7971C49.896 29.1153 50.0722 28.5471 50.4244 28.0926C50.7767 27.6266 51.271 27.2573 51.9074 26.9846C52.5438 26.7119 53.2881 26.513 54.1403 26.388C54.5381 26.3312 54.9813 26.2687 55.4699 26.2005C55.9585 26.121 56.4472 26.0357 56.9358 25.9448C57.4244 25.8426 57.8619 25.7346 58.2483 25.621C58.646 25.496 58.9585 25.3596 59.1858 25.2119V27.9903C59.1858 28.9107 58.9528 29.7346 58.4869 30.4619C58.021 31.1891 57.379 31.7687 56.5608 32.2005ZM74.5898 36.1721C76.5216 37.2971 78.8114 37.8596 81.4591 37.8596C84.1068 37.8596 86.3909 37.2971 88.3114 36.1721C88.3916 36.1249 88.4711 36.0769 88.5499 36.0282H88.4287C88.4367 35.8236 88.4408 35.6159 88.4408 35.4051C88.4408 33.8823 88.2305 32.5244 87.8101 31.3312C87.7649 31.1993 87.7173 31.0706 87.6672 30.9448H93.0155C93.9021 29.0244 94.3455 26.8293 94.3455 24.3596C94.3455 21.6551 93.8227 19.2914 92.7773 17.2687C91.7318 15.2346 90.2432 13.6551 88.3114 12.5301C86.3909 11.3937 84.1068 10.8255 81.4591 10.8255C78.8114 10.8255 76.5216 11.3937 74.5898 12.5301C72.6693 13.6551 71.1864 15.2346 70.1409 17.2687C69.0955 19.2914 68.5727 21.6551 68.5727 24.3596C68.5727 27.0414 69.0955 29.3994 70.1409 31.4335C70.2214 31.5892 70.3045 31.7423 70.3902 31.8928C70.4561 31.5706 70.5315 31.2546 70.6164 30.9448H78.1322C77.4575 30.283 76.9358 29.4288 76.567 28.3823C76.158 27.1891 75.9534 25.8312 75.9534 24.3085C75.9534 22.7857 76.158 21.4278 76.567 20.2346C76.9875 19.0414 77.6068 18.0982 78.425 17.4051C79.2545 16.7119 80.2773 16.3653 81.4932 16.3653C82.6977 16.3653 83.7034 16.7119 84.5102 17.4051C85.317 18.0982 85.925 19.0414 86.3341 20.2346C86.7545 21.4278 86.9648 22.7857 86.9648 24.3085C86.9648 25.8312 86.7545 27.1891 86.3341 28.3823C85.925 29.5755 85.317 30.5187 84.5102 31.2119C83.7034 31.8937 82.6977 32.2346 81.4932 32.2346C80.2773 32.2346 79.2545 31.8937 78.425 31.2119C78.339 31.139 78.2551 31.0633 78.1735 30.9849C78.1281 31.0979 78.0846 31.2133 78.043 31.3312C77.6339 32.5244 77.4294 33.8823 77.4294 35.4051C77.4294 35.6159 77.4333 35.8236 77.4412 36.0282H74.3527C74.4309 36.0769 74.51 36.1249 74.5898 36.1721ZM96.667 11.1664V37.3482H103.928V36.0282H98.143V30.9448H103.928V21.6323C103.928 20.6664 104.116 19.8255 104.491 19.1096C104.866 18.3823 105.372 17.8198 106.008 17.4221C106.656 17.013 107.383 16.8085 108.19 16.8085C109.383 16.8085 110.343 17.1891 111.07 17.9505C111.809 18.7119 112.178 19.7346 112.178 21.0187V37.3482H119.218V36.0282H113.654V32.1153C113.654 31.6975 113.615 31.3073 113.537 30.9448H119.218V21.3596C119.218 19.996 119.588 18.8994 120.326 18.0698C121.065 17.2289 122.093 16.8085 123.411 16.8085C124.57 16.8085 125.536 17.1721 126.309 17.8994C127.082 18.6266 127.468 19.7176 127.468 21.1721V37.3482H134.713V36.0282H128.944V32.2687C128.944 31.7876 128.902 31.3463 128.817 30.9448H134.713V19.7403C134.713 16.8994 133.945 14.7062 132.411 13.1607C130.889 11.6039 128.906 10.8255 126.463 10.8255C124.542 10.8255 122.877 11.2801 121.468 12.1891C120.07 13.0869 119.105 14.2857 118.57 15.7857H118.298C117.877 14.263 117.036 13.0585 115.775 12.1721C114.514 11.2744 112.985 10.8255 111.19 10.8255C109.417 10.8255 107.894 11.2687 106.622 12.1551C105.349 13.0414 104.44 14.2516 103.894 15.7857H103.588V11.1664H96.667ZM143.026 36.2232C144.969 37.3141 147.287 37.8596 149.98 37.8596C152.139 37.8596 154.043 37.5301 155.69 36.871C156.299 36.6252 156.866 36.3442 157.391 36.0282H145.644H142.696C142.804 36.0947 142.914 36.1597 143.026 36.2232ZM156.388 30.9448H161.546C161.665 30.5904 161.764 30.2249 161.844 29.8482L155.128 29.4051C154.878 30.0641 154.514 30.621 154.037 31.0755C153.56 31.5301 152.986 31.871 152.315 32.0982C151.645 32.3255 150.906 32.4391 150.099 32.4391C148.884 32.4391 147.832 32.1835 146.946 31.6721C146.597 31.4709 146.279 31.2364 145.992 30.9684C145.793 31.5142 145.679 32.0954 145.65 32.7119H156.638C156.638 32.0792 156.555 31.4901 156.388 30.9448ZM144.884 29.4903C145.174 30.0516 145.536 30.5364 145.967 30.9448H139.042C138.948 31.2845 138.866 31.6313 138.795 31.9854C138.714 31.8436 138.636 31.6994 138.56 31.5528C137.514 29.5301 136.991 27.138 136.991 24.3766C136.991 21.6835 137.514 19.3198 138.56 17.2857C139.605 15.2516 141.077 13.6664 142.974 12.5301C144.884 11.3937 147.122 10.8255 149.69 10.8255C151.418 10.8255 153.026 11.1039 154.514 11.6607C156.014 12.2062 157.321 13.0301 158.435 14.1323C159.56 15.2346 160.435 16.621 161.06 18.2914C161.685 19.9505 161.997 21.8937 161.997 24.121V26.1153H144.168V26.1323C144.168 27.4278 144.406 28.5471 144.884 29.4903ZM144.174 21.6153C144.218 20.6751 144.46 19.8172 144.901 19.0414C145.378 18.1891 146.037 17.513 146.878 17.013C147.73 16.5016 148.707 16.246 149.81 16.246C150.866 16.246 151.793 16.4789 152.588 16.9448C153.395 17.3994 154.026 18.0301 154.48 18.8369C154.935 19.6437 155.162 20.5698 155.162 21.6153H144.174ZM164.336 11.1664V37.3482H171.597V36.0282H165.812V30.9448H171.597V21.6323C171.597 20.6664 171.785 19.8255 172.16 19.1096C172.535 18.3823 173.04 17.8198 173.677 17.4221C174.324 17.013 175.052 16.8085 175.859 16.8085C177.052 16.8085 178.012 17.1891 178.739 17.9505C179.478 18.7119 179.847 19.7346 179.847 21.0187V37.3482H186.887V36.0282H181.323V32.1153C181.323 31.6975 181.284 31.3073 181.206 30.9448H186.887V21.3596C186.887 19.996 187.256 18.8994 187.995 18.0698C188.734 17.2289 189.762 16.8085 191.08 16.8085C192.239 16.8085 193.205 17.1721 193.978 17.8994C194.751 18.6266 195.137 19.7176 195.137 21.1721V37.3482H202.381V36.0282H196.613V32.2687C196.613 31.7876 196.571 31.3463 196.486 30.9448H202.381V19.7403C202.381 16.8994 201.614 14.7062 200.08 13.1607C198.557 11.6039 196.574 10.8255 194.131 10.8255C192.211 10.8255 190.546 11.2801 189.137 12.1891C187.739 13.0869 186.773 14.2857 186.239 15.7857H185.966C185.546 14.263 184.705 13.0585 183.444 12.1721C182.182 11.2744 180.654 10.8255 178.859 10.8255C177.086 10.8255 175.563 11.2687 174.29 12.1551C173.018 13.0414 172.109 14.2516 171.563 15.7857H171.256V11.1664H164.336ZM210.694 36.2232C212.638 37.3141 214.956 37.8596 217.649 37.8596C219.808 37.8596 221.711 37.5301 223.359 36.871C223.967 36.6252 224.534 36.3442 225.06 36.0282H213.312H210.365C210.473 36.0947 210.583 36.1597 210.694 36.2232ZM224.057 30.9448H229.215C229.334 30.5904 229.433 30.2249 229.513 29.8482L222.797 29.4051C222.547 30.0641 222.183 30.621 221.706 31.0755C221.228 31.5301 220.655 31.871 219.984 32.0982C219.314 32.3255 218.575 32.4391 217.768 32.4391C216.552 32.4391 215.501 32.1835 214.615 31.6721C214.266 31.4709 213.948 31.2364 213.661 30.9684C213.462 31.5142 213.348 32.0954 213.319 32.7119H224.307C224.307 32.0792 224.223 31.4901 224.057 30.9448ZM212.552 29.4903C212.843 30.0516 213.204 30.5364 213.636 30.9448H206.711C206.617 31.2845 206.535 31.6313 206.464 31.9854C206.383 31.8436 206.305 31.6994 206.228 31.5528C205.183 29.5301 204.66 27.138 204.66 24.3766C204.66 21.6835 205.183 19.3198 206.228 17.2857C207.274 15.2516 208.745 13.6664 210.643 12.5301C212.552 11.3937 214.791 10.8255 217.359 10.8255C219.086 10.8255 220.694 11.1039 222.183 11.6607C223.683 12.2062 224.99 13.0301 226.103 14.1323C227.228 15.2346 228.103 16.621 228.728 18.2914C229.353 19.9505 229.666 21.8937 229.666 24.121V26.1153H211.836V26.1323C211.836 27.4278 212.075 28.5471 212.552 29.4903ZM211.843 21.6153C211.887 20.6751 212.129 19.8172 212.569 19.0414C213.047 18.1891 213.706 17.513 214.547 17.013C215.399 16.5016 216.376 16.246 217.478 16.246C218.535 16.246 219.461 16.4789 220.257 16.9448C221.064 17.3994 221.694 18.0301 222.149 18.8369C222.603 19.6437 222.831 20.5698 222.831 21.6153H211.843Z" fill="#88A3FF" style="mix-blend-mode:multiply"/>
</svg>
