<svg width="243" height="49" viewBox="0 0 243 49" fill="none" xmlns="http://www.w3.org/2000/svg">
<path fill-rule="evenodd" clip-rule="evenodd" d="M17.9677 20.7782L14.8452 15.6948H23.1658L26.1736 20.7782H17.9677ZM46.5023 15.6948H54.2806C54.1743 16.5003 53.7984 17.2068 53.1531 17.8141C52.3917 18.5301 51.4712 18.888 50.3917 18.888C49.3122 18.888 48.386 18.5301 47.6133 17.8141C46.9774 17.2068 46.6071 16.5003 46.5023 15.6948ZM43.2921 15.6948L40.1895 20.7782H31.9686L34.991 15.6948H43.2921Z" fill="white"/>
<path fill-rule="evenodd" clip-rule="evenodd" d="M21.0869 36.0282L24.2405 30.9903L24.2126 30.9448H33.9842L33.9564 30.9903L37.1002 36.0282H21.0869ZM54.0053 36.0282H46.7439V30.9448H54.0053V36.0282ZM79.6323 36.0282H58.0366C58.3766 35.6721 58.757 35.3565 59.1777 35.0812C60.0982 34.4789 61.1436 34.0244 62.3141 33.7176C63.4959 33.4107 64.7345 33.1948 66.03 33.0698C67.5527 32.9107 68.78 32.763 69.7118 32.6266C70.6436 32.4789 71.3198 32.263 71.7402 31.9789C72.1014 31.7349 72.3075 31.3902 72.3584 30.9448H79.6323V36.0282ZM117.165 36.0282H109.903V30.9448H117.421C117.25 31.4826 117.165 32.0773 117.165 32.7289V36.0282ZM132.454 36.0282H125.415V32.1153C125.415 31.6975 125.376 31.3073 125.297 30.9448H132.633C132.514 31.4057 132.454 31.9095 132.454 32.4562V36.0282ZM147.949 36.0282H140.704V32.2687C140.704 31.7876 140.662 31.3463 140.578 30.9448H147.949V36.0282ZM184.833 36.0282H177.572V30.9448H185.089C184.919 31.4826 184.833 32.0773 184.833 32.7289V36.0282ZM200.123 36.0282H193.083V32.1153C193.083 31.6975 193.044 31.3073 192.966 30.9448H200.301C200.183 31.4057 200.123 31.9095 200.123 32.4562V36.0282ZM215.617 36.0282H208.373V32.2687C208.373 31.7876 208.331 31.3463 208.246 30.9448H215.617V36.0282ZM242.44 30.9448C242.748 32.2289 242.902 33.6532 242.902 35.2176V36.0282H225.073H220.794H217.904C217.899 35.8449 217.896 35.6599 217.896 35.4732C217.896 33.843 218.088 32.3335 218.471 30.9448H225.43C225.225 31.4975 225.109 32.0865 225.079 32.7119H236.067C236.067 32.0791 235.984 31.4901 235.817 30.9448H242.44ZM174.771 30.9448C175.079 32.2289 175.233 33.6532 175.233 35.2176V36.0282H157.404H153.125H150.235C150.23 35.8449 150.228 35.6599 150.228 35.4732C150.228 33.843 150.419 32.3335 150.802 30.9448H157.761C157.557 31.4975 157.44 32.0865 157.411 32.7119H168.398C168.398 32.0791 168.315 31.4901 168.148 30.9448H174.771ZM107.014 30.9448C107.392 32.3252 107.582 33.829 107.582 35.4562C107.582 35.6485 107.579 35.8392 107.574 36.0282H100.189C100.197 35.8236 100.201 35.6159 100.201 35.4051C100.201 33.8823 99.9908 32.5244 99.5703 31.3312C99.5251 31.1993 99.4775 31.0706 99.4274 30.9448H107.014ZM82.3766 30.9448C81.9982 32.3252 81.809 33.829 81.809 35.4562C81.809 35.6485 81.8117 35.8392 81.817 36.0282H89.2014C89.1936 35.8236 89.1897 35.6159 89.1897 35.4051C89.1897 33.8823 89.3942 32.5244 89.8033 31.3312C89.8497 31.1993 89.8986 31.0706 89.95 30.9448H82.3766Z" fill="white"/>
<path fill-rule="evenodd" clip-rule="evenodd" d="M222.299 46.1948H239.605C238.75 46.9115 237.746 47.5024 236.595 47.9676C234.948 48.6266 233.044 48.9562 230.885 48.9562C228.192 48.9562 225.874 48.4107 223.931 47.3198C223.346 46.9864 222.803 46.6114 222.299 46.1948ZM154.631 46.1948H171.937C171.081 46.9115 170.078 47.5024 168.927 47.9676C167.279 48.6266 165.376 48.9562 163.216 48.9562C160.523 48.9562 158.205 48.4107 156.262 47.3198C155.678 46.9864 155.134 46.6114 154.631 46.1948ZM86.2976 46.1948H103.084C102.608 46.5884 102.096 46.9464 101.548 47.2687C99.6272 48.3937 97.3431 48.9562 94.6954 48.9562C92.0477 48.9562 89.7579 48.3937 87.8261 47.2687C87.2814 46.9464 86.7719 46.5884 86.2976 46.1948ZM46.744 46.1948H54.0054V48.4448H46.744V46.1948ZM43.4445 46.1948H35.008L36.3599 48.4448H44.8485L43.4445 46.1948ZM23.1209 46.1948L21.769 48.4448H13.3145L14.7229 46.1948H23.1209ZM57.8756 46.1948H71.6209C71.3873 46.4712 71.1317 46.7326 70.8539 46.9789C70.1494 47.5926 69.3028 48.0755 68.3142 48.4278C67.3255 48.7687 66.1835 48.9391 64.888 48.9391C63.2176 48.9391 61.7289 48.6494 60.4221 48.0698C59.4096 47.612 58.5607 46.987 57.8756 46.1948ZM72.746 46.1948H79.6323V48.4448H72.746V46.1948ZM109.903 46.1948H117.165V48.4448H109.903V46.1948ZM125.415 46.1948V48.4448H132.455V46.1948H125.415ZM140.705 46.1948H147.949V48.4448H140.705V46.1948ZM177.572 46.1948H184.833V48.4448H177.572V46.1948ZM193.083 46.1948V48.4448H200.123V46.1948H193.083ZM208.373 46.1948H215.618V48.4448H208.373V46.1948Z" fill="white"/>
<path fill-rule="evenodd" clip-rule="evenodd" d="M17.2801 4.59824L16.0026 2.43914H7.63326L8.95949 4.59824H17.2801ZM20.2878 9.68157H12.082L18.3548 19.8937L7.42871 37.3482H15.8833L23.0423 25.4335H23.3151L26.6266 30.9448H29.5745L29.5467 30.9903L32.6905 36.0282H29.681L30.4742 37.3482H38.9628L28.0708 19.8937L34.3037 9.68157H26.0829L23.3151 14.3369H23.0423L20.2878 9.68157ZM29.1052 4.59824H37.4064L38.7242 2.43914H30.3889L29.1052 4.59824ZM40.8583 11.1664V37.3482H48.1196V36.0282H42.3342V30.9448H48.1196V11.1664H40.8583ZM48.3949 4.59824C48.4159 4.43921 48.4264 4.27634 48.4264 4.1096C48.4264 3.1096 48.0401 2.25164 47.2673 1.53574C46.506 0.808461 45.5855 0.444824 44.506 0.444824C43.4264 0.444824 42.5003 0.808461 41.7276 1.53574C40.9662 2.25164 40.5855 3.1096 40.5855 4.1096C40.5855 4.27634 40.5959 4.43922 40.6166 4.59824H48.3949ZM54.5364 36.9732C55.8432 37.5528 57.3318 37.8426 59.0023 37.8426C60.2977 37.8426 61.4398 37.6721 62.4284 37.3312C63.3374 37.0073 64.1263 36.573 64.7951 36.0282H53.6269C53.9669 35.6721 54.3473 35.3565 54.7681 35.0812C55.6885 34.4789 56.734 34.0244 57.9044 33.7176C59.0862 33.4107 60.3249 33.1948 61.6203 33.0698C63.1431 32.9107 64.3703 32.763 65.3021 32.6266C66.234 32.4789 66.9101 32.263 67.3306 31.9789C67.6918 31.7349 67.8978 31.3902 67.9487 30.9448H73.7466V19.6891C73.7466 18.1323 73.4455 16.7971 72.8432 15.6835C72.2409 14.5585 71.4171 13.638 70.3716 12.9221C69.3375 12.2062 68.15 11.6778 66.8091 11.3369C65.4796 10.996 64.0875 10.8255 62.633 10.8255C60.5421 10.8255 58.7012 11.1437 57.1102 11.7801C55.5307 12.4051 54.2409 13.3028 53.2409 14.4732C52.2409 15.6323 51.5705 17.0073 51.2296 18.5982L57.9455 19.1437C58.1955 18.2801 58.7068 17.5641 59.4796 16.996C60.2523 16.4164 61.2921 16.1266 62.5989 16.1266C63.8375 16.1266 64.7921 16.4221 65.4625 17.013C66.1443 17.6039 66.4852 18.4391 66.4852 19.5187V19.621C66.4852 20.1778 66.275 20.5982 65.8546 20.8823C65.4341 21.1664 64.758 21.3823 63.8262 21.5301C62.8943 21.6664 61.6671 21.8141 60.1443 21.9732C58.8489 22.0982 57.6102 22.3141 56.4284 22.621C55.258 22.9278 54.2125 23.3823 53.2921 23.9846C52.3716 24.5869 51.6443 25.3823 51.1102 26.371C50.5762 27.3596 50.3091 28.5812 50.3091 30.0357C50.3091 31.763 50.6841 33.2062 51.4341 34.3653C52.1955 35.513 53.2296 36.3823 54.5364 36.9732ZM66.8602 37.3482V36.0282H73.7466V37.3482H66.8602ZM63.9114 32.2005C63.0932 32.621 62.15 32.8312 61.0818 32.8312C59.9682 32.8312 59.0477 32.5755 58.3205 32.0641C57.6046 31.5414 57.2466 30.7857 57.2466 29.7971C57.2466 29.1153 57.4227 28.5471 57.775 28.0926C58.1273 27.6266 58.6216 27.2573 59.258 26.9846C59.8943 26.7119 60.6387 26.513 61.4909 26.388C61.8887 26.3312 62.3318 26.2687 62.8205 26.2005C63.3091 26.121 63.7977 26.0357 64.2864 25.9448C64.775 25.8426 65.2125 25.7346 65.5989 25.621C65.9966 25.496 66.3091 25.3596 66.5364 25.2119V27.9903C66.5364 28.9107 66.3034 29.7346 65.8375 30.4619C65.3716 31.1891 64.7296 31.7687 63.9114 32.2005ZM81.9404 36.1721C83.8722 37.2971 86.1619 37.8596 88.8097 37.8596C91.4574 37.8596 93.7415 37.2971 95.6619 36.1721C95.7422 36.1249 95.8217 36.0769 95.9005 36.0282H95.7793C95.7873 35.8236 95.7914 35.6159 95.7914 35.4051C95.7914 33.8823 95.5811 32.5244 95.1607 31.3312C95.1155 31.1993 95.0678 31.0706 95.0178 30.9448H100.366C101.253 29.0244 101.696 26.8293 101.696 24.3596C101.696 21.6551 101.173 19.2914 100.128 17.2687C99.0824 15.2346 97.5938 13.6551 95.6619 12.5301C93.7415 11.3937 91.4574 10.8255 88.8097 10.8255C86.1619 10.8255 83.8722 11.3937 81.9404 12.5301C80.0199 13.6551 78.5369 15.2346 77.4915 17.2687C76.446 19.2914 75.9233 21.6551 75.9233 24.3596C75.9233 27.0414 76.446 29.3994 77.4915 31.4335C77.572 31.5892 77.6551 31.7423 77.7408 31.8928C77.8066 31.5706 77.882 31.2546 77.967 30.9448H85.4828C84.8081 30.283 84.2864 29.4288 83.9176 28.3823C83.5085 27.1891 83.304 25.8312 83.304 24.3085C83.304 22.7857 83.5085 21.4278 83.9176 20.2346C84.3381 19.0414 84.9574 18.0982 85.7756 17.4051C86.6051 16.7119 87.6279 16.3653 88.8438 16.3653C90.0483 16.3653 91.054 16.7119 91.8608 17.4051C92.6676 18.0982 93.2756 19.0414 93.6847 20.2346C94.1051 21.4278 94.3154 22.7857 94.3154 24.3085C94.3154 25.8312 94.1051 27.1891 93.6847 28.3823C93.2756 29.5755 92.6676 30.5187 91.8608 31.2119C91.054 31.8937 90.0483 32.2346 88.8438 32.2346C87.6279 32.2346 86.6051 31.8937 85.7756 31.2119C85.6895 31.139 85.6057 31.0633 85.5241 30.9849C85.4786 31.0979 85.4352 31.2133 85.3936 31.3312C84.9845 32.5244 84.78 33.8823 84.78 35.4051C84.78 35.6159 84.7839 35.8236 84.7918 36.0282H81.7032C81.7815 36.0769 81.8606 36.1249 81.9404 36.1721ZM104.018 11.1664V37.3482H111.279V36.0282H105.494V30.9448H111.279V21.6323C111.279 20.6664 111.466 19.8255 111.841 19.1096C112.216 18.3823 112.722 17.8198 113.359 17.4221C114.006 17.013 114.734 16.8085 115.54 16.8085C116.734 16.8085 117.694 17.1891 118.421 17.9505C119.16 18.7119 119.529 19.7346 119.529 21.0187V37.3482H126.569V36.0282H121.005V32.1153C121.005 31.6975 120.966 31.3073 120.888 30.9448H126.569V21.3596C126.569 19.996 126.938 18.8994 127.677 18.0698C128.415 17.2289 129.444 16.8085 130.762 16.8085C131.921 16.8085 132.887 17.1721 133.66 17.8994C134.432 18.6266 134.819 19.7176 134.819 21.1721V37.3482H142.063V36.0282H136.295V32.2687C136.295 31.7876 136.253 31.3463 136.168 30.9448H142.063V19.7403C142.063 16.8994 141.296 14.7062 139.762 13.1607C138.239 11.6039 136.256 10.8255 133.813 10.8255C131.893 10.8255 130.228 11.2801 128.819 12.1891C127.421 13.0869 126.455 14.2857 125.921 15.7857H125.648C125.228 14.263 124.387 13.0585 123.126 12.1721C121.864 11.2744 120.336 10.8255 118.54 10.8255C116.768 10.8255 115.245 11.2687 113.972 12.1551C112.699 13.0414 111.79 14.2516 111.245 15.7857H110.938V11.1664H104.018ZM150.376 36.2232C152.319 37.3141 154.638 37.8596 157.331 37.8596C159.49 37.8596 161.393 37.5301 163.041 36.871C163.649 36.6252 164.216 36.3442 164.742 36.0282H152.994H150.047C150.155 36.0947 150.265 36.1597 150.376 36.2232ZM163.739 30.9448H168.897C169.016 30.5904 169.115 30.2249 169.194 29.8482L162.478 29.4051C162.228 30.0641 161.865 30.621 161.388 31.0755C160.91 31.5301 160.336 31.871 159.666 32.0982C158.995 32.3255 158.257 32.4391 157.45 32.4391C156.234 32.4391 155.183 32.1835 154.297 31.6721C153.948 31.4709 153.63 31.2364 153.343 30.9684C153.144 31.5142 153.03 32.0954 153.001 32.7119H163.989C163.989 32.0792 163.905 31.4901 163.739 30.9448ZM152.234 29.4903C152.525 30.0516 152.886 30.5364 153.318 30.9448H146.393C146.299 31.2845 146.217 31.6313 146.146 31.9854C146.065 31.8436 145.986 31.6994 145.91 31.5528C144.865 29.5301 144.342 27.138 144.342 24.3766C144.342 21.6835 144.865 19.3198 145.91 17.2857C146.956 15.2516 148.427 13.6664 150.325 12.5301C152.234 11.3937 154.473 10.8255 157.041 10.8255C158.768 10.8255 160.376 11.1039 161.865 11.6607C163.365 12.2062 164.672 13.0301 165.785 14.1323C166.91 15.2346 167.785 16.621 168.41 18.2914C169.035 19.9505 169.348 21.8937 169.348 24.121V26.1153H151.518V26.1323C151.518 27.4278 151.757 28.5471 152.234 29.4903ZM151.525 21.6153C151.569 20.6751 151.811 19.8172 152.251 19.0414C152.728 18.1891 153.388 17.513 154.228 17.013C155.081 16.5016 156.058 16.246 157.16 16.246C158.217 16.246 159.143 16.4789 159.939 16.9448C160.745 17.3994 161.376 18.0301 161.831 18.8369C162.285 19.6437 162.513 20.5698 162.513 21.6153H151.525ZM171.686 11.1664V37.3482H178.948V36.0282H173.162V30.9448H178.948V21.6323C178.948 20.6664 179.135 19.8255 179.51 19.1096C179.885 18.3823 180.391 17.8198 181.027 17.4221C181.675 17.013 182.402 16.8085 183.209 16.8085C184.402 16.8085 185.363 17.1891 186.09 17.9505C186.828 18.7119 187.198 19.7346 187.198 21.0187V37.3482H194.238V36.0282H188.674V32.1153C188.674 31.6975 188.635 31.3073 188.556 30.9448H194.238V21.3596C194.238 19.996 194.607 18.8994 195.345 18.0698C196.084 17.2289 197.113 16.8085 198.431 16.8085C199.59 16.8085 200.556 17.1721 201.328 17.8994C202.101 18.6266 202.488 19.7176 202.488 21.1721V37.3482H209.732V36.0282H203.964V32.2687C203.964 31.7876 203.921 31.3463 203.837 30.9448H209.732V19.7403C209.732 16.8994 208.965 14.7062 207.431 13.1607C205.908 11.6039 203.925 10.8255 201.482 10.8255C199.561 10.8255 197.897 11.2801 196.488 12.1891C195.09 13.0869 194.124 14.2857 193.59 15.7857H193.317C192.897 14.263 192.056 13.0585 190.794 12.1721C189.533 11.2744 188.005 10.8255 186.209 10.8255C184.436 10.8255 182.914 11.2687 181.641 12.1551C180.368 13.0414 179.459 14.2516 178.914 15.7857H178.607V11.1664H171.686ZM218.045 36.2232C219.988 37.3141 222.306 37.8596 224.999 37.8596C227.159 37.8596 229.062 37.5301 230.71 36.871C231.318 36.6252 231.885 36.3442 232.411 36.0282H220.663H217.715C217.824 36.0947 217.934 36.1597 218.045 36.2232ZM231.408 30.9448H236.566C236.684 30.5904 236.784 30.2249 236.863 29.8482L230.147 29.4051C229.897 30.0641 229.534 30.621 229.056 31.0755C228.579 31.5301 228.005 31.871 227.335 32.0982C226.664 32.3255 225.926 32.4391 225.119 32.4391C223.903 32.4391 222.852 32.1835 221.965 31.6721C221.617 31.4709 221.299 31.2364 221.012 30.9684C220.812 31.5142 220.699 32.0954 220.67 32.7119H231.657C231.657 32.0792 231.574 31.4901 231.408 30.9448ZM219.903 29.4903C220.194 30.0516 220.555 30.5364 220.987 30.9448H214.061C213.968 31.2845 213.885 31.6313 213.815 31.9854C213.734 31.8436 213.655 31.6994 213.579 31.5528C212.534 29.5301 212.011 27.138 212.011 24.3766C212.011 21.6835 212.534 19.3198 213.579 17.2857C214.624 15.2516 216.096 13.6664 217.994 12.5301C219.903 11.3937 222.141 10.8255 224.71 10.8255C226.437 10.8255 228.045 11.1039 229.534 11.6607C231.034 12.2062 232.34 13.0301 233.454 14.1323C234.579 15.2346 235.454 16.621 236.079 18.2914C236.704 19.9505 237.016 21.8937 237.016 24.121V26.1153H219.187V26.1323C219.187 27.4278 219.426 28.5471 219.903 29.4903ZM219.194 21.6153C219.238 20.6751 219.48 19.8172 219.92 19.0414C220.397 18.1891 221.056 17.513 221.897 17.013C222.749 16.5016 223.727 16.246 224.829 16.246C225.886 16.246 226.812 16.4789 227.607 16.9448C228.414 17.3994 229.045 18.0301 229.499 18.8369C229.954 19.6437 230.181 20.5698 230.181 21.6153H219.194Z" fill="white"/>
<path fill-rule="evenodd" clip-rule="evenodd" d="M10.6176 20.7782L7.49512 15.6948H15.8157L18.8235 20.7782H10.6176ZM39.1522 15.6948H46.9305C46.8242 16.5003 46.4483 17.2068 45.803 17.8141C45.0416 18.5301 44.1211 18.888 43.0416 18.888C41.9621 18.888 41.0359 18.5301 40.2632 17.8141C39.6273 17.2068 39.257 16.5003 39.1522 15.6948ZM35.942 15.6948L32.8394 20.7782H24.6185L27.6409 15.6948H35.942Z" fill="white"/>
<path fill-rule="evenodd" clip-rule="evenodd" d="M13.7373 36.0282L16.8909 30.9903L16.863 30.9448H26.6346L26.6068 30.9903L29.7506 36.0282H13.7373ZM46.6557 36.0282H39.3943V30.9448H46.6557V36.0282ZM72.2827 36.0282H50.687C51.027 35.6721 51.4074 35.3565 51.8281 35.0812C52.7486 34.4789 53.794 34.0244 54.9645 33.7176C56.1463 33.4107 57.3849 33.1948 58.6804 33.0698C60.2031 32.9107 61.4304 32.763 62.3622 32.6266C63.294 32.4789 63.9702 32.263 64.3906 31.9789C64.7518 31.7349 64.9579 31.3902 65.0088 30.9448H72.2827V36.0282ZM109.815 36.0282H102.554V30.9448H110.071C109.9 31.4826 109.815 32.0773 109.815 32.7289V36.0282ZM125.105 36.0282H118.065V32.1153C118.065 31.6975 118.026 31.3073 117.948 30.9448H125.283C125.164 31.4057 125.105 31.9095 125.105 32.4562V36.0282ZM140.599 36.0282H133.355V32.2687C133.355 31.7876 133.313 31.3463 133.228 30.9448H140.599V36.0282ZM177.484 36.0282H170.222V30.9448H177.74C177.569 31.4826 177.484 32.0773 177.484 32.7289V36.0282ZM192.774 36.0282H185.734V32.1153C185.734 31.6975 185.695 31.3073 185.616 30.9448H192.952C192.833 31.4057 192.774 31.9095 192.774 32.4562V36.0282ZM208.268 36.0282H201.024V32.2687C201.024 31.7876 200.981 31.3463 200.897 30.9448H208.268V36.0282ZM235.09 30.9448C235.398 32.2289 235.553 33.6532 235.553 35.2176V36.0282H217.723H213.445H210.554C210.549 35.8449 210.547 35.6599 210.547 35.4732C210.547 33.843 210.738 32.3335 211.121 30.9448H218.08C217.876 31.4975 217.759 32.0865 217.73 32.7119H228.717C228.717 32.0791 228.634 31.4901 228.468 30.9448H235.09ZM167.421 30.9448C167.73 32.2289 167.884 33.6532 167.884 35.2176V36.0282H150.054H145.776H142.885C142.881 35.8449 142.878 35.6599 142.878 35.4732C142.878 33.843 143.07 32.3335 143.453 30.9448H150.412C150.207 31.4975 150.09 32.0865 150.061 32.7119H161.049C161.049 32.0791 160.965 31.4901 160.799 30.9448H167.421ZM99.6644 30.9448C100.043 32.3252 100.232 33.829 100.232 35.4562C100.232 35.6485 100.229 35.8392 100.224 36.0282H92.8393C92.8474 35.8236 92.8514 35.6159 92.8514 35.4051C92.8514 33.8823 92.6412 32.5244 92.2207 31.3312C92.1755 31.1993 92.1279 31.0706 92.0778 30.9448H99.6644ZM75.027 30.9448C74.6486 32.3252 74.4594 33.829 74.4594 35.4562C74.4594 35.6485 74.4621 35.8392 74.4674 36.0282H81.8518C81.844 35.8236 81.84 35.6159 81.84 35.4051C81.84 33.8823 82.0446 32.5244 82.4537 31.3312C82.5001 31.1993 82.549 31.0706 82.6003 30.9448H75.027Z" fill="white"/>
<path fill-rule="evenodd" clip-rule="evenodd" d="M214.95 46.1948H232.256C231.4 46.9115 230.397 47.5024 229.246 47.9676C227.598 48.6266 225.695 48.9562 223.536 48.9562C220.842 48.9562 218.524 48.4107 216.581 47.3198C215.997 46.9864 215.453 46.6114 214.95 46.1948ZM147.281 46.1948H164.587C163.731 46.9115 162.728 47.5024 161.577 47.9676C159.929 48.6266 158.026 48.9562 155.867 48.9562C153.174 48.9562 150.855 48.4107 148.912 47.3198C148.328 46.9864 147.784 46.6114 147.281 46.1948ZM78.948 46.1948H95.7349C95.2583 46.5884 94.746 46.9464 94.1981 47.2687C92.2776 48.3937 89.9935 48.9562 87.3458 48.9562C84.6981 48.9562 82.4083 48.3937 80.4765 47.2687C79.9318 46.9464 79.4223 46.5884 78.948 46.1948ZM39.3944 46.1948H46.6558V48.4448H39.3944V46.1948ZM36.0949 46.1948H27.6584L29.0103 48.4448H37.4989L36.0949 46.1948ZM15.7713 46.1948L14.4194 48.4448H5.96484L7.37329 46.1948H15.7713ZM50.526 46.1948H64.2713C64.0377 46.4712 63.782 46.7326 63.5043 46.9789C62.7998 47.5926 61.9532 48.0755 60.9646 48.4278C59.9759 48.7687 58.8339 48.9391 57.5384 48.9391C55.868 48.9391 54.3793 48.6494 53.0725 48.0698C52.06 47.612 51.2111 46.987 50.526 46.1948ZM65.3964 46.1948H72.2827V48.4448H65.3964V46.1948ZM102.554 46.1948H109.815V48.4448H102.554V46.1948ZM118.065 46.1948V48.4448H125.105V46.1948H118.065ZM133.355 46.1948H140.599V48.4448H133.355V46.1948ZM170.223 46.1948H177.484V48.4448H170.223V46.1948ZM185.734 46.1948V48.4448H192.774V46.1948H185.734ZM201.024 46.1948H208.268V48.4448H201.024V46.1948Z" fill="white"/>
<path fill-rule="evenodd" clip-rule="evenodd" d="M9.92999 4.59824L8.65248 2.43914H0.283159L1.60939 4.59824H9.92999ZM12.9377 9.68157H4.73187L11.0048 19.8937L0.0786133 37.3482H8.53316L15.6923 25.4335H15.965L19.2765 30.9448H22.2244L22.1967 30.9903L25.3404 36.0282H22.3309L23.1241 37.3482H31.6127L20.7207 19.8937L26.9536 9.68157H18.7328L15.965 14.3369H15.6923L12.9377 9.68157ZM21.7551 4.59824H30.0563L31.3741 2.43914H23.0388L21.7551 4.59824ZM33.5082 11.1664V37.3482H40.7695V36.0282H34.9841V30.9448H40.7695V11.1664H33.5082ZM41.0448 4.59824C41.0658 4.43921 41.0763 4.27634 41.0763 4.1096C41.0763 3.1096 40.69 2.25164 39.9173 1.53574C39.1559 0.808461 38.2354 0.444824 37.1559 0.444824C36.0763 0.444824 35.1502 0.808461 34.3775 1.53574C33.6161 2.25164 33.2354 3.1096 33.2354 4.1096C33.2354 4.27634 33.2458 4.43922 33.2665 4.59824H41.0448ZM47.1863 36.9732C48.4931 37.5528 49.9817 37.8426 51.6522 37.8426C52.9477 37.8426 54.0897 37.6721 55.0783 37.3312C55.9873 37.0073 56.7762 36.573 57.445 36.0282H46.2768C46.6169 35.6721 46.9972 35.3565 47.418 35.0812C48.3384 34.4789 49.3839 34.0244 50.5543 33.7176C51.7361 33.4107 52.9748 33.1948 54.2702 33.0698C55.793 32.9107 57.0202 32.763 57.952 32.6266C58.8839 32.4789 59.56 32.263 59.9805 31.9789C60.3417 31.7349 60.5477 31.3902 60.5986 30.9448H66.3965V19.6891C66.3965 18.1323 66.0954 16.7971 65.4931 15.6835C64.8908 14.5585 64.067 13.638 63.0215 12.9221C61.9874 12.2062 60.7999 11.6778 59.459 11.3369C58.1295 10.996 56.7374 10.8255 55.2829 10.8255C53.192 10.8255 51.3511 11.1437 49.7602 11.7801C48.1806 12.4051 46.8908 13.3028 45.8908 14.4732C44.8908 15.6323 44.2204 17.0073 43.8795 18.5982L50.5954 19.1437C50.8454 18.2801 51.3567 17.5641 52.1295 16.996C52.9022 16.4164 53.942 16.1266 55.2488 16.1266C56.4874 16.1266 57.442 16.4221 58.1124 17.013C58.7942 17.6039 59.1352 18.4391 59.1352 19.5187V19.621C59.1352 20.1778 58.9249 20.5982 58.5045 20.8823C58.084 21.1664 57.4079 21.3823 56.4761 21.5301C55.5442 21.6664 54.317 21.8141 52.7942 21.9732C51.4988 22.0982 50.2602 22.3141 49.0783 22.621C47.9079 22.9278 46.8624 23.3823 45.942 23.9846C45.0215 24.5869 44.2942 25.3823 43.7602 26.371C43.2261 27.3596 42.959 28.5812 42.959 30.0357C42.959 31.763 43.334 33.2062 44.084 34.3653C44.8454 35.513 45.8795 36.3823 47.1863 36.9732ZM59.5102 37.3482V36.0282H66.3965V37.3482H59.5102ZM56.5613 32.2005C55.7431 32.621 54.7999 32.8312 53.7317 32.8312C52.6181 32.8312 51.6977 32.5755 50.9704 32.0641C50.2545 31.5414 49.8965 30.7857 49.8965 29.7971C49.8965 29.1153 50.0727 28.5471 50.4249 28.0926C50.7772 27.6266 51.2715 27.2573 51.9079 26.9846C52.5442 26.7119 53.2886 26.513 54.1408 26.388C54.5386 26.3312 54.9817 26.2687 55.4704 26.2005C55.959 26.121 56.4477 26.0357 56.9363 25.9448C57.4249 25.8426 57.8624 25.7346 58.2488 25.621C58.6465 25.496 58.959 25.3596 59.1863 25.2119V27.9903C59.1863 28.9107 58.9533 29.7346 58.4874 30.4619C58.0215 31.1891 57.3795 31.7687 56.5613 32.2005ZM74.5903 36.1721C76.5221 37.2971 78.8119 37.8596 81.4596 37.8596C84.1073 37.8596 86.3914 37.2971 88.3119 36.1721C88.3921 36.1249 88.4716 36.0769 88.5504 36.0282H88.4292C88.4372 35.8236 88.4413 35.6159 88.4413 35.4051C88.4413 33.8823 88.231 32.5244 87.8106 31.3312C87.7654 31.1993 87.7177 31.0706 87.6677 30.9448H93.016C93.9026 29.0244 94.3459 26.8293 94.3459 24.3596C94.3459 21.6551 93.8232 19.2914 92.7778 17.2687C91.7323 15.2346 90.2437 13.6551 88.3119 12.5301C86.3914 11.3937 84.1073 10.8255 81.4596 10.8255C78.8119 10.8255 76.5221 11.3937 74.5903 12.5301C72.6698 13.6551 71.1869 15.2346 70.1414 17.2687C69.0959 19.2914 68.5732 21.6551 68.5732 24.3596C68.5732 27.0414 69.0959 29.3994 70.1414 31.4335C70.2219 31.5892 70.305 31.7423 70.3907 31.8928C70.4566 31.5706 70.5319 31.2546 70.6169 30.9448H78.1327C77.458 30.283 76.9363 29.4288 76.5675 28.3823C76.1584 27.1891 75.9539 25.8312 75.9539 24.3085C75.9539 22.7857 76.1584 21.4278 76.5675 20.2346C76.988 19.0414 77.6073 18.0982 78.4255 17.4051C79.255 16.7119 80.2778 16.3653 81.4937 16.3653C82.6982 16.3653 83.7039 16.7119 84.5107 17.4051C85.3175 18.0982 85.9255 19.0414 86.3346 20.2346C86.755 21.4278 86.9653 22.7857 86.9653 24.3085C86.9653 25.8312 86.755 27.1891 86.3346 28.3823C85.9255 29.5755 85.3175 30.5187 84.5107 31.2119C83.7039 31.8937 82.6982 32.2346 81.4937 32.2346C80.2778 32.2346 79.255 31.8937 78.4255 31.2119C78.3394 31.139 78.2556 31.0633 78.174 30.9849C78.1285 31.0979 78.0851 31.2133 78.0435 31.3312C77.6344 32.5244 77.4299 33.8823 77.4299 35.4051C77.4299 35.6159 77.4338 35.8236 77.4417 36.0282H74.3531C74.4314 36.0769 74.5105 36.1249 74.5903 36.1721ZM96.6675 11.1664V37.3482H103.929V36.0282H98.1435V30.9448H103.929V21.6323C103.929 20.6664 104.116 19.8255 104.491 19.1096C104.866 18.3823 105.372 17.8198 106.008 17.4221C106.656 17.013 107.383 16.8085 108.19 16.8085C109.383 16.8085 110.344 17.1891 111.071 17.9505C111.81 18.7119 112.179 19.7346 112.179 21.0187V37.3482H119.219V36.0282H113.655V32.1153C113.655 31.6975 113.616 31.3073 113.538 30.9448H119.219V21.3596C119.219 19.996 119.588 18.8994 120.327 18.0698C121.065 17.2289 122.094 16.8085 123.412 16.8085C124.571 16.8085 125.537 17.1721 126.31 17.8994C127.082 18.6266 127.469 19.7176 127.469 21.1721V37.3482H134.713V36.0282H128.945V32.2687C128.945 31.7876 128.902 31.3463 128.818 30.9448H134.713V19.7403C134.713 16.8994 133.946 14.7062 132.412 13.1607C130.889 11.6039 128.906 10.8255 126.463 10.8255C124.543 10.8255 122.878 11.2801 121.469 12.1891C120.071 13.0869 119.105 14.2857 118.571 15.7857H118.298C117.878 14.263 117.037 13.0585 115.775 12.1721C114.514 11.2744 112.986 10.8255 111.19 10.8255C109.418 10.8255 107.895 11.2687 106.622 12.1551C105.349 13.0414 104.44 14.2516 103.895 15.7857H103.588V11.1664H96.6675ZM143.026 36.2232C144.969 37.3141 147.287 37.8596 149.981 37.8596C152.14 37.8596 154.043 37.5301 155.691 36.871C156.299 36.6252 156.866 36.3442 157.392 36.0282H145.644H142.697C142.805 36.0947 142.915 36.1597 143.026 36.2232ZM156.389 30.9448H161.547C161.666 30.5904 161.765 30.2249 161.844 29.8482L155.128 29.4051C154.878 30.0641 154.515 30.621 154.037 31.0755C153.56 31.5301 152.986 31.871 152.316 32.0982C151.645 32.3255 150.907 32.4391 150.1 32.4391C148.884 32.4391 147.833 32.1835 146.947 31.6721C146.598 31.4709 146.28 31.2364 145.993 30.9684C145.794 31.5142 145.68 32.0954 145.651 32.7119H156.638C156.638 32.0792 156.555 31.4901 156.389 30.9448ZM144.884 29.4903C145.175 30.0516 145.536 30.5364 145.968 30.9448H139.043C138.949 31.2845 138.867 31.6313 138.796 31.9854C138.715 31.8436 138.636 31.6994 138.56 31.5528C137.515 29.5301 136.992 27.138 136.992 24.3766C136.992 21.6835 137.515 19.3198 138.56 17.2857C139.606 15.2516 141.077 13.6664 142.975 12.5301C144.884 11.3937 147.123 10.8255 149.691 10.8255C151.418 10.8255 153.026 11.1039 154.515 11.6607C156.015 12.2062 157.322 13.0301 158.435 14.1323C159.56 15.2346 160.435 16.621 161.06 18.2914C161.685 19.9505 161.998 21.8937 161.998 24.121V26.1153H144.168V26.1323C144.168 27.4278 144.407 28.5471 144.884 29.4903ZM144.175 21.6153C144.219 20.6751 144.461 19.8172 144.901 19.0414C145.378 18.1891 146.037 17.513 146.878 17.013C147.731 16.5016 148.708 16.246 149.81 16.246C150.867 16.246 151.793 16.4789 152.589 16.9448C153.395 17.3994 154.026 18.0301 154.481 18.8369C154.935 19.6437 155.162 20.5698 155.162 21.6153H144.175ZM164.336 11.1664V37.3482H171.598V36.0282H165.812V30.9448H171.598V21.6323C171.598 20.6664 171.785 19.8255 172.16 19.1096C172.535 18.3823 173.041 17.8198 173.677 17.4221C174.325 17.013 175.052 16.8085 175.859 16.8085C177.052 16.8085 178.012 17.1891 178.74 17.9505C179.478 18.7119 179.848 19.7346 179.848 21.0187V37.3482H186.887V36.0282H181.324V32.1153C181.324 31.6975 181.285 31.3073 181.206 30.9448H186.887V21.3596C186.887 19.996 187.257 18.8994 187.995 18.0698C188.734 17.2289 189.762 16.8085 191.081 16.8085C192.24 16.8085 193.206 17.1721 193.978 17.8994C194.751 18.6266 195.137 19.7176 195.137 21.1721V37.3482H202.382V36.0282H196.613V32.2687C196.613 31.7876 196.571 31.3463 196.487 30.9448H202.382V19.7403C202.382 16.8994 201.615 14.7062 200.081 13.1607C198.558 11.6039 196.575 10.8255 194.132 10.8255C192.211 10.8255 190.547 11.2801 189.137 12.1891C187.74 13.0869 186.774 14.2857 186.24 15.7857H185.967C185.547 14.263 184.706 13.0585 183.444 12.1721C182.183 11.2744 180.654 10.8255 178.859 10.8255C177.086 10.8255 175.564 11.2687 174.291 12.1551C173.018 13.0414 172.109 14.2516 171.564 15.7857H171.257V11.1664H164.336ZM210.695 36.2232C212.638 37.3141 214.956 37.8596 217.649 37.8596C219.808 37.8596 221.712 37.5301 223.36 36.871C223.968 36.6252 224.535 36.3442 225.061 36.0282H213.313H210.365C210.474 36.0947 210.583 36.1597 210.695 36.2232ZM224.057 30.9448H229.216C229.334 30.5904 229.433 30.2249 229.513 29.8482L222.797 29.4051C222.547 30.0641 222.183 30.621 221.706 31.0755C221.229 31.5301 220.655 31.871 219.985 32.0982C219.314 32.3255 218.575 32.4391 217.769 32.4391C216.553 32.4391 215.502 32.1835 214.615 31.6721C214.267 31.4709 213.949 31.2364 213.662 30.9684C213.462 31.5142 213.348 32.0954 213.32 32.7119H224.307C224.307 32.0792 224.224 31.4901 224.057 30.9448ZM212.553 29.4903C212.844 30.0516 213.205 30.5364 213.636 30.9448H206.711C206.618 31.2845 206.535 31.6313 206.465 31.9854C206.384 31.8436 206.305 31.6994 206.229 31.5528C205.183 29.5301 204.661 27.138 204.661 24.3766C204.661 21.6835 205.183 19.3198 206.229 17.2857C207.274 15.2516 208.746 13.6664 210.644 12.5301C212.553 11.3937 214.791 10.8255 217.36 10.8255C219.087 10.8255 220.695 11.1039 222.183 11.6607C223.683 12.2062 224.99 13.0301 226.104 14.1323C227.229 15.2346 228.104 16.621 228.729 18.2914C229.354 19.9505 229.666 21.8937 229.666 24.121V26.1153H211.837V26.1323C211.837 27.4278 212.075 28.5471 212.553 29.4903ZM211.844 21.6153C211.887 20.6751 212.13 19.8172 212.57 19.0414C213.047 18.1891 213.706 17.513 214.547 17.013C215.399 16.5016 216.377 16.246 217.479 16.246C218.536 16.246 219.462 16.4789 220.257 16.9448C221.064 17.3994 221.695 18.0301 222.149 18.8369C222.604 19.6437 222.831 20.5698 222.831 21.6153H211.844Z" fill="white"/>
<path fill-rule="evenodd" clip-rule="evenodd" d="M17.9677 20.7782L14.8452 15.6948H23.1658L26.1736 20.7782H17.9677ZM46.5023 15.6948H54.2806C54.1743 16.5003 53.7984 17.2068 53.1531 17.8141C52.3917 18.5301 51.4712 18.888 50.3917 18.888C49.3122 18.888 48.386 18.5301 47.6133 17.8141C46.9774 17.2068 46.6071 16.5003 46.5023 15.6948ZM43.2921 15.6948L40.1895 20.7782H31.9686L34.991 15.6948H43.2921Z" fill="#FF5555" style="mix-blend-mode:multiply"/>
<path fill-rule="evenodd" clip-rule="evenodd" d="M21.0869 36.0282L24.2405 30.9903L24.2126 30.9448H33.9842L33.9564 30.9903L37.1002 36.0282H21.0869ZM54.0053 36.0282H46.7439V30.9448H54.0053V36.0282ZM79.6323 36.0282H58.0366C58.3766 35.6721 58.757 35.3565 59.1777 35.0812C60.0982 34.4789 61.1436 34.0244 62.3141 33.7176C63.4959 33.4107 64.7345 33.1948 66.03 33.0698C67.5527 32.9107 68.78 32.763 69.7118 32.6266C70.6436 32.4789 71.3198 32.263 71.7402 31.9789C72.1014 31.7349 72.3075 31.3902 72.3584 30.9448H79.6323V36.0282ZM117.165 36.0282H109.903V30.9448H117.421C117.25 31.4826 117.165 32.0773 117.165 32.7289V36.0282ZM132.454 36.0282H125.415V32.1153C125.415 31.6975 125.376 31.3073 125.297 30.9448H132.633C132.514 31.4057 132.454 31.9095 132.454 32.4562V36.0282ZM147.949 36.0282H140.704V32.2687C140.704 31.7876 140.662 31.3463 140.578 30.9448H147.949V36.0282ZM184.833 36.0282H177.572V30.9448H185.089C184.919 31.4826 184.833 32.0773 184.833 32.7289V36.0282ZM200.123 36.0282H193.083V32.1153C193.083 31.6975 193.044 31.3073 192.966 30.9448H200.301C200.183 31.4057 200.123 31.9095 200.123 32.4562V36.0282ZM215.617 36.0282H208.373V32.2687C208.373 31.7876 208.331 31.3463 208.246 30.9448H215.617V36.0282ZM242.44 30.9448C242.748 32.2289 242.902 33.6532 242.902 35.2176V36.0282H225.073H220.794H217.904C217.899 35.8449 217.896 35.6599 217.896 35.4732C217.896 33.843 218.088 32.3335 218.471 30.9448H225.43C225.225 31.4975 225.109 32.0865 225.079 32.7119H236.067C236.067 32.0791 235.984 31.4901 235.817 30.9448H242.44ZM174.771 30.9448C175.079 32.2289 175.233 33.6532 175.233 35.2176V36.0282H157.404H153.125H150.235C150.23 35.8449 150.228 35.6599 150.228 35.4732C150.228 33.843 150.419 32.3335 150.802 30.9448H157.761C157.557 31.4975 157.44 32.0865 157.411 32.7119H168.398C168.398 32.0791 168.315 31.4901 168.148 30.9448H174.771ZM107.014 30.9448C107.392 32.3252 107.582 33.829 107.582 35.4562C107.582 35.6485 107.579 35.8392 107.574 36.0282H100.189C100.197 35.8236 100.201 35.6159 100.201 35.4051C100.201 33.8823 99.9908 32.5244 99.5703 31.3312C99.5251 31.1993 99.4775 31.0706 99.4274 30.9448H107.014ZM82.3766 30.9448C81.9982 32.3252 81.809 33.829 81.809 35.4562C81.809 35.6485 81.8117 35.8392 81.817 36.0282H89.2014C89.1936 35.8236 89.1897 35.6159 89.1897 35.4051C89.1897 33.8823 89.3942 32.5244 89.8033 31.3312C89.8497 31.1993 89.8986 31.0706 89.95 30.9448H82.3766Z" fill="#FF5555" style="mix-blend-mode:multiply"/>
<path fill-rule="evenodd" clip-rule="evenodd" d="M222.299 46.1948H239.605C238.75 46.9115 237.746 47.5024 236.595 47.9676C234.948 48.6266 233.044 48.9562 230.885 48.9562C228.192 48.9562 225.874 48.4107 223.931 47.3198C223.346 46.9864 222.803 46.6114 222.299 46.1948ZM154.631 46.1948H171.937C171.081 46.9115 170.078 47.5024 168.927 47.9676C167.279 48.6266 165.376 48.9562 163.216 48.9562C160.523 48.9562 158.205 48.4107 156.262 47.3198C155.678 46.9864 155.134 46.6114 154.631 46.1948ZM86.2976 46.1948H103.084C102.608 46.5884 102.096 46.9464 101.548 47.2687C99.6272 48.3937 97.3431 48.9562 94.6954 48.9562C92.0477 48.9562 89.7579 48.3937 87.8261 47.2687C87.2814 46.9464 86.7719 46.5884 86.2976 46.1948ZM46.744 46.1948H54.0054V48.4448H46.744V46.1948ZM43.4445 46.1948H35.008L36.3599 48.4448H44.8485L43.4445 46.1948ZM23.1209 46.1948L21.769 48.4448H13.3145L14.7229 46.1948H23.1209ZM57.8756 46.1948H71.6209C71.3873 46.4712 71.1317 46.7326 70.8539 46.9789C70.1494 47.5926 69.3028 48.0755 68.3142 48.4278C67.3255 48.7687 66.1835 48.9391 64.888 48.9391C63.2176 48.9391 61.7289 48.6494 60.4221 48.0698C59.4096 47.612 58.5607 46.987 57.8756 46.1948ZM72.746 46.1948H79.6323V48.4448H72.746V46.1948ZM109.903 46.1948H117.165V48.4448H109.903V46.1948ZM125.415 46.1948V48.4448H132.455V46.1948H125.415ZM140.705 46.1948H147.949V48.4448H140.705V46.1948ZM177.572 46.1948H184.833V48.4448H177.572V46.1948ZM193.083 46.1948V48.4448H200.123V46.1948H193.083ZM208.373 46.1948H215.618V48.4448H208.373V46.1948Z" fill="#FF5555" style="mix-blend-mode:multiply"/>
<path fill-rule="evenodd" clip-rule="evenodd" d="M17.2801 4.59824L16.0026 2.43914H7.63326L8.95949 4.59824H17.2801ZM20.2878 9.68157H12.082L18.3548 19.8937L7.42871 37.3482H15.8833L23.0423 25.4335H23.3151L26.6266 30.9448H29.5745L29.5467 30.9903L32.6905 36.0282H29.681L30.4742 37.3482H38.9628L28.0708 19.8937L34.3037 9.68157H26.0829L23.3151 14.3369H23.0423L20.2878 9.68157ZM29.1052 4.59824H37.4064L38.7242 2.43914H30.3889L29.1052 4.59824ZM40.8583 11.1664V37.3482H48.1196V36.0282H42.3342V30.9448H48.1196V11.1664H40.8583ZM48.3949 4.59824C48.4159 4.43921 48.4264 4.27634 48.4264 4.1096C48.4264 3.1096 48.0401 2.25164 47.2673 1.53574C46.506 0.808461 45.5855 0.444824 44.506 0.444824C43.4264 0.444824 42.5003 0.808461 41.7276 1.53574C40.9662 2.25164 40.5855 3.1096 40.5855 4.1096C40.5855 4.27634 40.5959 4.43922 40.6166 4.59824H48.3949ZM54.5364 36.9732C55.8432 37.5528 57.3318 37.8426 59.0023 37.8426C60.2977 37.8426 61.4398 37.6721 62.4284 37.3312C63.3374 37.0073 64.1263 36.573 64.7951 36.0282H53.6269C53.9669 35.6721 54.3473 35.3565 54.7681 35.0812C55.6885 34.4789 56.734 34.0244 57.9044 33.7176C59.0862 33.4107 60.3249 33.1948 61.6203 33.0698C63.1431 32.9107 64.3703 32.763 65.3021 32.6266C66.234 32.4789 66.9101 32.263 67.3306 31.9789C67.6918 31.7349 67.8978 31.3902 67.9487 30.9448H73.7466V19.6891C73.7466 18.1323 73.4455 16.7971 72.8432 15.6835C72.2409 14.5585 71.4171 13.638 70.3716 12.9221C69.3375 12.2062 68.15 11.6778 66.8091 11.3369C65.4796 10.996 64.0875 10.8255 62.633 10.8255C60.5421 10.8255 58.7012 11.1437 57.1102 11.7801C55.5307 12.4051 54.2409 13.3028 53.2409 14.4732C52.2409 15.6323 51.5705 17.0073 51.2296 18.5982L57.9455 19.1437C58.1955 18.2801 58.7068 17.5641 59.4796 16.996C60.2523 16.4164 61.2921 16.1266 62.5989 16.1266C63.8375 16.1266 64.7921 16.4221 65.4625 17.013C66.1443 17.6039 66.4852 18.4391 66.4852 19.5187V19.621C66.4852 20.1778 66.275 20.5982 65.8546 20.8823C65.4341 21.1664 64.758 21.3823 63.8262 21.5301C62.8943 21.6664 61.6671 21.8141 60.1443 21.9732C58.8489 22.0982 57.6102 22.3141 56.4284 22.621C55.258 22.9278 54.2125 23.3823 53.2921 23.9846C52.3716 24.5869 51.6443 25.3823 51.1102 26.371C50.5762 27.3596 50.3091 28.5812 50.3091 30.0357C50.3091 31.763 50.6841 33.2062 51.4341 34.3653C52.1955 35.513 53.2296 36.3823 54.5364 36.9732ZM66.8602 37.3482V36.0282H73.7466V37.3482H66.8602ZM63.9114 32.2005C63.0932 32.621 62.15 32.8312 61.0818 32.8312C59.9682 32.8312 59.0477 32.5755 58.3205 32.0641C57.6046 31.5414 57.2466 30.7857 57.2466 29.7971C57.2466 29.1153 57.4227 28.5471 57.775 28.0926C58.1273 27.6266 58.6216 27.2573 59.258 26.9846C59.8943 26.7119 60.6387 26.513 61.4909 26.388C61.8887 26.3312 62.3318 26.2687 62.8205 26.2005C63.3091 26.121 63.7977 26.0357 64.2864 25.9448C64.775 25.8426 65.2125 25.7346 65.5989 25.621C65.9966 25.496 66.3091 25.3596 66.5364 25.2119V27.9903C66.5364 28.9107 66.3034 29.7346 65.8375 30.4619C65.3716 31.1891 64.7296 31.7687 63.9114 32.2005ZM81.9404 36.1721C83.8722 37.2971 86.1619 37.8596 88.8097 37.8596C91.4574 37.8596 93.7415 37.2971 95.6619 36.1721C95.7422 36.1249 95.8217 36.0769 95.9005 36.0282H95.7793C95.7873 35.8236 95.7914 35.6159 95.7914 35.4051C95.7914 33.8823 95.5811 32.5244 95.1607 31.3312C95.1155 31.1993 95.0678 31.0706 95.0178 30.9448H100.366C101.253 29.0244 101.696 26.8293 101.696 24.3596C101.696 21.6551 101.173 19.2914 100.128 17.2687C99.0824 15.2346 97.5938 13.6551 95.6619 12.5301C93.7415 11.3937 91.4574 10.8255 88.8097 10.8255C86.1619 10.8255 83.8722 11.3937 81.9404 12.5301C80.0199 13.6551 78.5369 15.2346 77.4915 17.2687C76.446 19.2914 75.9233 21.6551 75.9233 24.3596C75.9233 27.0414 76.446 29.3994 77.4915 31.4335C77.572 31.5892 77.6551 31.7423 77.7408 31.8928C77.8066 31.5706 77.882 31.2546 77.967 30.9448H85.4828C84.8081 30.283 84.2864 29.4288 83.9176 28.3823C83.5085 27.1891 83.304 25.8312 83.304 24.3085C83.304 22.7857 83.5085 21.4278 83.9176 20.2346C84.3381 19.0414 84.9574 18.0982 85.7756 17.4051C86.6051 16.7119 87.6279 16.3653 88.8438 16.3653C90.0483 16.3653 91.054 16.7119 91.8608 17.4051C92.6676 18.0982 93.2756 19.0414 93.6847 20.2346C94.1051 21.4278 94.3154 22.7857 94.3154 24.3085C94.3154 25.8312 94.1051 27.1891 93.6847 28.3823C93.2756 29.5755 92.6676 30.5187 91.8608 31.2119C91.054 31.8937 90.0483 32.2346 88.8438 32.2346C87.6279 32.2346 86.6051 31.8937 85.7756 31.2119C85.6895 31.139 85.6057 31.0633 85.5241 30.9849C85.4786 31.0979 85.4352 31.2133 85.3936 31.3312C84.9845 32.5244 84.78 33.8823 84.78 35.4051C84.78 35.6159 84.7839 35.8236 84.7918 36.0282H81.7032C81.7815 36.0769 81.8606 36.1249 81.9404 36.1721ZM104.018 11.1664V37.3482H111.279V36.0282H105.494V30.9448H111.279V21.6323C111.279 20.6664 111.466 19.8255 111.841 19.1096C112.216 18.3823 112.722 17.8198 113.359 17.4221C114.006 17.013 114.734 16.8085 115.54 16.8085C116.734 16.8085 117.694 17.1891 118.421 17.9505C119.16 18.7119 119.529 19.7346 119.529 21.0187V37.3482H126.569V36.0282H121.005V32.1153C121.005 31.6975 120.966 31.3073 120.888 30.9448H126.569V21.3596C126.569 19.996 126.938 18.8994 127.677 18.0698C128.415 17.2289 129.444 16.8085 130.762 16.8085C131.921 16.8085 132.887 17.1721 133.66 17.8994C134.432 18.6266 134.819 19.7176 134.819 21.1721V37.3482H142.063V36.0282H136.295V32.2687C136.295 31.7876 136.253 31.3463 136.168 30.9448H142.063V19.7403C142.063 16.8994 141.296 14.7062 139.762 13.1607C138.239 11.6039 136.256 10.8255 133.813 10.8255C131.893 10.8255 130.228 11.2801 128.819 12.1891C127.421 13.0869 126.455 14.2857 125.921 15.7857H125.648C125.228 14.263 124.387 13.0585 123.126 12.1721C121.864 11.2744 120.336 10.8255 118.54 10.8255C116.768 10.8255 115.245 11.2687 113.972 12.1551C112.699 13.0414 111.79 14.2516 111.245 15.7857H110.938V11.1664H104.018ZM150.376 36.2232C152.319 37.3141 154.638 37.8596 157.331 37.8596C159.49 37.8596 161.393 37.5301 163.041 36.871C163.649 36.6252 164.216 36.3442 164.742 36.0282H152.994H150.047C150.155 36.0947 150.265 36.1597 150.376 36.2232ZM163.739 30.9448H168.897C169.016 30.5904 169.115 30.2249 169.194 29.8482L162.478 29.4051C162.228 30.0641 161.865 30.621 161.388 31.0755C160.91 31.5301 160.336 31.871 159.666 32.0982C158.995 32.3255 158.257 32.4391 157.45 32.4391C156.234 32.4391 155.183 32.1835 154.297 31.6721C153.948 31.4709 153.63 31.2364 153.343 30.9684C153.144 31.5142 153.03 32.0954 153.001 32.7119H163.989C163.989 32.0792 163.905 31.4901 163.739 30.9448ZM152.234 29.4903C152.525 30.0516 152.886 30.5364 153.318 30.9448H146.393C146.299 31.2845 146.217 31.6313 146.146 31.9854C146.065 31.8436 145.986 31.6994 145.91 31.5528C144.865 29.5301 144.342 27.138 144.342 24.3766C144.342 21.6835 144.865 19.3198 145.91 17.2857C146.956 15.2516 148.427 13.6664 150.325 12.5301C152.234 11.3937 154.473 10.8255 157.041 10.8255C158.768 10.8255 160.376 11.1039 161.865 11.6607C163.365 12.2062 164.672 13.0301 165.785 14.1323C166.91 15.2346 167.785 16.621 168.41 18.2914C169.035 19.9505 169.348 21.8937 169.348 24.121V26.1153H151.518V26.1323C151.518 27.4278 151.757 28.5471 152.234 29.4903ZM151.525 21.6153C151.569 20.6751 151.811 19.8172 152.251 19.0414C152.728 18.1891 153.388 17.513 154.228 17.013C155.081 16.5016 156.058 16.246 157.16 16.246C158.217 16.246 159.143 16.4789 159.939 16.9448C160.745 17.3994 161.376 18.0301 161.831 18.8369C162.285 19.6437 162.513 20.5698 162.513 21.6153H151.525ZM171.686 11.1664V37.3482H178.948V36.0282H173.162V30.9448H178.948V21.6323C178.948 20.6664 179.135 19.8255 179.51 19.1096C179.885 18.3823 180.391 17.8198 181.027 17.4221C181.675 17.013 182.402 16.8085 183.209 16.8085C184.402 16.8085 185.363 17.1891 186.09 17.9505C186.828 18.7119 187.198 19.7346 187.198 21.0187V37.3482H194.238V36.0282H188.674V32.1153C188.674 31.6975 188.635 31.3073 188.556 30.9448H194.238V21.3596C194.238 19.996 194.607 18.8994 195.345 18.0698C196.084 17.2289 197.113 16.8085 198.431 16.8085C199.59 16.8085 200.556 17.1721 201.328 17.8994C202.101 18.6266 202.488 19.7176 202.488 21.1721V37.3482H209.732V36.0282H203.964V32.2687C203.964 31.7876 203.921 31.3463 203.837 30.9448H209.732V19.7403C209.732 16.8994 208.965 14.7062 207.431 13.1607C205.908 11.6039 203.925 10.8255 201.482 10.8255C199.561 10.8255 197.897 11.2801 196.488 12.1891C195.09 13.0869 194.124 14.2857 193.59 15.7857H193.317C192.897 14.263 192.056 13.0585 190.794 12.1721C189.533 11.2744 188.005 10.8255 186.209 10.8255C184.436 10.8255 182.914 11.2687 181.641 12.1551C180.368 13.0414 179.459 14.2516 178.914 15.7857H178.607V11.1664H171.686ZM218.045 36.2232C219.988 37.3141 222.306 37.8596 224.999 37.8596C227.159 37.8596 229.062 37.5301 230.71 36.871C231.318 36.6252 231.885 36.3442 232.411 36.0282H220.663H217.715C217.824 36.0947 217.934 36.1597 218.045 36.2232ZM231.408 30.9448H236.566C236.684 30.5904 236.784 30.2249 236.863 29.8482L230.147 29.4051C229.897 30.0641 229.534 30.621 229.056 31.0755C228.579 31.5301 228.005 31.871 227.335 32.0982C226.664 32.3255 225.926 32.4391 225.119 32.4391C223.903 32.4391 222.852 32.1835 221.965 31.6721C221.617 31.4709 221.299 31.2364 221.012 30.9684C220.812 31.5142 220.699 32.0954 220.67 32.7119H231.657C231.657 32.0792 231.574 31.4901 231.408 30.9448ZM219.903 29.4903C220.194 30.0516 220.555 30.5364 220.987 30.9448H214.061C213.968 31.2845 213.885 31.6313 213.815 31.9854C213.734 31.8436 213.655 31.6994 213.579 31.5528C212.534 29.5301 212.011 27.138 212.011 24.3766C212.011 21.6835 212.534 19.3198 213.579 17.2857C214.624 15.2516 216.096 13.6664 217.994 12.5301C219.903 11.3937 222.141 10.8255 224.71 10.8255C226.437 10.8255 228.045 11.1039 229.534 11.6607C231.034 12.2062 232.34 13.0301 233.454 14.1323C234.579 15.2346 235.454 16.621 236.079 18.2914C236.704 19.9505 237.016 21.8937 237.016 24.121V26.1153H219.187V26.1323C219.187 27.4278 219.426 28.5471 219.903 29.4903ZM219.194 21.6153C219.238 20.6751 219.48 19.8172 219.92 19.0414C220.397 18.1891 221.056 17.513 221.897 17.013C222.749 16.5016 223.727 16.246 224.829 16.246C225.886 16.246 226.812 16.4789 227.607 16.9448C228.414 17.3994 229.045 18.0301 229.499 18.8369C229.954 19.6437 230.181 20.5698 230.181 21.6153H219.194Z" fill="#FF5555" style="mix-blend-mode:multiply"/>
<path fill-rule="evenodd" clip-rule="evenodd" d="M10.6176 20.7782L7.49512 15.6948H15.8157L18.8235 20.7782H10.6176ZM39.1522 15.6948H46.9305C46.8242 16.5003 46.4483 17.2068 45.803 17.8141C45.0416 18.5301 44.1211 18.888 43.0416 18.888C41.9621 18.888 41.0359 18.5301 40.2632 17.8141C39.6273 17.2068 39.257 16.5003 39.1522 15.6948ZM35.942 15.6948L32.8394 20.7782H24.6185L27.6409 15.6948H35.942Z" fill="#88A3FF" style="mix-blend-mode:multiply"/>
<path fill-rule="evenodd" clip-rule="evenodd" d="M13.7373 36.0282L16.8909 30.9903L16.863 30.9448H26.6346L26.6068 30.9903L29.7506 36.0282H13.7373ZM46.6557 36.0282H39.3943V30.9448H46.6557V36.0282ZM72.2827 36.0282H50.687C51.027 35.6721 51.4074 35.3565 51.8281 35.0812C52.7486 34.4789 53.794 34.0244 54.9645 33.7176C56.1463 33.4107 57.3849 33.1948 58.6804 33.0698C60.2031 32.9107 61.4304 32.763 62.3622 32.6266C63.294 32.4789 63.9702 32.263 64.3906 31.9789C64.7518 31.7349 64.9579 31.3902 65.0088 30.9448H72.2827V36.0282ZM109.815 36.0282H102.554V30.9448H110.071C109.9 31.4826 109.815 32.0773 109.815 32.7289V36.0282ZM125.105 36.0282H118.065V32.1153C118.065 31.6975 118.026 31.3073 117.948 30.9448H125.283C125.164 31.4057 125.105 31.9095 125.105 32.4562V36.0282ZM140.599 36.0282H133.355V32.2687C133.355 31.7876 133.313 31.3463 133.228 30.9448H140.599V36.0282ZM177.484 36.0282H170.222V30.9448H177.74C177.569 31.4826 177.484 32.0773 177.484 32.7289V36.0282ZM192.774 36.0282H185.734V32.1153C185.734 31.6975 185.695 31.3073 185.616 30.9448H192.952C192.833 31.4057 192.774 31.9095 192.774 32.4562V36.0282ZM208.268 36.0282H201.024V32.2687C201.024 31.7876 200.981 31.3463 200.897 30.9448H208.268V36.0282ZM235.09 30.9448C235.398 32.2289 235.553 33.6532 235.553 35.2176V36.0282H217.723H213.445H210.554C210.549 35.8449 210.547 35.6599 210.547 35.4732C210.547 33.843 210.738 32.3335 211.121 30.9448H218.08C217.876 31.4975 217.759 32.0865 217.73 32.7119H228.717C228.717 32.0791 228.634 31.4901 228.468 30.9448H235.09ZM167.421 30.9448C167.73 32.2289 167.884 33.6532 167.884 35.2176V36.0282H150.054H145.776H142.885C142.881 35.8449 142.878 35.6599 142.878 35.4732C142.878 33.843 143.07 32.3335 143.453 30.9448H150.412C150.207 31.4975 150.09 32.0865 150.061 32.7119H161.049C161.049 32.0791 160.965 31.4901 160.799 30.9448H167.421ZM99.6644 30.9448C100.043 32.3252 100.232 33.829 100.232 35.4562C100.232 35.6485 100.229 35.8392 100.224 36.0282H92.8393C92.8474 35.8236 92.8514 35.6159 92.8514 35.4051C92.8514 33.8823 92.6412 32.5244 92.2207 31.3312C92.1755 31.1993 92.1279 31.0706 92.0778 30.9448H99.6644ZM75.027 30.9448C74.6486 32.3252 74.4594 33.829 74.4594 35.4562C74.4594 35.6485 74.4621 35.8392 74.4674 36.0282H81.8518C81.844 35.8236 81.84 35.6159 81.84 35.4051C81.84 33.8823 82.0446 32.5244 82.4537 31.3312C82.5001 31.1993 82.549 31.0706 82.6003 30.9448H75.027Z" fill="#88A3FF" style="mix-blend-mode:multiply"/>
<path fill-rule="evenodd" clip-rule="evenodd" d="M214.95 46.1948H232.256C231.4 46.9115 230.397 47.5024 229.246 47.9676C227.598 48.6266 225.695 48.9562 223.536 48.9562C220.842 48.9562 218.524 48.4107 216.581 47.3198C215.997 46.9864 215.453 46.6114 214.95 46.1948ZM147.281 46.1948H164.587C163.731 46.9115 162.728 47.5024 161.577 47.9676C159.929 48.6266 158.026 48.9562 155.867 48.9562C153.174 48.9562 150.855 48.4107 148.912 47.3198C148.328 46.9864 147.784 46.6114 147.281 46.1948ZM78.948 46.1948H95.7349C95.2583 46.5884 94.746 46.9464 94.1981 47.2687C92.2776 48.3937 89.9935 48.9562 87.3458 48.9562C84.6981 48.9562 82.4083 48.3937 80.4765 47.2687C79.9318 46.9464 79.4223 46.5884 78.948 46.1948ZM39.3944 46.1948H46.6558V48.4448H39.3944V46.1948ZM36.0949 46.1948H27.6584L29.0103 48.4448H37.4989L36.0949 46.1948ZM15.7713 46.1948L14.4194 48.4448H5.96484L7.37329 46.1948H15.7713ZM50.526 46.1948H64.2713C64.0377 46.4712 63.782 46.7326 63.5043 46.9789C62.7998 47.5926 61.9532 48.0755 60.9646 48.4278C59.9759 48.7687 58.8339 48.9391 57.5384 48.9391C55.868 48.9391 54.3793 48.6494 53.0725 48.0698C52.06 47.612 51.2111 46.987 50.526 46.1948ZM65.3964 46.1948H72.2827V48.4448H65.3964V46.1948ZM102.554 46.1948H109.815V48.4448H102.554V46.1948ZM118.065 46.1948V48.4448H125.105V46.1948H118.065ZM133.355 46.1948H140.599V48.4448H133.355V46.1948ZM170.223 46.1948H177.484V48.4448H170.223V46.1948ZM185.734 46.1948V48.4448H192.774V46.1948H185.734ZM201.024 46.1948H208.268V48.4448H201.024V46.1948Z" fill="#88A3FF" style="mix-blend-mode:multiply"/>
<path fill-rule="evenodd" clip-rule="evenodd" d="M9.92999 4.59824L8.65248 2.43914H0.283159L1.60939 4.59824H9.92999ZM12.9377 9.68157H4.73187L11.0048 19.8937L0.0786133 37.3482H8.53316L15.6923 25.4335H15.965L19.2765 30.9448H22.2244L22.1967 30.9903L25.3404 36.0282H22.3309L23.1241 37.3482H31.6127L20.7207 19.8937L26.9536 9.68157H18.7328L15.965 14.3369H15.6923L12.9377 9.68157ZM21.7551 4.59824H30.0563L31.3741 2.43914H23.0388L21.7551 4.59824ZM33.5082 11.1664V37.3482H40.7695V36.0282H34.9841V30.9448H40.7695V11.1664H33.5082ZM41.0448 4.59824C41.0658 4.43921 41.0763 4.27634 41.0763 4.1096C41.0763 3.1096 40.69 2.25164 39.9173 1.53574C39.1559 0.808461 38.2354 0.444824 37.1559 0.444824C36.0763 0.444824 35.1502 0.808461 34.3775 1.53574C33.6161 2.25164 33.2354 3.1096 33.2354 4.1096C33.2354 4.27634 33.2458 4.43922 33.2665 4.59824H41.0448ZM47.1863 36.9732C48.4931 37.5528 49.9817 37.8426 51.6522 37.8426C52.9477 37.8426 54.0897 37.6721 55.0783 37.3312C55.9873 37.0073 56.7762 36.573 57.445 36.0282H46.2768C46.6169 35.6721 46.9972 35.3565 47.418 35.0812C48.3384 34.4789 49.3839 34.0244 50.5543 33.7176C51.7361 33.4107 52.9748 33.1948 54.2702 33.0698C55.793 32.9107 57.0202 32.763 57.952 32.6266C58.8839 32.4789 59.56 32.263 59.9805 31.9789C60.3417 31.7349 60.5477 31.3902 60.5986 30.9448H66.3965V19.6891C66.3965 18.1323 66.0954 16.7971 65.4931 15.6835C64.8908 14.5585 64.067 13.638 63.0215 12.9221C61.9874 12.2062 60.7999 11.6778 59.459 11.3369C58.1295 10.996 56.7374 10.8255 55.2829 10.8255C53.192 10.8255 51.3511 11.1437 49.7602 11.7801C48.1806 12.4051 46.8908 13.3028 45.8908 14.4732C44.8908 15.6323 44.2204 17.0073 43.8795 18.5982L50.5954 19.1437C50.8454 18.2801 51.3567 17.5641 52.1295 16.996C52.9022 16.4164 53.942 16.1266 55.2488 16.1266C56.4874 16.1266 57.442 16.4221 58.1124 17.013C58.7942 17.6039 59.1352 18.4391 59.1352 19.5187V19.621C59.1352 20.1778 58.9249 20.5982 58.5045 20.8823C58.084 21.1664 57.4079 21.3823 56.4761 21.5301C55.5442 21.6664 54.317 21.8141 52.7942 21.9732C51.4988 22.0982 50.2602 22.3141 49.0783 22.621C47.9079 22.9278 46.8624 23.3823 45.942 23.9846C45.0215 24.5869 44.2942 25.3823 43.7602 26.371C43.2261 27.3596 42.959 28.5812 42.959 30.0357C42.959 31.763 43.334 33.2062 44.084 34.3653C44.8454 35.513 45.8795 36.3823 47.1863 36.9732ZM59.5102 37.3482V36.0282H66.3965V37.3482H59.5102ZM56.5613 32.2005C55.7431 32.621 54.7999 32.8312 53.7317 32.8312C52.6181 32.8312 51.6977 32.5755 50.9704 32.0641C50.2545 31.5414 49.8965 30.7857 49.8965 29.7971C49.8965 29.1153 50.0727 28.5471 50.4249 28.0926C50.7772 27.6266 51.2715 27.2573 51.9079 26.9846C52.5442 26.7119 53.2886 26.513 54.1408 26.388C54.5386 26.3312 54.9817 26.2687 55.4704 26.2005C55.959 26.121 56.4477 26.0357 56.9363 25.9448C57.4249 25.8426 57.8624 25.7346 58.2488 25.621C58.6465 25.496 58.959 25.3596 59.1863 25.2119V27.9903C59.1863 28.9107 58.9533 29.7346 58.4874 30.4619C58.0215 31.1891 57.3795 31.7687 56.5613 32.2005ZM74.5903 36.1721C76.5221 37.2971 78.8119 37.8596 81.4596 37.8596C84.1073 37.8596 86.3914 37.2971 88.3119 36.1721C88.3921 36.1249 88.4716 36.0769 88.5504 36.0282H88.4292C88.4372 35.8236 88.4413 35.6159 88.4413 35.4051C88.4413 33.8823 88.231 32.5244 87.8106 31.3312C87.7654 31.1993 87.7177 31.0706 87.6677 30.9448H93.016C93.9026 29.0244 94.3459 26.8293 94.3459 24.3596C94.3459 21.6551 93.8232 19.2914 92.7778 17.2687C91.7323 15.2346 90.2437 13.6551 88.3119 12.5301C86.3914 11.3937 84.1073 10.8255 81.4596 10.8255C78.8119 10.8255 76.5221 11.3937 74.5903 12.5301C72.6698 13.6551 71.1869 15.2346 70.1414 17.2687C69.0959 19.2914 68.5732 21.6551 68.5732 24.3596C68.5732 27.0414 69.0959 29.3994 70.1414 31.4335C70.2219 31.5892 70.305 31.7423 70.3907 31.8928C70.4566 31.5706 70.5319 31.2546 70.6169 30.9448H78.1327C77.458 30.283 76.9363 29.4288 76.5675 28.3823C76.1584 27.1891 75.9539 25.8312 75.9539 24.3085C75.9539 22.7857 76.1584 21.4278 76.5675 20.2346C76.988 19.0414 77.6073 18.0982 78.4255 17.4051C79.255 16.7119 80.2778 16.3653 81.4937 16.3653C82.6982 16.3653 83.7039 16.7119 84.5107 17.4051C85.3175 18.0982 85.9255 19.0414 86.3346 20.2346C86.755 21.4278 86.9653 22.7857 86.9653 24.3085C86.9653 25.8312 86.755 27.1891 86.3346 28.3823C85.9255 29.5755 85.3175 30.5187 84.5107 31.2119C83.7039 31.8937 82.6982 32.2346 81.4937 32.2346C80.2778 32.2346 79.255 31.8937 78.4255 31.2119C78.3394 31.139 78.2556 31.0633 78.174 30.9849C78.1285 31.0979 78.0851 31.2133 78.0435 31.3312C77.6344 32.5244 77.4299 33.8823 77.4299 35.4051C77.4299 35.6159 77.4338 35.8236 77.4417 36.0282H74.3531C74.4314 36.0769 74.5105 36.1249 74.5903 36.1721ZM96.6675 11.1664V37.3482H103.929V36.0282H98.1435V30.9448H103.929V21.6323C103.929 20.6664 104.116 19.8255 104.491 19.1096C104.866 18.3823 105.372 17.8198 106.008 17.4221C106.656 17.013 107.383 16.8085 108.19 16.8085C109.383 16.8085 110.344 17.1891 111.071 17.9505C111.81 18.7119 112.179 19.7346 112.179 21.0187V37.3482H119.219V36.0282H113.655V32.1153C113.655 31.6975 113.616 31.3073 113.538 30.9448H119.219V21.3596C119.219 19.996 119.588 18.8994 120.327 18.0698C121.065 17.2289 122.094 16.8085 123.412 16.8085C124.571 16.8085 125.537 17.1721 126.31 17.8994C127.082 18.6266 127.469 19.7176 127.469 21.1721V37.3482H134.713V36.0282H128.945V32.2687C128.945 31.7876 128.902 31.3463 128.818 30.9448H134.713V19.7403C134.713 16.8994 133.946 14.7062 132.412 13.1607C130.889 11.6039 128.906 10.8255 126.463 10.8255C124.543 10.8255 122.878 11.2801 121.469 12.1891C120.071 13.0869 119.105 14.2857 118.571 15.7857H118.298C117.878 14.263 117.037 13.0585 115.775 12.1721C114.514 11.2744 112.986 10.8255 111.19 10.8255C109.418 10.8255 107.895 11.2687 106.622 12.1551C105.349 13.0414 104.44 14.2516 103.895 15.7857H103.588V11.1664H96.6675ZM143.026 36.2232C144.969 37.3141 147.287 37.8596 149.981 37.8596C152.14 37.8596 154.043 37.5301 155.691 36.871C156.299 36.6252 156.866 36.3442 157.392 36.0282H145.644H142.697C142.805 36.0947 142.915 36.1597 143.026 36.2232ZM156.389 30.9448H161.547C161.666 30.5904 161.765 30.2249 161.844 29.8482L155.128 29.4051C154.878 30.0641 154.515 30.621 154.037 31.0755C153.56 31.5301 152.986 31.871 152.316 32.0982C151.645 32.3255 150.907 32.4391 150.1 32.4391C148.884 32.4391 147.833 32.1835 146.947 31.6721C146.598 31.4709 146.28 31.2364 145.993 30.9684C145.794 31.5142 145.68 32.0954 145.651 32.7119H156.638C156.638 32.0792 156.555 31.4901 156.389 30.9448ZM144.884 29.4903C145.175 30.0516 145.536 30.5364 145.968 30.9448H139.043C138.949 31.2845 138.867 31.6313 138.796 31.9854C138.715 31.8436 138.636 31.6994 138.56 31.5528C137.515 29.5301 136.992 27.138 136.992 24.3766C136.992 21.6835 137.515 19.3198 138.56 17.2857C139.606 15.2516 141.077 13.6664 142.975 12.5301C144.884 11.3937 147.123 10.8255 149.691 10.8255C151.418 10.8255 153.026 11.1039 154.515 11.6607C156.015 12.2062 157.322 13.0301 158.435 14.1323C159.56 15.2346 160.435 16.621 161.06 18.2914C161.685 19.9505 161.998 21.8937 161.998 24.121V26.1153H144.168V26.1323C144.168 27.4278 144.407 28.5471 144.884 29.4903ZM144.175 21.6153C144.219 20.6751 144.461 19.8172 144.901 19.0414C145.378 18.1891 146.037 17.513 146.878 17.013C147.731 16.5016 148.708 16.246 149.81 16.246C150.867 16.246 151.793 16.4789 152.589 16.9448C153.395 17.3994 154.026 18.0301 154.481 18.8369C154.935 19.6437 155.162 20.5698 155.162 21.6153H144.175ZM164.336 11.1664V37.3482H171.598V36.0282H165.812V30.9448H171.598V21.6323C171.598 20.6664 171.785 19.8255 172.16 19.1096C172.535 18.3823 173.041 17.8198 173.677 17.4221C174.325 17.013 175.052 16.8085 175.859 16.8085C177.052 16.8085 178.012 17.1891 178.74 17.9505C179.478 18.7119 179.848 19.7346 179.848 21.0187V37.3482H186.887V36.0282H181.324V32.1153C181.324 31.6975 181.285 31.3073 181.206 30.9448H186.887V21.3596C186.887 19.996 187.257 18.8994 187.995 18.0698C188.734 17.2289 189.762 16.8085 191.081 16.8085C192.24 16.8085 193.206 17.1721 193.978 17.8994C194.751 18.6266 195.137 19.7176 195.137 21.1721V37.3482H202.382V36.0282H196.613V32.2687C196.613 31.7876 196.571 31.3463 196.487 30.9448H202.382V19.7403C202.382 16.8994 201.615 14.7062 200.081 13.1607C198.558 11.6039 196.575 10.8255 194.132 10.8255C192.211 10.8255 190.547 11.2801 189.137 12.1891C187.74 13.0869 186.774 14.2857 186.24 15.7857H185.967C185.547 14.263 184.706 13.0585 183.444 12.1721C182.183 11.2744 180.654 10.8255 178.859 10.8255C177.086 10.8255 175.564 11.2687 174.291 12.1551C173.018 13.0414 172.109 14.2516 171.564 15.7857H171.257V11.1664H164.336ZM210.695 36.2232C212.638 37.3141 214.956 37.8596 217.649 37.8596C219.808 37.8596 221.712 37.5301 223.36 36.871C223.968 36.6252 224.535 36.3442 225.061 36.0282H213.313H210.365C210.474 36.0947 210.583 36.1597 210.695 36.2232ZM224.057 30.9448H229.216C229.334 30.5904 229.433 30.2249 229.513 29.8482L222.797 29.4051C222.547 30.0641 222.183 30.621 221.706 31.0755C221.229 31.5301 220.655 31.871 219.985 32.0982C219.314 32.3255 218.575 32.4391 217.769 32.4391C216.553 32.4391 215.502 32.1835 214.615 31.6721C214.267 31.4709 213.949 31.2364 213.662 30.9684C213.462 31.5142 213.348 32.0954 213.32 32.7119H224.307C224.307 32.0792 224.224 31.4901 224.057 30.9448ZM212.553 29.4903C212.844 30.0516 213.205 30.5364 213.636 30.9448H206.711C206.618 31.2845 206.535 31.6313 206.465 31.9854C206.384 31.8436 206.305 31.6994 206.229 31.5528C205.183 29.5301 204.661 27.138 204.661 24.3766C204.661 21.6835 205.183 19.3198 206.229 17.2857C207.274 15.2516 208.746 13.6664 210.644 12.5301C212.553 11.3937 214.791 10.8255 217.36 10.8255C219.087 10.8255 220.695 11.1039 222.183 11.6607C223.683 12.2062 224.99 13.0301 226.104 14.1323C227.229 15.2346 228.104 16.621 228.729 18.2914C229.354 19.9505 229.666 21.8937 229.666 24.121V26.1153H211.837V26.1323C211.837 27.4278 212.075 28.5471 212.553 29.4903ZM211.844 21.6153C211.887 20.6751 212.13 19.8172 212.57 19.0414C213.047 18.1891 213.706 17.513 214.547 17.013C215.399 16.5016 216.377 16.246 217.479 16.246C218.536 16.246 219.462 16.4789 220.257 16.9448C221.064 17.3994 221.695 18.0301 222.149 18.8369C222.604 19.6437 222.831 20.5698 222.831 21.6153H211.844Z" fill="#88A3FF" style="mix-blend-mode:multiply"/>
</svg>
