<svg width="255" height="114" viewBox="0 0 255 114" fill="none" xmlns="http://www.w3.org/2000/svg">
<rect x="64.8862" y="3.17969" width="6.34023" height="36.8337" fill="#A13A56"/>
<rect x="64.8862" y="40.0134" width="6.34023" height="36.8337" fill="#8B2241"/>
<rect x="64.8862" y="76.8472" width="6.34023" height="36.8337" fill="#112134"/>
<path d="M93.5748 7.4202C93.5748 7.9142 93.513 8.34644 93.3895 8.71694C93.266 9.08744 93.0945 9.40991 92.875 9.68436C92.6691 9.94508 92.4221 10.1578 92.134 10.3224C91.8595 10.4871 91.5713 10.6106 91.2695 10.6929V10.7341C91.64 10.8027 91.983 10.9331 92.2986 11.1252C92.628 11.3173 92.9093 11.5574 93.1425 11.8456C93.3895 12.1338 93.5816 12.4768 93.7189 12.8748C93.8698 13.259 93.9453 13.6844 93.9453 14.1509C93.9453 14.7135 93.8492 15.2281 93.6571 15.6947C93.465 16.1612 93.1631 16.566 92.7515 16.9091C92.3535 17.2521 91.8458 17.5197 91.2283 17.7118C90.6108 17.9039 89.8767 18 89.0259 18H86.1236V3.79754H88.8612C89.6983 3.79754 90.4118 3.88673 91.0019 4.06512C91.6056 4.22979 92.0996 4.46993 92.4839 4.78554C92.8681 5.10115 93.1425 5.48537 93.3072 5.9382C93.4856 6.37731 93.5748 6.87131 93.5748 7.4202ZM91.7635 7.48195C91.7635 6.82328 91.5302 6.28126 91.0636 5.85587C90.5971 5.43048 89.8629 5.21779 88.8612 5.21779H87.9144V10.1166H88.8406C89.8012 10.1166 90.5285 9.88333 91.0225 9.41677C91.5165 8.95022 91.7635 8.30528 91.7635 7.48195ZM92.031 14.0274C92.031 13.259 91.7772 12.6552 91.2695 12.2161C90.7755 11.7633 90.0619 11.5369 89.1288 11.5369H87.9144V16.518H89.0259C90.0825 16.518 90.8441 16.3122 91.3106 15.9005C91.7909 15.4751 92.031 14.8508 92.031 14.0274ZM103.062 18H101.539V16.8885H101.497C101.456 16.9708 101.367 17.0943 101.23 17.259C101.093 17.4099 100.914 17.5609 100.695 17.7118C100.489 17.8491 100.235 17.9726 99.9331 18.0823C99.6312 18.1921 99.295 18.247 98.9245 18.247C98.4854 18.247 98.0875 18.1784 97.7307 18.0412C97.3876 17.9177 97.0926 17.7118 96.8456 17.4237C96.5986 17.1355 96.4065 16.765 96.2693 16.3122C96.1458 15.8456 96.084 15.2761 96.084 14.6038V8.12003H97.7513V14.4803C97.7513 15.3036 97.8816 15.8936 98.1423 16.2504C98.4168 16.5935 98.8353 16.765 99.3979 16.765C99.8782 16.765 100.283 16.6484 100.612 16.4151C100.942 16.1681 101.202 15.928 101.394 15.6947V8.12003H103.062V18ZM111.006 18V11.6398C111.006 10.8027 110.862 10.2058 110.574 9.84902C110.299 9.47852 109.874 9.29328 109.298 9.29328C108.804 9.29328 108.392 9.41677 108.063 9.66377C107.733 9.91077 107.473 10.1509 107.281 10.3842V18H105.613V8.12003H107.136V9.23153H107.178C107.219 9.14919 107.308 9.03255 107.445 8.88161C107.582 8.71694 107.761 8.566 107.98 8.42878C108.2 8.27783 108.461 8.14747 108.763 8.0377C109.064 7.92792 109.407 7.87303 109.792 7.87303C110.231 7.87303 110.629 7.94164 110.985 8.07886C111.342 8.20236 111.644 8.40819 111.891 8.69636C112.138 8.98453 112.33 9.36189 112.467 9.82844C112.605 10.2813 112.673 10.8439 112.673 11.5163V18H111.006ZM114.708 13.2041C114.708 12.2024 114.839 11.3653 115.099 10.6929C115.36 10.0206 115.696 9.47852 116.108 9.06686C116.52 8.65519 116.986 8.36703 117.508 8.20236C118.029 8.02397 118.551 7.93478 119.072 7.93478C119.388 7.93478 119.662 7.96222 119.895 8.01711C120.129 8.05828 120.321 8.11317 120.472 8.18178V3.44763L122.139 3.26238V18H120.616V16.9503H120.575C120.533 17.0326 120.458 17.1492 120.348 17.3002C120.238 17.4374 120.087 17.5815 119.895 17.7324C119.703 17.8696 119.463 17.9863 119.175 18.0823C118.887 18.1921 118.551 18.247 118.166 18.247C117.7 18.247 117.254 18.1578 116.828 17.9794C116.417 17.7873 116.053 17.4923 115.738 17.0943C115.422 16.6827 115.168 16.1612 114.976 15.53C114.798 14.8851 114.708 14.1098 114.708 13.2041ZM118.619 16.765C118.88 16.765 119.113 16.7307 119.319 16.6621C119.525 16.5935 119.703 16.5111 119.854 16.4151C120.005 16.3053 120.129 16.1955 120.225 16.0858C120.334 15.976 120.417 15.8799 120.472 15.7976V9.70494C120.321 9.60889 120.142 9.52655 119.936 9.45794C119.744 9.38933 119.497 9.35503 119.195 9.35503C118.811 9.35503 118.448 9.42364 118.105 9.56086C117.775 9.68436 117.487 9.89705 117.24 10.1989C116.993 10.5008 116.794 10.8919 116.643 11.3722C116.506 11.8525 116.437 12.4425 116.437 13.1423C116.437 13.8285 116.492 14.4048 116.602 14.8713C116.725 15.3242 116.89 15.6947 117.096 15.9828C117.302 16.2573 117.535 16.4563 117.796 16.5798C118.057 16.7033 118.331 16.765 118.619 16.765ZM131.029 11.4545C131.029 11.8799 131.015 12.2504 130.987 12.566C130.96 12.8679 130.933 13.1355 130.905 13.3688H125.862C125.917 14.5351 126.164 15.3928 126.603 15.9417C127.056 16.4906 127.701 16.765 128.538 16.765C128.826 16.765 129.087 16.7307 129.32 16.6621C129.553 16.5935 129.752 16.5111 129.917 16.4151C130.096 16.319 130.24 16.223 130.349 16.1269C130.473 16.0309 130.562 15.9554 130.617 15.9005L131.234 17.0738C131.166 17.1424 131.063 17.2453 130.926 17.3825C130.788 17.506 130.603 17.6364 130.37 17.7736C130.137 17.8971 129.849 18.0069 129.505 18.1029C129.162 18.199 128.758 18.247 128.291 18.247C127.674 18.247 127.111 18.1441 126.603 17.9383C126.109 17.7324 125.684 17.4168 125.327 16.9914C124.984 16.5523 124.716 16.0034 124.524 15.3448C124.332 14.6724 124.236 13.8696 124.236 12.9365C124.236 12.0583 124.332 11.3036 124.524 10.6724C124.73 10.0274 125.005 9.49911 125.348 9.08744C125.691 8.67578 126.089 8.37389 126.541 8.18178C126.994 7.97595 127.481 7.87303 128.003 7.87303C128.95 7.87303 129.691 8.17492 130.226 8.77869C130.761 9.36875 131.029 10.2607 131.029 11.4545ZM127.9 9.23153C127.31 9.23153 126.836 9.47852 126.48 9.97252C126.123 10.4665 125.917 11.1801 125.862 12.1132H129.464C129.478 12.0446 129.485 11.9485 129.485 11.825C129.499 11.6878 129.505 11.5437 129.505 11.3928C129.505 10.7067 129.368 10.1784 129.094 9.80786C128.819 9.42364 128.421 9.23153 127.9 9.23153ZM137.513 10.1166C137.403 9.99311 137.204 9.82844 136.916 9.62261C136.628 9.40305 136.25 9.29328 135.784 9.29328C135.345 9.29328 135.008 9.39619 134.775 9.60202C134.542 9.80786 134.425 10.0549 134.425 10.343C134.425 10.7135 134.528 11.0223 134.734 11.2693C134.953 11.5025 135.283 11.7564 135.722 12.0309L136.339 12.4013C137.012 12.7993 137.54 13.2315 137.924 13.6981C138.309 14.1509 138.501 14.741 138.501 15.4683C138.501 16.2504 138.226 16.9091 137.677 17.4443C137.142 17.9794 136.367 18.247 135.351 18.247C134.953 18.247 134.604 18.2058 134.302 18.1235C134 18.0412 133.732 17.9451 133.499 17.8353C133.279 17.7256 133.094 17.6089 132.943 17.4854C132.792 17.3482 132.669 17.2247 132.573 17.1149L133.375 15.7976C133.458 15.8799 133.554 15.976 133.664 16.0858C133.787 16.1955 133.931 16.3053 134.096 16.4151C134.261 16.5111 134.446 16.5935 134.652 16.6621C134.857 16.7307 135.098 16.765 135.372 16.765C135.866 16.765 136.243 16.6552 136.504 16.4357C136.765 16.2161 136.895 15.9485 136.895 15.6329C136.895 15.3996 136.861 15.2007 136.792 15.036C136.737 14.8576 136.648 14.6998 136.525 14.5626C136.401 14.4254 136.25 14.295 136.072 14.1715C135.893 14.048 135.688 13.9108 135.454 13.7598L134.837 13.3688C134.219 12.9708 133.732 12.5523 133.375 12.1132C133.032 11.6741 132.861 11.1115 132.861 10.4254C132.861 10.0549 132.929 9.71866 133.067 9.41677C133.218 9.10116 133.423 8.83358 133.684 8.61403C133.945 8.38075 134.247 8.20236 134.59 8.07886C134.947 7.94164 135.324 7.87303 135.722 7.87303C136.106 7.87303 136.435 7.9142 136.71 7.99653C136.984 8.06514 137.218 8.16119 137.41 8.28469C137.616 8.39447 137.78 8.51111 137.904 8.63461C138.041 8.74439 138.151 8.84044 138.233 8.92278L137.513 10.1166ZM139.872 15.4888C139.872 14.9125 139.981 14.4322 140.201 14.048C140.421 13.6638 140.716 13.355 141.086 13.1218C141.457 12.8748 141.889 12.7032 142.383 12.6072C142.891 12.4974 143.426 12.4425 143.988 12.4425H144.503V11.4957C144.503 10.6586 144.352 10.0823 144.05 9.76669C143.762 9.45108 143.35 9.29328 142.815 9.29328C142.321 9.29328 141.909 9.40305 141.58 9.62261C141.251 9.82844 140.99 10.0137 140.798 10.1784L140.098 9.06686C140.208 8.95708 140.345 8.83358 140.51 8.69636C140.688 8.55914 140.901 8.42878 141.148 8.30528C141.395 8.18178 141.676 8.07886 141.992 7.99653C142.307 7.9142 142.664 7.87303 143.062 7.87303C144.078 7.87303 144.846 8.15433 145.367 8.71694C145.889 9.27955 146.15 10.1852 146.15 11.4339V15.9417C146.15 16.3671 146.163 16.7856 146.191 17.1973C146.218 17.5952 146.246 17.8628 146.273 18H144.688L144.626 16.9091H144.585C144.53 17.0326 144.448 17.1767 144.338 17.3413C144.229 17.4923 144.091 17.6364 143.927 17.7736C143.762 17.8971 143.563 18.0069 143.33 18.1029C143.096 18.199 142.822 18.247 142.506 18.247C142.136 18.247 141.786 18.1784 141.457 18.0412C141.141 17.9039 140.86 17.7118 140.613 17.4648C140.379 17.2178 140.194 16.9297 140.057 16.6003C139.933 16.2573 139.872 15.8868 139.872 15.4888ZM142.856 16.8268C143.09 16.8268 143.295 16.7924 143.474 16.7238C143.652 16.6552 143.803 16.5729 143.927 16.4768C144.064 16.3808 144.174 16.2779 144.256 16.1681C144.352 16.0446 144.434 15.9417 144.503 15.8593V13.6775L143.968 13.6981C143.172 13.7255 142.568 13.8628 142.156 14.1098C141.745 14.3568 141.539 14.7547 141.539 15.3036C141.539 15.8113 141.656 16.1955 141.889 16.4563C142.122 16.7033 142.445 16.8268 142.856 16.8268ZM152.395 12.6483L155.791 18H153.795L151.016 13.3893H150.337V18H148.669V3.44763L150.337 3.26238V11.9691H151.036L153.692 8.12003H155.668L152.395 12.6483ZM156.555 15.4888C156.555 14.9125 156.665 14.4322 156.885 14.048C157.104 13.6638 157.399 13.355 157.77 13.1218C158.14 12.8748 158.573 12.7032 159.067 12.6072C159.574 12.4974 160.109 12.4425 160.672 12.4425H161.187V11.4957C161.187 10.6586 161.036 10.0823 160.734 9.76669C160.446 9.45108 160.034 9.29328 159.499 9.29328C159.005 9.29328 158.593 9.40305 158.264 9.62261C157.934 9.82844 157.674 10.0137 157.482 10.1784L156.782 9.06686C156.892 8.95708 157.029 8.83358 157.193 8.69636C157.372 8.55914 157.585 8.42878 157.832 8.30528C158.079 8.18178 158.36 8.07886 158.675 7.99653C158.991 7.9142 159.348 7.87303 159.746 7.87303C160.761 7.87303 161.53 8.15433 162.051 8.71694C162.573 9.27955 162.833 10.1852 162.833 11.4339V15.9417C162.833 16.3671 162.847 16.7856 162.874 17.1973C162.902 17.5952 162.929 17.8628 162.957 18H161.372L161.31 16.9091H161.269C161.214 17.0326 161.132 17.1767 161.022 17.3413C160.912 17.4923 160.775 17.6364 160.61 17.7736C160.446 17.8971 160.247 18.0069 160.013 18.1029C159.78 18.199 159.506 18.247 159.19 18.247C158.82 18.247 158.47 18.1784 158.14 18.0412C157.825 17.9039 157.543 17.7118 157.296 17.4648C157.063 17.2178 156.878 16.9297 156.741 16.6003C156.617 16.2573 156.555 15.8868 156.555 15.4888ZM159.54 16.8268C159.773 16.8268 159.979 16.7924 160.157 16.7238C160.336 16.6552 160.487 16.5729 160.61 16.4768C160.748 16.3808 160.857 16.2779 160.94 16.1681C161.036 16.0446 161.118 15.9417 161.187 15.8593V13.6775L160.651 13.6981C159.856 13.7255 159.252 13.8628 158.84 14.1098C158.428 14.3568 158.223 14.7547 158.223 15.3036C158.223 15.8113 158.339 16.1955 158.573 16.4563C158.806 16.7033 159.128 16.8268 159.54 16.8268ZM164.9 13.2041C164.9 12.2024 165.031 11.3653 165.291 10.6929C165.552 10.0206 165.888 9.47852 166.3 9.06686C166.711 8.65519 167.178 8.36703 167.699 8.20236C168.221 8.02397 168.742 7.93478 169.264 7.93478C169.579 7.93478 169.854 7.96222 170.087 8.01711C170.32 8.05828 170.513 8.11317 170.663 8.18178V3.44763L172.331 3.26238V18H170.808V16.9503H170.766C170.725 17.0326 170.65 17.1492 170.54 17.3002C170.43 17.4374 170.279 17.5815 170.087 17.7324C169.895 17.8696 169.655 17.9863 169.367 18.0823C169.079 18.1921 168.742 18.247 168.358 18.247C167.892 18.247 167.446 18.1578 167.02 17.9794C166.609 17.7873 166.245 17.4923 165.929 17.0943C165.614 16.6827 165.36 16.1612 165.168 15.53C164.989 14.8851 164.9 14.1098 164.9 13.2041ZM168.811 16.765C169.072 16.765 169.305 16.7307 169.511 16.6621C169.717 16.5935 169.895 16.5111 170.046 16.4151C170.197 16.3053 170.32 16.1955 170.416 16.0858C170.526 15.976 170.609 15.8799 170.663 15.7976V9.70494C170.513 9.60889 170.334 9.52655 170.128 9.45794C169.936 9.38933 169.689 9.35503 169.387 9.35503C169.003 9.35503 168.639 9.42364 168.296 9.56086C167.967 9.68436 167.679 9.89705 167.432 10.1989C167.185 10.5008 166.986 10.8919 166.835 11.3722C166.698 11.8525 166.629 12.4425 166.629 13.1423C166.629 13.8285 166.684 14.4048 166.794 14.8713C166.917 15.3242 167.082 15.6947 167.288 15.9828C167.494 16.2573 167.727 16.4563 167.988 16.5798C168.248 16.7033 168.523 16.765 168.811 16.765ZM181.22 11.4545C181.22 11.8799 181.207 12.2504 181.179 12.566C181.152 12.8679 181.124 13.1355 181.097 13.3688H176.054C176.109 14.5351 176.356 15.3928 176.795 15.9417C177.248 16.4906 177.893 16.765 178.73 16.765C179.018 16.765 179.279 16.7307 179.512 16.6621C179.745 16.5935 179.944 16.5111 180.109 16.4151C180.287 16.319 180.431 16.223 180.541 16.1269C180.665 16.0309 180.754 15.9554 180.809 15.9005L181.426 17.0738C181.358 17.1424 181.255 17.2453 181.118 17.3825C180.98 17.506 180.795 17.6364 180.562 17.7736C180.329 17.8971 180.04 18.0069 179.697 18.1029C179.354 18.199 178.949 18.247 178.483 18.247C177.865 18.247 177.303 18.1441 176.795 17.9383C176.301 17.7324 175.876 17.4168 175.519 16.9914C175.176 16.5523 174.908 16.0034 174.716 15.3448C174.524 14.6724 174.428 13.8696 174.428 12.9365C174.428 12.0583 174.524 11.3036 174.716 10.6724C174.922 10.0274 175.196 9.49911 175.539 9.08744C175.883 8.67578 176.28 8.37389 176.733 8.18178C177.186 7.97595 177.673 7.87303 178.195 7.87303C179.142 7.87303 179.883 8.17492 180.418 8.77869C180.953 9.36875 181.22 10.2607 181.22 11.4545ZM178.092 9.23153C177.502 9.23153 177.028 9.47852 176.672 9.97252C176.315 10.4665 176.109 11.1801 176.054 12.1132H179.656C179.67 12.0446 179.677 11.9485 179.677 11.825C179.69 11.6878 179.697 11.5437 179.697 11.3928C179.697 10.7067 179.56 10.1784 179.286 9.80786C179.011 9.42364 178.613 9.23153 178.092 9.23153ZM188.631 18V11.6398C188.631 10.8302 188.514 10.247 188.281 9.89019C188.048 9.53341 187.67 9.35503 187.149 9.35503C186.874 9.35503 186.627 9.38933 186.408 9.45794C186.202 9.52655 186.017 9.61575 185.852 9.72552C185.687 9.82158 185.543 9.93136 185.42 10.0549C185.296 10.1784 185.193 10.2881 185.111 10.3842V18H183.444V8.12003H184.967V9.23153H185.008C185.077 9.12175 185.18 8.99139 185.317 8.84044C185.454 8.67578 185.626 8.52483 185.831 8.38761C186.037 8.23667 186.277 8.11317 186.552 8.01711C186.826 7.92106 187.135 7.87303 187.478 7.87303C188.603 7.87303 189.399 8.31214 189.866 9.19036C189.962 9.05314 190.092 8.90905 190.257 8.75811C190.421 8.59344 190.614 8.44936 190.833 8.32586C191.053 8.18864 191.3 8.07886 191.574 7.99653C191.849 7.9142 192.15 7.87303 192.48 7.87303C194.483 7.87303 195.485 9.03941 195.485 11.3722V18H193.818V11.6398C193.818 10.8302 193.674 10.247 193.385 9.89019C193.097 9.53341 192.672 9.35503 192.109 9.35503C191.643 9.35503 191.252 9.47166 190.936 9.70494C190.634 9.9245 190.394 10.1372 190.216 10.343C190.243 10.494 190.264 10.6586 190.277 10.837C190.291 11.0017 190.298 11.1801 190.298 11.3722V18H188.631ZM199.644 18H197.977V8.12003H199.644V18ZM198.821 5.73237C198.478 5.73237 198.203 5.62259 197.997 5.40304C197.791 5.18348 197.689 4.89532 197.689 4.53854C197.689 4.19548 197.791 3.91418 197.997 3.69462C198.203 3.47507 198.478 3.36529 198.821 3.36529C199.15 3.36529 199.418 3.47507 199.623 3.69462C199.829 3.91418 199.932 4.19548 199.932 4.53854C199.932 4.89532 199.829 5.18348 199.623 5.40304C199.418 5.62259 199.15 5.73237 198.821 5.73237ZM208.538 11.4545C208.538 11.8799 208.524 12.2504 208.496 12.566C208.469 12.8679 208.441 13.1355 208.414 13.3688H203.371C203.426 14.5351 203.673 15.3928 204.112 15.9417C204.565 16.4906 205.21 16.765 206.047 16.765C206.335 16.765 206.596 16.7307 206.829 16.6621C207.062 16.5935 207.261 16.5111 207.426 16.4151C207.604 16.319 207.748 16.223 207.858 16.1269C207.982 16.0309 208.071 15.9554 208.126 15.9005L208.743 17.0738C208.675 17.1424 208.572 17.2453 208.435 17.3825C208.297 17.506 208.112 17.6364 207.879 17.7736C207.646 17.8971 207.357 18.0069 207.014 18.1029C206.671 18.199 206.266 18.247 205.8 18.247C205.182 18.247 204.62 18.1441 204.112 17.9383C203.618 17.7324 203.193 17.4168 202.836 16.9914C202.493 16.5523 202.225 16.0034 202.033 15.3448C201.841 14.6724 201.745 13.8696 201.745 12.9365C201.745 12.0583 201.841 11.3036 202.033 10.6724C202.239 10.0274 202.513 9.49911 202.857 9.08744C203.2 8.67578 203.598 8.37389 204.05 8.18178C204.503 7.97595 204.99 7.87303 205.512 7.87303C206.459 7.87303 207.2 8.17492 207.735 8.77869C208.27 9.36875 208.538 10.2607 208.538 11.4545ZM205.409 9.23153C204.819 9.23153 204.345 9.47852 203.989 9.97252C203.632 10.4665 203.426 11.1801 203.371 12.1132H206.973C206.987 12.0446 206.994 11.9485 206.994 11.825C207.007 11.6878 207.014 11.5437 207.014 11.3928C207.014 10.7067 206.877 10.1784 206.603 9.80786C206.328 9.42364 205.93 9.23153 205.409 9.23153ZM214.67 13.2041C214.67 12.2024 214.8 11.3653 215.061 10.6929C215.322 10.0206 215.658 9.47852 216.07 9.06686C216.481 8.65519 216.948 8.36703 217.469 8.20236C217.991 8.02397 218.512 7.93478 219.034 7.93478C219.349 7.93478 219.624 7.96222 219.857 8.01711C220.09 8.05828 220.282 8.11317 220.433 8.18178V3.44763L222.1 3.26238V18H220.577V16.9503H220.536C220.495 17.0326 220.419 17.1492 220.31 17.3002C220.2 17.4374 220.049 17.5815 219.857 17.7324C219.665 17.8696 219.425 17.9863 219.136 18.0823C218.848 18.1921 218.512 18.247 218.128 18.247C217.661 18.247 217.215 18.1578 216.79 17.9794C216.378 17.7873 216.015 17.4923 215.699 17.0943C215.383 16.6827 215.13 16.1612 214.937 15.53C214.759 14.8851 214.67 14.1098 214.67 13.2041ZM218.581 16.765C218.841 16.765 219.075 16.7307 219.281 16.6621C219.486 16.5935 219.665 16.5111 219.816 16.4151C219.967 16.3053 220.09 16.1955 220.186 16.0858C220.296 15.976 220.378 15.8799 220.433 15.7976V9.70494C220.282 9.60889 220.104 9.52655 219.898 9.45794C219.706 9.38933 219.459 9.35503 219.157 9.35503C218.773 9.35503 218.409 9.42364 218.066 9.56086C217.737 9.68436 217.449 9.89705 217.202 10.1989C216.955 10.5008 216.756 10.8919 216.605 11.3722C216.467 11.8525 216.399 12.4425 216.399 13.1423C216.399 13.8285 216.454 14.4048 216.564 14.8713C216.687 15.3242 216.852 15.6947 217.058 15.9828C217.263 16.2573 217.497 16.4563 217.757 16.5798C218.018 16.7033 218.293 16.765 218.581 16.765ZM230.99 11.4545C230.99 11.8799 230.976 12.2504 230.949 12.566C230.922 12.8679 230.894 13.1355 230.867 13.3688H225.824C225.879 14.5351 226.126 15.3928 226.565 15.9417C227.018 16.4906 227.663 16.765 228.5 16.765C228.788 16.765 229.048 16.7307 229.282 16.6621C229.515 16.5935 229.714 16.5111 229.879 16.4151C230.057 16.319 230.201 16.223 230.311 16.1269C230.434 16.0309 230.524 15.9554 230.578 15.9005L231.196 17.0738C231.127 17.1424 231.024 17.2453 230.887 17.3825C230.75 17.506 230.565 17.6364 230.331 17.7736C230.098 17.8971 229.81 18.0069 229.467 18.1029C229.124 18.199 228.719 18.247 228.253 18.247C227.635 18.247 227.072 18.1441 226.565 17.9383C226.071 17.7324 225.645 17.4168 225.289 16.9914C224.946 16.5523 224.678 16.0034 224.486 15.3448C224.294 14.6724 224.198 13.8696 224.198 12.9365C224.198 12.0583 224.294 11.3036 224.486 10.6724C224.692 10.0274 224.966 9.49911 225.309 9.08744C225.652 8.67578 226.05 8.37389 226.503 8.18178C226.956 7.97595 227.443 7.87303 227.964 7.87303C228.911 7.87303 229.652 8.17492 230.187 8.77869C230.723 9.36875 230.99 10.2607 230.99 11.4545ZM227.861 9.23153C227.271 9.23153 226.798 9.47852 226.441 9.97252C226.084 10.4665 225.879 11.1801 225.824 12.1132H229.426C229.44 12.0446 229.446 11.9485 229.446 11.825C229.46 11.6878 229.467 11.5437 229.467 11.3928C229.467 10.7067 229.33 10.1784 229.055 9.80786C228.781 9.42364 228.383 9.23153 227.861 9.23153ZM237.557 9.58144C237.515 9.554 237.426 9.51969 237.289 9.47852C237.152 9.43736 236.966 9.41677 236.733 9.41677C236.212 9.41677 235.8 9.56086 235.498 9.84902C235.21 10.1235 235.004 10.4254 234.881 10.7547V18H233.213V8.12003H234.737V9.45794H234.778C234.846 9.26583 234.936 9.08058 235.045 8.90219C235.155 8.71008 235.292 8.54542 235.457 8.40819C235.622 8.25725 235.814 8.14061 236.033 8.05828C236.267 7.97595 236.541 7.93478 236.857 7.93478C237.09 7.93478 237.275 7.95536 237.412 7.99653C237.563 8.0377 237.68 8.072 237.762 8.09944L237.557 9.58144ZM92.6074 40L89.664 34.1749C89.513 34.1887 89.3552 34.2024 89.1905 34.2161C89.0259 34.2161 88.8612 34.2161 88.6965 34.2161H87.9144V40H86.1236V25.7975H88.7789C90.4942 25.7975 91.7566 26.1337 92.5662 26.8061C93.3895 27.4648 93.8012 28.4528 93.8012 29.7701C93.8012 30.7169 93.6022 31.5266 93.2043 32.1989C92.8063 32.8713 92.1957 33.3859 91.3724 33.7427L94.7069 40H92.6074ZM91.887 29.873C91.887 28.9674 91.6331 28.3018 91.1254 27.8765C90.6314 27.4373 89.8492 27.2178 88.7789 27.2178H87.9144V32.7959H88.6965C89.7806 32.7959 90.5833 32.542 91.1048 32.0343C91.6262 31.5266 91.887 30.8061 91.887 29.873ZM95.7331 35.06C95.7331 34.1544 95.836 33.3722 96.0419 32.7135C96.2614 32.0549 96.5496 31.5197 96.9064 31.108C97.2769 30.6826 97.6954 30.3739 98.162 30.1818C98.6422 29.9759 99.15 29.873 99.6851 29.873C100.234 29.873 100.742 29.9759 101.208 30.1818C101.675 30.3739 102.08 30.6826 102.423 31.108C102.766 31.5197 103.033 32.0549 103.225 32.7135C103.431 33.3722 103.534 34.1544 103.534 35.06C103.534 35.9794 103.431 36.7684 103.225 37.4271C103.02 38.0858 102.731 38.6278 102.361 39.0532C102.004 39.4648 101.586 39.7667 101.105 39.9588C100.625 40.1509 100.117 40.247 99.5822 40.247C99.0333 40.247 98.5256 40.1509 98.059 39.9588C97.5925 39.7667 97.1877 39.4648 96.8446 39.0532C96.5016 38.6278 96.2271 38.0926 96.0213 37.4477C95.8292 36.789 95.7331 35.9931 95.7331 35.06ZM101.805 35.06C101.805 33.7427 101.613 32.789 101.229 32.1989C100.845 31.5952 100.309 31.2933 99.6234 31.2933C98.9373 31.2933 98.4021 31.5952 98.0179 32.1989C97.6474 32.789 97.4621 33.7427 97.4621 35.06C97.4621 36.3773 97.6542 37.3242 98.0385 37.9005C98.4227 38.4768 98.9578 38.765 99.644 38.765C100.33 38.765 100.858 38.4768 101.229 37.9005C101.613 37.3242 101.805 36.3773 101.805 35.06ZM109.752 31.4785H107.591V36.9537C107.591 37.6535 107.68 38.1338 107.859 38.3945C108.037 38.6415 108.339 38.765 108.764 38.765C109.011 38.765 109.224 38.7307 109.403 38.6621C109.581 38.5935 109.711 38.5317 109.794 38.4768L110.02 39.8148C109.951 39.8696 109.787 39.952 109.526 40.0617C109.265 40.1852 108.915 40.247 108.476 40.247C107.625 40.247 106.987 40.0137 106.562 39.5472C106.137 39.0669 105.924 38.2779 105.924 37.1801V31.4785H104.73V30.367L105.924 30.12L106.109 27.3619H107.591V30.12H109.958L109.752 31.4785ZM117.842 33.4545C117.842 33.8799 117.829 34.2504 117.801 34.566C117.774 34.8679 117.746 35.1355 117.719 35.3688H112.676C112.731 36.5351 112.978 37.3928 113.417 37.9417C113.87 38.4906 114.515 38.765 115.352 38.765C115.64 38.765 115.901 38.7307 116.134 38.6621C116.367 38.5935 116.566 38.5111 116.731 38.4151C116.909 38.319 117.053 38.223 117.163 38.1269C117.287 38.0309 117.376 37.9554 117.431 37.9005L118.048 39.0738C117.98 39.1424 117.877 39.2453 117.74 39.3825C117.602 39.506 117.417 39.6364 117.184 39.7736C116.951 39.8971 116.662 40.0069 116.319 40.1029C115.976 40.199 115.571 40.247 115.105 40.247C114.487 40.247 113.925 40.1441 113.417 39.9383C112.923 39.7324 112.498 39.4168 112.141 38.9914C111.798 38.5523 111.53 38.0034 111.338 37.3448C111.146 36.6724 111.05 35.8696 111.05 34.9365C111.05 34.0583 111.146 33.3036 111.338 32.6724C111.544 32.0274 111.818 31.4991 112.161 31.0874C112.505 30.6758 112.902 30.3739 113.355 30.1818C113.808 29.9759 114.295 29.873 114.817 29.873C115.764 29.873 116.505 30.1749 117.04 30.7787C117.575 31.3687 117.842 32.2607 117.842 33.4545ZM114.714 31.2315C114.124 31.2315 113.65 31.4785 113.294 31.9725C112.937 32.4665 112.731 33.1801 112.676 34.1132H116.278C116.292 34.0446 116.299 33.9485 116.299 33.825C116.312 33.6878 116.319 33.5437 116.319 33.3928C116.319 32.7067 116.182 32.1784 115.908 31.8079C115.633 31.4236 115.235 31.2315 114.714 31.2315ZM125.459 40V33.6398C125.459 32.8027 125.315 32.2058 125.026 31.849C124.752 31.4785 124.327 31.2933 123.75 31.2933C123.256 31.2933 122.845 31.4168 122.515 31.6638C122.186 31.9108 121.925 32.1509 121.733 32.3842V40H120.066V30.12H121.589V31.2315H121.63C121.671 31.1492 121.76 31.0326 121.898 30.8816C122.035 30.7169 122.213 30.566 122.433 30.4288C122.652 30.2778 122.913 30.1475 123.215 30.0377C123.517 29.9279 123.86 29.873 124.244 29.873C124.683 29.873 125.081 29.9416 125.438 30.0789C125.795 30.2024 126.097 30.4082 126.344 30.6964C126.591 30.9845 126.783 31.3619 126.92 31.8284C127.057 32.2813 127.126 32.8439 127.126 33.5163V40H125.459ZM148.208 25.7975L144.75 40H143.144L140.983 31.0669C140.832 30.4494 140.702 29.873 140.592 29.3379C140.482 28.8027 140.42 28.3773 140.407 28.0617H140.366C140.366 28.3773 140.311 28.7958 140.201 29.3173C140.091 29.8387 139.961 30.4082 139.81 31.0257L137.607 40H136.002L132.626 25.7975H134.54L136.311 34.4425C136.448 35.1012 136.565 35.7255 136.661 36.3156C136.77 36.8919 136.832 37.3379 136.846 37.6535H136.887C136.901 37.3379 136.969 36.8782 137.093 36.2744C137.23 35.6707 137.374 35.0463 137.525 34.4013L139.625 25.7975H141.333L143.391 34.4425C143.542 35.1012 143.679 35.7255 143.803 36.3156C143.926 36.8919 143.995 37.3379 144.009 37.6535H144.05C144.064 37.3379 144.125 36.8782 144.235 36.2744C144.345 35.6569 144.468 35.0188 144.606 34.3602L146.396 25.7975H148.208ZM151.422 40H149.755V30.12H151.422V40ZM150.599 27.7324C150.256 27.7324 149.981 27.6226 149.775 27.403C149.569 27.1835 149.467 26.8953 149.467 26.5385C149.467 26.1955 149.569 25.9142 149.775 25.6946C149.981 25.4751 150.256 25.3653 150.599 25.3653C150.928 25.3653 151.196 25.4751 151.401 25.6946C151.607 25.9142 151.71 26.1955 151.71 26.5385C151.71 26.8953 151.607 27.1835 151.401 27.403C151.196 27.6226 150.928 27.7324 150.599 27.7324ZM159.369 40V33.6398C159.369 32.8027 159.225 32.2058 158.936 31.849C158.662 31.4785 158.237 31.2933 157.66 31.2933C157.166 31.2933 156.755 31.4168 156.425 31.6638C156.096 31.9108 155.835 32.1509 155.643 32.3842V40H153.976V30.12H155.499V31.2315H155.54C155.581 31.1492 155.671 31.0326 155.808 30.8816C155.945 30.7169 156.123 30.566 156.343 30.4288C156.563 30.2778 156.823 30.1475 157.125 30.0377C157.427 29.9279 157.77 29.873 158.154 29.873C158.593 29.873 158.991 29.9416 159.348 30.0789C159.705 30.2024 160.007 30.4082 160.254 30.6964C160.501 30.9845 160.693 31.3619 160.83 31.8284C160.967 32.2813 161.036 32.8439 161.036 33.5163V40H159.369ZM167.743 31.4785H165.582V36.9537C165.582 37.6535 165.671 38.1338 165.85 38.3945C166.028 38.6415 166.33 38.765 166.755 38.765C167.002 38.765 167.215 38.7307 167.393 38.6621C167.572 38.5935 167.702 38.5317 167.785 38.4768L168.011 39.8148C167.942 39.8696 167.778 39.952 167.517 40.0617C167.256 40.1852 166.906 40.247 166.467 40.247C165.616 40.247 164.978 40.0137 164.553 39.5472C164.128 39.0669 163.915 38.2779 163.915 37.1801V31.4785H162.721V30.367L163.915 30.12L164.1 27.3619H165.582V30.12H167.949L167.743 31.4785ZM175.833 33.4545C175.833 33.8799 175.82 34.2504 175.792 34.566C175.765 34.8679 175.737 35.1355 175.71 35.3688H170.667C170.722 36.5351 170.969 37.3928 171.408 37.9417C171.861 38.4906 172.506 38.765 173.343 38.765C173.631 38.765 173.892 38.7307 174.125 38.6621C174.358 38.5935 174.557 38.5111 174.722 38.4151C174.9 38.319 175.044 38.223 175.154 38.1269C175.278 38.0309 175.367 37.9554 175.422 37.9005L176.039 39.0738C175.971 39.1424 175.868 39.2453 175.731 39.3825C175.593 39.506 175.408 39.6364 175.175 39.7736C174.941 39.8971 174.653 40.0069 174.31 40.1029C173.967 40.199 173.562 40.247 173.096 40.247C172.478 40.247 171.916 40.1441 171.408 39.9383C170.914 39.7324 170.489 39.4168 170.132 38.9914C169.789 38.5523 169.521 38.0034 169.329 37.3448C169.137 36.6724 169.041 35.8696 169.041 34.9365C169.041 34.0583 169.137 33.3036 169.329 32.6724C169.535 32.0274 169.809 31.4991 170.152 31.0874C170.495 30.6758 170.893 30.3739 171.346 30.1818C171.799 29.9759 172.286 29.873 172.808 29.873C173.755 29.873 174.496 30.1749 175.031 30.7787C175.566 31.3687 175.833 32.2607 175.833 33.4545ZM172.705 31.2315C172.115 31.2315 171.641 31.4785 171.285 31.9725C170.928 32.4665 170.722 33.1801 170.667 34.1132H174.269C174.283 34.0446 174.29 33.9485 174.29 33.825C174.303 33.6878 174.31 33.5437 174.31 33.3928C174.31 32.7067 174.173 32.1784 173.899 31.8079C173.624 31.4236 173.226 31.2315 172.705 31.2315ZM182.4 31.5814C182.359 31.554 182.269 31.5197 182.132 31.4785C181.995 31.4374 181.81 31.4168 181.576 31.4168C181.055 31.4168 180.643 31.5609 180.341 31.849C180.053 32.1235 179.847 32.4254 179.724 32.7547V40H178.057V30.12H179.58V31.4579H179.621C179.69 31.2658 179.779 31.0806 179.889 30.9022C179.998 30.7101 180.136 30.5454 180.3 30.4082C180.465 30.2573 180.657 30.1406 180.877 30.0583C181.11 29.9759 181.384 29.9348 181.7 29.9348C181.933 29.9348 182.118 29.9554 182.256 29.9965C182.407 30.0377 182.523 30.072 182.606 30.0994L182.4 31.5814Z" fill="black"/>
<path fill-rule="evenodd" clip-rule="evenodd" d="M22.3222 2.69785C21.4728 5.24916 20.5485 7.95218 20.5137 7.987C20.494 8.00673 20.131 8.12345 19.7072 8.24639C18.5385 8.58532 17.4475 9.02931 16.2592 9.64956L15.1845 10.2105L12.1574 8.72405C10.4925 7.9065 9.10258 7.23758 9.06858 7.23758C8.96054 7.23758 6.33616 9.90965 6.33616 10.0196C6.33616 10.0775 7.00566 11.47 7.82387 13.114L9.31158 16.103L8.87878 16.8661C8.33871 17.8183 7.64344 19.4912 7.32026 20.616L7.07419 21.4726L4.09815 22.4673C2.46129 23.0144 1.01371 23.5059 0.881122 23.5596L0.640137 23.6573V25.6455V27.6337L2.15177 28.1502C2.98313 28.4344 4.42817 28.9287 5.36284 29.2488L7.06218 29.8308L7.51559 31.1838C7.95444 32.4937 8.47611 33.6792 9.05929 34.6922L9.34094 35.1815L7.80713 38.2133L6.27333 41.245L7.70986 42.6786L9.14631 44.1121L12.1594 42.5797L15.1724 41.0474L15.4645 41.195C15.6251 41.2763 16.0325 41.4939 16.3699 41.6786C17.2751 42.1742 18.3496 42.6127 19.437 42.9301C19.9672 43.0849 20.4446 43.2563 20.4979 43.3111C20.5512 43.3658 21.0599 44.8115 21.6285 46.5237C22.197 48.2359 22.6804 49.6868 22.7027 49.7479C22.7341 49.8343 23.187 49.854 24.7268 49.8356L26.7104 49.8121L27.8058 46.526L28.9012 43.2399L29.7592 42.9963C31.2108 42.5841 32.8153 41.9057 33.7802 41.2962C33.9626 41.181 34.1566 41.0868 34.2113 41.0868C34.2661 41.0868 35.6703 41.7674 37.3319 42.5994L40.3528 44.1121L41.7378 42.6681L43.1228 41.2242L41.918 38.8096C40.4721 35.912 40.1618 35.2619 40.1618 35.13C40.1618 35.0749 40.3335 34.7255 40.5434 34.3533C41.1177 33.3351 41.5983 32.21 41.9574 31.0426C42.1349 30.4657 42.2884 29.9584 42.2986 29.9154C42.3087 29.8722 43.7404 29.3543 45.4802 28.7644C47.2198 28.1744 48.6869 27.6648 48.7402 27.6318C48.8064 27.5909 48.8372 26.9593 48.8372 25.6459C48.8372 23.7327 48.8359 23.7194 48.6401 23.6336C48.5317 23.5861 47.063 23.0796 45.3763 22.5079L42.3099 21.4685L42.2329 21.1711C41.8792 19.8028 41.1332 17.9486 40.4538 16.749L40.1043 16.132L41.6214 13.066L43.1384 9.99988L41.7607 8.61873C41.0028 7.85914 40.3548 7.23758 40.3205 7.23758C40.2861 7.23758 38.8999 7.91158 37.2399 8.73545L34.2217 10.2332L33.5331 9.84327C32.1971 9.08657 30.4192 8.37811 29.1146 8.08258C28.9047 8.03497 28.8186 7.81758 27.8002 4.76273L26.7104 1.49375L24.7246 1.47016L22.7388 1.44666L22.3222 2.69785ZM27.3788 9.68963C30.9104 10.3322 33.65 11.7129 36.0711 14.0704C38.617 16.5492 40.101 19.3942 40.7815 23.1002C41.0262 24.4329 41.0203 27.0322 40.7696 28.345C40.0418 32.1568 38.6336 34.8397 36.0274 37.3797C32.8823 40.4451 28.3486 42.1513 23.9938 41.9084C22.5031 41.8253 20.0724 41.3489 19.3494 40.9981C19.253 40.9513 18.9134 40.8164 18.5948 40.6983C16.4051 39.8867 13.7696 37.91 12.0976 35.8252C10.4959 33.8282 9.3207 31.2209 8.83435 28.5857C8.54043 26.9936 8.51651 24.5401 8.7808 23.1099C9.0394 21.7106 9.18811 21.1305 9.53373 20.1722C10.9182 16.3335 13.7792 13.0995 17.4391 11.2363C18.9148 10.4851 20.3375 10.0195 22.1536 9.69358C23.4365 9.46338 26.1239 9.46137 27.3788 9.68963ZM23.6433 10.0479C17.1525 10.4934 11.5338 15.0389 9.70926 21.3207C9.08278 23.4775 8.92899 26.2165 9.31343 28.3714C10.4853 34.9413 15.5256 39.9859 22.1098 41.1787C23.6677 41.4608 25.9114 41.4618 27.4553 41.1808C31.4043 40.4621 34.8764 38.3497 37.2703 35.2095C40.8349 30.5337 41.4715 24.1345 38.8973 18.8568C36.4103 13.7578 31.521 10.4607 25.8286 10.0442C25.2051 9.99848 24.6752 9.96577 24.6511 9.97147C24.627 9.97717 24.1735 10.0116 23.6433 10.0479ZM26.1223 11.8912C29.2018 12.2302 31.8523 13.4419 34.1139 15.5444C36.3643 17.6366 37.8033 20.386 38.3258 23.5922C38.4596 24.4132 38.4605 26.7639 38.3273 27.5822C38.1583 28.6201 37.799 29.9219 37.4335 30.8198C37.0075 31.8667 36.3924 32.9497 36.254 32.8966C36.0371 32.8133 33.2403 30.457 33.2807 30.3916C33.3039 30.354 33.4429 30.2992 33.5897 30.2698C34.0115 30.1855 33.995 30.0083 33.511 29.4264C33.267 29.1329 33.0223 28.8086 32.9673 28.7058C32.8604 28.506 32.0976 25.6265 32.1401 25.5836C32.154 25.5695 32.2301 25.7198 32.3091 25.9174L32.4529 26.2769L32.6925 26.1038C33.1369 25.7829 33.5795 25.261 33.7815 24.8199C34.0778 24.1729 34.0623 23.1616 33.7458 22.4767C32.9783 20.8164 30.8037 20.2785 29.4718 21.4193C29.1064 21.7323 29.0989 21.7343 28.8701 21.5844C27.6883 20.81 25.5736 20.3588 24.0225 20.5501C22.8502 20.6948 21.899 20.9651 21.1543 21.3653L20.5057 21.714L20.278 21.5008C19.5922 20.8585 18.3787 20.6498 17.4242 21.0102C15.367 21.7868 14.9872 24.6218 16.759 25.9756L17.1531 26.2768L17.3543 25.8552C17.4649 25.6234 17.5357 25.5044 17.5117 25.5908C17.4877 25.6772 17.3122 26.3779 17.1218 27.1478C16.7654 28.5888 16.6933 28.7443 16.0014 29.5657C15.5883 30.0562 15.5955 30.0951 16.1408 30.3164L16.4375 30.4368L15.5712 31.1448C13.2841 33.0143 13.1514 33.1117 13.0297 33.0106C12.8306 32.8452 11.8757 30.8284 11.6013 29.9937C10.9252 27.9374 10.7281 25.5894 11.0557 23.4963C11.3704 21.4854 12.0798 19.6571 13.2226 17.9118C14.035 16.6709 15.6829 15.0268 16.9811 14.1618C19.7101 12.3436 22.9412 11.5411 26.1223 11.8912ZM26.798 21.5323C27.1836 21.6358 27.649 21.8047 27.8322 21.9077L28.1654 22.095L27.2894 22.3781C26.8075 22.5337 26.3074 22.7305 26.178 22.8153C25.9431 22.9694 25.9427 22.9692 25.6828 22.6451C25.5398 22.4666 25.3865 22.3206 25.3423 22.3206C25.2452 22.3206 24.9147 22.8459 24.9143 23.0009C24.914 23.0874 24.95 23.0888 25.0804 23.0073C25.2233 22.918 25.3106 22.9568 25.6988 23.282C26.34 23.8192 26.9114 25.0473 27.2381 26.5904C27.3706 27.216 27.41 28.0206 27.308 28.0206C27.2753 28.0206 27.009 27.8675 26.7165 27.6804C26.4239 27.4932 25.948 27.2048 25.6588 27.0393L25.133 26.7385L25.111 26.1737C25.0919 25.6831 25.1046 25.6292 25.2083 25.7625C25.2739 25.8469 25.3491 25.916 25.3754 25.916C25.4018 25.916 25.5651 25.7186 25.7382 25.4774C26.0907 24.9865 26.1559 24.5089 25.9081 24.2349C25.7847 24.0984 25.6224 24.0745 24.8191 24.0745C23.9037 24.0745 23.8696 24.0815 23.6935 24.3055C23.4308 24.6397 23.4665 24.8594 23.8762 25.432C24.1947 25.877 24.2539 25.9231 24.3459 25.7971C24.5284 25.5475 24.5725 25.6365 24.5457 26.1994L24.5196 26.7459L23.9062 27.0799C23.5688 27.2635 23.0863 27.5503 22.834 27.7172C22.5817 27.8841 22.355 28.0206 22.3302 28.0206C22.2179 28.0206 22.3018 26.8878 22.4601 26.2673C22.6824 25.3963 23.1175 24.2522 23.3648 23.889C23.4698 23.7348 23.742 23.4513 23.9697 23.259C24.3196 22.9637 24.4049 22.9269 24.5196 23.0222C24.5942 23.0842 24.6768 23.1133 24.7031 23.087C24.7684 23.0216 24.4044 22.3206 24.3051 22.3206C24.2615 22.3206 24.11 22.461 23.9687 22.6326L23.7117 22.9446L23.2393 22.7216C22.9796 22.5991 22.4777 22.4144 22.1241 22.3112L21.4813 22.1236L21.7298 21.958C21.9937 21.7822 22.8305 21.5101 23.5557 21.3642C24.2491 21.2247 25.9877 21.3148 26.798 21.5323ZM19.1781 22.0113C19.8286 22.3929 19.7716 22.7331 19.118 22.3696C18.9079 22.2527 18.5454 22.1094 18.3124 22.0512C18.0231 21.9789 17.9259 21.9219 18.0057 21.8713C18.2369 21.7246 18.8048 21.7925 19.1781 22.0113ZM31.6483 21.8721C31.7319 21.9251 31.6807 21.9632 31.4731 22.0023C31.3116 22.0326 30.9341 22.1737 30.6341 22.3158C30.0979 22.5698 29.8591 22.5482 30.0923 22.267C30.3966 21.9001 31.3221 21.6652 31.6483 21.8721ZM21.8269 23.3273C22.1291 23.4038 22.4754 23.5041 22.5965 23.5501C22.8089 23.6309 22.8119 23.6427 22.6827 23.8927C22.4038 24.4322 21.7419 24.5999 21.2912 24.2451C20.9023 23.939 20.774 23.041 21.1342 23.1465C21.2129 23.1695 21.5246 23.2509 21.8269 23.3273ZM28.6821 23.4576C28.6821 23.9744 28.2655 24.4252 27.7879 24.4252C27.5065 24.4252 27.3792 24.3667 27.1398 24.1271C26.6795 23.6664 26.7286 23.5977 27.6962 23.3476C28.1662 23.2261 28.5802 23.1229 28.6164 23.1183C28.6526 23.1136 28.6821 23.2663 28.6821 23.4576ZM25.2023 26.9809C25.4051 27.0842 25.9403 27.4425 26.3914 27.7771L27.2117 28.3854L26.9759 28.6317C26.6024 29.0219 25.9031 29.2045 24.7825 29.2045C23.6658 29.2045 23.0703 29.0428 22.678 28.6331C22.5412 28.4901 22.4461 28.3601 22.4667 28.3439C23.2898 27.7001 24.6583 26.7929 24.8065 26.7929C24.8212 26.7929 24.9993 26.8775 25.2023 26.9809Z" fill="#112134"/>
<path fill-rule="evenodd" clip-rule="evenodd" d="M25.074 14.9595L25.0677 14.5891L25.7453 14.1418C25.8208 14.0919 25.8416 13.9903 25.7918 13.9148C25.7419 13.8393 25.6403 13.8185 25.5648 13.8683L25.0612 14.2008L25.0471 13.3605C25.0455 13.2701 24.971 13.198 24.8805 13.1995C24.79 13.201 24.7179 13.2756 24.7195 13.3661L24.7318 14.0995L24.3319 13.8391C24.2561 13.7897 24.1546 13.8111 24.1052 13.887C24.0559 13.9628 24.0773 14.0643 24.1531 14.1136L24.7384 14.4948L24.7463 14.9595H24.2338L23.9281 15.489L23.6737 15.3189L23.6923 14.5072C23.6944 14.4167 23.6227 14.3417 23.5323 14.3396C23.4418 14.3375 23.3668 14.4092 23.3647 14.4997L23.3509 15.1029L22.6524 14.6356C22.5772 14.5853 22.4755 14.6055 22.4251 14.6807C22.3748 14.7559 22.395 14.8577 22.4702 14.908L23.0799 15.3158L22.638 15.496C22.5542 15.5301 22.514 15.6258 22.5482 15.7095C22.5823 15.7933 22.6779 15.8336 22.7617 15.7994L23.4085 15.5357L23.7639 15.7734L23.5818 16.0888L23.8228 16.5063L23.5389 16.6767L22.8127 16.3136C22.7318 16.2731 22.6333 16.3059 22.5929 16.3869C22.5524 16.4678 22.5852 16.5662 22.6661 16.6067L23.2059 16.8765L22.4852 17.3089C22.4077 17.3555 22.3825 17.4561 22.429 17.5337C22.4756 17.6113 22.5762 17.6364 22.6538 17.5899L23.2828 17.2125L23.2572 17.689C23.2524 17.7793 23.3217 17.8565 23.412 17.8614C23.5024 17.8662 23.5796 17.7969 23.5844 17.7065L23.6219 17.0091L23.9867 16.7902L24.2338 17.2181H24.7202L24.7258 17.5498L24.0482 17.9972C23.9727 18.047 23.9519 18.1487 24.0018 18.2242C24.0516 18.2997 24.1533 18.3205 24.2288 18.2706L24.7323 17.9381L24.7465 18.7784C24.748 18.8689 24.8226 18.941 24.913 18.9395C25.0035 18.9379 25.0756 18.8634 25.0741 18.7729L25.0618 18.0395L25.4616 18.2999C25.5374 18.3493 25.6389 18.3278 25.6883 18.252C25.7377 18.1762 25.7162 18.0747 25.6404 18.0253L25.0551 17.6441L25.0479 17.2181H25.5378L25.7954 16.772L26.0715 16.9252L26.1201 17.7357C26.1255 17.826 26.2031 17.8949 26.2935 17.8894C26.3838 17.884 26.4526 17.8064 26.4472 17.7161L26.411 17.1137L27.1458 17.5216C27.2249 17.5656 27.3246 17.537 27.3686 17.4579C27.4125 17.3788 27.384 17.2791 27.3048 17.2352L26.6635 16.8791L27.089 16.6631C27.1696 16.6221 27.2018 16.5235 27.1608 16.4428C27.1199 16.3621 27.0212 16.3299 26.9406 16.3709L26.3178 16.6872L25.9592 16.4882L26.1898 16.0888L25.9505 15.6743L26.2542 15.4921L26.9804 15.8553C27.0613 15.8957 27.1597 15.8629 27.2002 15.782C27.2406 15.7011 27.2078 15.6027 27.1269 15.5622L26.5872 15.2923L27.3078 14.8599C27.3854 14.8134 27.4106 14.7128 27.364 14.6352C27.3175 14.5576 27.2168 14.5324 27.1392 14.579L26.5103 14.9564L26.5358 14.4799C26.5407 14.3895 26.4714 14.3124 26.381 14.3075C26.2907 14.3027 26.2135 14.372 26.2086 14.4623L26.1712 15.1598L25.7866 15.3905L25.5378 14.9595H25.074Z" fill="#112134"/>
<path d="M18.9094 33.9639C18.8988 33.9692 18.8642 33.9671 18.8509 33.9663C18.8484 33.9661 18.8466 33.966 18.8459 33.966H17.3719V33.9872C17.3808 33.9904 17.3882 33.9915 17.3945 33.9924C17.4094 33.9946 17.4187 33.9959 17.429 34.0211C17.4333 34.0296 17.4333 34.0804 17.4333 34.0825V35.5142L17.4334 35.523C17.4337 35.541 17.4341 35.5673 17.4269 35.5798C17.4151 35.6054 17.3868 35.6146 17.3727 35.6191L17.3697 35.6201V35.6497H18.884C18.8925 35.6497 18.9349 35.654 18.9433 35.6582C18.9642 35.6693 18.9659 35.675 18.9693 35.6865C18.9712 35.6925 18.9735 35.7002 18.9793 35.7112H18.9963V35.3257H18.9793C18.9753 35.3331 18.9732 35.3399 18.9712 35.3461C18.967 35.3596 18.9636 35.3707 18.9433 35.3808H17.7616V34.9233H17.762V34.6459H17.7616V34.2371H18.848C18.8506 34.2371 18.8544 34.237 18.8589 34.2369C18.876 34.2365 18.9031 34.2359 18.9116 34.2392C18.9374 34.2559 18.9423 34.266 18.9516 34.2852L18.956 34.2943H18.9751V33.9173L18.956 33.9131C18.9508 33.9226 18.9475 33.9295 18.9449 33.9349C18.9372 33.9512 18.9365 33.9528 18.9094 33.9639Z" fill="white"/>
<path d="M17.8478 34.6459V34.9233H18.4604C18.4649 34.9233 18.4691 34.9232 18.473 34.9232C18.4913 34.9229 18.5044 34.9227 18.5219 34.9297C18.5533 34.9395 18.5574 34.9511 18.5646 34.9713L18.5663 34.9763H18.5918V34.5866H18.5663C18.56 34.6099 18.5494 34.6332 18.5219 34.6416C18.5134 34.6459 18.4647 34.6459 18.4604 34.6459H17.8478Z" fill="white"/>
<path d="M15.1582 33.9936C15.1694 33.9975 15.1783 33.9984 15.1858 33.9991C15.2023 34.0008 15.2115 34.0017 15.2217 34.0338C15.2217 34.0387 15.2216 34.0445 15.2215 34.0507C15.2211 34.0715 15.2206 34.097 15.2239 34.11V35.5269L15.224 35.533C15.2244 35.5488 15.2253 35.5875 15.2217 35.5947C15.2062 35.6173 15.1944 35.6173 15.1808 35.6173C15.174 35.6173 15.1667 35.6173 15.1582 35.6201V35.6497H15.6199V35.6201C15.5881 35.6201 15.5754 35.6095 15.5585 35.5841C15.5547 35.5765 15.556 35.5352 15.5563 35.5249L15.5564 35.5227V34.9992H15.5551V34.6607H15.5521V34.2456H16.143C16.1477 34.2456 16.1538 34.2455 16.161 34.2454C16.2409 34.244 16.4603 34.2404 16.5263 34.3472C16.5623 34.4044 16.5623 34.4913 16.5306 34.5442C16.4569 34.6707 16.2705 34.6642 16.1874 34.6613C16.1773 34.661 16.1687 34.6607 16.1621 34.6607H15.6409V34.936H16.0223L16.4628 35.5587L16.4776 35.5841C16.484 35.5968 16.484 35.5968 16.484 35.6053L16.4459 35.6264V35.6497H16.9563L16.9605 35.6264C16.9501 35.6231 16.9417 35.6205 16.9346 35.6184C16.9183 35.6135 16.9094 35.6108 16.902 35.6059C16.8932 35.6 16.8865 35.5909 16.8718 35.5711C16.867 35.5647 16.8614 35.5571 16.8546 35.5481L16.431 34.9508C16.5602 34.9212 16.717 34.8704 16.8123 34.7221C16.9012 34.576 16.9012 34.3642 16.8271 34.235C16.6852 33.9766 16.3972 33.966 16.2171 33.966H15.1582V33.9936Z" fill="white"/>
<path d="M19.4766 34.0445C19.4694 34.0305 19.453 34.0212 19.4161 34.0003L19.4118 33.9978V33.966H20.386C20.6147 33.9703 20.9578 33.9787 21.1548 34.3282C21.2861 34.559 21.2988 35.0589 21.1505 35.3151C20.9578 35.6434 20.6676 35.6497 20.3923 35.6497H19.8999V35.385H20.405L20.4353 35.3851C20.5963 35.3858 20.7526 35.3865 20.8583 35.2071C20.9747 35.008 20.9769 34.6522 20.8625 34.451C20.7403 34.2327 20.4894 34.2341 20.3443 34.2349L20.3203 34.235H19.8141L19.8141 35.6497H19.4223V35.6201C19.435 35.6201 19.4668 35.618 19.4774 35.5883C19.4826 35.5779 19.4821 35.5518 19.4818 35.5334L19.4817 35.5264L19.4816 35.5227V34.1164C19.4816 34.1086 19.4817 34.1017 19.4818 34.0954C19.4821 34.07 19.4822 34.0557 19.4766 34.0445Z" fill="white"/>
<path d="M25.2647 33.9957C25.2738 33.9995 25.2825 34.0028 25.2905 34.0059C25.3274 34.0201 25.3523 34.0297 25.3558 34.0592V35.5121C25.3558 35.5225 25.356 35.5314 25.3562 35.5392C25.3567 35.5618 25.357 35.5744 25.3514 35.5835C25.3444 35.5949 25.3281 35.6007 25.2912 35.6138L25.2796 35.618V35.6497H25.7709V35.6158C25.6841 35.5947 25.6799 35.5862 25.6799 35.5121L25.6798 34.0866C25.6798 34.0501 25.6798 34.0329 25.6881 34.0222C25.6955 34.0126 25.7095 34.008 25.736 33.9995C25.7414 33.9977 25.7474 33.9957 25.754 33.9936V33.966H25.2647V33.9957Z" fill="white"/>
<path d="M26.1957 34.0009C26.1909 33.9995 26.1856 33.998 26.1796 33.9957L26.1817 33.9639C26.1944 33.9639 26.1986 33.9639 26.2156 33.966H26.6709V34.002L26.6193 34.0159V34.0138H26.5336V34.4367L26.5311 34.4341V35.5248C26.5311 35.529 26.5311 35.5777 26.5332 35.5862C26.5455 35.6107 26.5479 35.6116 26.5841 35.6249L26.5883 35.6264L26.5841 35.6497H26.1796V35.6222C26.1838 35.6209 26.1883 35.62 26.1928 35.619C26.2104 35.6153 26.2283 35.6116 26.2367 35.5862C26.244 35.5753 26.2435 35.5456 26.2432 35.5294L26.2431 35.5227V34.11L26.2432 34.1023C26.2435 34.0847 26.244 34.0547 26.2367 34.0402C26.2235 34.0087 26.2129 34.0057 26.1957 34.0009Z" fill="white"/>
<path d="M26.6193 34.5278L27.5774 35.546C27.6049 35.5714 27.6176 35.5841 27.6091 35.6074L27.5604 35.6201V35.6519H27.9925V35.6264C27.9843 35.6224 27.9776 35.6202 27.9718 35.6183C27.9565 35.6134 27.9476 35.6106 27.9353 35.5798C27.93 35.5657 27.9306 35.5368 27.9309 35.5203L27.931 35.5121V34.0952C27.931 34.0926 27.931 34.0888 27.9308 34.0842C27.9304 34.0666 27.9298 34.0384 27.9332 34.0317C27.948 34.0063 27.9713 33.9999 27.9882 33.9999V33.966H27.5774V33.9999C27.6007 33.9999 27.6303 34.0105 27.6367 34.0296C27.6402 34.0349 27.6393 34.0733 27.6389 34.0891L27.6388 34.0952V35.1309L26.6193 34.0375V34.5278Z" fill="white"/>
<path d="M28.4036 34.2985H28.4375C28.4375 34.2604 28.4438 34.2519 28.4671 34.2414C28.4735 34.2392 28.5243 34.2392 28.5264 34.2392H29.0728V35.5269C29.0728 35.5375 29.0723 35.547 29.0718 35.5565C29.0712 35.5661 29.0707 35.5756 29.0707 35.5862C29.0567 35.6202 29.054 35.6202 29.0306 35.6201L29.0262 35.6201V35.6497H29.4625L29.4646 35.6222C29.4371 35.6222 29.4307 35.618 29.4096 35.5841C29.4061 35.5772 29.4069 35.5438 29.4073 35.5258C29.4074 35.5216 29.4074 35.5183 29.4074 35.5163V34.2392H29.831C29.8543 34.2392 29.9051 34.2392 29.9475 34.2414C29.9507 34.2419 29.9554 34.2424 29.9606 34.2431C29.9759 34.2448 29.9963 34.2472 30.0026 34.2519C30.028 34.2604 30.0386 34.2837 30.0386 34.3007H30.0619V33.9152H30.0301C30.0277 33.9238 30.0264 33.9303 30.0254 33.9354C30.0218 33.9532 30.0215 33.9545 29.992 33.966H28.5328C28.5263 33.966 28.5204 33.9664 28.5149 33.9668C28.5025 33.9676 28.4922 33.9683 28.4819 33.9639C28.4608 33.9639 28.448 33.9533 28.4375 33.9343V33.9131H28.4036V34.2985Z" fill="white"/>
<path d="M31.9536 33.9663C31.9669 33.9671 32.0015 33.9692 32.0121 33.9639C32.0392 33.9528 32.0399 33.9512 32.0476 33.9349C32.0502 33.9295 32.0535 33.9226 32.0587 33.9131L32.0778 33.9173V34.2943H32.0587L32.0543 34.2852C32.045 34.266 32.0401 34.2559 32.0143 34.2392C32.0059 34.2359 31.9787 34.2365 31.9616 34.2369C31.9571 34.237 31.9533 34.2371 31.9507 34.2371H30.8643V34.6459H30.8653V34.9233H30.8643V35.3808H32.046C32.0663 35.3707 32.0697 35.3596 32.0739 35.3461C32.0759 35.3399 32.078 35.3331 32.082 35.3257H32.099V35.7112H32.082C32.0762 35.7002 32.0739 35.6925 32.0721 35.6865C32.0686 35.675 32.0669 35.6693 32.046 35.6582C32.0376 35.654 31.9952 35.6497 31.9867 35.6497H30.4725V35.6201L30.4754 35.6191C30.4896 35.6146 30.5178 35.6054 30.5296 35.5798C30.5368 35.5673 30.5364 35.541 30.5361 35.523L30.536 35.5142V34.0825C30.536 34.0804 30.536 34.0296 30.5318 34.0211C30.5214 33.9959 30.5121 33.9946 30.4973 33.9924C30.4909 33.9915 30.4835 33.9904 30.4746 33.9872V33.966H31.9486C31.9493 33.966 31.9511 33.9661 31.9536 33.9663Z" fill="white"/>
<path d="M30.9511 34.9233V34.6459H31.5632C31.5674 34.6459 31.6161 34.6459 31.6246 34.6416C31.6521 34.6332 31.6627 34.6099 31.6691 34.5866H31.6945V34.9763H31.6691L31.6673 34.9713C31.6601 34.9511 31.656 34.9395 31.6246 34.9297C31.6071 34.9227 31.594 34.9229 31.5757 34.9232C31.5718 34.9232 31.5676 34.9233 31.5632 34.9233H30.9511Z" fill="white"/>
<path d="M32.5166 33.9936C32.5278 33.9975 32.5367 33.9984 32.5441 33.9991C32.5607 34.0008 32.5699 34.0017 32.5801 34.0338C32.5801 34.0387 32.58 34.0444 32.5799 34.0506C32.5795 34.0713 32.579 34.097 32.5822 34.11V35.5269L32.5824 35.533C32.5827 35.5488 32.5837 35.5875 32.5801 35.5947C32.5646 35.6173 32.5528 35.6173 32.5392 35.6173C32.5323 35.6173 32.5251 35.6173 32.5166 35.6201V35.6497H32.9783V35.6201C32.9465 35.6201 32.9338 35.6095 32.9169 35.5841C32.9131 35.5765 32.9144 35.5353 32.9147 35.525L32.9147 35.5227V35.1258H32.9129V34.6607H32.9105V34.2456H33.5014C33.5061 34.2456 33.5122 34.2455 33.5194 34.2454C33.5993 34.244 33.8187 34.2404 33.8847 34.3472C33.9207 34.4044 33.9207 34.4913 33.889 34.5442C33.8153 34.6707 33.6289 34.6642 33.5458 34.6613C33.5357 34.661 33.5271 34.6607 33.5204 34.6607H32.9986V34.936H33.3807L33.8212 35.5587L33.836 35.5841C33.84 35.592 33.8414 35.595 33.842 35.5981C33.8424 35.6 33.8424 35.602 33.8424 35.6053L33.8042 35.6264V35.6497H34.3146L34.3189 35.6264C34.3085 35.6231 34.3 35.6205 34.293 35.6184C34.2767 35.6135 34.2678 35.6108 34.2604 35.6059C34.2516 35.6 34.2449 35.5909 34.2302 35.5711C34.2254 35.5647 34.2198 35.5571 34.213 35.5481L33.7894 34.9508C33.9186 34.9212 34.0753 34.8704 34.1706 34.7221C34.2596 34.576 34.2596 34.3642 34.1855 34.235C34.0436 33.9766 33.7555 33.966 33.5755 33.966H32.5166V33.9936Z" fill="white"/>
<path d="M22.0985 34.002C22.1296 34.002 22.1437 34.0147 22.155 34.0338C22.1607 34.0465 22.172 34.0783 22.1748 34.0846L22.683 35.5269C22.6943 35.5502 22.6999 35.5904 22.6914 35.6116L22.6434 35.6243V35.654H23.2392V35.6264L23.1827 35.5989C23.1827 35.5798 23.1883 35.5608 23.1883 35.5417L23.5893 34.4976L23.9845 35.5205C23.9873 35.5311 24.0071 35.5735 24.0043 35.582C24.0043 35.6137 23.9873 35.6158 23.9478 35.6264V35.654H24.5379L24.5435 35.6307L24.4871 35.601C24.4871 35.5693 24.4814 35.5629 24.4984 35.5354L25.0122 34.0952C25.0178 34.0804 25.0207 34.0529 25.032 34.0402C25.0546 34.0126 25.0715 34.0063 25.0969 34.002V33.9703H24.5774V33.9936L24.6367 34.0253C24.6367 34.0529 24.6311 34.0783 24.6282 34.0867L24.264 35.1309L23.8688 34.091C23.8575 34.0677 23.849 34.0529 23.8546 34.0338C23.8688 34.002 23.8772 34.0041 23.9026 34.0041V33.9703H23.3239L23.321 33.9978C23.3521 34.0084 23.3662 33.9999 23.3803 34.0359C23.3832 34.0444 23.3606 34.0867 23.3577 34.0973L22.9653 35.1139L22.6124 34.1016C22.6124 34.0973 22.5954 34.038 22.5954 34.038C22.5954 34.0041 22.618 34.0063 22.6519 34.0063V33.9703H22.1014L22.0985 34.002Z" fill="white"/>
</svg>
