<svg width="255" height="114" viewBox="0 0 255 114" fill="none" xmlns="http://www.w3.org/2000/svg">
<path d="M93.5763 7.42019C93.5763 7.91419 93.5145 8.34644 93.391 8.71694C93.2675 9.08744 93.096 9.40991 92.8764 9.68435C92.6706 9.94507 92.4236 10.1578 92.1354 10.3224C91.861 10.4871 91.5728 10.6106 91.2709 10.6929V10.7341C91.6414 10.8027 91.9845 10.9331 92.3001 11.1252C92.6294 11.3173 92.9107 11.5574 93.144 11.8456C93.391 12.1338 93.5831 12.4768 93.7203 12.8748C93.8713 13.259 93.9468 13.6844 93.9468 14.1509C93.9468 14.7135 93.8507 15.2281 93.6586 15.6947C93.4665 16.1612 93.1646 16.566 92.7529 16.9091C92.355 17.2521 91.8473 17.5197 91.2298 17.7118C90.6123 17.9039 89.8781 18 89.0273 18H86.1251V3.79753H88.8627C89.6997 3.79753 90.4133 3.88673 91.0033 4.06512C91.6071 4.22978 92.1011 4.46992 92.4853 4.78553C92.8696 5.10114 93.144 5.48536 93.3087 5.93819C93.4871 6.3773 93.5763 6.8713 93.5763 7.42019ZM91.7649 7.48194C91.7649 6.82328 91.5316 6.28125 91.0651 5.85586C90.5985 5.43047 89.8644 5.21778 88.8627 5.21778H87.9158V10.1166H88.8421C89.8027 10.1166 90.5299 9.88332 91.0239 9.41677C91.5179 8.95022 91.7649 8.30527 91.7649 7.48194ZM92.0325 14.0274C92.0325 13.259 91.7786 12.6552 91.2709 12.2161C90.7769 11.7633 90.0634 11.5368 89.1303 11.5368H87.9158V16.518H89.0273C90.084 16.518 90.8455 16.3122 91.3121 15.9005C91.7924 15.4751 92.0325 14.8508 92.0325 14.0274ZM103.063 18H101.54V16.8885H101.499C101.458 16.9708 101.369 17.0943 101.231 17.259C101.094 17.4099 100.916 17.5609 100.696 17.7118C100.49 17.8491 100.236 17.9726 99.9346 18.0823C99.6327 18.1921 99.2965 18.247 98.926 18.247C98.4869 18.247 98.0889 18.1784 97.7321 18.0412C97.3891 17.9177 97.0941 17.7118 96.8471 17.4237C96.6001 17.1355 96.408 16.765 96.2707 16.3122C96.1472 15.8456 96.0855 15.2761 96.0855 14.6038V8.12002H97.7527V14.4803C97.7527 15.3036 97.8831 15.8936 98.1438 16.2504C98.4183 16.5935 98.8368 16.765 99.3994 16.765C99.8797 16.765 100.284 16.6484 100.614 16.4151C100.943 16.1681 101.204 15.9279 101.396 15.6947V8.12002H103.063V18ZM111.008 18V11.6398C111.008 10.8027 110.863 10.2058 110.575 9.84902C110.301 9.47852 109.875 9.29327 109.299 9.29327C108.805 9.29327 108.393 9.41677 108.064 9.66377C107.735 9.91077 107.474 10.1509 107.282 10.3842V18H105.615V8.12002H107.138V9.23152H107.179C107.22 9.14919 107.309 9.03255 107.447 8.8816C107.584 8.71694 107.762 8.56599 107.982 8.42877C108.201 8.27783 108.462 8.14747 108.764 8.03769C109.066 7.92791 109.409 7.87302 109.793 7.87302C110.232 7.87302 110.63 7.94163 110.987 8.07886C111.344 8.20236 111.646 8.40819 111.893 8.69636C112.14 8.98452 112.332 9.36188 112.469 9.82844C112.606 10.2813 112.675 10.8439 112.675 11.5163V18H111.008ZM114.71 13.2041C114.71 12.2024 114.84 11.3653 115.101 10.6929C115.362 10.0205 115.698 9.47852 116.109 9.06685C116.521 8.65519 116.988 8.36702 117.509 8.20236C118.031 8.02397 118.552 7.93477 119.073 7.93477C119.389 7.93477 119.664 7.96222 119.897 8.01711C120.13 8.05827 120.322 8.11316 120.473 8.18177V3.44762L122.14 3.26237V18H120.617V16.9503H120.576C120.535 17.0326 120.459 17.1492 120.35 17.3002C120.24 17.4374 120.089 17.5815 119.897 17.7324C119.705 17.8696 119.465 17.9863 119.176 18.0823C118.888 18.1921 118.552 18.247 118.168 18.247C117.701 18.247 117.255 18.1578 116.83 17.9794C116.418 17.7873 116.055 17.4923 115.739 17.0943C115.423 16.6827 115.17 16.1612 114.977 15.53C114.799 14.8851 114.71 14.1098 114.71 13.2041ZM118.621 16.765C118.881 16.765 119.115 16.7307 119.32 16.6621C119.526 16.5935 119.705 16.5111 119.856 16.4151C120.007 16.3053 120.13 16.1955 120.226 16.0858C120.336 15.976 120.418 15.8799 120.473 15.7976V9.70494C120.322 9.60888 120.144 9.52655 119.938 9.45794C119.746 9.38933 119.499 9.35502 119.197 9.35502C118.813 9.35502 118.449 9.42363 118.106 9.56085C117.777 9.68435 117.489 9.89705 117.242 10.1989C116.995 10.5008 116.796 10.8919 116.645 11.3722C116.507 11.8525 116.439 12.4425 116.439 13.1423C116.439 13.8285 116.494 14.4048 116.603 14.8713C116.727 15.3242 116.892 15.6947 117.097 15.9828C117.303 16.2573 117.537 16.4563 117.797 16.5798C118.058 16.7033 118.332 16.765 118.621 16.765ZM131.03 11.4545C131.03 11.8799 131.016 12.2504 130.989 12.566C130.962 12.8679 130.934 13.1355 130.907 13.3688H125.864C125.919 14.5351 126.166 15.3928 126.605 15.9417C127.058 16.4906 127.702 16.765 128.54 16.765C128.828 16.765 129.088 16.7307 129.322 16.6621C129.555 16.5935 129.754 16.5111 129.919 16.4151C130.097 16.319 130.241 16.223 130.351 16.1269C130.474 16.0309 130.564 15.9554 130.618 15.9005L131.236 17.0738C131.167 17.1424 131.064 17.2453 130.927 17.3825C130.79 17.506 130.605 17.6364 130.371 17.7736C130.138 17.8971 129.85 18.0069 129.507 18.1029C129.164 18.199 128.759 18.247 128.293 18.247C127.675 18.247 127.112 18.1441 126.605 17.9383C126.111 17.7324 125.685 17.4168 125.329 16.9914C124.985 16.5523 124.718 16.0034 124.526 15.3448C124.334 14.6724 124.238 13.8696 124.238 12.9365C124.238 12.0583 124.334 11.3036 124.526 10.6724C124.732 10.0274 125.006 9.4991 125.349 9.08744C125.692 8.67577 126.09 8.37388 126.543 8.18177C126.996 7.97594 127.483 7.87302 128.004 7.87302C128.951 7.87302 129.692 8.17491 130.227 8.77869C130.763 9.36874 131.03 10.2607 131.03 11.4545ZM127.901 9.23152C127.311 9.23152 126.838 9.47852 126.481 9.97252C126.124 10.4665 125.919 11.1801 125.864 12.1132H129.466C129.48 12.0446 129.486 11.9485 129.486 11.825C129.5 11.6878 129.507 11.5437 129.507 11.3928C129.507 10.7067 129.37 10.1784 129.095 9.80785C128.821 9.42363 128.423 9.23152 127.901 9.23152ZM137.514 10.1166C137.404 9.9931 137.205 9.82844 136.917 9.6226C136.629 9.40305 136.252 9.29327 135.785 9.29327C135.346 9.29327 135.01 9.39619 134.777 9.60202C134.543 9.80785 134.427 10.0549 134.427 10.343C134.427 10.7135 134.53 11.0223 134.735 11.2693C134.955 11.5025 135.284 11.7564 135.723 12.0308L136.341 12.4013C137.013 12.7993 137.542 13.2315 137.926 13.6981C138.31 14.1509 138.502 14.741 138.502 15.4683C138.502 16.2504 138.228 16.9091 137.679 17.4443C137.144 17.9794 136.368 18.247 135.353 18.247C134.955 18.247 134.605 18.2058 134.303 18.1235C134.001 18.0412 133.734 17.9451 133.5 17.8353C133.281 17.7256 133.096 17.6089 132.945 17.4854C132.794 17.3482 132.67 17.2247 132.574 17.1149L133.377 15.7976C133.459 15.8799 133.555 15.976 133.665 16.0858C133.789 16.1955 133.933 16.3053 134.097 16.4151C134.262 16.5111 134.447 16.5935 134.653 16.6621C134.859 16.7307 135.099 16.765 135.374 16.765C135.868 16.765 136.245 16.6552 136.506 16.4357C136.766 16.2161 136.897 15.9485 136.897 15.6329C136.897 15.3996 136.862 15.2007 136.794 15.036C136.739 14.8576 136.65 14.6998 136.526 14.5626C136.403 14.4254 136.252 14.295 136.073 14.1715C135.895 14.048 135.689 13.9108 135.456 13.7598L134.838 13.3688C134.221 12.9708 133.734 12.5523 133.377 12.1132C133.034 11.6741 132.862 11.1115 132.862 10.4254C132.862 10.0549 132.931 9.71866 133.068 9.41677C133.219 9.10116 133.425 8.83358 133.686 8.61402C133.946 8.38074 134.248 8.20236 134.591 8.07886C134.948 7.94163 135.325 7.87302 135.723 7.87302C136.108 7.87302 136.437 7.91419 136.711 7.99652C136.986 8.06513 137.219 8.16119 137.411 8.28469C137.617 8.39447 137.782 8.51111 137.905 8.63461C138.042 8.74438 138.152 8.84044 138.235 8.92277L137.514 10.1166ZM139.873 15.4888C139.873 14.9125 139.983 14.4322 140.203 14.048C140.422 13.6638 140.717 13.355 141.088 13.1218C141.458 12.8748 141.89 12.7032 142.384 12.6072C142.892 12.4974 143.427 12.4425 143.99 12.4425H144.504V11.4957C144.504 10.6586 144.354 10.0823 144.052 9.76669C143.763 9.45108 143.352 9.29327 142.817 9.29327C142.323 9.29327 141.911 9.40305 141.582 9.6226C141.252 9.82844 140.992 10.0137 140.799 10.1784L140.1 9.06685C140.209 8.95708 140.347 8.83358 140.511 8.69636C140.69 8.55913 140.902 8.42877 141.149 8.30527C141.396 8.18177 141.678 8.07886 141.993 7.99652C142.309 7.91419 142.666 7.87302 143.064 7.87302C144.079 7.87302 144.847 8.15433 145.369 8.71694C145.89 9.27955 146.151 10.1852 146.151 11.4339V15.9417C146.151 16.3671 146.165 16.7856 146.192 17.1973C146.22 17.5952 146.247 17.8628 146.275 18H144.69L144.628 16.9091H144.587C144.532 17.0326 144.45 17.1767 144.34 17.3413C144.23 17.4923 144.093 17.6364 143.928 17.7736C143.763 17.8971 143.564 18.0069 143.331 18.1029C143.098 18.199 142.823 18.247 142.508 18.247C142.137 18.247 141.787 18.1784 141.458 18.0412C141.143 17.9039 140.861 17.7118 140.614 17.4648C140.381 17.2178 140.196 16.9297 140.058 16.6003C139.935 16.2573 139.873 15.8868 139.873 15.4888ZM142.858 16.8268C143.091 16.8268 143.297 16.7924 143.475 16.7238C143.654 16.6552 143.805 16.5729 143.928 16.4768C144.065 16.3808 144.175 16.2779 144.257 16.1681C144.354 16.0446 144.436 15.9417 144.504 15.8593V13.6775L143.969 13.6981C143.173 13.7255 142.57 13.8628 142.158 14.1098C141.746 14.3568 141.54 14.7547 141.54 15.3036C141.54 15.8113 141.657 16.1955 141.89 16.4563C142.124 16.7033 142.446 16.8268 142.858 16.8268ZM152.396 12.6483L155.793 18H153.796L151.017 13.3893H150.338V18H148.671V3.44762L150.338 3.26237V11.9691H151.038L153.693 8.12002H155.669L152.396 12.6483ZM156.557 15.4888C156.557 14.9125 156.667 14.4322 156.886 14.048C157.106 13.6638 157.401 13.355 157.771 13.1218C158.142 12.8748 158.574 12.7032 159.068 12.6072C159.576 12.4974 160.111 12.4425 160.674 12.4425H161.188V11.4957C161.188 10.6586 161.037 10.0823 160.735 9.76669C160.447 9.45108 160.035 9.29327 159.5 9.29327C159.006 9.29327 158.595 9.40305 158.265 9.6226C157.936 9.82844 157.675 10.0137 157.483 10.1784L156.783 9.06685C156.893 8.95708 157.03 8.83358 157.195 8.69636C157.373 8.55913 157.586 8.42877 157.833 8.30527C158.08 8.18177 158.361 8.07886 158.677 7.99652C158.993 7.91419 159.349 7.87302 159.747 7.87302C160.763 7.87302 161.531 8.15433 162.053 8.71694C162.574 9.27955 162.835 10.1852 162.835 11.4339V15.9417C162.835 16.3671 162.849 16.7856 162.876 17.1973C162.903 17.5952 162.931 17.8628 162.958 18H161.373L161.312 16.9091H161.27C161.216 17.0326 161.133 17.1767 161.023 17.3413C160.914 17.4923 160.776 17.6364 160.612 17.7736C160.447 17.8971 160.248 18.0069 160.015 18.1029C159.782 18.199 159.507 18.247 159.192 18.247C158.821 18.247 158.471 18.1784 158.142 18.0412C157.826 17.9039 157.545 17.7118 157.298 17.4648C157.065 17.2178 156.879 16.9297 156.742 16.6003C156.619 16.2573 156.557 15.8868 156.557 15.4888ZM159.541 16.8268C159.775 16.8268 159.981 16.7924 160.159 16.7238C160.337 16.6552 160.488 16.5729 160.612 16.4768C160.749 16.3808 160.859 16.2779 160.941 16.1681C161.037 16.0446 161.12 15.9417 161.188 15.8593V13.6775L160.653 13.6981C159.857 13.7255 159.253 13.8628 158.842 14.1098C158.43 14.3568 158.224 14.7547 158.224 15.3036C158.224 15.8113 158.341 16.1955 158.574 16.4563C158.807 16.7033 159.13 16.8268 159.541 16.8268ZM164.902 13.2041C164.902 12.2024 165.032 11.3653 165.293 10.6929C165.553 10.0205 165.89 9.47852 166.301 9.06685C166.713 8.65519 167.18 8.36702 167.701 8.20236C168.222 8.02397 168.744 7.93477 169.265 7.93477C169.581 7.93477 169.855 7.96222 170.089 8.01711C170.322 8.05827 170.514 8.11316 170.665 8.18177V3.44762L172.332 3.26237V18H170.809V16.9503H170.768C170.727 17.0326 170.651 17.1492 170.541 17.3002C170.432 17.4374 170.281 17.5815 170.089 17.7324C169.897 17.8696 169.656 17.9863 169.368 18.0823C169.08 18.1921 168.744 18.247 168.36 18.247C167.893 18.247 167.447 18.1578 167.022 17.9794C166.61 17.7873 166.246 17.4923 165.931 17.0943C165.615 16.6827 165.361 16.1612 165.169 15.53C164.991 14.8851 164.902 14.1098 164.902 13.2041ZM168.813 16.765C169.073 16.765 169.307 16.7307 169.512 16.6621C169.718 16.5935 169.897 16.5111 170.047 16.4151C170.198 16.3053 170.322 16.1955 170.418 16.0858C170.528 15.976 170.61 15.8799 170.665 15.7976V9.70494C170.514 9.60888 170.336 9.52655 170.13 9.45794C169.938 9.38933 169.691 9.35502 169.389 9.35502C169.005 9.35502 168.641 9.42363 168.298 9.56085C167.969 9.68435 167.68 9.89705 167.433 10.1989C167.186 10.5008 166.987 10.8919 166.837 11.3722C166.699 11.8525 166.631 12.4425 166.631 13.1423C166.631 13.8285 166.686 14.4048 166.795 14.8713C166.919 15.3242 167.084 15.6947 167.289 15.9828C167.495 16.2573 167.728 16.4563 167.989 16.5798C168.25 16.7033 168.524 16.765 168.813 16.765ZM181.222 11.4545C181.222 11.8799 181.208 12.2504 181.181 12.566C181.153 12.8679 181.126 13.1355 181.098 13.3688H176.056C176.11 14.5351 176.357 15.3928 176.797 15.9417C177.249 16.4906 177.894 16.765 178.731 16.765C179.02 16.765 179.28 16.7307 179.514 16.6621C179.747 16.5935 179.946 16.5111 180.11 16.4151C180.289 16.319 180.433 16.223 180.543 16.1269C180.666 16.0309 180.755 15.9554 180.81 15.9005L181.428 17.0738C181.359 17.1424 181.256 17.2453 181.119 17.3825C180.982 17.506 180.797 17.6364 180.563 17.7736C180.33 17.8971 180.042 18.0069 179.699 18.1029C179.356 18.199 178.951 18.247 178.484 18.247C177.867 18.247 177.304 18.1441 176.797 17.9383C176.303 17.7324 175.877 17.4168 175.52 16.9914C175.177 16.5523 174.91 16.0034 174.718 15.3448C174.526 14.6724 174.429 13.8696 174.429 12.9365C174.429 12.0583 174.526 11.3036 174.718 10.6724C174.923 10.0274 175.198 9.4991 175.541 9.08744C175.884 8.67577 176.282 8.37388 176.735 8.18177C177.188 7.97594 177.675 7.87302 178.196 7.87302C179.143 7.87302 179.884 8.17491 180.419 8.77869C180.954 9.36874 181.222 10.2607 181.222 11.4545ZM178.093 9.23152C177.503 9.23152 177.03 9.47852 176.673 9.97252C176.316 10.4665 176.11 11.1801 176.056 12.1132H179.658C179.671 12.0446 179.678 11.9485 179.678 11.825C179.692 11.6878 179.699 11.5437 179.699 11.3928C179.699 10.7067 179.562 10.1784 179.287 9.80785C179.013 9.42363 178.615 9.23152 178.093 9.23152ZM188.632 18V11.6398C188.632 10.8302 188.516 10.247 188.282 9.89019C188.049 9.53341 187.672 9.35502 187.15 9.35502C186.876 9.35502 186.629 9.38933 186.409 9.45794C186.203 9.52655 186.018 9.61574 185.854 9.72552C185.689 9.82157 185.545 9.93135 185.421 10.0549C185.298 10.1784 185.195 10.2881 185.113 10.3842V18H183.445V8.12002H184.968V9.23152H185.01C185.078 9.12174 185.181 8.99138 185.318 8.84044C185.456 8.67577 185.627 8.52483 185.833 8.38761C186.039 8.23666 186.279 8.11316 186.553 8.01711C186.828 7.92105 187.137 7.87302 187.48 7.87302C188.605 7.87302 189.401 8.31213 189.867 9.19035C189.963 9.05313 190.094 8.90905 190.258 8.7581C190.423 8.59344 190.615 8.44936 190.835 8.32586C191.054 8.18863 191.301 8.07886 191.576 7.99652C191.85 7.91419 192.152 7.87302 192.481 7.87302C194.485 7.87302 195.487 9.03941 195.487 11.3722V18H193.819V11.6398C193.819 10.8302 193.675 10.247 193.387 9.89019C193.099 9.53341 192.673 9.35502 192.111 9.35502C191.644 9.35502 191.253 9.47166 190.938 9.70494C190.636 9.92449 190.396 10.1372 190.217 10.343C190.245 10.494 190.265 10.6586 190.279 10.837C190.293 11.0017 190.3 11.1801 190.3 11.3722V18H188.632ZM199.645 18H197.978V8.12002H199.645V18ZM198.822 5.73236C198.479 5.73236 198.205 5.62258 197.999 5.40303C197.793 5.18347 197.69 4.89531 197.69 4.53853C197.69 4.19548 197.793 3.91417 197.999 3.69462C198.205 3.47506 198.479 3.36528 198.822 3.36528C199.151 3.36528 199.419 3.47506 199.625 3.69462C199.831 3.91417 199.934 4.19548 199.934 4.53853C199.934 4.89531 199.831 5.18347 199.625 5.40303C199.419 5.62258 199.151 5.73236 198.822 5.73236ZM208.539 11.4545C208.539 11.8799 208.525 12.2504 208.498 12.566C208.47 12.8679 208.443 13.1355 208.416 13.3688H203.373C203.428 14.5351 203.675 15.3928 204.114 15.9417C204.566 16.4906 205.211 16.765 206.048 16.765C206.337 16.765 206.597 16.7307 206.831 16.6621C207.064 16.5935 207.263 16.5111 207.428 16.4151C207.606 16.319 207.75 16.223 207.86 16.1269C207.983 16.0309 208.072 15.9554 208.127 15.9005L208.745 17.0738C208.676 17.1424 208.573 17.2453 208.436 17.3825C208.299 17.506 208.114 17.6364 207.88 17.7736C207.647 17.8971 207.359 18.0069 207.016 18.1029C206.673 18.199 206.268 18.247 205.801 18.247C205.184 18.247 204.621 18.1441 204.114 17.9383C203.62 17.7324 203.194 17.4168 202.837 16.9914C202.494 16.5523 202.227 16.0034 202.035 15.3448C201.843 14.6724 201.747 13.8696 201.747 12.9365C201.747 12.0583 201.843 11.3036 202.035 10.6724C202.241 10.0274 202.515 9.4991 202.858 9.08744C203.201 8.67577 203.599 8.37388 204.052 8.18177C204.505 7.97594 204.992 7.87302 205.513 7.87302C206.46 7.87302 207.201 8.17491 207.736 8.77869C208.271 9.36874 208.539 10.2607 208.539 11.4545ZM205.41 9.23152C204.82 9.23152 204.347 9.47852 203.99 9.97252C203.633 10.4665 203.428 11.1801 203.373 12.1132H206.975C206.988 12.0446 206.995 11.9485 206.995 11.825C207.009 11.6878 207.016 11.5437 207.016 11.3928C207.016 10.7067 206.879 10.1784 206.604 9.80785C206.33 9.42363 205.932 9.23152 205.41 9.23152ZM214.671 13.2041C214.671 12.2024 214.802 11.3653 215.062 10.6929C215.323 10.0205 215.659 9.47852 216.071 9.06685C216.483 8.65519 216.949 8.36702 217.471 8.20236C217.992 8.02397 218.514 7.93477 219.035 7.93477C219.351 7.93477 219.625 7.96222 219.858 8.01711C220.092 8.05827 220.284 8.11316 220.435 8.18177V3.44762L222.102 3.26237V18H220.579V16.9503H220.538C220.496 17.0326 220.421 17.1492 220.311 17.3002C220.201 17.4374 220.051 17.5815 219.858 17.7324C219.666 17.8696 219.426 17.9863 219.138 18.0823C218.85 18.1921 218.514 18.247 218.129 18.247C217.663 18.247 217.217 18.1578 216.791 17.9794C216.38 17.7873 216.016 17.4923 215.701 17.0943C215.385 16.6827 215.131 16.1612 214.939 15.53C214.761 14.8851 214.671 14.1098 214.671 13.2041ZM218.582 16.765C218.843 16.765 219.076 16.7307 219.282 16.6621C219.488 16.5935 219.666 16.5111 219.817 16.4151C219.968 16.3053 220.092 16.1955 220.188 16.0858C220.298 15.976 220.38 15.8799 220.435 15.7976V9.70494C220.284 9.60888 220.105 9.52655 219.9 9.45794C219.707 9.38933 219.46 9.35502 219.159 9.35502C218.774 9.35502 218.411 9.42363 218.068 9.56085C217.738 9.68435 217.45 9.89705 217.203 10.1989C216.956 10.5008 216.757 10.8919 216.606 11.3722C216.469 11.8525 216.4 12.4425 216.4 13.1423C216.4 13.8285 216.455 14.4048 216.565 14.8713C216.689 15.3242 216.853 15.6947 217.059 15.9828C217.265 16.2573 217.498 16.4563 217.759 16.5798C218.02 16.7033 218.294 16.765 218.582 16.765ZM230.992 11.4545C230.992 11.8799 230.978 12.2504 230.951 12.566C230.923 12.8679 230.896 13.1355 230.868 13.3688H225.825C225.88 14.5351 226.127 15.3928 226.566 15.9417C227.019 16.4906 227.664 16.765 228.501 16.765C228.789 16.765 229.05 16.7307 229.283 16.6621C229.517 16.5935 229.716 16.5111 229.88 16.4151C230.059 16.319 230.203 16.223 230.312 16.1269C230.436 16.0309 230.525 15.9554 230.58 15.9005L231.198 17.0738C231.129 17.1424 231.026 17.2453 230.889 17.3825C230.752 17.506 230.566 17.6364 230.333 17.7736C230.1 17.8971 229.812 18.0069 229.469 18.1029C229.125 18.199 228.721 18.247 228.254 18.247C227.637 18.247 227.074 18.1441 226.566 17.9383C226.072 17.7324 225.647 17.4168 225.29 16.9914C224.947 16.5523 224.679 16.0034 224.487 15.3448C224.295 14.6724 224.199 13.8696 224.199 12.9365C224.199 12.0583 224.295 11.3036 224.487 10.6724C224.693 10.0274 224.968 9.4991 225.311 9.08744C225.654 8.67577 226.052 8.37388 226.505 8.18177C226.957 7.97594 227.445 7.87302 227.966 7.87302C228.913 7.87302 229.654 8.17491 230.189 8.77869C230.724 9.36874 230.992 10.2607 230.992 11.4545ZM227.863 9.23152C227.273 9.23152 226.8 9.47852 226.443 9.97252C226.086 10.4665 225.88 11.1801 225.825 12.1132H229.427C229.441 12.0446 229.448 11.9485 229.448 11.825C229.462 11.6878 229.469 11.5437 229.469 11.3928C229.469 10.7067 229.331 10.1784 229.057 9.80785C228.782 9.42363 228.384 9.23152 227.863 9.23152ZM237.558 9.58144C237.517 9.55399 237.428 9.51969 237.291 9.47852C237.153 9.43735 236.968 9.41677 236.735 9.41677C236.213 9.41677 235.802 9.56085 235.5 9.84902C235.212 10.1235 235.006 10.4254 234.882 10.7547V18H233.215V8.12002H234.738V9.45794H234.779C234.848 9.26583 234.937 9.08058 235.047 8.90219C235.157 8.71008 235.294 8.54541 235.459 8.40819C235.623 8.25724 235.815 8.14061 236.035 8.05827C236.268 7.97594 236.543 7.93477 236.858 7.93477C237.092 7.93477 237.277 7.95536 237.414 7.99652C237.565 8.03769 237.682 8.072 237.764 8.09944L237.558 9.58144ZM92.6088 40L89.6654 34.1749C89.5145 34.1887 89.3567 34.2024 89.192 34.2161C89.0273 34.2161 88.8627 34.2161 88.698 34.2161H87.9158V40H86.1251V25.7975H88.7803C90.4956 25.7975 91.7581 26.1337 92.5677 26.8061C93.391 27.4648 93.8027 28.4528 93.8027 29.7701C93.8027 30.7169 93.6037 31.5265 93.2058 32.1989C92.8078 32.8713 92.1972 33.3859 91.3738 33.7427L94.7083 40H92.6088ZM91.8884 29.873C91.8884 28.9674 91.6346 28.3018 91.1268 27.8764C90.6328 27.4373 89.8507 27.2178 88.7803 27.2178H87.9158V32.7958H88.698C89.7821 32.7958 90.5848 32.542 91.1063 32.0343C91.6277 31.5265 91.8884 30.8061 91.8884 29.873ZM95.7346 35.06C95.7346 34.1543 95.8375 33.3722 96.0434 32.7135C96.2629 32.0549 96.5511 31.5197 96.9078 31.108C97.2783 30.6826 97.6969 30.3739 98.1634 30.1818C98.6437 29.9759 99.1514 29.873 99.6866 29.873C100.235 29.873 100.743 29.9759 101.21 30.1818C101.676 30.3739 102.081 30.6826 102.424 31.108C102.767 31.5197 103.035 32.0549 103.227 32.7135C103.433 33.3722 103.536 34.1543 103.536 35.06C103.536 35.9794 103.433 36.7684 103.227 37.4271C103.021 38.0858 102.733 38.6278 102.362 39.0532C102.006 39.4648 101.587 39.7667 101.107 39.9588C100.627 40.1509 100.119 40.247 99.5837 40.247C99.0348 40.247 98.5271 40.1509 98.0605 39.9588C97.594 39.7667 97.1892 39.4648 96.8461 39.0532C96.503 38.6278 96.2286 38.0926 96.0228 37.4477C95.8307 36.789 95.7346 35.9931 95.7346 35.06ZM101.807 35.06C101.807 33.7427 101.615 32.789 101.23 32.1989C100.846 31.5952 100.311 31.2933 99.6248 31.2933C98.9387 31.2933 98.4036 31.5952 98.0193 32.1989C97.6488 32.789 97.4636 33.7427 97.4636 35.06C97.4636 36.3773 97.6557 37.3242 98.0399 37.9005C98.4242 38.4768 98.9593 38.765 99.6454 38.765C100.332 38.765 100.86 38.4768 101.23 37.9005C101.615 37.3242 101.807 36.3773 101.807 35.06ZM109.754 31.4785H107.593V36.9537C107.593 37.6535 107.682 38.1338 107.86 38.3945C108.039 38.6415 108.341 38.765 108.766 38.765C109.013 38.765 109.226 38.7307 109.404 38.6621C109.582 38.5935 109.713 38.5317 109.795 38.4768L110.021 39.8148C109.953 39.8696 109.788 39.952 109.527 40.0617C109.267 40.1852 108.917 40.247 108.478 40.247C107.627 40.247 106.989 40.0137 106.564 39.5472C106.138 39.0669 105.925 38.2779 105.925 37.1801V31.4785H104.732V30.367L105.925 30.12L106.111 27.3619H107.593V30.12H109.96L109.754 31.4785ZM117.844 33.4545C117.844 33.8799 117.83 34.2504 117.803 34.566C117.775 34.8679 117.748 35.1355 117.72 35.3688H112.678C112.732 36.5351 112.979 37.3928 113.419 37.9417C113.871 38.4906 114.516 38.765 115.353 38.765C115.642 38.765 115.902 38.7307 116.136 38.6621C116.369 38.5935 116.568 38.5111 116.732 38.4151C116.911 38.319 117.055 38.223 117.165 38.1269C117.288 38.0309 117.377 37.9554 117.432 37.9005L118.05 39.0738C117.981 39.1424 117.878 39.2453 117.741 39.3825C117.604 39.506 117.419 39.6364 117.185 39.7736C116.952 39.8971 116.664 40.0069 116.321 40.1029C115.978 40.199 115.573 40.247 115.106 40.247C114.489 40.247 113.926 40.1441 113.419 39.9383C112.925 39.7324 112.499 39.4168 112.142 38.9914C111.799 38.5523 111.532 38.0034 111.34 37.3448C111.148 36.6724 111.051 35.8696 111.051 34.9365C111.051 34.0583 111.148 33.3036 111.34 32.6724C111.545 32.0274 111.82 31.4991 112.163 31.0874C112.506 30.6758 112.904 30.3739 113.357 30.1818C113.81 29.9759 114.297 29.873 114.818 29.873C115.765 29.873 116.506 30.1749 117.041 30.7787C117.576 31.3687 117.844 32.2607 117.844 33.4545ZM114.715 31.2315C114.125 31.2315 113.652 31.4785 113.295 31.9725C112.938 32.4665 112.732 33.1801 112.678 34.1132H116.28C116.293 34.0446 116.3 33.9485 116.3 33.825C116.314 33.6878 116.321 33.5437 116.321 33.3928C116.321 32.7067 116.184 32.1784 115.909 31.8079C115.635 31.4236 115.237 31.2315 114.715 31.2315ZM125.46 40V33.6398C125.46 32.8027 125.316 32.2058 125.028 31.849C124.753 31.4785 124.328 31.2933 123.752 31.2933C123.258 31.2933 122.846 31.4168 122.517 31.6638C122.187 31.9108 121.927 32.1509 121.735 32.3842V40H120.067V30.12H121.59V31.2315H121.632C121.673 31.1492 121.762 31.0325 121.899 30.8816C122.036 30.7169 122.215 30.566 122.434 30.4288C122.654 30.2778 122.915 30.1475 123.217 30.0377C123.518 29.9279 123.861 29.873 124.246 29.873C124.685 29.873 125.083 29.9416 125.44 30.0789C125.796 30.2024 126.098 30.4082 126.345 30.6964C126.592 30.9845 126.784 31.3619 126.921 31.8284C127.059 32.2813 127.127 32.8439 127.127 33.5163V40H125.46ZM148.209 25.7975L144.751 40H143.146L140.985 31.0669C140.834 30.4494 140.703 29.873 140.593 29.3379C140.484 28.8027 140.422 28.3773 140.408 28.0617H140.367C140.367 28.3773 140.312 28.7958 140.202 29.3173C140.093 29.8387 139.962 30.4082 139.811 31.0257L137.609 40H136.003L132.628 25.7975H134.542L136.312 34.4425C136.449 35.1012 136.566 35.7255 136.662 36.3156C136.772 36.8919 136.834 37.3379 136.847 37.6535H136.888C136.902 37.3379 136.971 36.8782 137.094 36.2744C137.232 35.6706 137.376 35.0463 137.527 34.4013L139.626 25.7975H141.334L143.393 34.4425C143.544 35.1012 143.681 35.7255 143.804 36.3156C143.928 36.8919 143.997 37.3379 144.01 37.6535H144.051C144.065 37.3379 144.127 36.8782 144.237 36.2744C144.346 35.6569 144.47 35.0188 144.607 34.3602L146.398 25.7975H148.209ZM151.423 40H149.756V30.12H151.423V40ZM150.6 27.7324C150.257 27.7324 149.983 27.6226 149.777 27.403C149.571 27.1835 149.468 26.8953 149.468 26.5385C149.468 26.1955 149.571 25.9142 149.777 25.6946C149.983 25.4751 150.257 25.3653 150.6 25.3653C150.929 25.3653 151.197 25.4751 151.403 25.6946C151.609 25.9142 151.712 26.1955 151.712 26.5385C151.712 26.8953 151.609 27.1835 151.403 27.403C151.197 27.6226 150.929 27.7324 150.6 27.7324ZM159.37 40V33.6398C159.37 32.8027 159.226 32.2058 158.938 31.849C158.664 31.4785 158.238 31.2933 157.662 31.2933C157.168 31.2933 156.756 31.4168 156.427 31.6638C156.097 31.9108 155.837 32.1509 155.645 32.3842V40H153.977V30.12H155.501V31.2315H155.542C155.583 31.1492 155.672 31.0325 155.809 30.8816C155.947 30.7169 156.125 30.566 156.344 30.4288C156.564 30.2778 156.825 30.1475 157.127 30.0377C157.429 29.9279 157.772 29.873 158.156 29.873C158.595 29.873 158.993 29.9416 159.35 30.0789C159.706 30.2024 160.008 30.4082 160.255 30.6964C160.502 30.9845 160.694 31.3619 160.832 31.8284C160.969 32.2813 161.037 32.8439 161.037 33.5163V40H159.37ZM167.745 31.4785H165.584V36.9537C165.584 37.6535 165.673 38.1338 165.851 38.3945C166.03 38.6415 166.332 38.765 166.757 38.765C167.004 38.765 167.217 38.7307 167.395 38.6621C167.573 38.5935 167.704 38.5317 167.786 38.4768L168.012 39.8148C167.944 39.8696 167.779 39.952 167.518 40.0617C167.258 40.1852 166.908 40.247 166.469 40.247C165.618 40.247 164.98 40.0137 164.554 39.5472C164.129 39.0669 163.916 38.2779 163.916 37.1801V31.4785H162.723V30.367L163.916 30.12L164.102 27.3619H165.584V30.12H167.951L167.745 31.4785ZM175.835 33.4545C175.835 33.8799 175.821 34.2504 175.794 34.566C175.766 34.8679 175.739 35.1355 175.711 35.3688H170.669C170.723 36.5351 170.97 37.3928 171.41 37.9417C171.862 38.4906 172.507 38.765 173.344 38.765C173.633 38.765 173.893 38.7307 174.127 38.6621C174.36 38.5935 174.559 38.5111 174.723 38.4151C174.902 38.319 175.046 38.223 175.156 38.1269C175.279 38.0309 175.368 37.9554 175.423 37.9005L176.041 39.0738C175.972 39.1424 175.869 39.2453 175.732 39.3825C175.595 39.506 175.41 39.6364 175.176 39.7736C174.943 39.8971 174.655 40.0069 174.312 40.1029C173.969 40.199 173.564 40.247 173.097 40.247C172.48 40.247 171.917 40.1441 171.41 39.9383C170.916 39.7324 170.49 39.4168 170.133 38.9914C169.79 38.5523 169.523 38.0034 169.331 37.3448C169.139 36.6724 169.042 35.8696 169.042 34.9365C169.042 34.0583 169.139 33.3036 169.331 32.6724C169.536 32.0274 169.811 31.4991 170.154 31.0874C170.497 30.6758 170.895 30.3739 171.348 30.1818C171.801 29.9759 172.288 29.873 172.809 29.873C173.756 29.873 174.497 30.1749 175.032 30.7787C175.567 31.3687 175.835 32.2607 175.835 33.4545ZM172.706 31.2315C172.116 31.2315 171.643 31.4785 171.286 31.9725C170.929 32.4665 170.723 33.1801 170.669 34.1132H174.271C174.284 34.0446 174.291 33.9485 174.291 33.825C174.305 33.6878 174.312 33.5437 174.312 33.3928C174.312 32.7067 174.175 32.1784 173.9 31.8079C173.626 31.4236 173.228 31.2315 172.706 31.2315ZM182.401 31.5814C182.36 31.554 182.271 31.5197 182.134 31.4785C181.997 31.4374 181.811 31.4168 181.578 31.4168C181.057 31.4168 180.645 31.5609 180.343 31.849C180.055 32.1235 179.849 32.4254 179.725 32.7547V40H178.058V30.12H179.581V31.4579H179.623C179.691 31.2658 179.78 31.0806 179.89 30.9022C180 30.7101 180.137 30.5454 180.302 30.4082C180.466 30.2572 180.659 30.1406 180.878 30.0583C181.111 29.9759 181.386 29.9348 181.701 29.9348C181.935 29.9348 182.12 29.9554 182.257 29.9965C182.408 30.0377 182.525 30.072 182.607 30.0994L182.401 31.5814Z" fill="white"/>
<path d="M64.8008 3.17969H71.3152V36.5728H64.8008V3.17969Z" fill="white"/>
<path fill-rule="evenodd" clip-rule="evenodd" d="M64.8008 37.3362V36.5728H71.3152V37.3362L64.8008 37.3362ZM64.8008 40.39L64.8008 38.8631L71.3152 38.8631V40.39L64.8008 40.39ZM64.8008 43.4438V41.9169L71.3152 41.9169V43.4438L64.8008 43.4438ZM64.8008 46.4976V44.9707H71.3152V46.4976H64.8008ZM64.8008 49.5513V48.0245H71.3152V49.5513H64.8008ZM64.8008 52.6051V51.0782H71.3152V52.6051H64.8008ZM64.8008 55.6589V54.132H71.3152V55.6589L64.8008 55.6589ZM64.8008 58.7127V57.1858H71.3152V58.7127H64.8008ZM64.8008 61.7665L64.8008 60.2396H71.3152V61.7665H64.8008ZM64.8008 64.8203V63.2934H71.3152V64.8203L64.8008 64.8203ZM64.8008 67.8741L64.8008 66.3472H71.3152V67.8741L64.8008 67.8741ZM64.8008 70.9278V69.401H71.3152V70.9278H64.8008ZM64.8008 73.9816L64.8008 72.4547H71.3152L71.3152 73.9816H64.8008ZM64.8008 77.0354V75.5085H71.3152V77.0354H64.8008ZM64.8008 80.0892V78.5623H71.3152V80.0892H64.8008ZM64.8008 83.143V81.6161H71.3152V83.143H64.8008ZM64.8008 86.1968V84.6699H71.3152V86.1968L64.8008 86.1968ZM64.8008 89.2506V87.7237H71.3152V89.2506H64.8008ZM64.8008 92.3043V90.7775H71.3152V92.3043H64.8008ZM64.8008 95.3581L64.8008 93.8312H71.3152V95.3581H64.8008ZM64.8008 98.4119V96.885H71.3152V98.4119H64.8008ZM64.8008 101.466L64.8008 99.9388H71.3152L71.3152 101.466H64.8008ZM64.8008 104.519V102.993H71.3152V104.519H64.8008ZM64.8008 107.573V106.046L71.3152 106.046V107.573H64.8008ZM64.8008 110.627V109.1H71.3152V110.627H64.8008ZM64.8008 113.681V112.154H71.3152V113.681H64.8008Z" fill="white"/>
<circle cx="24.7388" cy="25.503" r="14.1031" fill="black"/>
<path fill-rule="evenodd" clip-rule="evenodd" d="M25.0755 14.8887L25.0693 14.5183L25.7469 14.071C25.8224 14.0211 25.8432 13.9195 25.7933 13.844C25.7435 13.7685 25.6418 13.7477 25.5663 13.7975L25.0627 14.13L25.0486 13.2897C25.0471 13.1993 24.9725 13.1272 24.882 13.1287C24.7916 13.1302 24.7195 13.2048 24.721 13.2953L24.7333 14.0287L24.3335 13.7683C24.2577 13.7189 24.1562 13.7403 24.1068 13.8162C24.0574 13.892 24.0788 13.9935 24.1547 14.0428L24.74 14.424L24.7478 14.8887H24.2348L23.9291 15.4183L23.6747 15.2481L23.6933 14.4363C23.6953 14.3459 23.6237 14.2709 23.5332 14.2688C23.4428 14.2667 23.3678 14.3384 23.3657 14.4288L23.3519 15.0321L22.6534 14.5648C22.5782 14.5145 22.4764 14.5347 22.4261 14.6099C22.3758 14.6851 22.396 14.7868 22.4712 14.8372L23.0809 15.245L22.639 15.4252C22.5552 15.4593 22.515 15.5549 22.5491 15.6387C22.5833 15.7225 22.6789 15.7627 22.7627 15.7286L23.4095 15.4649L23.7649 15.7026L23.5828 16.018L23.8239 16.4356L23.5401 16.6059L22.8139 16.2427C22.733 16.2023 22.6346 16.2351 22.5941 16.316C22.5537 16.3969 22.5865 16.4953 22.6674 16.5358L23.2071 16.8057L22.4865 17.2381C22.4089 17.2846 22.3837 17.3852 22.4303 17.4628C22.4768 17.5404 22.5775 17.5656 22.6551 17.519L23.284 17.1416L23.2585 17.6181C23.2536 17.7085 23.3229 17.7856 23.4133 17.7905C23.5036 17.7953 23.5808 17.726 23.5857 17.6357L23.6231 16.9382L23.9878 16.7194L24.2348 17.1473H24.7217L24.7272 17.479L24.0497 17.9264C23.9742 17.9763 23.9534 18.0779 24.0032 18.1534C24.0531 18.2289 24.1547 18.2497 24.2302 18.1998L24.7338 17.8674L24.7479 18.7076C24.7494 18.7981 24.824 18.8702 24.9145 18.8687C25.0049 18.8672 25.0771 18.7926 25.0755 18.7021L25.0632 17.9687L25.463 18.2291C25.5389 18.2785 25.6404 18.257 25.6897 18.1812C25.7391 18.1054 25.7177 18.0039 25.6419 17.9545L25.0565 17.5734L25.0494 17.1473H25.5388L25.7965 16.701L26.0729 16.8544L26.1215 17.6649C26.127 17.7552 26.2046 17.824 26.2949 17.8186C26.3852 17.8132 26.454 17.7356 26.4486 17.6453L26.4125 17.0429L27.1472 17.4508C27.2263 17.4947 27.3261 17.4662 27.37 17.3871C27.4139 17.308 27.3854 17.2082 27.3063 17.1643L26.6649 16.8083L27.0904 16.5922C27.171 16.5512 27.2032 16.4526 27.1623 16.372C27.1213 16.2913 27.0227 16.2591 26.942 16.3001L26.3192 16.6164L25.9604 16.4172L26.1908 16.018L25.9516 15.6035L26.2552 15.4213L26.9815 15.7844C27.0624 15.8249 27.1608 15.7921 27.2013 15.7112C27.2417 15.6302 27.2089 15.5318 27.128 15.4914L26.5883 15.2215L27.3089 14.7891C27.3865 14.7426 27.4116 14.6419 27.3651 14.5643C27.3185 14.4868 27.2179 14.4616 27.1403 14.5081L26.5113 14.8855L26.5369 14.4091C26.5418 14.3187 26.4724 14.2415 26.3821 14.2367C26.2917 14.2318 26.2146 14.3011 26.2097 14.3915L26.1723 15.089L25.7877 15.3197L25.5388 14.8887H25.0755Z" fill="white"/>
<path fill-rule="evenodd" clip-rule="evenodd" d="M20.5142 7.91632C20.549 7.88151 21.4733 5.17849 22.3227 2.62717L22.7393 1.37598L24.7251 1.39948L26.7109 1.42307L27.8007 4.69206C28.8191 7.7469 28.9052 7.96429 29.1151 8.01191C30.4197 8.30743 32.1976 9.0159 33.5336 9.77259L34.2222 10.1626L37.2404 8.66478C38.9004 7.84091 40.2866 7.16691 40.321 7.16691C40.3553 7.16691 41.0034 7.78847 41.7612 8.54806L43.1389 9.92921L41.6219 12.9953L40.1048 16.0613L40.4543 16.6784C41.1337 17.8779 41.8798 19.7321 42.2334 21.1004L42.3104 21.3979L45.3769 22.4373C47.0635 23.0089 48.5322 23.5154 48.6406 23.563C48.8364 23.6487 48.8378 23.662 48.8378 25.5753C48.8378 26.8886 48.8069 27.5203 48.7408 27.5611C48.6874 27.5941 47.2204 28.1038 45.4807 28.6938C43.741 29.2837 42.3092 29.8016 42.2991 29.8447C42.2889 29.8878 42.1354 30.395 41.9579 30.9719C41.5988 32.1394 41.1182 33.2645 40.5439 34.2826C40.334 34.6548 40.1623 35.0043 40.1623 35.0593C40.1623 35.1912 40.4726 35.8414 41.9185 38.739L43.1233 41.1535L41.7383 42.5974L40.3533 44.0415L37.3324 42.5288C35.6708 41.6968 34.2666 41.0161 34.2119 41.0161C34.1571 41.0161 33.9631 41.1104 33.7807 41.2255C32.8158 41.8351 31.2113 42.5134 29.7597 42.9257L28.9017 43.1693L27.8063 46.4554L26.7109 49.7415L24.7273 49.765C23.1875 49.7833 22.7346 49.7637 22.7032 49.6773C22.6809 49.6162 22.1975 48.1652 21.629 46.453C21.0604 44.7408 20.5517 43.2951 20.4984 43.2404C20.4451 43.1857 19.9677 43.0142 19.4375 42.8595C18.3501 42.542 17.2756 42.1036 16.3704 41.6079C16.033 41.4232 15.6256 41.2056 15.465 41.1244L15.1729 40.9767L12.1599 42.5091L9.14681 44.0415L7.71036 42.608L6.27382 41.1744L7.80763 38.1426L9.34143 35.1108L9.05979 34.6215C8.4766 33.6086 7.95493 32.423 7.51608 31.1131L7.06267 29.7602L5.36333 29.1782C4.42866 28.858 2.98362 28.3637 2.15226 28.0796L0.640625 27.5631V25.5748V23.5867L0.881611 23.489C1.0142 23.4352 2.46178 22.9437 4.09864 22.3966L7.07468 21.4019L7.32075 20.5453C7.64393 19.4206 8.3392 17.7477 8.87927 16.7954L9.31208 16.0323L7.82437 13.0433C7.00615 11.3994 6.33665 10.0068 6.33665 9.94894C6.33665 9.83898 8.96103 7.16691 9.06908 7.16691C9.10308 7.16691 10.493 7.83582 12.1579 8.65338L15.185 10.1398L16.2597 9.57888C17.448 8.95863 18.539 8.51465 19.7077 8.17572C20.1315 8.05277 20.4945 7.93605 20.5142 7.91632ZM36.0717 13.9997C33.6505 11.6422 30.9109 10.2616 27.3793 9.61896C26.1244 9.39069 23.437 9.39271 22.1541 9.6229C20.338 9.94885 18.9153 10.4144 17.4396 11.1656C13.7797 13.0289 10.9187 16.2628 9.53422 20.1015C9.18861 21.0598 9.0399 21.64 8.7813 23.0392C8.517 24.4695 8.54092 26.9229 8.83484 28.515C9.32119 31.1503 10.4964 33.7575 12.098 35.7546C13.7701 37.8394 16.4056 39.816 18.5953 40.6276C18.9139 40.7457 19.2535 40.8806 19.3499 40.9274C20.0729 41.2782 22.5036 41.7546 23.9943 41.8378C28.3491 42.0807 32.8828 40.3744 36.0279 37.3091C38.6341 34.7691 40.0423 32.0861 40.7701 28.2743C41.0208 26.9616 41.0267 24.3622 40.782 23.0295C40.1015 19.3235 38.6175 16.4785 36.0717 13.9997ZM9.70975 21.25C11.5343 14.9683 17.153 10.4227 23.6438 9.97727C24.174 9.94096 24.6275 9.9065 24.6516 9.9008C24.6757 9.8951 25.2056 9.92781 25.8291 9.9735C31.5215 10.39 36.4108 13.6871 38.8978 18.7861C41.472 24.0639 40.8354 30.463 37.2708 35.1389C34.8769 38.279 31.4048 40.3915 27.4558 41.1102C25.9119 41.3912 23.6682 41.3902 22.1103 41.108C15.5261 39.9152 10.4858 34.8706 9.31392 28.3007C8.92948 26.1459 9.08327 23.4068 9.70975 21.25ZM34.1144 15.4737C31.8528 13.3712 29.2023 12.1596 26.1228 11.8206C22.9417 11.4704 19.7106 12.273 16.9816 14.0911C15.6834 14.9562 14.0355 16.6002 13.2231 17.8412C12.0803 19.5864 11.3709 21.4147 11.0562 23.4257C10.7286 25.5188 10.9257 27.8667 11.6018 29.923C11.8762 30.7578 12.8311 32.7745 13.0302 32.9399C13.1519 33.041 13.2846 32.9436 15.5717 31.0742L16.438 30.3661L16.1413 30.2457C15.596 30.0244 15.5888 29.9856 16.0019 29.495C16.6938 28.6736 16.7659 28.5181 17.1223 27.0772C17.3127 26.3072 17.4882 25.6066 17.5122 25.5202C17.5362 25.4337 17.4654 25.5527 17.3548 25.7846L17.1536 26.2061L16.7595 25.905C14.9877 24.5512 15.3675 21.7161 17.4247 20.9395C18.3792 20.5792 19.5927 20.7878 20.2785 21.4301L20.5062 21.6433L21.1548 21.2946C21.8995 20.8944 22.8507 20.6242 24.023 20.4795C25.5741 20.2881 27.6888 20.7393 28.8706 21.5137C29.0995 21.6637 29.1069 21.6616 29.4723 21.3487C30.8042 20.2078 32.9788 20.7457 33.7463 22.4061C34.0628 23.0909 34.0783 24.1022 33.782 24.7492C33.58 25.1904 33.1374 25.7122 32.693 26.0331L32.4534 26.2062L32.3097 25.8467C32.2306 25.6491 32.1545 25.4988 32.1406 25.5129C32.0981 25.5559 32.8609 28.4353 32.9678 28.6351C33.0228 28.738 33.2675 29.0622 33.5115 29.3557C33.9955 29.9377 34.012 30.1148 33.5902 30.1992C33.4434 30.2285 33.3044 30.2834 33.2812 30.3209C33.2408 30.3863 36.0376 32.7426 36.2545 32.8259C36.3929 32.879 37.008 31.796 37.4341 30.7491C37.7995 29.8512 38.1589 28.5494 38.3278 27.5115C38.461 26.6932 38.4601 24.3426 38.3263 23.5215C37.8038 20.3153 36.3648 17.5659 34.1144 15.4737ZM27.8327 21.837C27.6495 21.7341 27.1841 21.5651 26.7985 21.4616C25.9882 21.2441 24.2496 21.154 23.5562 21.2935C22.831 21.4394 21.9942 21.7115 21.7303 21.8874L21.4818 22.0529L22.1246 22.2405C22.4782 22.3437 22.9801 22.5284 23.2398 22.651L23.7122 22.874L23.9692 22.562C24.1105 22.3904 24.262 22.25 24.3056 22.25C24.4049 22.25 24.7689 22.951 24.7036 23.0163C24.6773 23.0426 24.5947 23.0135 24.5201 22.9515C24.4054 22.8563 24.3201 22.893 23.9702 23.1884C23.7425 23.3807 23.4703 23.6641 23.3653 23.8183C23.118 24.1816 22.6829 25.3256 22.4606 26.1966C22.3023 26.8171 22.2184 27.95 22.3307 27.95C22.3555 27.95 22.5822 27.8134 22.8345 27.6465C23.0868 27.4797 23.5693 27.1928 23.9067 27.0092L24.5201 26.6753L24.5462 26.1288C24.573 25.5659 24.5289 25.4769 24.3464 25.7264C24.2544 25.8524 24.1952 25.8063 23.8767 25.3614C23.467 24.7887 23.4313 24.569 23.694 24.2349C23.8701 24.0108 23.9042 24.0038 24.8196 24.0038C25.6229 24.0038 25.7852 24.0277 25.9086 24.1642C26.1565 24.4382 26.0912 24.9158 25.7387 25.4067C25.5656 25.6479 25.4023 25.8453 25.3759 25.8453C25.3496 25.8453 25.2744 25.7762 25.2088 25.6919C25.1051 25.5585 25.0924 25.6124 25.1115 26.1031L25.1335 26.6678L25.6593 26.9687C25.9485 27.1342 26.4244 27.4226 26.717 27.6097C27.0095 27.7968 27.2758 27.95 27.3085 27.95C27.4105 27.95 27.3711 27.1454 27.2386 26.5197C26.9119 24.9767 26.3405 23.7485 25.6993 23.2113C25.3111 22.8861 25.2238 22.8473 25.0809 22.9367C24.9505 23.0181 24.9145 23.0167 24.9148 22.9303C24.9152 22.7752 25.2457 22.25 25.3428 22.25C25.3871 22.25 25.5403 22.396 25.6833 22.5744C25.9432 22.8985 25.9436 22.8987 26.1785 22.7446C26.3079 22.6598 26.808 22.4631 27.2899 22.3074L28.1659 22.0243L27.8327 21.837ZM19.1185 22.2989C19.7721 22.6625 19.8291 22.3222 19.1786 21.9407C18.8053 21.7218 18.2374 21.6539 18.0062 21.8006C17.9264 21.8512 18.0236 21.9082 18.3129 21.9805C18.5459 22.0387 18.9084 22.182 19.1185 22.2989ZM31.4736 21.9316C31.6812 21.8925 31.7324 21.8545 31.6488 21.8014C31.3226 21.5946 30.3971 21.8294 30.0928 22.1963C29.8596 22.4775 30.0984 22.4991 30.6346 22.2451C30.9346 22.1031 31.3121 21.962 31.4736 21.9316ZM22.597 23.4794C22.4759 23.4335 22.1296 23.3331 21.8274 23.2567C21.5251 23.1802 21.2134 23.0988 21.1347 23.0758C20.7745 22.9704 20.9028 23.8683 21.2917 24.1745C21.7424 24.5293 22.4043 24.3615 22.6832 23.822C22.8124 23.572 22.8094 23.5603 22.597 23.4794ZM27.7884 24.3546C28.266 24.3546 28.6826 23.9037 28.6826 23.3869C28.6826 23.1956 28.6531 23.043 28.6169 23.0476C28.5807 23.0523 28.1667 23.1554 27.6967 23.2769C26.7291 23.527 26.68 23.5958 27.1403 24.0564C27.3797 24.296 27.507 24.3546 27.7884 24.3546ZM26.3919 27.7064C25.9408 27.3718 25.4056 27.0135 25.2028 26.9102C24.9998 26.8068 24.8217 26.7223 24.807 26.7223C24.6588 26.7223 23.2903 27.6294 22.4672 28.2733C22.4466 28.2894 22.5417 28.4195 22.6785 28.5624C23.0708 28.9721 23.6663 29.1338 24.783 29.1338C25.9036 29.1338 26.6029 28.9512 26.9764 28.561L27.2122 28.3148L26.3919 27.7064ZM18.8516 33.8956C18.8649 33.8964 18.8995 33.8985 18.9101 33.8932C18.9372 33.8821 18.9379 33.8805 18.9456 33.8642C18.9482 33.8588 18.9515 33.8518 18.9567 33.8424L18.9758 33.8466V34.2236H18.9567L18.9523 34.2145C18.943 34.1953 18.9381 34.1851 18.9123 34.1685C18.9038 34.1652 18.8767 34.1658 18.8596 34.1662L18.8487 34.1664H17.7623V34.5751H17.7627V34.8526H17.7623V35.3101H18.944C18.9643 35.2999 18.9677 35.2888 18.9719 35.2754C18.9739 35.2691 18.976 35.2624 18.98 35.255H18.997V35.6404H18.98C18.9742 35.6295 18.9719 35.6218 18.9701 35.6158C18.9666 35.6042 18.9649 35.5986 18.944 35.5875C18.9356 35.5833 18.8932 35.579 18.8847 35.579H17.3705V35.5494L17.3734 35.5484C17.3876 35.5438 17.4158 35.5347 17.4276 35.5091C17.4348 35.4966 17.4344 35.4703 17.4341 35.4522L17.434 35.4435V34.0118C17.434 34.0097 17.434 33.9589 17.4298 33.9504C17.4194 33.9252 17.4101 33.9238 17.3952 33.9217C17.3889 33.9208 17.3815 33.9197 17.3726 33.9165V33.8953H18.8466L18.8516 33.8956ZM17.8485 34.8526V34.5751H18.4612C18.4654 34.5751 18.5141 34.5751 18.5226 34.5709C18.5501 34.5624 18.5607 34.5391 18.567 34.5159H18.5925V34.9055H18.567L18.5653 34.9006C18.5581 34.8804 18.554 34.8688 18.5226 34.8589C18.5051 34.852 18.492 34.8522 18.4737 34.8525L18.4612 34.8526H17.8485ZM15.1589 33.9228C15.1701 33.9268 15.179 33.9277 15.1865 33.9284C15.203 33.93 15.2122 33.931 15.2224 33.9631L15.2222 33.98C15.2218 34.0008 15.2213 34.0263 15.2246 34.0393V35.4562L15.2247 35.4623C15.2251 35.4781 15.226 35.5168 15.2224 35.524C15.2069 35.5465 15.1951 35.5465 15.1815 35.5465C15.1747 35.5465 15.1674 35.5465 15.1589 35.5494V35.579H15.6206V35.5494C15.5888 35.5494 15.5761 35.5388 15.5592 35.5134C15.5554 35.5058 15.5567 35.4645 15.557 35.4542L15.5571 35.4519V34.9285H15.5558V34.59H15.5528V34.1749H16.1437L16.1617 34.1747C16.2416 34.1733 16.461 34.1697 16.527 34.2765C16.563 34.3337 16.563 34.4205 16.5313 34.4735C16.4576 34.6 16.2712 34.5935 16.1881 34.5906C16.178 34.5903 16.1694 34.59 16.1628 34.59H15.6416V34.8653H16.023L16.4635 35.4879L16.4783 35.5134C16.4847 35.5261 16.4847 35.5261 16.4847 35.5345L16.4466 35.5557V35.579H16.957L16.9612 35.5557C16.9508 35.5524 16.9424 35.5498 16.9353 35.5477C16.919 35.5427 16.9101 35.5401 16.9027 35.5351C16.8939 35.5293 16.8872 35.5202 16.8725 35.5004L16.8553 35.4774L16.4317 34.8801C16.5609 34.8505 16.7177 34.7996 16.813 34.6514C16.9019 34.5053 16.9019 34.2935 16.8278 34.1643C16.6859 33.9059 16.3979 33.8953 16.2178 33.8953H15.1589V33.9228ZM19.4168 33.9296C19.4537 33.9505 19.4701 33.9598 19.4773 33.9738C19.483 33.9849 19.4828 33.9993 19.4825 34.0247L19.4823 34.0457V35.4519L19.4824 35.4557L19.4825 35.4627C19.4828 35.4811 19.4833 35.5072 19.4781 35.5176C19.4675 35.5473 19.4358 35.5494 19.423 35.5494V35.579H19.8148L19.8148 34.1643H20.321L20.345 34.1642C20.4901 34.1634 20.741 34.162 20.8632 34.3803C20.9776 34.5815 20.9754 34.9373 20.859 35.1364C20.7533 35.3158 20.5971 35.3151 20.436 35.3144L20.4057 35.3143H19.9006V35.579H20.393C20.6684 35.579 20.9585 35.5727 21.1512 35.2444C21.2995 34.9881 21.2868 34.4883 21.1555 34.2575C20.9585 33.908 20.6154 33.8996 20.3867 33.8953H19.4125V33.9271L19.4168 33.9296ZM25.281 33.9312L25.2912 33.9352C25.3282 33.9494 25.353 33.9589 25.3565 33.9885V35.4414C25.3565 35.4517 25.3567 35.4607 25.3569 35.4685C25.3574 35.491 25.3577 35.5037 25.3522 35.5127C25.3452 35.5242 25.3288 35.53 25.2919 35.5431L25.2803 35.5473V35.579H25.7716V35.5451C25.6848 35.524 25.6806 35.5155 25.6806 35.4414L25.6806 34.0159C25.6805 33.9794 25.6805 33.9622 25.6888 33.9515C25.6962 33.9418 25.7102 33.9373 25.7367 33.9287L25.7547 33.9228V33.8953H25.2655V33.925L25.281 33.9312ZM26.1803 33.925C26.1863 33.9273 26.1916 33.9288 26.1964 33.9302C26.2136 33.935 26.2242 33.938 26.2375 33.9694C26.2447 33.9839 26.2442 34.0139 26.2439 34.0316L26.2438 34.0393V35.4519L26.2439 35.4587C26.2442 35.4749 26.2447 35.5046 26.2375 35.5155C26.229 35.5408 26.2111 35.5446 26.1935 35.5483C26.189 35.5493 26.1846 35.5502 26.1803 35.5515V35.579H26.5848L26.589 35.5557L26.5848 35.5542C26.5486 35.5409 26.5462 35.54 26.534 35.5155C26.5318 35.507 26.5318 35.4583 26.5318 35.4541V34.3634V33.9431H26.62V33.9452L26.6716 33.9313V33.8953H26.2163C26.1993 33.8932 26.1951 33.8932 26.1824 33.8932L26.1803 33.925ZM26.62 34.4571L27.5781 35.4752C27.6056 35.5007 27.6183 35.5134 27.6098 35.5367L27.5611 35.5494V35.5811H27.9932V35.5557C27.985 35.5516 27.9783 35.5495 27.9725 35.5476C27.9572 35.5427 27.9483 35.5398 27.936 35.5091C27.9307 35.495 27.9313 35.4661 27.9316 35.4495L27.9318 35.4414V34.0245L27.9316 34.0135C27.9312 33.9959 27.9305 33.9677 27.9339 33.961C27.9487 33.9356 27.972 33.9292 27.9889 33.9292V33.8953H27.5781V33.9292C27.6014 33.9292 27.631 33.9398 27.6374 33.9589C27.6409 33.9642 27.64 34.0024 27.6396 34.0183V34.0183V34.0184L27.6395 34.0245V35.0601L26.62 33.9668V34.4571ZM28.4382 34.2278H28.4043V33.8424H28.4382V33.8635C28.4488 33.8826 28.4615 33.8932 28.4826 33.8932C28.4929 33.8976 28.5032 33.8969 28.5156 33.8961C28.5211 33.8957 28.527 33.8953 28.5335 33.8953H29.9927C30.0223 33.8838 30.0225 33.8825 30.0261 33.8647C30.0271 33.8596 30.0284 33.853 30.0308 33.8445H30.0626V34.2299H30.0393C30.0393 34.213 30.0287 34.1897 30.0033 34.1812C29.997 34.1765 29.9766 34.1741 29.9613 34.1723L29.9515 34.1711L29.9482 34.1706C29.9059 34.1685 29.855 34.1685 29.8317 34.1685H29.4082V35.4456L29.408 35.4551C29.4076 35.4731 29.4068 35.5065 29.4103 35.5134C29.4314 35.5473 29.4378 35.5515 29.4653 35.5515L29.4632 35.579H29.0269V35.5494L29.0313 35.5494C29.0547 35.5495 29.0574 35.5495 29.0714 35.5155C29.0714 35.5104 29.0715 35.5055 29.0717 35.5008L29.0725 35.4858L29.073 35.4752L29.0734 35.4652L29.0735 35.4562V34.1685H28.5271C28.525 34.1685 28.4742 34.1685 28.4678 34.1706C28.4445 34.1812 28.4382 34.1897 28.4382 34.2278ZM31.9543 33.8956C31.9676 33.8964 32.0022 33.8985 32.0129 33.8932C32.0399 33.8821 32.0407 33.8805 32.0484 33.8642L32.0529 33.8548C32.0547 33.8512 32.0568 33.8471 32.0595 33.8424L32.0785 33.8466V34.2236H32.0595L32.055 34.2145C32.0458 34.1953 32.0408 34.1851 32.015 34.1685C32.0066 34.1652 31.9795 34.1658 31.9623 34.1662L31.9514 34.1664H30.865V34.5751H30.866V34.8526H30.865V35.3101H32.0467C32.067 35.2999 32.0704 35.2888 32.0746 35.2754C32.0766 35.2691 32.0787 35.2624 32.0828 35.255H32.0997V35.6404H32.0828C32.0791 35.6336 32.0768 35.6281 32.0752 35.6234L32.0728 35.6158C32.0693 35.6042 32.0676 35.5986 32.0467 35.5875C32.0383 35.5833 31.9959 35.579 31.9874 35.579H30.4732V35.5494L30.4761 35.5484C30.4903 35.5438 30.5185 35.5347 30.5304 35.5091C30.5375 35.4966 30.5371 35.4703 30.5368 35.4522L30.5367 35.4435V34.0118C30.5367 34.0097 30.5367 33.9589 30.5325 33.9504C30.5221 33.9252 30.5128 33.9238 30.498 33.9217C30.4945 33.9212 30.4906 33.9206 30.4864 33.9197C30.483 33.9189 30.4793 33.9179 30.4753 33.9165V33.8953H31.9493L31.9543 33.8956ZM30.9518 34.5751V34.8526H31.5639L31.5764 34.8525C31.5947 34.8522 31.6078 34.852 31.6253 34.8589C31.6567 34.8688 31.6608 34.8804 31.668 34.9006L31.6698 34.9055H31.6952V34.5159H31.6698C31.6634 34.5391 31.6528 34.5624 31.6253 34.5709C31.6168 34.5751 31.5681 34.5751 31.5639 34.5751H30.9518ZM32.5173 33.9228C32.5285 33.9268 32.5374 33.9277 32.5449 33.9284C32.5614 33.93 32.5706 33.931 32.5808 33.9631L32.5806 33.9798C32.5802 34.0006 32.5797 34.0263 32.583 34.0393V35.4562L32.5831 35.4623C32.5835 35.4781 32.5844 35.5168 32.5808 35.524C32.5653 35.5465 32.5535 35.5465 32.5399 35.5465C32.5365 35.5465 32.5329 35.5465 32.5292 35.5469C32.5272 35.5471 32.5251 35.5474 32.523 35.5478C32.5211 35.5482 32.5192 35.5487 32.5173 35.5494V35.579H32.979V35.5494C32.9472 35.5494 32.9345 35.5388 32.9176 35.5134C32.9138 35.5058 32.9151 35.4646 32.9154 35.4542L32.9155 35.4519V35.0551H32.9136V34.59H32.9112V34.1749H33.5021L33.5201 34.1747C33.6 34.1733 33.8194 34.1697 33.8854 34.2765C33.9214 34.3337 33.9214 34.4205 33.8897 34.4735C33.816 34.6 33.6296 34.5935 33.5465 34.5906L33.5319 34.5902L33.5212 34.59H32.9993V34.8653H33.3814L33.8219 35.4879L33.8367 35.5134L33.8368 35.5134C33.8389 35.5178 33.8404 35.5207 33.8413 35.5229L33.8421 35.5251L33.8427 35.5274C33.8431 35.5293 33.8431 35.5313 33.8431 35.5345L33.805 35.5557V35.579H34.3154L34.3196 35.5557C34.3092 35.5524 34.3008 35.5498 34.2937 35.5477L34.2936 35.5477L34.2935 35.5476L34.2934 35.5476C34.2773 35.5427 34.2685 35.54 34.2611 35.5351C34.2523 35.5293 34.2456 35.5202 34.231 35.5004L34.2309 35.5004L34.2137 35.4774L33.7901 34.8801C33.9193 34.8505 34.076 34.7996 34.1713 34.6514C34.2603 34.5053 34.2603 34.2935 34.1862 34.1643C34.0443 33.9059 33.7562 33.8953 33.5762 33.8953H32.5173V33.9228ZM22.1557 33.9631C22.1444 33.944 22.1303 33.9313 22.0993 33.9313L22.1021 33.8995H22.6526V33.9356L22.647 33.9355C22.6163 33.9354 22.5962 33.9354 22.5962 33.9673C22.5962 33.9673 22.6131 34.0266 22.6131 34.0309L22.966 35.0432L23.3584 34.0266C23.3588 34.0254 23.3594 34.0237 23.3602 34.0217C23.3618 34.0177 23.3642 34.0124 23.3668 34.0066C23.374 33.9905 23.3829 33.9707 23.381 33.9652C23.3706 33.9385 23.3601 33.9363 23.3427 33.9326C23.3366 33.9313 23.3298 33.9298 23.3217 33.9271L23.3246 33.8995H23.9033V33.9334L23.8989 33.9334C23.8769 33.9333 23.8686 33.9333 23.8554 33.9631C23.8501 33.9807 23.857 33.9947 23.867 34.0151L23.8695 34.0203L24.2647 35.0601L24.6289 34.016C24.6318 34.0076 24.6374 33.9821 24.6374 33.9546L24.5781 33.9228V33.8995H25.0976V33.9313C25.0722 33.9356 25.0553 33.9419 25.0327 33.9694C25.0251 33.978 25.0213 33.9931 25.018 34.0067C25.0163 34.0133 25.0148 34.0196 25.0129 34.0245L24.4991 35.4646C24.486 35.486 24.4864 35.4946 24.4872 35.5121C24.4875 35.5173 24.4878 35.5231 24.4878 35.5303L24.5442 35.56L24.5386 35.5832H23.9485V35.5557L23.9564 35.5536C23.9903 35.5447 24.005 35.5408 24.005 35.5112C24.0069 35.5055 23.9984 35.4841 23.9919 35.4677L23.9894 35.4614C23.9874 35.4564 23.9859 35.4523 23.9852 35.4498L23.59 34.4269L23.1891 35.471C23.1891 35.4805 23.1876 35.4901 23.1862 35.4996C23.1854 35.5049 23.1847 35.5102 23.1841 35.5155C23.1837 35.5197 23.1834 35.524 23.1834 35.5282L23.2399 35.5557V35.5832H22.6442V35.5536L22.6921 35.5409C22.7006 35.5197 22.695 35.4795 22.6837 35.4562L22.1755 34.0139L22.1718 34.0045L22.1686 33.9961L22.1686 33.9961C22.1643 33.9845 22.159 33.9705 22.1557 33.9631Z" fill="white"/>
</svg>
