<svg width="90" height="49" viewBox="0 0 107 49" fill="none" xmlns="http://www.w3.org/2000/svg">
<path fill-rule="evenodd" clip-rule="evenodd" d="M15.3017 21.2896L12.1792 16.2063H20.4998L23.5076 21.2896H15.3017ZM96.9346 21.2896H82.4263L84.1812 16.2063H95.1822L96.9346 21.2896ZM65.8729 16.2063C68.075 17.4353 69.8289 19.1297 71.1349 21.2896H61.3024C59.9095 20.6773 58.2418 20.3711 56.2996 20.3711H51.595V21.2896H44.2143V16.2063H65.8729ZM40.6261 16.2063L37.5234 21.2896H29.3026L32.3249 16.2063H40.6261Z" fill="white"/>
<path fill-rule="evenodd" clip-rule="evenodd" d="M18.4209 36.5396L21.5745 31.5018L21.5466 31.4563H31.3181L31.2904 31.5018L34.4342 36.5396H18.4209ZM100.439 31.4563L102.192 36.5396H98.9719H94.5314H84.8238H80.2901H77.1618L78.9166 31.4563H86.4775L85.2483 35.2347H94.1077L92.8809 31.4563H100.439ZM73.6688 31.4563C73.6688 31.4601 73.6688 31.4639 73.6688 31.4677C73.6688 33.2862 73.4969 34.9769 73.153 36.5396H65.656C66.0888 35.1203 66.3052 33.4296 66.3052 31.4677C66.3052 31.4639 66.3052 31.4601 66.3052 31.4563H73.6688ZM44.2143 31.4563V36.5396H51.5949V31.4563H44.2143Z" fill="white"/>
<path fill-rule="evenodd" clip-rule="evenodd" d="M44.2143 46.7063H65.9997C65.9091 46.7582 65.8178 46.8094 65.7257 46.8597C63.1803 48.2574 60.1348 48.9563 56.5893 48.9563H44.2143V46.7063ZM40.7785 46.7063H32.342L33.6939 48.9563H42.1825L40.7785 46.7063ZM20.4549 46.7063L19.103 48.9563H10.6484L12.0569 46.7063H20.4549ZM73.6522 46.7063H81.5165L80.7845 48.9563H72.8754L73.6522 46.7063ZM97.8324 46.7063H105.696L106.472 48.9563H98.5629L97.8324 46.7063Z" fill="white"/>
<path fill-rule="evenodd" clip-rule="evenodd" d="M14.805 3.11539L13.5275 0.956299H5.15816L6.4844 3.11539H14.805ZM17.8128 8.19872H9.60688L15.8798 18.4108L4.95361 35.8654H13.4082L20.5673 23.9506H20.84L25.3498 31.4563H27.3182L27.2904 31.5018L30.0134 35.8654H36.4877L25.5957 18.4108L31.8286 8.19872H23.6078L20.84 12.854H20.5673L17.8128 8.19872ZM26.6301 3.11539H34.9313L36.2491 0.956299H27.9138L26.6301 3.11539ZM38.5195 35.8654H40.2143V31.4563H47.595V35.8654H50.8945C54.44 35.8654 57.4854 35.1665 60.0309 33.7688C60.8456 33.3234 61.5998 32.8163 62.2933 32.2475C62.3012 31.9925 62.3052 31.7325 62.3052 31.4677L62.3052 31.4563H63.1782C64.2636 30.399 65.1747 29.1641 65.9116 27.7518C67.2866 25.1381 67.9741 22.0131 67.9741 18.3768C67.9741 14.7518 67.2866 11.6381 65.9116 9.03584C65.7615 8.74944 65.6043 8.4704 65.4401 8.19872H55.6076C55.7794 8.27424 55.947 8.35442 56.1104 8.43925C57.5991 9.21198 58.7184 10.4165 59.4684 12.0529C60.2298 13.6893 60.6104 15.7972 60.6104 18.3768C60.6104 20.979 60.2298 23.104 59.4684 24.7518C58.7184 26.3881 57.5934 27.5983 56.0934 28.3824C54.6048 29.1552 52.7695 29.5415 50.5877 29.5415H45.9002L45.9002 8.19872H38.5195V35.8654ZM73.3945 35.8654H69.2892C69.5423 34.4936 69.6688 33.0277 69.6688 31.4677V31.4563H68.7027L76.7316 8.19872H91.2398L100.777 35.8654H97.9592L96.4392 31.4563H91.4365L90.2835 27.9052H77.6793L76.524 31.4563H74.9166L73.3945 35.8654ZM38.5195 3.11539H60.1781C60.1405 3.09442 60.1028 3.07359 60.065 3.05289C57.5309 1.65516 54.5082 0.956299 50.9968 0.956299H38.5195V3.11539ZM78.4864 3.11539H89.4874L88.7431 0.956299H79.2317L78.4864 3.11539ZM88.4129 22.1438L84.1238 8.93357H83.8511L79.5536 22.1438H88.4129Z" fill="white"/>
<path fill-rule="evenodd" clip-rule="evenodd" d="M11.3017 21.2896L8.1792 16.2063H16.4998L19.5076 21.2896H11.3017ZM92.9346 21.2896H78.4263L80.1812 16.2063H91.1822L92.9346 21.2896ZM61.8729 16.2063C64.075 17.4353 65.8289 19.1297 67.1349 21.2896H57.3024C55.9095 20.6773 54.2418 20.3711 52.2996 20.3711H47.595V21.2896H40.2143V16.2063H61.8729ZM36.6261 16.2063L33.5234 21.2896H25.3026L28.3249 16.2063H36.6261Z" fill="white"/>
<path fill-rule="evenodd" clip-rule="evenodd" d="M14.4209 36.5396L17.5745 31.5018L17.5466 31.4563H27.3181L27.2904 31.5018L30.4342 36.5396H14.4209ZM96.4392 31.4563L98.1916 36.5396H94.9719H90.5314H80.8238H76.2901H73.1618L74.9166 31.4563H82.4775L81.2483 35.2347H90.1077L88.8809 31.4563H96.4392ZM69.6688 31.4563C69.6688 31.4601 69.6688 31.4639 69.6688 31.4677C69.6688 33.2862 69.4969 34.9769 69.153 36.5396H61.656C62.0888 35.1203 62.3052 33.4296 62.3052 31.4677C62.3052 31.4639 62.3052 31.4601 62.3052 31.4563H69.6688ZM40.2143 31.4563V36.5396H47.5949V31.4563H40.2143Z" fill="white"/>
<path fill-rule="evenodd" clip-rule="evenodd" d="M40.2143 46.7063H61.9997C61.9091 46.7582 61.8178 46.8094 61.7257 46.8597C59.1803 48.2574 56.1348 48.9563 52.5893 48.9563H40.2143V46.7063ZM36.7785 46.7063H28.342L29.6939 48.9563H38.1825L36.7785 46.7063ZM16.4549 46.7063L15.103 48.9563H6.64844L8.05688 46.7063H16.4549ZM69.6522 46.7063H77.5165L76.7845 48.9563H68.8754L69.6522 46.7063ZM93.8324 46.7063H101.696L102.472 48.9563H94.5629L93.8324 46.7063Z" fill="white"/>
<path fill-rule="evenodd" clip-rule="evenodd" d="M10.805 3.11539L9.52748 0.956299H1.15816L2.4844 3.11539H10.805ZM13.8128 8.19872H5.60688L11.8798 18.4108L0.953613 35.8654H9.40816L16.5673 23.9506H16.84L21.3498 31.4563H23.3182L23.2904 31.5018L26.0134 35.8654H32.4877L21.5957 18.4108L27.8286 8.19872H19.6078L16.84 12.854H16.5673L13.8128 8.19872ZM22.6301 3.11539H30.9313L32.2491 0.956299H23.9138L22.6301 3.11539ZM34.5195 35.8654H36.2143V31.4563H43.595V35.8654H46.8945C50.44 35.8654 53.4854 35.1665 56.0309 33.7688C56.8456 33.3234 57.5998 32.8163 58.2933 32.2475C58.3012 31.9925 58.3052 31.7325 58.3052 31.4677L58.3052 31.4563H59.1782C60.2636 30.399 61.1747 29.1641 61.9116 27.7518C63.2866 25.1381 63.9741 22.0131 63.9741 18.3768C63.9741 14.7518 63.2866 11.6381 61.9116 9.03584C61.7615 8.74944 61.6043 8.4704 61.4401 8.19872H51.6076C51.7794 8.27424 51.947 8.35442 52.1104 8.43925C53.5991 9.21198 54.7184 10.4165 55.4684 12.0529C56.2298 13.6893 56.6104 15.7972 56.6104 18.3768C56.6104 20.979 56.2298 23.104 55.4684 24.7518C54.7184 26.3881 53.5934 27.5983 52.0934 28.3824C50.6048 29.1552 48.7695 29.5415 46.5877 29.5415H41.9002L41.9002 8.19872H34.5195V35.8654ZM69.3945 35.8654H65.2892C65.5423 34.4936 65.6688 33.0277 65.6688 31.4677V31.4563H64.7027L72.7316 8.19872H87.2398L96.7772 35.8654H93.9592L92.4392 31.4563H87.4365L86.2835 27.9052H73.6793L72.524 31.4563H70.9166L69.3945 35.8654ZM34.5195 3.11539H56.1781C56.1405 3.09442 56.1028 3.07359 56.065 3.05289C53.5309 1.65516 50.5082 0.956299 46.9968 0.956299H34.5195V3.11539ZM74.4864 3.11539H85.4874L84.7431 0.956299H75.2317L74.4864 3.11539ZM84.4129 22.1438L80.1238 8.93357H79.8511L75.5536 22.1438H84.4129Z" fill="white"/>
<path fill-rule="evenodd" clip-rule="evenodd" d="M15.3017 21.2896L12.1792 16.2063H20.4998L23.5076 21.2896H15.3017ZM96.9346 21.2896H82.4263L84.1812 16.2063H95.1822L96.9346 21.2896ZM65.8729 16.2063C68.075 17.4353 69.8289 19.1297 71.1349 21.2896H61.3024C59.9095 20.6773 58.2418 20.3711 56.2996 20.3711H51.595V21.2896H44.2143V16.2063H65.8729ZM40.6261 16.2063L37.5234 21.2896H29.3026L32.3249 16.2063H40.6261Z" fill="#B34FFF" style="mix-blend-mode:multiply"/>
<path fill-rule="evenodd" clip-rule="evenodd" d="M18.4209 36.5396L21.5745 31.5018L21.5466 31.4563H31.3181L31.2904 31.5018L34.4342 36.5396H18.4209ZM100.439 31.4563L102.192 36.5396H98.9719H94.5314H84.8238H80.2901H77.1618L78.9166 31.4563H86.4775L85.2483 35.2347H94.1077L92.8809 31.4563H100.439ZM73.6688 31.4563C73.6688 31.4601 73.6688 31.4639 73.6688 31.4677C73.6688 33.2862 73.4969 34.9769 73.153 36.5396H65.656C66.0888 35.1203 66.3052 33.4296 66.3052 31.4677C66.3052 31.4639 66.3052 31.4601 66.3052 31.4563H73.6688ZM44.2143 31.4563V36.5396H51.5949V31.4563H44.2143Z" fill="#B34FFF" style="mix-blend-mode:multiply"/>
<path fill-rule="evenodd" clip-rule="evenodd" d="M44.2143 46.7063H65.9997C65.9091 46.7582 65.8178 46.8094 65.7257 46.8597C63.1803 48.2574 60.1348 48.9563 56.5893 48.9563H44.2143V46.7063ZM40.7785 46.7063H32.342L33.6939 48.9563H42.1825L40.7785 46.7063ZM20.4549 46.7063L19.103 48.9563H10.6484L12.0569 46.7063H20.4549ZM73.6522 46.7063H81.5165L80.7845 48.9563H72.8754L73.6522 46.7063ZM97.8324 46.7063H105.696L106.472 48.9563H98.5629L97.8324 46.7063Z" fill="#B34FFF" style="mix-blend-mode:multiply"/>
<path fill-rule="evenodd" clip-rule="evenodd" d="M14.805 3.11539L13.5275 0.956299H5.15816L6.4844 3.11539H14.805ZM17.8128 8.19872H9.60688L15.8798 18.4108L4.95361 35.8654H13.4082L20.5673 23.9506H20.84L25.3498 31.4563H27.3182L27.2904 31.5018L30.0134 35.8654H36.4877L25.5957 18.4108L31.8286 8.19872H23.6078L20.84 12.854H20.5673L17.8128 8.19872ZM26.6301 3.11539H34.9313L36.2491 0.956299H27.9138L26.6301 3.11539ZM38.5195 35.8654H40.2143V31.4563H47.595V35.8654H50.8945C54.44 35.8654 57.4854 35.1665 60.0309 33.7688C60.8456 33.3234 61.5998 32.8163 62.2933 32.2475C62.3012 31.9925 62.3052 31.7325 62.3052 31.4677L62.3052 31.4563H63.1782C64.2636 30.399 65.1747 29.1641 65.9116 27.7518C67.2866 25.1381 67.9741 22.0131 67.9741 18.3768C67.9741 14.7518 67.2866 11.6381 65.9116 9.03584C65.7615 8.74944 65.6043 8.4704 65.4401 8.19872H55.6076C55.7794 8.27424 55.947 8.35442 56.1104 8.43925C57.5991 9.21198 58.7184 10.4165 59.4684 12.0529C60.2298 13.6893 60.6104 15.7972 60.6104 18.3768C60.6104 20.979 60.2298 23.104 59.4684 24.7518C58.7184 26.3881 57.5934 27.5983 56.0934 28.3824C54.6048 29.1552 52.7695 29.5415 50.5877 29.5415H45.9002L45.9002 8.19872H38.5195V35.8654ZM73.3945 35.8654H69.2892C69.5423 34.4936 69.6688 33.0277 69.6688 31.4677V31.4563H68.7027L76.7316 8.19872H91.2398L100.777 35.8654H97.9592L96.4392 31.4563H91.4365L90.2835 27.9052H77.6793L76.524 31.4563H74.9166L73.3945 35.8654ZM38.5195 3.11539H60.1781C60.1405 3.09442 60.1028 3.07359 60.065 3.05289C57.5309 1.65516 54.5082 0.956299 50.9968 0.956299H38.5195V3.11539ZM78.4864 3.11539H89.4874L88.7431 0.956299H79.2317L78.4864 3.11539ZM88.4129 22.1438L84.1238 8.93357H83.8511L79.5536 22.1438H88.4129Z" fill="#B34FFF" style="mix-blend-mode:multiply"/>
<path fill-rule="evenodd" clip-rule="evenodd" d="M11.3017 21.2896L8.1792 16.2063H16.4998L19.5076 21.2896H11.3017ZM92.9346 21.2896H78.4263L80.1812 16.2063H91.1822L92.9346 21.2896ZM61.8729 16.2063C64.075 17.4353 65.8289 19.1297 67.1349 21.2896H57.3024C55.9095 20.6773 54.2418 20.3711 52.2996 20.3711H47.595V21.2896H40.2143V16.2063H61.8729ZM36.6261 16.2063L33.5234 21.2896H25.3026L28.3249 16.2063H36.6261Z" fill="#5AFFBA" style="mix-blend-mode:multiply"/>
<path fill-rule="evenodd" clip-rule="evenodd" d="M14.4209 36.5396L17.5745 31.5018L17.5466 31.4563H27.3181L27.2904 31.5018L30.4342 36.5396H14.4209ZM96.4392 31.4563L98.1916 36.5396H94.9719H90.5314H80.8238H76.2901H73.1618L74.9166 31.4563H82.4775L81.2483 35.2347H90.1077L88.8809 31.4563H96.4392ZM69.6688 31.4563C69.6688 31.4601 69.6688 31.4639 69.6688 31.4677C69.6688 33.2862 69.4969 34.9769 69.153 36.5396H61.656C62.0888 35.1203 62.3052 33.4296 62.3052 31.4677C62.3052 31.4639 62.3052 31.4601 62.3052 31.4563H69.6688ZM40.2143 31.4563V36.5396H47.5949V31.4563H40.2143Z" fill="#5AFFBA" style="mix-blend-mode:multiply"/>
<path fill-rule="evenodd" clip-rule="evenodd" d="M40.2143 46.7063H61.9997C61.9091 46.7582 61.8178 46.8094 61.7257 46.8597C59.1803 48.2574 56.1348 48.9563 52.5893 48.9563H40.2143V46.7063ZM36.7785 46.7063H28.342L29.6939 48.9563H38.1825L36.7785 46.7063ZM16.4549 46.7063L15.103 48.9563H6.64844L8.05688 46.7063H16.4549ZM69.6522 46.7063H77.5165L76.7845 48.9563H68.8754L69.6522 46.7063ZM93.8324 46.7063H101.696L102.472 48.9563H94.5629L93.8324 46.7063Z" fill="#5AFFBA" style="mix-blend-mode:multiply"/>
<path fill-rule="evenodd" clip-rule="evenodd" d="M10.805 3.11539L9.52748 0.956299H1.15816L2.4844 3.11539H10.805ZM13.8128 8.19872H5.60688L11.8798 18.4108L0.953613 35.8654H9.40816L16.5673 23.9506H16.84L21.3498 31.4563H23.3182L23.2904 31.5018L26.0134 35.8654H32.4877L21.5957 18.4108L27.8286 8.19872H19.6078L16.84 12.854H16.5673L13.8128 8.19872ZM22.6301 3.11539H30.9313L32.2491 0.956299H23.9138L22.6301 3.11539ZM34.5195 35.8654H36.2143V31.4563H43.595V35.8654H46.8945C50.44 35.8654 53.4854 35.1665 56.0309 33.7688C56.8456 33.3234 57.5998 32.8163 58.2933 32.2475C58.3012 31.9925 58.3052 31.7325 58.3052 31.4677L58.3052 31.4563H59.1782C60.2636 30.399 61.1747 29.1641 61.9116 27.7518C63.2866 25.1381 63.9741 22.0131 63.9741 18.3768C63.9741 14.7518 63.2866 11.6381 61.9116 9.03584C61.7615 8.74944 61.6043 8.4704 61.4401 8.19872H51.6076C51.7794 8.27424 51.947 8.35442 52.1104 8.43925C53.5991 9.21198 54.7184 10.4165 55.4684 12.0529C56.2298 13.6893 56.6104 15.7972 56.6104 18.3768C56.6104 20.979 56.2298 23.104 55.4684 24.7518C54.7184 26.3881 53.5934 27.5983 52.0934 28.3824C50.6048 29.1552 48.7695 29.5415 46.5877 29.5415H41.9002L41.9002 8.19872H34.5195V35.8654ZM69.3945 35.8654H65.2892C65.5423 34.4936 65.6688 33.0277 65.6688 31.4677V31.4563H64.7027L72.7316 8.19872H87.2398L96.7772 35.8654H93.9592L92.4392 31.4563H87.4365L86.2835 27.9052H73.6793L72.524 31.4563H70.9166L69.3945 35.8654ZM34.5195 3.11539H56.1781C56.1405 3.09442 56.1028 3.07359 56.065 3.05289C53.5309 1.65516 50.5082 0.956299 46.9968 0.956299H34.5195V3.11539ZM74.4864 3.11539H85.4874L84.7431 0.956299H75.2317L74.4864 3.11539ZM84.4129 22.1438L80.1238 8.93357H79.8511L75.5536 22.1438H84.4129Z" fill="#5AFFBA" style="mix-blend-mode:multiply"/>
</svg>
