<svg width="90" height="49" viewBox="0 0 107 49" fill="none" xmlns="http://www.w3.org/2000/svg">
<path fill-rule="evenodd" clip-rule="evenodd" d="M15.3012 21.2896L12.1787 16.2063H20.4993L23.5071 21.2896H15.3012ZM96.9341 21.2896H82.4259L84.1807 16.2063H95.1817L96.9341 21.2896ZM65.8724 16.2063C68.0745 17.4353 69.8285 19.1297 71.1344 21.2896H61.3019C59.909 20.6773 58.2414 20.3711 56.2991 20.3711H51.5945V21.2896H44.2138V16.2063H65.8724ZM40.6256 16.2063L37.523 21.2896H29.3021L32.3245 16.2063H40.6256Z" fill="#FF0000"/>
<path fill-rule="evenodd" clip-rule="evenodd" d="M18.4199 36.5396L21.5735 31.5018L21.5456 31.4563H31.3172L31.2894 31.5018L34.4332 36.5396H18.4199ZM100.438 31.4563L102.191 36.5396H98.971H94.5304H84.8228H80.2891H77.1608L78.9156 31.4563H86.4765L85.2473 35.2347H94.1067L92.8799 31.4563H100.438ZM73.6678 31.4563C73.6678 31.4601 73.6678 31.4639 73.6678 31.4677C73.6678 33.2862 73.4959 34.9769 73.152 36.5396H65.655C66.0878 35.1203 66.3042 33.4296 66.3042 31.4677C66.3042 31.4639 66.3042 31.4601 66.3042 31.4563H73.6678ZM44.2133 31.4563V36.5396H51.594V31.4563H44.2133Z" fill="#FF0000"/>
<path fill-rule="evenodd" clip-rule="evenodd" d="M44.2134 46.7063L65.9987 46.7063C65.9082 46.7582 65.8168 46.8094 65.7247 46.8597C63.1793 48.2574 60.1338 48.9563 56.5884 48.9563H44.2134V46.7063ZM40.7775 46.7063H32.341L33.6929 48.9563H42.1816L40.7775 46.7063ZM20.4539 46.7063L19.102 48.9563H10.6475L12.0559 46.7063H20.4539ZM73.6512 46.7063H81.5155L80.7835 48.9563H72.8745L73.6512 46.7063ZM97.8314 46.7063H105.695L106.471 48.9563H98.562L97.8314 46.7063Z" fill="#FF0000"/>
<path fill-rule="evenodd" clip-rule="evenodd" d="M14.8045 3.11539L13.527 0.956299H5.15767L6.48391 3.11539H14.8045ZM17.8123 8.19872H9.60639L15.8793 18.4108L4.95312 35.8654H13.4077L20.5668 23.9506H20.8395L25.3493 31.4563H27.3177L27.2899 31.5018L30.0129 35.8654H36.4872L25.5952 18.4108L31.8282 8.19872H23.6073L20.8395 12.854H20.5668L17.8123 8.19872ZM26.6297 3.11539H34.9308L36.2486 0.956299H27.9134L26.6297 3.11539ZM38.519 35.8654H40.2138V31.4563H47.5945V35.8654H50.894C54.4395 35.8654 57.4849 35.1665 60.0304 33.7688C60.8451 33.3234 61.5993 32.8163 62.2929 32.2475C62.3007 31.9925 62.3047 31.7325 62.3047 31.4677L62.3047 31.4563H63.1777C64.2631 30.399 65.1742 29.1641 65.9111 27.7518C67.2861 25.1381 67.9736 22.0131 67.9736 18.3768C67.9736 14.7518 67.2861 11.6381 65.9111 9.03584C65.761 8.74944 65.6038 8.4704 65.4396 8.19872H55.6071C55.7789 8.27424 55.9465 8.35442 56.1099 8.43925C57.5986 9.21198 58.7179 10.4165 59.4679 12.0529C60.2293 13.6893 60.6099 15.7972 60.6099 18.3768C60.6099 20.979 60.2293 23.104 59.4679 24.7518C58.7179 26.3881 57.5929 27.5983 56.0929 28.3824C54.6043 29.1552 52.769 29.5415 50.5872 29.5415H45.8997L45.8997 8.19872H38.519L38.519 35.8654ZM73.394 35.8654H69.2887C69.5418 34.4936 69.6683 33.0277 69.6683 31.4677L69.6683 31.4563H68.7022L76.7311 8.19872H91.2393L100.777 35.8654H97.9587L96.4387 31.4563H91.4361L90.2831 27.9052H77.6788L76.5236 31.4563H74.9161L73.394 35.8654ZM38.519 3.11539H60.1776C60.14 3.09442 60.1023 3.07359 60.0645 3.05289C57.5304 1.65516 54.5077 0.956299 50.9963 0.956299H38.519L38.519 3.11539ZM78.4859 3.11539H89.4869L88.7426 0.956299H79.2313L78.4859 3.11539ZM88.4124 22.1438L84.1233 8.93357H83.8506L79.5531 22.1438H88.4124Z" fill="#FF0000"/>
<path fill-rule="evenodd" clip-rule="evenodd" d="M11.3012 21.2896L8.17871 16.2063H16.4993L19.5071 21.2896H11.3012ZM92.9341 21.2896H78.4259L80.1807 16.2063H91.1817L92.9341 21.2896ZM61.8724 16.2063C64.0745 17.4353 65.8285 19.1297 67.1344 21.2896H57.3019C55.909 20.6773 54.2414 20.3711 52.2991 20.3711H47.5945V21.2896H40.2138V16.2063H61.8724ZM36.6256 16.2063L33.523 21.2896H25.3021L28.3245 16.2063H36.6256Z" fill="#FF0000"/>
<path fill-rule="evenodd" clip-rule="evenodd" d="M14.4199 36.5396L17.5735 31.5018L17.5456 31.4563H27.3172L27.2894 31.5018L30.4332 36.5396H14.4199ZM96.4382 31.4563L98.1906 36.5396H94.971H90.5304H80.8228H76.2891H73.1608L74.9156 31.4563H82.4765L81.2473 35.2347H90.1067L88.8799 31.4563H96.4382ZM69.6678 31.4563C69.6678 31.4601 69.6678 31.4639 69.6678 31.4677C69.6678 33.2862 69.4959 34.9769 69.152 36.5396H61.655C62.0878 35.1203 62.3042 33.4296 62.3042 31.4677C62.3042 31.4639 62.3042 31.4601 62.3042 31.4563H69.6678ZM40.2133 31.4563V36.5396H47.594V31.4563H40.2133Z" fill="#FF0000"/>
<path fill-rule="evenodd" clip-rule="evenodd" d="M40.2134 46.7063L61.9987 46.7063C61.9082 46.7582 61.8168 46.8094 61.7247 46.8597C59.1793 48.2574 56.1338 48.9563 52.5884 48.9563H40.2134V46.7063ZM36.7775 46.7063H28.341L29.6929 48.9563H38.1816L36.7775 46.7063ZM16.4539 46.7063L15.102 48.9563H6.64746L8.05591 46.7063H16.4539ZM69.6512 46.7063H77.5155L76.7835 48.9563H68.8745L69.6512 46.7063ZM93.8314 46.7063H101.695L102.471 48.9563H94.562L93.8314 46.7063Z" fill="#FF0000"/>
<path fill-rule="evenodd" clip-rule="evenodd" d="M10.8045 3.11539L9.52699 0.956299H1.15767L2.48391 3.11539H10.8045ZM13.8123 8.19872H5.60639L11.8793 18.4108L0.953125 35.8654H9.40767L16.5668 23.9506H16.8395L21.3493 31.4563H23.3177L23.2899 31.5018L26.0129 35.8654H32.4872L21.5952 18.4108L27.8282 8.19872H19.6073L16.8395 12.854H16.5668L13.8123 8.19872ZM22.6297 3.11539H30.9308L32.2486 0.956299H23.9134L22.6297 3.11539ZM34.519 35.8654H36.2138V31.4563H43.5945V35.8654H46.894C50.4395 35.8654 53.4849 35.1665 56.0304 33.7688C56.8451 33.3234 57.5993 32.8163 58.2929 32.2475C58.3007 31.9925 58.3047 31.7325 58.3047 31.4677L58.3047 31.4563H59.1777C60.2631 30.399 61.1742 29.1641 61.9111 27.7518C63.2861 25.1381 63.9736 22.0131 63.9736 18.3768C63.9736 14.7518 63.2861 11.6381 61.9111 9.03584C61.761 8.74944 61.6038 8.4704 61.4396 8.19872H51.6071C51.7789 8.27424 51.9465 8.35442 52.1099 8.43925C53.5986 9.21198 54.7179 10.4165 55.4679 12.0529C56.2293 13.6893 56.6099 15.7972 56.6099 18.3768C56.6099 20.979 56.2293 23.104 55.4679 24.7518C54.7179 26.3881 53.5929 27.5983 52.0929 28.3824C50.6043 29.1552 48.769 29.5415 46.5872 29.5415H41.8997L41.8997 8.19872H34.519L34.519 35.8654ZM69.394 35.8654H65.2887C65.5418 34.4936 65.6683 33.0277 65.6683 31.4677L65.6683 31.4563H64.7022L72.7311 8.19872H87.2393L96.7767 35.8654H93.9587L92.4387 31.4563H87.4361L86.2831 27.9052H73.6788L72.5236 31.4563H70.9161L69.394 35.8654ZM34.519 3.11539H56.1776C56.14 3.09442 56.1023 3.07359 56.0645 3.05289C53.5304 1.65516 50.5077 0.956299 46.9963 0.956299H34.519L34.519 3.11539ZM74.4859 3.11539H85.4869L84.7426 0.956299H75.2313L74.4859 3.11539ZM84.4124 22.1438L80.1233 8.93357H79.8506L75.5531 22.1438H84.4124Z" fill="#FF0000"/>
<path fill-rule="evenodd" clip-rule="evenodd" d="M15.3012 21.2896L12.1787 16.2063H20.4993L23.5071 21.2896H15.3012ZM96.9341 21.2896H82.4259L84.1807 16.2063H95.1817L96.9341 21.2896ZM65.8724 16.2063C68.0745 17.4353 69.8285 19.1297 71.1344 21.2896H61.3019C59.909 20.6773 58.2414 20.3711 56.2991 20.3711H51.5945V21.2896H44.2138V16.2063H65.8724ZM40.6256 16.2063L37.523 21.2896H29.3021L32.3245 16.2063H40.6256Z" fill="#B34FFF" style="mix-blend-mode:multiply"/>
<path fill-rule="evenodd" clip-rule="evenodd" d="M18.4199 36.5396L21.5735 31.5018L21.5456 31.4563H31.3172L31.2894 31.5018L34.4332 36.5396H18.4199ZM100.438 31.4563L102.191 36.5396H98.971H94.5304H84.8228H80.2891H77.1608L78.9156 31.4563H86.4765L85.2473 35.2347H94.1067L92.8799 31.4563H100.438ZM73.6678 31.4563C73.6678 31.4601 73.6678 31.4639 73.6678 31.4677C73.6678 33.2862 73.4959 34.9769 73.152 36.5396H65.655C66.0878 35.1203 66.3042 33.4296 66.3042 31.4677C66.3042 31.4639 66.3042 31.4601 66.3042 31.4563H73.6678ZM44.2133 31.4563V36.5396H51.594V31.4563H44.2133Z" fill="#B34FFF" style="mix-blend-mode:multiply"/>
<path fill-rule="evenodd" clip-rule="evenodd" d="M44.2134 46.7063L65.9987 46.7063C65.9082 46.7582 65.8168 46.8094 65.7247 46.8597C63.1793 48.2574 60.1338 48.9563 56.5884 48.9563H44.2134V46.7063ZM40.7775 46.7063H32.341L33.6929 48.9563H42.1816L40.7775 46.7063ZM20.4539 46.7063L19.102 48.9563H10.6475L12.0559 46.7063H20.4539ZM73.6512 46.7063H81.5155L80.7835 48.9563H72.8745L73.6512 46.7063ZM97.8314 46.7063H105.695L106.471 48.9563H98.562L97.8314 46.7063Z" fill="#B34FFF" style="mix-blend-mode:multiply"/>
<path fill-rule="evenodd" clip-rule="evenodd" d="M14.8045 3.11539L13.527 0.956299H5.15767L6.48391 3.11539H14.8045ZM17.8123 8.19872H9.60639L15.8793 18.4108L4.95312 35.8654H13.4077L20.5668 23.9506H20.8395L25.3493 31.4563H27.3177L27.2899 31.5018L30.0129 35.8654H36.4872L25.5952 18.4108L31.8282 8.19872H23.6073L20.8395 12.854H20.5668L17.8123 8.19872ZM26.6297 3.11539H34.9308L36.2486 0.956299H27.9134L26.6297 3.11539ZM38.519 35.8654H40.2138V31.4563H47.5945V35.8654H50.894C54.4395 35.8654 57.4849 35.1665 60.0304 33.7688C60.8451 33.3234 61.5993 32.8163 62.2929 32.2475C62.3007 31.9925 62.3047 31.7325 62.3047 31.4677L62.3047 31.4563H63.1777C64.2631 30.399 65.1742 29.1641 65.9111 27.7518C67.2861 25.1381 67.9736 22.0131 67.9736 18.3768C67.9736 14.7518 67.2861 11.6381 65.9111 9.03584C65.761 8.74944 65.6038 8.4704 65.4396 8.19872H55.6071C55.7789 8.27424 55.9465 8.35442 56.1099 8.43925C57.5986 9.21198 58.7179 10.4165 59.4679 12.0529C60.2293 13.6893 60.6099 15.7972 60.6099 18.3768C60.6099 20.979 60.2293 23.104 59.4679 24.7518C58.7179 26.3881 57.5929 27.5983 56.0929 28.3824C54.6043 29.1552 52.769 29.5415 50.5872 29.5415H45.8997L45.8997 8.19872H38.519L38.519 35.8654ZM73.394 35.8654H69.2887C69.5418 34.4936 69.6683 33.0277 69.6683 31.4677V31.4563H68.7022L76.7311 8.19872H91.2393L100.777 35.8654H97.9587L96.4387 31.4563H91.4361L90.2831 27.9052H77.6788L76.5236 31.4563H74.9161L73.394 35.8654ZM38.519 3.11539H60.1776C60.14 3.09442 60.1023 3.07359 60.0645 3.05289C57.5304 1.65516 54.5077 0.956299 50.9963 0.956299H38.519L38.519 3.11539ZM78.4859 3.11539H89.4869L88.7426 0.956299H79.2313L78.4859 3.11539ZM88.4124 22.1438L84.1233 8.93357H83.8506L79.5531 22.1438H88.4124Z" fill="#B34FFF" style="mix-blend-mode:multiply"/>
<path fill-rule="evenodd" clip-rule="evenodd" d="M11.3012 21.2896L8.17871 16.2063H16.4993L19.5071 21.2896H11.3012ZM92.9341 21.2896H78.4259L80.1807 16.2063H91.1817L92.9341 21.2896ZM61.8724 16.2063C64.0745 17.4353 65.8285 19.1297 67.1344 21.2896H57.3019C55.909 20.6773 54.2414 20.3711 52.2991 20.3711H47.5945V21.2896H40.2138V16.2063H61.8724ZM36.6256 16.2063L33.523 21.2896H25.3021L28.3245 16.2063H36.6256Z" fill="#5AFFBA" style="mix-blend-mode:multiply"/>
<path fill-rule="evenodd" clip-rule="evenodd" d="M14.4199 36.5396L17.5735 31.5018L17.5456 31.4563H27.3172L27.2894 31.5018L30.4332 36.5396H14.4199ZM96.4382 31.4563L98.1906 36.5396H94.971H90.5304H80.8228H76.2891H73.1608L74.9156 31.4563H82.4765L81.2473 35.2347H90.1067L88.8799 31.4563H96.4382ZM69.6678 31.4563C69.6678 31.4601 69.6678 31.4639 69.6678 31.4677C69.6678 33.2862 69.4959 34.9769 69.152 36.5396H61.655C62.0878 35.1203 62.3042 33.4296 62.3042 31.4677C62.3042 31.4639 62.3042 31.4601 62.3042 31.4563H69.6678ZM40.2133 31.4563V36.5396H47.594V31.4563H40.2133Z" fill="#5AFFBA" style="mix-blend-mode:multiply"/>
<path fill-rule="evenodd" clip-rule="evenodd" d="M40.2134 46.7063L61.9987 46.7063C61.9082 46.7582 61.8168 46.8094 61.7247 46.8597C59.1793 48.2574 56.1338 48.9563 52.5884 48.9563H40.2134V46.7063ZM36.7775 46.7063H28.341L29.6929 48.9563H38.1816L36.7775 46.7063ZM16.4539 46.7063L15.102 48.9563H6.64746L8.05591 46.7063H16.4539ZM69.6512 46.7063H77.5155L76.7835 48.9563H68.8745L69.6512 46.7063ZM93.8314 46.7063H101.695L102.471 48.9563H94.562L93.8314 46.7063Z" fill="#5AFFBA" style="mix-blend-mode:multiply"/>
<path fill-rule="evenodd" clip-rule="evenodd" d="M10.8045 3.11539L9.52699 0.956299H1.15767L2.48391 3.11539H10.8045ZM13.8123 8.19872H5.60639L11.8793 18.4108L0.953125 35.8654H9.40767L16.5668 23.9506H16.8395L21.3493 31.4563H23.3177L23.2899 31.5018L26.0129 35.8654H32.4872L21.5952 18.4108L27.8282 8.19872H19.6073L16.8395 12.854H16.5668L13.8123 8.19872ZM22.6297 3.11539H30.9308L32.2486 0.956299H23.9134L22.6297 3.11539ZM34.519 35.8654H36.2138V31.4563H43.5945V35.8654H46.894C50.4395 35.8654 53.4849 35.1665 56.0304 33.7688C56.8451 33.3234 57.5993 32.8163 58.2929 32.2475C58.3007 31.9925 58.3047 31.7325 58.3047 31.4677L58.3047 31.4563H59.1777C60.2631 30.399 61.1742 29.1641 61.9111 27.7518C63.2861 25.1381 63.9736 22.0131 63.9736 18.3768C63.9736 14.7518 63.2861 11.6381 61.9111 9.03584C61.761 8.74944 61.6038 8.4704 61.4396 8.19872H51.6071C51.7789 8.27424 51.9465 8.35442 52.1099 8.43925C53.5986 9.21198 54.7179 10.4165 55.4679 12.0529C56.2293 13.6893 56.6099 15.7972 56.6099 18.3768C56.6099 20.979 56.2293 23.104 55.4679 24.7518C54.7179 26.3881 53.5929 27.5983 52.0929 28.3824C50.6043 29.1552 48.769 29.5415 46.5872 29.5415H41.8997L41.8997 8.19872H34.519L34.519 35.8654ZM69.394 35.8654H65.2887C65.5418 34.4936 65.6683 33.0277 65.6683 31.4677V31.4563H64.7022L72.7311 8.19872H87.2393L96.7767 35.8654H93.9587L92.4387 31.4563H87.4361L86.2831 27.9052H73.6788L72.5236 31.4563H70.9161L69.394 35.8654ZM34.519 3.11539H56.1776C56.14 3.09442 56.1023 3.07359 56.0645 3.05289C53.5304 1.65516 50.5077 0.956299 46.9963 0.956299H34.519L34.519 3.11539ZM74.4859 3.11539H85.4869L84.7426 0.956299H75.2313L74.4859 3.11539ZM84.4124 22.1438L80.1233 8.93357H79.8506L75.5531 22.1438H84.4124Z" fill="#5AFFBA" style="mix-blend-mode:multiply"/>
</svg>
